<?xml version="1.0" encoding="utf-8"?>
<svg xmlns="http://www.w3.org/2000/svg" xmlns:xlink="http://www.w3.org/1999/xlink" width="600" height="400" viewBox="0 0 2400 1600">
<defs>
  <clipPath id="clip850">
    <rect x="0" y="0" width="2400" height="1600"/>
  </clipPath>
</defs>
<path clip-path="url(#clip850)" d="M0 1600 L2400 1600 L2400 0 L0 0  Z" fill="#363d46" fill-rule="evenodd" fill-opacity="1"/>
<defs>
  <clipPath id="clip851">
    <rect x="480" y="0" width="1681" height="1600"/>
  </clipPath>
</defs>
<path clip-path="url(#clip850)" d="M246.83 1344.08 L2400 1344.08 L2400 0 L246.83 0  Z" fill="#30343b" fill-rule="evenodd" fill-opacity="1"/>
<defs>
  <clipPath id="clip852">
    <rect x="246" y="0" width="2154" height="1345"/>
  </clipPath>
</defs>
<polyline clip-path="url(#clip852)" style="stroke:#adb2b7; stroke-linecap:round; stroke-linejoin:round; stroke-width:3; stroke-opacity:0.1; fill:none" points="510.898,1344.08 510.898,0 "/>
<polyline clip-path="url(#clip852)" style="stroke:#adb2b7; stroke-linecap:round; stroke-linejoin:round; stroke-width:3; stroke-opacity:0.1; fill:none" points="917.157,1344.08 917.157,0 "/>
<polyline clip-path="url(#clip852)" style="stroke:#adb2b7; stroke-linecap:round; stroke-linejoin:round; stroke-width:3; stroke-opacity:0.1; fill:none" points="1323.42,1344.08 1323.42,0 "/>
<polyline clip-path="url(#clip852)" style="stroke:#adb2b7; stroke-linecap:round; stroke-linejoin:round; stroke-width:3; stroke-opacity:0.1; fill:none" points="1729.67,1344.08 1729.67,0 "/>
<polyline clip-path="url(#clip852)" style="stroke:#adb2b7; stroke-linecap:round; stroke-linejoin:round; stroke-width:3; stroke-opacity:0.1; fill:none" points="2135.93,1344.08 2135.93,0 "/>
<polyline clip-path="url(#clip850)" style="stroke:#adb2b7; stroke-linecap:round; stroke-linejoin:round; stroke-width:6; stroke-opacity:1; fill:none" points="246.83,1344.08 2400,1344.08 "/>
<polyline clip-path="url(#clip850)" style="stroke:#adb2b7; stroke-linecap:round; stroke-linejoin:round; stroke-width:6; stroke-opacity:1; fill:none" points="510.898,1344.08 510.898,1325.18 "/>
<polyline clip-path="url(#clip850)" style="stroke:#adb2b7; stroke-linecap:round; stroke-linejoin:round; stroke-width:6; stroke-opacity:1; fill:none" points="917.157,1344.08 917.157,1325.18 "/>
<polyline clip-path="url(#clip850)" style="stroke:#adb2b7; stroke-linecap:round; stroke-linejoin:round; stroke-width:6; stroke-opacity:1; fill:none" points="1323.42,1344.08 1323.42,1325.18 "/>
<polyline clip-path="url(#clip850)" style="stroke:#adb2b7; stroke-linecap:round; stroke-linejoin:round; stroke-width:6; stroke-opacity:1; fill:none" points="1729.67,1344.08 1729.67,1325.18 "/>
<polyline clip-path="url(#clip850)" style="stroke:#adb2b7; stroke-linecap:round; stroke-linejoin:round; stroke-width:6; stroke-opacity:1; fill:none" points="2135.93,1344.08 2135.93,1325.18 "/>
<path clip-path="url(#clip850)" d="M465.812 1402.83 L510.326 1402.83 L510.326 1408.74 L465.812 1408.74 L465.812 1402.83 Z" fill="#ffffff" fill-rule="nonzero" fill-opacity="1" /><path clip-path="url(#clip850)" d="M531.506 1422.17 L555.985 1422.17 L555.985 1428.08 L523.068 1428.08 L523.068 1422.17 Q527.062 1418.04 533.936 1411.1 Q540.846 1404.12 542.617 1402.1 Q545.985 1398.32 547.304 1395.71 Q548.659 1393.08 548.659 1390.54 Q548.659 1386.41 545.742 1383.81 Q542.86 1381.2 538.207 1381.2 Q534.909 1381.2 531.228 1382.35 Q527.582 1383.49 523.416 1385.82 L523.416 1378.74 Q527.652 1377.03 531.332 1376.17 Q535.013 1375.3 538.068 1375.3 Q546.124 1375.3 550.916 1379.33 Q555.707 1383.35 555.707 1390.09 Q555.707 1393.28 554.492 1396.17 Q553.311 1399.01 550.152 1402.9 Q549.284 1403.91 544.631 1408.74 Q539.978 1413.53 531.506 1422.17 Z" fill="#ffffff" fill-rule="nonzero" fill-opacity="1" /><path clip-path="url(#clip850)" d="M871.792 1402.83 L916.306 1402.83 L916.306 1408.74 L871.792 1408.74 L871.792 1402.83 Z" fill="#ffffff" fill-rule="nonzero" fill-opacity="1" /><path clip-path="url(#clip850)" d="M932.66 1422.17 L944.118 1422.17 L944.118 1382.62 L931.653 1385.12 L931.653 1378.74 L944.049 1376.24 L951.063 1376.24 L951.063 1422.17 L962.521 1422.17 L962.521 1428.08 L932.66 1428.08 L932.66 1422.17 Z" fill="#ffffff" fill-rule="nonzero" fill-opacity="1" /><path clip-path="url(#clip850)" d="M1323.42 1380.85 Q1318 1380.85 1315.26 1386.2 Q1312.55 1391.51 1312.55 1402.21 Q1312.55 1412.87 1315.26 1418.21 Q1318 1423.53 1323.42 1423.53 Q1328.87 1423.53 1331.57 1418.21 Q1334.32 1412.87 1334.32 1402.21 Q1334.32 1391.51 1331.57 1386.2 Q1328.87 1380.85 1323.42 1380.85 M1323.42 1375.3 Q1332.13 1375.3 1336.71 1382.21 Q1341.33 1389.08 1341.33 1402.21 Q1341.33 1415.3 1336.71 1422.21 Q1332.13 1429.08 1323.42 1429.08 Q1314.7 1429.08 1310.08 1422.21 Q1305.5 1415.3 1305.5 1402.21 Q1305.5 1389.08 1310.08 1382.21 Q1314.7 1375.3 1323.42 1375.3 Z" fill="#ffffff" fill-rule="nonzero" fill-opacity="1" /><path clip-path="url(#clip850)" d="M1715.25 1422.17 L1726.7 1422.17 L1726.7 1382.62 L1714.24 1385.12 L1714.24 1378.74 L1726.64 1376.24 L1733.65 1376.24 L1733.65 1422.17 L1745.11 1422.17 L1745.11 1428.08 L1715.25 1428.08 L1715.25 1422.17 Z" fill="#ffffff" fill-rule="nonzero" fill-opacity="1" /><path clip-path="url(#clip850)" d="M2127.91 1422.17 L2152.39 1422.17 L2152.39 1428.08 L2119.47 1428.08 L2119.47 1422.17 Q2123.47 1418.04 2130.34 1411.1 Q2137.25 1404.12 2139.02 1402.1 Q2142.39 1398.32 2143.71 1395.71 Q2145.06 1393.08 2145.06 1390.54 Q2145.06 1386.41 2142.15 1383.81 Q2139.27 1381.2 2134.61 1381.2 Q2131.31 1381.2 2127.63 1382.35 Q2123.99 1383.49 2119.82 1385.82 L2119.82 1378.74 Q2124.06 1377.03 2127.74 1376.17 Q2131.42 1375.3 2134.47 1375.3 Q2142.53 1375.3 2147.32 1379.33 Q2152.11 1383.35 2152.11 1390.09 Q2152.11 1393.28 2150.9 1396.17 Q2149.72 1399.01 2146.56 1402.9 Q2145.69 1403.91 2141.04 1408.74 Q2136.38 1413.53 2127.91 1422.17 Z" fill="#ffffff" fill-rule="nonzero" fill-opacity="1" /><path clip-path="url(#clip850)" d="M1067.38 1447.42 L1067.38 1454.72 L1058.98 1454.72 Q1054.25 1454.72 1052.39 1456.63 Q1050.57 1458.54 1050.57 1463.51 L1050.57 1468.23 L1065.04 1468.23 L1065.04 1475.06 L1050.57 1475.06 L1050.57 1521.71 L1041.74 1521.71 L1041.74 1475.06 L1033.34 1475.06 L1033.34 1468.23 L1041.74 1468.23 L1041.74 1464.51 Q1041.74 1455.58 1045.89 1451.52 Q1050.05 1447.42 1059.07 1447.42 L1067.38 1447.42 Z" fill="#ffffff" fill-rule="nonzero" fill-opacity="1" /><path clip-path="url(#clip850)" d="M1105.72 1476.45 Q1104.24 1475.59 1102.47 1475.2 Q1100.75 1474.77 1098.65 1474.77 Q1091.2 1474.77 1087.19 1479.64 Q1083.23 1484.47 1083.23 1493.54 L1083.23 1521.71 L1074.4 1521.71 L1074.4 1468.23 L1083.23 1468.23 L1083.23 1476.54 Q1086 1471.67 1090.44 1469.33 Q1094.88 1466.94 1101.23 1466.94 Q1102.13 1466.94 1103.23 1467.09 Q1104.33 1467.18 1105.67 1467.42 L1105.72 1476.45 Z" fill="#ffffff" fill-rule="nonzero" fill-opacity="1" /><path clip-path="url(#clip850)" d="M1158.52 1492.77 L1158.52 1497.07 L1118.13 1497.07 Q1118.7 1506.14 1123.57 1510.92 Q1128.49 1515.64 1137.23 1515.64 Q1142.29 1515.64 1147.01 1514.4 Q1151.79 1513.16 1156.47 1510.68 L1156.47 1518.98 Q1151.74 1520.99 1146.77 1522.04 Q1141.81 1523.09 1136.7 1523.09 Q1123.91 1523.09 1116.41 1515.64 Q1108.96 1508.19 1108.96 1495.49 Q1108.96 1482.37 1116.03 1474.68 Q1123.14 1466.94 1135.17 1466.94 Q1145.96 1466.94 1152.22 1473.91 Q1158.52 1480.84 1158.52 1492.77 M1149.73 1490.2 Q1149.64 1482.99 1145.68 1478.69 Q1141.76 1474.39 1135.27 1474.39 Q1127.92 1474.39 1123.48 1478.55 Q1119.08 1482.7 1118.41 1490.24 L1149.73 1490.2 Z" fill="#ffffff" fill-rule="nonzero" fill-opacity="1" /><path clip-path="url(#clip850)" d="M1178.19 1495.02 Q1178.19 1504.71 1182.15 1510.25 Q1186.16 1515.74 1193.13 1515.74 Q1200.1 1515.74 1204.11 1510.25 Q1208.12 1504.71 1208.12 1495.02 Q1208.12 1485.33 1204.11 1479.84 Q1200.1 1474.3 1193.13 1474.3 Q1186.16 1474.3 1182.15 1479.84 Q1178.19 1485.33 1178.19 1495.02 M1208.12 1513.68 Q1205.35 1518.46 1201.11 1520.8 Q1196.9 1523.09 1190.98 1523.09 Q1181.29 1523.09 1175.18 1515.36 Q1169.12 1507.62 1169.12 1495.02 Q1169.12 1482.41 1175.18 1474.68 Q1181.29 1466.94 1190.98 1466.94 Q1196.9 1466.94 1201.11 1469.28 Q1205.35 1471.58 1208.12 1476.35 L1208.12 1468.23 L1216.91 1468.23 L1216.91 1542.04 L1208.12 1542.04 L1208.12 1513.68 Z" fill="#ffffff" fill-rule="nonzero" fill-opacity="1" /><path clip-path="url(#clip850)" d="M1234.1 1500.6 L1234.1 1468.23 L1242.88 1468.23 L1242.88 1500.27 Q1242.88 1507.86 1245.84 1511.68 Q1248.8 1515.45 1254.72 1515.45 Q1261.83 1515.45 1265.94 1510.92 Q1270.09 1506.38 1270.09 1498.55 L1270.09 1468.23 L1278.88 1468.23 L1278.88 1521.71 L1270.09 1521.71 L1270.09 1513.49 Q1266.9 1518.36 1262.65 1520.75 Q1258.44 1523.09 1252.86 1523.09 Q1243.64 1523.09 1238.87 1517.36 Q1234.1 1511.63 1234.1 1500.6 M1256.2 1466.94 L1256.2 1466.94 Z" fill="#ffffff" fill-rule="nonzero" fill-opacity="1" /><path clip-path="url(#clip850)" d="M1342.71 1492.77 L1342.71 1497.07 L1302.32 1497.07 Q1302.89 1506.14 1307.76 1510.92 Q1312.68 1515.64 1321.42 1515.64 Q1326.48 1515.64 1331.2 1514.4 Q1335.98 1513.16 1340.66 1510.68 L1340.66 1518.98 Q1335.93 1520.99 1330.97 1522.04 Q1326 1523.09 1320.89 1523.09 Q1308.1 1523.09 1300.6 1515.64 Q1293.15 1508.19 1293.15 1495.49 Q1293.15 1482.37 1300.22 1474.68 Q1307.33 1466.94 1319.36 1466.94 Q1330.15 1466.94 1336.41 1473.91 Q1342.71 1480.84 1342.71 1492.77 M1333.93 1490.2 Q1333.83 1482.99 1329.87 1478.69 Q1325.95 1474.39 1319.46 1474.39 Q1312.11 1474.39 1307.67 1478.55 Q1303.28 1482.7 1302.61 1490.24 L1333.93 1490.2 Z" fill="#ffffff" fill-rule="nonzero" fill-opacity="1" /><path clip-path="url(#clip850)" d="M1401.58 1489.43 L1401.58 1521.71 L1392.79 1521.71 L1392.79 1489.72 Q1392.79 1482.13 1389.83 1478.36 Q1386.87 1474.58 1380.95 1474.58 Q1373.84 1474.58 1369.73 1479.12 Q1365.63 1483.65 1365.63 1491.48 L1365.63 1521.71 L1356.79 1521.71 L1356.79 1468.23 L1365.63 1468.23 L1365.63 1476.54 Q1368.78 1471.72 1373.03 1469.33 Q1377.32 1466.94 1382.91 1466.94 Q1392.12 1466.94 1396.85 1472.67 Q1401.58 1478.36 1401.58 1489.43 Z" fill="#ffffff" fill-rule="nonzero" fill-opacity="1" /><path clip-path="url(#clip850)" d="M1457.58 1470.29 L1457.58 1478.5 Q1453.86 1476.45 1450.08 1475.44 Q1446.36 1474.39 1442.54 1474.39 Q1433.99 1474.39 1429.27 1479.84 Q1424.54 1485.23 1424.54 1495.02 Q1424.54 1504.8 1429.27 1510.25 Q1433.99 1515.64 1442.54 1515.64 Q1446.36 1515.64 1450.08 1514.64 Q1453.86 1513.59 1457.58 1511.54 L1457.58 1519.65 Q1453.9 1521.37 1449.94 1522.23 Q1446.03 1523.09 1441.59 1523.09 Q1429.51 1523.09 1422.39 1515.5 Q1415.28 1507.91 1415.28 1495.02 Q1415.28 1481.94 1422.44 1474.44 Q1429.65 1466.94 1442.16 1466.94 Q1446.22 1466.94 1450.08 1467.8 Q1453.95 1468.62 1457.58 1470.29 Z" fill="#ffffff" fill-rule="nonzero" fill-opacity="1" /><path clip-path="url(#clip850)" d="M1495.11 1526.67 Q1491.38 1536.22 1487.85 1539.13 Q1484.32 1542.04 1478.4 1542.04 L1471.38 1542.04 L1471.38 1534.69 L1476.53 1534.69 Q1480.16 1534.69 1482.17 1532.97 Q1484.17 1531.25 1486.61 1524.86 L1488.18 1520.85 L1466.56 1468.23 L1475.87 1468.23 L1492.58 1510.06 L1509.29 1468.23 L1518.6 1468.23 L1495.11 1526.67 Z" fill="#ffffff" fill-rule="nonzero" fill-opacity="1" /><path clip-path="url(#clip850)" d="M1611.04 1484.89 Q1611.04 1489.39 1608.77 1498.08 Q1607.85 1501.85 1606.6 1505.28 Q1605.39 1508.66 1603.6 1511.95 Q1601.81 1515.23 1599.74 1517.6 Q1597.66 1519.92 1594.95 1521.37 Q1592.25 1522.82 1589.25 1522.82 Q1584.52 1522.82 1581.72 1520.01 Q1578.96 1517.16 1578.09 1512.29 Q1571.62 1522.82 1562.97 1522.82 Q1557.61 1522.82 1555.1 1519 Q1552.59 1515.14 1552.59 1508.66 Q1552.59 1503.2 1554.04 1497.55 Q1556.79 1486.83 1562.15 1479.34 Q1562.88 1478.47 1563.94 1478.47 Q1564.57 1478.47 1564.86 1478.66 Q1565.73 1479.19 1565.73 1480.06 Q1565.73 1480.69 1565.24 1481.32 Q1561.86 1486.01 1559.64 1490.01 Q1557.42 1494.02 1556.4 1498.08 Q1555.63 1501.56 1555.63 1504.51 Q1555.63 1509.48 1557.76 1512.58 Q1559.93 1515.67 1564.23 1515.67 Q1568.19 1515.67 1571.67 1513.2 Q1575.15 1510.69 1577.71 1506.49 Q1577.85 1501.9 1578.96 1497.55 Q1579.98 1492.91 1582.35 1492.91 Q1584.23 1492.91 1584.23 1495.47 Q1584.23 1496.34 1583.84 1498.08 Q1582.78 1502.67 1580.85 1506.78 Q1581.52 1510.79 1584.04 1513.25 Q1586.55 1515.67 1590.56 1515.67 Q1594.28 1515.67 1597.56 1512.96 Q1600.9 1510.26 1603.02 1506.29 Q1605.2 1502.29 1606.4 1497.55 Q1606.79 1495.96 1606.79 1493.93 Q1606.79 1488.52 1603.02 1485.18 Q1601.96 1484.12 1601.96 1482.72 Q1601.96 1481.08 1603.31 1479.58 Q1604.91 1477.99 1606.79 1477.99 Q1608.19 1477.99 1609.06 1478.86 Q1611.04 1480.59 1611.04 1484.89 Z" fill="#ffffff" fill-rule="nonzero" fill-opacity="1" /><polyline clip-path="url(#clip852)" style="stroke:#adb2b7; stroke-linecap:round; stroke-linejoin:round; stroke-width:3; stroke-opacity:0.1; fill:none" points="246.83,1307.48 2400,1307.48 "/>
<polyline clip-path="url(#clip852)" style="stroke:#adb2b7; stroke-linecap:round; stroke-linejoin:round; stroke-width:3; stroke-opacity:0.1; fill:none" points="246.83,1044.21 2400,1044.21 "/>
<polyline clip-path="url(#clip852)" style="stroke:#adb2b7; stroke-linecap:round; stroke-linejoin:round; stroke-width:3; stroke-opacity:0.1; fill:none" points="246.83,780.938 2400,780.938 "/>
<polyline clip-path="url(#clip852)" style="stroke:#adb2b7; stroke-linecap:round; stroke-linejoin:round; stroke-width:3; stroke-opacity:0.1; fill:none" points="246.83,517.665 2400,517.665 "/>
<polyline clip-path="url(#clip852)" style="stroke:#adb2b7; stroke-linecap:round; stroke-linejoin:round; stroke-width:3; stroke-opacity:0.1; fill:none" points="246.83,254.392 2400,254.392 "/>
<polyline clip-path="url(#clip850)" style="stroke:#adb2b7; stroke-linecap:round; stroke-linejoin:round; stroke-width:6; stroke-opacity:1; fill:none" points="246.83,1344.08 246.83,0 "/>
<polyline clip-path="url(#clip850)" style="stroke:#adb2b7; stroke-linecap:round; stroke-linejoin:round; stroke-width:6; stroke-opacity:1; fill:none" points="246.83,1307.48 265.728,1307.48 "/>
<polyline clip-path="url(#clip850)" style="stroke:#adb2b7; stroke-linecap:round; stroke-linejoin:round; stroke-width:6; stroke-opacity:1; fill:none" points="246.83,1044.21 265.728,1044.21 "/>
<polyline clip-path="url(#clip850)" style="stroke:#adb2b7; stroke-linecap:round; stroke-linejoin:round; stroke-width:6; stroke-opacity:1; fill:none" points="246.83,780.938 265.728,780.938 "/>
<polyline clip-path="url(#clip850)" style="stroke:#adb2b7; stroke-linecap:round; stroke-linejoin:round; stroke-width:6; stroke-opacity:1; fill:none" points="246.83,517.665 265.728,517.665 "/>
<polyline clip-path="url(#clip850)" style="stroke:#adb2b7; stroke-linecap:round; stroke-linejoin:round; stroke-width:6; stroke-opacity:1; fill:none" points="246.83,254.392 265.728,254.392 "/>
<path clip-path="url(#clip850)" d="M192.914 1286.18 Q187.497 1286.18 184.754 1291.53 Q182.046 1296.84 182.046 1307.54 Q182.046 1318.2 184.754 1323.54 Q187.497 1328.86 192.914 1328.86 Q198.365 1328.86 201.074 1323.54 Q203.817 1318.2 203.817 1307.54 Q203.817 1296.84 201.074 1291.53 Q198.365 1286.18 192.914 1286.18 M192.914 1280.63 Q201.629 1280.63 206.212 1287.54 Q210.83 1294.41 210.83 1307.54 Q210.83 1320.63 206.212 1327.54 Q201.629 1334.41 192.914 1334.41 Q184.199 1334.41 179.581 1327.54 Q174.997 1320.63 174.997 1307.54 Q174.997 1294.41 179.581 1287.54 Q184.199 1280.63 192.914 1280.63 Z" fill="#ffffff" fill-rule="nonzero" fill-opacity="1" /><path clip-path="url(#clip850)" d="M180.97 1064.23 L192.428 1064.23 L192.428 1024.68 L179.963 1027.18 L179.963 1020.79 L192.358 1018.29 L199.372 1018.29 L199.372 1064.23 L210.83 1064.23 L210.83 1070.13 L180.97 1070.13 L180.97 1064.23 Z" fill="#ffffff" fill-rule="nonzero" fill-opacity="1" /><path clip-path="url(#clip850)" d="M186.351 800.955 L210.83 800.955 L210.83 806.858 L177.914 806.858 L177.914 800.955 Q181.907 796.824 188.782 789.879 Q195.692 782.9 197.462 780.886 Q200.831 777.101 202.15 774.497 Q203.504 771.858 203.504 769.324 Q203.504 765.192 200.587 762.588 Q197.706 759.983 193.053 759.983 Q189.754 759.983 186.074 761.129 Q182.428 762.275 178.261 764.601 L178.261 757.518 Q182.497 755.817 186.178 754.949 Q189.858 754.081 192.914 754.081 Q200.969 754.081 205.761 758.108 Q210.553 762.136 210.553 768.872 Q210.553 772.067 209.337 774.949 Q208.157 777.796 204.997 781.685 Q204.129 782.692 199.476 787.518 Q194.824 792.31 186.351 800.955 Z" fill="#ffffff" fill-rule="nonzero" fill-opacity="1" /><path clip-path="url(#clip850)" d="M200.136 515.634 Q205.171 516.71 207.983 520.113 Q210.83 523.516 210.83 528.516 Q210.83 536.189 205.553 540.39 Q200.275 544.592 190.553 544.592 Q187.289 544.592 183.817 543.932 Q180.379 543.307 176.699 542.022 L176.699 535.252 Q179.615 536.953 183.088 537.821 Q186.56 538.689 190.344 538.689 Q196.942 538.689 200.379 536.085 Q203.851 533.481 203.851 528.516 Q203.851 523.932 200.622 521.363 Q197.428 518.759 191.699 518.759 L185.657 518.759 L185.657 512.995 L191.976 512.995 Q197.15 512.995 199.893 510.946 Q202.636 508.863 202.636 504.974 Q202.636 500.981 199.789 498.863 Q196.976 496.71 191.699 496.71 Q188.817 496.71 185.518 497.335 Q182.219 497.96 178.261 499.28 L178.261 493.03 Q182.254 491.919 185.726 491.363 Q189.233 490.807 192.324 490.807 Q200.31 490.807 204.962 494.453 Q209.615 498.064 209.615 504.245 Q209.615 508.55 207.15 511.536 Q204.685 514.488 200.136 515.634 Z" fill="#ffffff" fill-rule="nonzero" fill-opacity="1" /><path clip-path="url(#clip850)" d="M196.456 234.583 L178.747 262.256 L196.456 262.256 L196.456 234.583 M194.615 228.472 L203.435 228.472 L203.435 262.256 L210.83 262.256 L210.83 268.089 L203.435 268.089 L203.435 280.312 L196.456 280.312 L196.456 268.089 L173.053 268.089 L173.053 261.319 L194.615 228.472 Z" fill="#ffffff" fill-rule="nonzero" fill-opacity="1" /><path clip-path="url(#clip850)" d="M63.7725 1069.95 L72.0797 1069.95 Q70.17 1073.67 69.2151 1077.68 Q68.2603 1081.7 68.2603 1085.99 Q68.2603 1092.53 70.2655 1095.83 Q72.2707 1099.07 76.2811 1099.07 Q79.3366 1099.07 81.1031 1096.73 Q82.8218 1094.39 84.3973 1087.33 L85.0657 1084.32 Q87.0709 1074.96 90.7471 1071.05 Q94.3756 1067.09 100.916 1067.09 Q108.364 1067.09 112.709 1073.01 Q117.053 1078.88 117.053 1089.19 Q117.053 1093.49 116.194 1098.17 Q115.382 1102.8 113.711 1107.95 L104.64 1107.95 Q107.171 1103.08 108.46 1098.36 Q109.701 1093.63 109.701 1089 Q109.701 1082.79 107.6 1079.45 Q105.452 1076.11 101.585 1076.11 Q98.004 1076.11 96.0943 1078.54 Q94.1846 1080.93 92.4181 1089.1 L91.702 1092.15 Q89.9833 1100.31 86.4503 1103.94 Q82.8696 1107.57 76.663 1107.57 Q69.1197 1107.57 65.0138 1102.22 Q60.9079 1096.88 60.9079 1087.04 Q60.9079 1082.17 61.624 1077.88 Q62.3402 1073.58 63.7725 1069.95 Z" fill="#ffffff" fill-rule="nonzero" fill-opacity="1" /><path clip-path="url(#clip850)" d="M107.648 1044.6 L136.007 1044.6 L136.007 1053.43 L62.1969 1053.43 L62.1969 1044.6 L70.3132 1044.6 Q65.5389 1041.83 63.2473 1037.63 Q60.9079 1033.38 60.9079 1027.51 Q60.9079 1017.77 68.6422 1011.7 Q76.3766 1005.59 88.9807 1005.59 Q101.585 1005.59 109.319 1011.7 Q117.053 1017.77 117.053 1027.51 Q117.053 1033.38 114.762 1037.63 Q112.422 1041.83 107.648 1044.6 M88.9807 1014.71 Q79.2889 1014.71 73.7984 1018.72 Q68.2603 1022.68 68.2603 1029.66 Q68.2603 1036.63 73.7984 1040.64 Q79.2889 1044.6 88.9807 1044.6 Q98.6724 1044.6 104.211 1040.64 Q109.701 1036.63 109.701 1029.66 Q109.701 1022.68 104.211 1018.72 Q98.6724 1014.71 88.9807 1014.71 Z" fill="#ffffff" fill-rule="nonzero" fill-opacity="1" /><path clip-path="url(#clip850)" d="M86.7367 945.294 L91.0336 945.294 L91.0336 985.684 Q100.105 985.111 104.879 980.242 Q109.606 975.324 109.606 966.587 Q109.606 961.526 108.364 956.8 Q107.123 952.026 104.64 947.347 L112.948 947.347 Q114.953 952.073 116.003 957.039 Q117.053 962.004 117.053 967.112 Q117.053 979.907 109.606 987.403 Q102.158 994.851 89.4581 994.851 Q76.3288 994.851 68.6422 987.785 Q60.9079 980.671 60.9079 968.64 Q60.9079 957.85 67.8783 951.596 Q74.801 945.294 86.7367 945.294 M84.1586 954.079 Q76.9495 954.174 72.6526 958.137 Q68.3558 962.052 68.3558 968.545 Q68.3558 975.897 72.5094 980.337 Q76.663 984.729 84.2064 985.398 L84.1586 954.079 Z" fill="#ffffff" fill-rule="nonzero" fill-opacity="1" /><path clip-path="url(#clip850)" d="M64.2499 892.395 L72.4616 892.395 Q70.4087 896.119 69.4061 899.89 Q68.3558 903.614 68.3558 907.434 Q68.3558 915.98 73.7984 920.706 Q79.1934 925.433 88.9807 925.433 Q98.7679 925.433 104.211 920.706 Q109.606 915.98 109.606 907.434 Q109.606 903.614 108.603 899.89 Q107.553 896.119 105.5 892.395 L113.616 892.395 Q115.335 896.071 116.194 900.034 Q117.053 903.949 117.053 908.389 Q117.053 920.468 109.462 927.581 Q101.871 934.695 88.9807 934.695 Q75.8991 934.695 68.4035 927.534 Q60.9079 920.324 60.9079 907.816 Q60.9079 903.758 61.7673 899.89 Q62.5789 896.023 64.2499 892.395 Z" fill="#ffffff" fill-rule="nonzero" fill-opacity="1" /><path clip-path="url(#clip850)" d="M47.0147 868.428 L62.1969 868.428 L62.1969 850.333 L69.0242 850.333 L69.0242 868.428 L98.0518 868.428 Q104.593 868.428 106.455 866.661 Q108.316 864.847 108.316 859.357 L108.316 850.333 L115.669 850.333 L115.669 859.357 Q115.669 869.526 111.897 873.393 Q108.078 877.26 98.0518 877.26 L69.0242 877.26 L69.0242 883.706 L62.1969 883.706 L62.1969 877.26 L47.0147 877.26 L47.0147 868.428 Z" fill="#ffffff" fill-rule="nonzero" fill-opacity="1" /><path clip-path="url(#clip850)" d="M70.4087 807.795 Q69.5493 809.275 69.1674 811.041 Q68.7377 812.76 68.7377 814.861 Q68.7377 822.308 73.6075 826.319 Q78.4295 830.281 87.5006 830.281 L115.669 830.281 L115.669 839.114 L62.1969 839.114 L62.1969 830.281 L70.5042 830.281 Q65.6344 827.512 63.295 823.072 Q60.9079 818.632 60.9079 812.282 Q60.9079 811.375 61.0511 810.277 Q61.1466 809.179 61.3853 807.842 L70.4087 807.795 Z" fill="#ffffff" fill-rule="nonzero" fill-opacity="1" /><path clip-path="url(#clip850)" d="M88.7897 774.279 Q88.7897 784.926 91.2246 789.032 Q93.6595 793.138 99.5318 793.138 Q104.211 793.138 106.98 790.082 Q109.701 786.979 109.701 781.679 Q109.701 774.375 104.545 769.982 Q99.3408 765.542 90.7471 765.542 L88.7897 765.542 L88.7897 774.279 M85.1612 756.758 L115.669 756.758 L115.669 765.542 L107.553 765.542 Q112.422 768.55 114.762 773.038 Q117.053 777.526 117.053 784.019 Q117.053 792.23 112.47 797.1 Q107.839 801.922 100.105 801.922 Q91.0813 801.922 86.498 795.907 Q81.9147 789.843 81.9147 777.86 L81.9147 765.542 L81.0554 765.542 Q74.992 765.542 71.6978 769.553 Q68.3558 773.515 68.3558 780.724 Q68.3558 785.308 69.4539 789.652 Q70.5519 793.997 72.7481 798.007 L64.6318 798.007 Q62.7699 793.185 61.8627 788.65 Q60.9079 784.114 60.9079 779.817 Q60.9079 768.216 66.9235 762.487 Q72.9391 756.758 85.1612 756.758 Z" fill="#ffffff" fill-rule="nonzero" fill-opacity="1" /><path clip-path="url(#clip850)" d="M41.3811 738.663 L41.3811 729.878 L115.669 729.878 L115.669 738.663 L41.3811 738.663 Z" fill="#ffffff" fill-rule="nonzero" fill-opacity="1" /><path clip-path="url(#clip850)" d="M41.3811 653.347 L48.6857 653.347 L48.6857 661.749 Q48.6857 666.476 50.5954 668.338 Q52.5052 670.152 57.4704 670.152 L62.1969 670.152 L62.1969 655.686 L69.0242 655.686 L69.0242 670.152 L115.669 670.152 L115.669 678.985 L69.0242 678.985 L69.0242 687.387 L62.1969 687.387 L62.1969 678.985 L58.473 678.985 Q49.5451 678.985 45.487 674.831 Q41.3811 670.677 41.3811 661.654 L41.3811 653.347 Z" fill="#ffffff" fill-rule="nonzero" fill-opacity="1" /><path clip-path="url(#clip850)" d="M94.5666 646.901 L62.1969 646.901 L62.1969 638.117 L94.2324 638.117 Q101.823 638.117 105.643 635.157 Q109.415 632.197 109.415 626.276 Q109.415 619.163 104.879 615.057 Q100.343 610.903 92.5136 610.903 L62.1969 610.903 L62.1969 602.119 L115.669 602.119 L115.669 610.903 L107.457 610.903 Q112.327 614.102 114.714 618.351 Q117.053 622.553 117.053 628.138 Q117.053 637.353 111.324 642.127 Q105.595 646.901 94.5666 646.901 M60.9079 624.796 L60.9079 624.796 Z" fill="#ffffff" fill-rule="nonzero" fill-opacity="1" /><path clip-path="url(#clip850)" d="M83.3947 539.576 L115.669 539.576 L115.669 548.36 L83.6812 548.36 Q76.0901 548.36 72.3184 551.32 Q68.5467 554.28 68.5467 560.2 Q68.5467 567.314 73.0823 571.42 Q77.6179 575.526 85.4477 575.526 L115.669 575.526 L115.669 584.358 L62.1969 584.358 L62.1969 575.526 L70.5042 575.526 Q65.6822 572.375 63.295 568.126 Q60.9079 563.829 60.9079 558.243 Q60.9079 549.029 66.637 544.302 Q72.3184 539.576 83.3947 539.576 Z" fill="#ffffff" fill-rule="nonzero" fill-opacity="1" /><path clip-path="url(#clip850)" d="M64.2499 483.573 L72.4616 483.573 Q70.4087 487.297 69.4061 491.069 Q68.3558 494.793 68.3558 498.612 Q68.3558 507.158 73.7984 511.885 Q79.1934 516.611 88.9807 516.611 Q98.7679 516.611 104.211 511.885 Q109.606 507.158 109.606 498.612 Q109.606 494.793 108.603 491.069 Q107.553 487.297 105.5 483.573 L113.616 483.573 Q115.335 487.249 116.194 491.212 Q117.053 495.127 117.053 499.567 Q117.053 511.646 109.462 518.76 Q101.871 525.873 88.9807 525.873 Q75.8991 525.873 68.4035 518.712 Q60.9079 511.503 60.9079 498.994 Q60.9079 494.936 61.7673 491.069 Q62.5789 487.202 64.2499 483.573 Z" fill="#ffffff" fill-rule="nonzero" fill-opacity="1" /><path clip-path="url(#clip850)" d="M47.0147 459.606 L62.1969 459.606 L62.1969 441.512 L69.0242 441.512 L69.0242 459.606 L98.0518 459.606 Q104.593 459.606 106.455 457.84 Q108.316 456.026 108.316 450.535 L108.316 441.512 L115.669 441.512 L115.669 450.535 Q115.669 460.704 111.897 464.572 Q108.078 468.439 98.0518 468.439 L69.0242 468.439 L69.0242 474.884 L62.1969 474.884 L62.1969 468.439 L47.0147 468.439 L47.0147 459.606 Z" fill="#ffffff" fill-rule="nonzero" fill-opacity="1" /><path clip-path="url(#clip850)" d="M62.1969 429.958 L62.1969 421.173 L115.669 421.173 L115.669 429.958 L62.1969 429.958 M41.3811 429.958 L41.3811 421.173 L52.5052 421.173 L52.5052 429.958 L41.3811 429.958 Z" fill="#ffffff" fill-rule="nonzero" fill-opacity="1" /><path clip-path="url(#clip850)" d="M68.3558 382.072 Q68.3558 389.138 73.8939 393.244 Q79.3844 397.35 88.9807 397.35 Q98.577 397.35 104.115 393.292 Q109.606 389.186 109.606 382.072 Q109.606 375.054 104.067 370.948 Q98.5292 366.842 88.9807 366.842 Q79.4798 366.842 73.9417 370.948 Q68.3558 375.054 68.3558 382.072 M60.9079 382.072 Q60.9079 370.614 68.3558 364.073 Q75.8036 357.532 88.9807 357.532 Q102.11 357.532 109.606 364.073 Q117.053 370.614 117.053 382.072 Q117.053 393.578 109.606 400.119 Q102.11 406.612 88.9807 406.612 Q75.8036 406.612 68.3558 400.119 Q60.9079 393.578 60.9079 382.072 Z" fill="#ffffff" fill-rule="nonzero" fill-opacity="1" /><path clip-path="url(#clip850)" d="M83.3947 298.522 L115.669 298.522 L115.669 307.307 L83.6812 307.307 Q76.0901 307.307 72.3184 310.267 Q68.5467 313.227 68.5467 319.147 Q68.5467 326.261 73.0823 330.367 Q77.6179 334.472 85.4477 334.472 L115.669 334.472 L115.669 343.305 L62.1969 343.305 L62.1969 334.472 L70.5042 334.472 Q65.6822 331.321 63.295 327.072 Q60.9079 322.776 60.9079 317.19 Q60.9079 307.975 66.637 303.249 Q72.3184 298.522 83.3947 298.522 Z" fill="#ffffff" fill-rule="nonzero" fill-opacity="1" /><path clip-path="url(#clip850)" d="M130.039 257.177 L130.039 261.951 L115.669 261.999 Q115.573 267.012 114.523 272.025 Q113.425 277.038 111.277 282.099 L102.683 282.099 Q105.738 277.229 107.314 272.264 Q108.842 267.251 108.889 261.951 L87.1187 261.951 Q85.3999 272.502 81.2941 277.324 Q77.1882 282.099 70.0268 282.099 Q62.2447 282.099 57.7569 276.895 Q53.269 271.691 52.6006 261.951 L41.3811 261.951 L41.3811 257.177 L52.4574 257.177 Q52.6484 252.737 53.4123 248.583 Q54.1284 244.43 55.4175 240.467 L63.7725 240.467 Q61.7673 244.43 60.6692 248.631 Q59.5711 252.785 59.3801 257.177 L79.7663 257.177 Q81.4373 246.339 85.7341 241.231 Q90.031 236.122 97.4789 236.122 Q105.547 236.122 110.226 241.565 Q114.857 246.96 115.573 257.177 L130.039 257.177 M78.9069 261.951 L59.3324 261.951 Q59.953 267.489 62.4834 270.402 Q65.0138 273.314 69.2151 273.314 Q73.321 273.314 75.6127 270.64 Q77.9043 267.919 78.9069 261.951 M88.0735 257.177 L108.746 257.177 Q107.935 251.114 105.309 248.058 Q102.683 244.955 98.386 244.955 Q94.1846 244.955 91.702 247.915 Q89.2194 250.827 88.0735 257.177 Z" fill="#ffffff" fill-rule="nonzero" fill-opacity="1" /><polyline clip-path="url(#clip852)" style="stroke:#fe4365; stroke-linecap:round; stroke-linejoin:round; stroke-width:12; stroke-opacity:1; fill:none" points="307.769,1305.54 311.832,1305.48 315.894,1305.42 319.957,1305.36 324.02,1305.29 328.082,1305.22 332.145,1305.14 336.207,1305.06 340.27,1304.97 344.332,1304.88 348.395,1304.79 352.458,1304.68 356.52,1304.57 360.583,1304.46 364.645,1304.33 368.708,1304.2 372.771,1304.06 376.833,1303.9 380.896,1303.74 384.958,1303.56 389.021,1303.36 393.083,1303.15 397.146,1302.92 401.209,1302.67 405.271,1302.39 409.334,1302.09 413.396,1301.75 417.459,1301.38 421.522,1300.97 425.584,1300.5 429.647,1299.98 433.709,1299.39 437.772,1298.71 441.834,1297.94 445.897,1297.05 449.96,1296 454.022,1294.76 458.085,1293.29 462.147,1291.51 466.21,1289.31 470.273,1286.56 474.335,1283.04 478.398,1278.41 482.46,1272.12 486.523,1263.18 490.586,1249.8 494.648,1228.2 498.711,1189.55 502.773,1109.24 506.836,902.476 510.898,298.951 514.961,132.79 519.024,752.037 523.086,893.207 527.149,698.668 531.211,38.0399 535.274,421.098 539.337,930.621 543.399,1090.49 547.462,1132.37 551.524,1154.01 555.587,1150.12 559.649,1088.18 563.712,886.591 567.775,282.198 571.837,285.898 575.9,896.169 579.962,1105.47 584.025,1179.28 588.088,1204.71 592.15,1194.93 596.213,1180.17 600.275,1216.51 604.338,1223.94 608.4,1209.83 612.463,1168.71 616.526,1062.04 620.588,739.198 624.651,102.891 628.713,638.08 632.776,1032.56 636.839,1162.01 640.901,1212.76 644.964,1234.54 649.026,1240.21 653.089,1225.89 657.151,1168.98 661.214,1183.05 665.277,1235.8 669.339,1250.15 673.402,1249.41 677.464,1238.5 681.527,1212.98 685.59,1154.97 689.652,1001.2 693.715,531.856 697.777,249.24 701.84,870.35 705.902,1112.66 709.965,1197.29 714.028,1233.32 718.09,1250.3 722.153,1257.25 726.215,1255.76 730.278,1239.81 734.341,1181.63 738.403,1104.76 742.466,1201.45 746.528,1248.17 750.591,1261.97 754.653,1264.58 758.716,1260.93 762.779,1250.72 766.841,1229.59 770.904,1184.28 774.966,1070.77 779.029,725.982 783.092,231.984 787.154,795.834 791.217,1093.48 795.279,1193.24 799.342,1234.28 803.404,1253.88 807.467,1263.62 811.53,1267.44 815.592,1265.94 819.655,1256.2 823.717,1225.55 827.78,1127.58 831.843,1050.6 835.905,1189.88 839.968,1246.48 844.03,1265.01 848.093,1271.32 852.155,1272.08 856.218,1268.81 860.281,1260.87 864.343,1245.17 868.406,1213.17 872.468,1138.57 876.531,924.753 880.594,382.248 884.656,641.449 888.719,1046.28 892.781,1179.24 896.844,1230.17 900.906,1253.63 904.969,1265.55 909.032,1271.51 913.094,1273.49 917.157,1271.63 921.219,1264.05 925.282,1243.78 929.345,1184.96 933.407,1015.37 937.47,1034.38 941.532,1193.88 945.595,1247.54 949.657,1266.67 953.72,1274.3 957.783,1276.79 961.845,1276.03 965.908,1272.19 969.97,1264.15 974.033,1248.67 978.096,1217.03 982.158,1142.04 986.221,922.971 990.283,424.48 994.346,754.552 998.409,1087.8 1002.47,1196.92 1006.53,1239.64 1010.6,1259.62 1014.66,1269.89 1018.72,1275.11 1022.78,1277.04 1026.85,1276.05 1030.91,1271.31 1034.97,1259.74 1039.03,1231.6 1043.1,1151.19 1047.16,928.31 1051.22,984.073 1055.28,1176.5 1059.35,1240.46 1063.41,1263.99 1067.47,1274.1 1071.54,1278.46 1075.6,1279.61 1079.66,1278.27 1083.72,1274.18 1087.79,1266.03 1091.85,1250.31 1095.91,1217.5 1099.97,1136.92 1104.04,894.449 1108.1,486.874 1112.16,891.42 1116.22,1135.91 1120.29,1217.06 1124.35,1250.03 1128.41,1265.77 1132.47,1273.9 1136.54,1277.92 1140.6,1279.17 1144.66,1277.92 1148.72,1273.49 1152.79,1263.61 1156.85,1241.71 1160.91,1186.04 1164.97,1016.11 1169.04,780.613 1173.1,1056.9 1177.16,1199.33 1181.22,1247 1185.29,1266.44 1189.35,1275.48 1193.41,1279.7 1197.48,1281.07 1201.54,1280.21 1205.6,1276.94 1209.66,1270.15 1213.73,1256.94 1217.79,1229.43 1221.85,1162.56 1225.91,962.96 1229.98,586.037 1234.04,917.598 1238.1,1147.96 1242.16,1223.85 1246.23,1254.23 1250.29,1268.54 1254.35,1275.79 1258.41,1279.24 1262.48,1280.12 1266.54,1278.69 1270.6,1274.36 1274.66,1265.29 1278.73,1246.42 1282.79,1202.4 1286.85,1077.14 1290.91,744.61 1294.98,868.422 1299.04,1133.88 1303.1,1221.49 1307.16,1254.55 1311.23,1269.51 1315.29,1276.93 1319.35,1280.49 1323.42,1281.55 1327.48,1280.49 1331.54,1276.93 1335.6,1269.51 1339.67,1254.55 1343.73,1221.49 1347.79,1133.88 1351.85,868.427 1355.92,744.615 1359.98,1077.15 1364.04,1202.4 1368.1,1246.43 1372.17,1265.3 1376.23,1274.37 1380.29,1278.7 1384.35,1280.13 1388.42,1279.25 1392.48,1275.8 1396.54,1268.55 1400.6,1254.24 1404.67,1223.86 1408.73,1147.97 1412.79,917.613 1416.85,586.052 1420.92,962.976 1424.98,1162.58 1429.04,1229.44 1433.1,1256.95 1437.17,1270.17 1441.23,1276.96 1445.29,1280.23 1449.36,1281.09 1453.42,1279.72 1457.48,1275.5 1461.54,1266.46 1465.61,1247.02 1469.67,1199.35 1473.73,1056.92 1477.79,780.64 1481.86,1016.13 1485.92,1186.07 1489.98,1241.74 1494.04,1263.64 1498.11,1273.52 1502.17,1277.95 1506.23,1279.2 1510.29,1277.95 1514.36,1273.93 1518.42,1265.81 1522.48,1250.06 1526.54,1217.09 1530.61,1135.95 1534.67,891.459 1538.73,486.914 1542.79,894.49 1546.86,1136.96 1550.92,1217.54 1554.98,1250.36 1559.05,1266.08 1563.11,1274.23 1567.17,1278.31 1571.23,1279.66 1575.3,1278.51 1579.36,1274.15 1583.42,1264.04 1587.48,1240.52 1591.55,1176.55 1595.61,984.128 1599.67,928.366 1603.73,1151.25 1607.8,1231.65 1611.86,1259.8 1615.92,1271.37 1619.98,1276.12 1624.05,1277.1 1628.11,1275.18 1632.17,1269.96 1636.23,1259.69 1640.3,1239.71 1644.36,1196.99 1648.42,1087.87 1652.48,754.627 1656.55,424.557 1660.61,923.049 1664.67,1142.12 1668.73,1217.11 1672.8,1248.76 1676.86,1264.24 1680.92,1272.28 1684.99,1276.12 1689.05,1276.88 1693.11,1274.39 1697.17,1266.76 1701.24,1247.63 1705.3,1193.98 1709.36,1034.48 1713.42,1015.47 1717.49,1185.07 1721.55,1243.89 1725.61,1264.16 1729.67,1271.75 1733.74,1273.6 1737.8,1271.63 1741.86,1265.68 1745.92,1253.76 1749.99,1230.3 1754.05,1179.37 1758.11,1046.41 1762.17,641.589 1766.24,382.391 1770.3,924.9 1774.36,1138.72 1778.42,1213.33 1782.49,1245.33 1786.55,1261.03 1790.61,1268.98 1794.67,1272.25 1798.74,1271.5 1802.8,1265.19 1806.86,1246.66 1810.93,1190.07 1814.99,1050.8 1819.05,1127.78 1823.11,1225.76 1827.18,1256.42 1831.24,1266.16 1835.3,1267.66 1839.36,1263.85 1843.43,1254.12 1847.49,1234.53 1851.55,1193.5 1855.61,1093.74 1859.68,796.105 1863.74,232.263 1867.8,726.27 1871.86,1071.07 1875.93,1184.58 1879.99,1229.91 1884.05,1251.04 1888.11,1261.27 1892.18,1264.93 1896.24,1262.34 1900.3,1248.55 1904.36,1201.84 1908.43,1105.17 1912.49,1182.05 1916.55,1240.25 1920.62,1256.21 1924.68,1257.72 1928.74,1250.79 1932.8,1233.84 1936.87,1197.82 1940.93,1113.22 1944.99,870.934 1949.05,249.851 1953.12,532.496 1957.18,1001.87 1961.24,1155.67 1965.3,1213.71 1969.37,1239.28 1973.43,1250.22 1977.49,1251.01 1981.55,1236.7 1985.62,1184.01 1989.68,1169.99 1993.74,1226.96 1997.8,1241.35 2001.87,1235.75 2005.93,1214.05 2009.99,1163.39 2014.05,1034.04 2018.12,639.657 2022.18,104.586 2026.24,741.024 2030.3,1064.01 2034.37,1170.85 2038.43,1212.16 2042.49,1226.47 2046.56,1219.29 2050.62,1183.23 2054.68,1198.32 2058.74,1208.47 2062.81,1183.49 2066.87,1110.21 2070.93,901.535 2074.99,292.033 2079.06,289.278 2083.12,894.851 2087.18,1097.94 2091.24,1161.83 2095.31,1168.31 2099.37,1150.23 2103.43,1113.4 2107.49,961.052 2111.56,463.41 2115.62,100.66 2119.68,800.036 2123.74,1081.14 2127.81,1179.91 2131.87,1228.17 2135.93,1252.82 2139.99,1266.98 2144.06,1275.95 2148.12,1282.03 2152.18,1286.37 2156.24,1289.6 2160.31,1292.07 2164.37,1294.01 2168.43,1295.57 2172.5,1296.84 2176.56,1297.9 2180.62,1298.79 2184.68,1299.54 2188.75,1300.19 2192.81,1300.76 2196.87,1301.25 2200.93,1301.68 2205,1302.07 2209.06,1302.41 2213.12,1302.72 2217.18,1302.99 2221.25,1303.24 2225.31,1303.47 2229.37,1303.67 2233.43,1303.86 2237.5,1304.04 2241.56,1304.2 2245.62,1304.34 2249.68,1304.48 2253.75,1304.61 2257.81,1304.72 2261.87,1304.83 2265.93,1304.94 2270,1305.03 2274.06,1305.12 2278.12,1305.2 2282.19,1305.28 2286.25,1305.36 2290.31,1305.43 2294.37,1305.49 2298.44,1305.56 2302.5,1305.62 2306.56,1305.67 2310.62,1305.73 2314.69,1305.78 2318.75,1305.83 2322.81,1305.87 2326.87,1305.92 2330.94,1305.96 2335,1306 2339.06,1306.04 "/>
</svg>
