<?xml version="1.0" encoding="utf-8"?>
<svg xmlns="http://www.w3.org/2000/svg" xmlns:xlink="http://www.w3.org/1999/xlink" width="600" height="400" viewBox="0 0 2400 1600">
<defs>
  <clipPath id="clip580">
    <rect x="0" y="0" width="2400" height="1600"/>
  </clipPath>
</defs>
<path clip-path="url(#clip580)" d="M0 1600 L2400 1600 L2400 0 L0 0  Z" fill="#363d46" fill-rule="evenodd" fill-opacity="1"/>
<defs>
  <clipPath id="clip581">
    <rect x="480" y="0" width="1681" height="1600"/>
  </clipPath>
</defs>
<path clip-path="url(#clip580)" d="M388.426 1350.58 L2377.95 1350.58 L2377.95 22.0472 L388.426 22.0472  Z" fill="#30343b" fill-rule="evenodd" fill-opacity="1"/>
<defs>
  <clipPath id="clip582">
    <rect x="388" y="22" width="1991" height="1330"/>
  </clipPath>
</defs>
<polyline clip-path="url(#clip582)" style="stroke:#adb2b7; stroke-linecap:round; stroke-linejoin:round; stroke-width:2.8; stroke-opacity:0.1; fill:none" points="406.429,1350.58 406.429,22.0472 "/>
<polyline clip-path="url(#clip582)" style="stroke:#adb2b7; stroke-linecap:round; stroke-linejoin:round; stroke-width:2.8; stroke-opacity:0.1; fill:none" points="789.472,1350.58 789.472,22.0472 "/>
<polyline clip-path="url(#clip582)" style="stroke:#adb2b7; stroke-linecap:round; stroke-linejoin:round; stroke-width:2.8; stroke-opacity:0.1; fill:none" points="1172.52,1350.58 1172.52,22.0472 "/>
<polyline clip-path="url(#clip582)" style="stroke:#adb2b7; stroke-linecap:round; stroke-linejoin:round; stroke-width:2.8; stroke-opacity:0.1; fill:none" points="1555.56,1350.58 1555.56,22.0472 "/>
<polyline clip-path="url(#clip582)" style="stroke:#adb2b7; stroke-linecap:round; stroke-linejoin:round; stroke-width:2.8; stroke-opacity:0.1; fill:none" points="1938.6,1350.58 1938.6,22.0472 "/>
<polyline clip-path="url(#clip582)" style="stroke:#adb2b7; stroke-linecap:round; stroke-linejoin:round; stroke-width:2.8; stroke-opacity:0.1; fill:none" points="2321.65,1350.58 2321.65,22.0472 "/>
<polyline clip-path="url(#clip580)" style="stroke:#adb2b7; stroke-linecap:round; stroke-linejoin:round; stroke-width:5.6; stroke-opacity:1; fill:none" points="388.426,1350.58 2377.95,1350.58 "/>
<polyline clip-path="url(#clip580)" style="stroke:#adb2b7; stroke-linecap:round; stroke-linejoin:round; stroke-width:5.6; stroke-opacity:1; fill:none" points="406.429,1350.58 406.429,1331.68 "/>
<polyline clip-path="url(#clip580)" style="stroke:#adb2b7; stroke-linecap:round; stroke-linejoin:round; stroke-width:5.6; stroke-opacity:1; fill:none" points="789.472,1350.58 789.472,1331.68 "/>
<polyline clip-path="url(#clip580)" style="stroke:#adb2b7; stroke-linecap:round; stroke-linejoin:round; stroke-width:5.6; stroke-opacity:1; fill:none" points="1172.52,1350.58 1172.52,1331.68 "/>
<polyline clip-path="url(#clip580)" style="stroke:#adb2b7; stroke-linecap:round; stroke-linejoin:round; stroke-width:5.6; stroke-opacity:1; fill:none" points="1555.56,1350.58 1555.56,1331.68 "/>
<polyline clip-path="url(#clip580)" style="stroke:#adb2b7; stroke-linecap:round; stroke-linejoin:round; stroke-width:5.6; stroke-opacity:1; fill:none" points="1938.6,1350.58 1938.6,1331.68 "/>
<polyline clip-path="url(#clip580)" style="stroke:#adb2b7; stroke-linecap:round; stroke-linejoin:round; stroke-width:5.6; stroke-opacity:1; fill:none" points="2321.65,1350.58 2321.65,1331.68 "/>
<path clip-path="url(#clip580)" d="M406.429 1386.19 Q401.374 1386.19 398.814 1391.18 Q396.286 1396.14 396.286 1406.12 Q396.286 1416.07 398.814 1421.06 Q401.374 1426.02 406.429 1426.02 Q411.517 1426.02 414.045 1421.06 Q416.605 1416.07 416.605 1406.12 Q416.605 1396.14 414.045 1391.18 Q411.517 1386.19 406.429 1386.19 M406.429 1381 Q414.563 1381 418.841 1387.45 Q423.151 1393.87 423.151 1406.12 Q423.151 1418.34 418.841 1424.78 Q414.563 1431.2 406.429 1431.2 Q398.295 1431.2 393.985 1424.78 Q389.707 1418.34 389.707 1406.12 Q389.707 1393.87 393.985 1387.45 Q398.295 1381 406.429 1381 Z" fill="#ffffff" fill-rule="nonzero" fill-opacity="1" /><path clip-path="url(#clip580)" d="M754.035 1424.75 L764.73 1424.75 L764.73 1387.84 L753.095 1390.17 L753.095 1384.21 L764.665 1381.88 L771.211 1381.88 L771.211 1424.75 L781.905 1424.75 L781.905 1430.26 L754.035 1430.26 L754.035 1424.75 Z" fill="#ffffff" fill-rule="nonzero" fill-opacity="1" /><path clip-path="url(#clip580)" d="M809.127 1386.19 Q804.072 1386.19 801.512 1391.18 Q798.984 1396.14 798.984 1406.12 Q798.984 1416.07 801.512 1421.06 Q804.072 1426.02 809.127 1426.02 Q814.215 1426.02 816.743 1421.06 Q819.303 1416.07 819.303 1406.12 Q819.303 1396.14 816.743 1391.18 Q814.215 1386.19 809.127 1386.19 M809.127 1381 Q817.262 1381 821.539 1387.45 Q825.85 1393.87 825.85 1406.12 Q825.85 1418.34 821.539 1424.78 Q817.262 1431.2 809.127 1431.2 Q800.993 1431.2 796.683 1424.78 Q792.405 1418.34 792.405 1406.12 Q792.405 1393.87 796.683 1387.45 Q800.993 1381 809.127 1381 Z" fill="#ffffff" fill-rule="nonzero" fill-opacity="1" /><path clip-path="url(#clip580)" d="M1142.8 1424.75 L1165.65 1424.75 L1165.65 1430.26 L1134.92 1430.26 L1134.92 1424.75 Q1138.65 1420.9 1145.07 1414.41 Q1151.52 1407.9 1153.17 1406.02 Q1156.31 1402.49 1157.54 1400.06 Q1158.81 1397.59 1158.81 1395.23 Q1158.81 1391.37 1156.09 1388.94 Q1153.4 1386.51 1149.05 1386.51 Q1145.97 1386.51 1142.54 1387.58 Q1139.14 1388.65 1135.25 1390.82 L1135.25 1384.21 Q1139.2 1382.62 1142.64 1381.81 Q1146.07 1381 1148.92 1381 Q1156.44 1381 1160.91 1384.76 Q1165.39 1388.52 1165.39 1394.81 Q1165.39 1397.79 1164.25 1400.48 Q1163.15 1403.14 1160.2 1406.77 Q1159.39 1407.71 1155.05 1412.21 Q1150.71 1416.68 1142.8 1424.75 Z" fill="#ffffff" fill-rule="nonzero" fill-opacity="1" /><path clip-path="url(#clip580)" d="M1193.39 1386.19 Q1188.33 1386.19 1185.77 1391.18 Q1183.24 1396.14 1183.24 1406.12 Q1183.24 1416.07 1185.77 1421.06 Q1188.33 1426.02 1193.39 1426.02 Q1198.47 1426.02 1201 1421.06 Q1203.56 1416.07 1203.56 1406.12 Q1203.56 1396.14 1201 1391.18 Q1198.47 1386.19 1193.39 1386.19 M1193.39 1381 Q1201.52 1381 1205.8 1387.45 Q1210.11 1393.87 1210.11 1406.12 Q1210.11 1418.34 1205.8 1424.78 Q1201.52 1431.2 1193.39 1431.2 Q1185.25 1431.2 1180.94 1424.78 Q1176.66 1418.34 1176.66 1406.12 Q1176.66 1393.87 1180.94 1387.45 Q1185.25 1381 1193.39 1381 Z" fill="#ffffff" fill-rule="nonzero" fill-opacity="1" /><path clip-path="url(#clip580)" d="M1539.94 1404.17 Q1544.64 1405.18 1547.26 1408.35 Q1549.92 1411.53 1549.92 1416.2 Q1549.92 1423.36 1544.99 1427.28 Q1540.07 1431.2 1530.99 1431.2 Q1527.95 1431.2 1524.71 1430.59 Q1521.5 1430 1518.06 1428.8 L1518.06 1422.48 Q1520.79 1424.07 1524.03 1424.88 Q1527.27 1425.69 1530.8 1425.69 Q1536.96 1425.69 1540.17 1423.26 Q1543.41 1420.83 1543.41 1416.2 Q1543.41 1411.92 1540.39 1409.52 Q1537.41 1407.09 1532.06 1407.09 L1526.42 1407.09 L1526.42 1401.71 L1532.32 1401.71 Q1537.15 1401.71 1539.71 1399.8 Q1542.27 1397.85 1542.27 1394.22 Q1542.27 1390.5 1539.61 1388.52 Q1536.99 1386.51 1532.06 1386.51 Q1529.37 1386.51 1526.3 1387.1 Q1523.22 1387.68 1519.52 1388.91 L1519.52 1383.08 Q1523.25 1382.04 1526.49 1381.52 Q1529.76 1381 1532.65 1381 Q1540.1 1381 1544.44 1384.41 Q1548.79 1387.78 1548.79 1393.54 Q1548.79 1397.56 1546.48 1400.35 Q1544.18 1403.1 1539.94 1404.17 Z" fill="#ffffff" fill-rule="nonzero" fill-opacity="1" /><path clip-path="url(#clip580)" d="M1576.33 1386.19 Q1571.28 1386.19 1568.72 1391.18 Q1566.19 1396.14 1566.19 1406.12 Q1566.19 1416.07 1568.72 1421.06 Q1571.28 1426.02 1576.33 1426.02 Q1581.42 1426.02 1583.95 1421.06 Q1586.51 1416.07 1586.51 1406.12 Q1586.51 1396.14 1583.95 1391.18 Q1581.42 1386.19 1576.33 1386.19 M1576.33 1381 Q1584.47 1381 1588.74 1387.45 Q1593.05 1393.87 1593.05 1406.12 Q1593.05 1418.34 1588.74 1424.78 Q1584.47 1431.2 1576.33 1431.2 Q1568.2 1431.2 1563.89 1424.78 Q1559.61 1418.34 1559.61 1406.12 Q1559.61 1393.87 1563.89 1387.45 Q1568.2 1381 1576.33 1381 Z" fill="#ffffff" fill-rule="nonzero" fill-opacity="1" /><path clip-path="url(#clip580)" d="M1922.04 1387.58 L1905.51 1413.41 L1922.04 1413.41 L1922.04 1387.58 M1920.32 1381.88 L1928.56 1381.88 L1928.56 1413.41 L1935.46 1413.41 L1935.46 1418.85 L1928.56 1418.85 L1928.56 1430.26 L1922.04 1430.26 L1922.04 1418.85 L1900.2 1418.85 L1900.2 1412.53 L1920.32 1381.88 Z" fill="#ffffff" fill-rule="nonzero" fill-opacity="1" /><path clip-path="url(#clip580)" d="M1960.28 1386.19 Q1955.23 1386.19 1952.67 1391.18 Q1950.14 1396.14 1950.14 1406.12 Q1950.14 1416.07 1952.67 1421.06 Q1955.23 1426.02 1960.28 1426.02 Q1965.37 1426.02 1967.9 1421.06 Q1970.46 1416.07 1970.46 1406.12 Q1970.46 1396.14 1967.9 1391.18 Q1965.37 1386.19 1960.28 1386.19 M1960.28 1381 Q1968.42 1381 1972.69 1387.45 Q1977 1393.87 1977 1406.12 Q1977 1418.34 1972.69 1424.78 Q1968.42 1431.2 1960.28 1431.2 Q1952.15 1431.2 1947.84 1424.78 Q1943.56 1418.34 1943.56 1406.12 Q1943.56 1393.87 1947.84 1387.45 Q1952.15 1381 1960.28 1381 Z" fill="#ffffff" fill-rule="nonzero" fill-opacity="1" /><path clip-path="url(#clip580)" d="M2286.22 1381.88 L2311.92 1381.88 L2311.92 1387.39 L2292.22 1387.39 L2292.22 1399.25 Q2293.65 1398.76 2295.07 1398.53 Q2296.5 1398.28 2297.92 1398.28 Q2306.03 1398.28 2310.76 1402.72 Q2315.49 1407.16 2315.49 1414.74 Q2315.49 1422.55 2310.63 1426.89 Q2305.77 1431.2 2296.92 1431.2 Q2293.87 1431.2 2290.7 1430.68 Q2287.55 1430.16 2284.18 1429.13 L2284.18 1422.55 Q2287.1 1424.14 2290.21 1424.91 Q2293.32 1425.69 2296.79 1425.69 Q2302.4 1425.69 2305.67 1422.74 Q2308.94 1419.79 2308.94 1414.74 Q2308.94 1409.68 2305.67 1406.73 Q2302.4 1403.78 2296.79 1403.78 Q2294.16 1403.78 2291.54 1404.37 Q2288.95 1404.95 2286.22 1406.18 L2286.22 1381.88 Z" fill="#ffffff" fill-rule="nonzero" fill-opacity="1" /><path clip-path="url(#clip580)" d="M2342.39 1386.19 Q2337.33 1386.19 2334.77 1391.18 Q2332.24 1396.14 2332.24 1406.12 Q2332.24 1416.07 2334.77 1421.06 Q2337.33 1426.02 2342.39 1426.02 Q2347.47 1426.02 2350 1421.06 Q2352.56 1416.07 2352.56 1406.12 Q2352.56 1396.14 2350 1391.18 Q2347.47 1386.19 2342.39 1386.19 M2342.39 1381 Q2350.52 1381 2354.8 1387.45 Q2359.11 1393.87 2359.11 1406.12 Q2359.11 1418.34 2354.8 1424.78 Q2350.52 1431.2 2342.39 1431.2 Q2334.25 1431.2 2329.94 1424.78 Q2325.66 1418.34 2325.66 1406.12 Q2325.66 1393.87 2329.94 1387.45 Q2334.25 1381 2342.39 1381 Z" fill="#ffffff" fill-rule="nonzero" fill-opacity="1" /><path clip-path="url(#clip580)" d="M1047.54 1494.83 Q1040.95 1494.83 1037.11 1500 Q1033.28 1505.13 1033.28 1514.08 Q1033.28 1523.04 1037.07 1528.21 Q1040.9 1533.33 1047.54 1533.33 Q1054.09 1533.33 1057.92 1528.16 Q1061.76 1522.99 1061.76 1514.08 Q1061.76 1505.21 1057.92 1500.05 Q1054.09 1494.83 1047.54 1494.83 M1047.54 1487.88 Q1058.24 1487.88 1064.34 1494.83 Q1070.45 1501.78 1070.45 1514.08 Q1070.45 1526.34 1064.34 1533.33 Q1058.24 1540.28 1047.54 1540.28 Q1036.8 1540.28 1030.7 1533.33 Q1024.64 1526.34 1024.64 1514.08 Q1024.64 1501.78 1030.7 1494.83 Q1036.8 1487.88 1047.54 1487.88 Z" fill="#ffffff" fill-rule="nonzero" fill-opacity="1" /><path clip-path="url(#clip580)" d="M1116.88 1496.66 L1116.88 1469.66 L1125.08 1469.66 L1125.08 1538.99 L1116.88 1538.99 L1116.88 1531.5 Q1114.29 1535.96 1110.33 1538.14 Q1106.41 1540.28 1100.88 1540.28 Q1091.83 1540.28 1086.13 1533.06 Q1080.47 1525.85 1080.47 1514.08 Q1080.47 1502.32 1086.13 1495.1 Q1091.83 1487.88 1100.88 1487.88 Q1106.41 1487.88 1110.33 1490.06 Q1114.29 1492.2 1116.88 1496.66 M1088.94 1514.08 Q1088.94 1523.13 1092.64 1528.3 Q1096.38 1533.42 1102.89 1533.42 Q1109.39 1533.42 1113.13 1528.3 Q1116.88 1523.13 1116.88 1514.08 Q1116.88 1505.04 1113.13 1499.91 Q1109.39 1494.74 1102.89 1494.74 Q1096.38 1494.74 1092.64 1499.91 Q1088.94 1505.04 1088.94 1514.08 Z" fill="#ffffff" fill-rule="nonzero" fill-opacity="1" /><path clip-path="url(#clip580)" d="M1174.8 1496.66 L1174.8 1469.66 L1183 1469.66 L1183 1538.99 L1174.8 1538.99 L1174.8 1531.5 Q1172.22 1535.96 1168.25 1538.14 Q1164.33 1540.28 1158.81 1540.28 Q1149.76 1540.28 1144.06 1533.06 Q1138.4 1525.85 1138.4 1514.08 Q1138.4 1502.32 1144.06 1495.1 Q1149.76 1487.88 1158.81 1487.88 Q1164.33 1487.88 1168.25 1490.06 Q1172.22 1492.2 1174.8 1496.66 M1146.87 1514.08 Q1146.87 1523.13 1150.56 1528.3 Q1154.31 1533.42 1160.81 1533.42 Q1167.32 1533.42 1171.06 1528.3 Q1174.8 1523.13 1174.8 1514.08 Q1174.8 1505.04 1171.06 1499.91 Q1167.32 1494.74 1160.81 1494.74 Q1154.31 1494.74 1150.56 1499.91 Q1146.87 1505.04 1146.87 1514.08 Z" fill="#ffffff" fill-rule="nonzero" fill-opacity="1" /><path clip-path="url(#clip580)" d="M1228.9 1469.66 L1237.1 1469.66 L1237.1 1538.99 L1228.9 1538.99 L1228.9 1469.66 Z" fill="#ffffff" fill-rule="nonzero" fill-opacity="1" /><path clip-path="url(#clip580)" d="M1276.94 1513.9 Q1267 1513.9 1263.17 1516.18 Q1259.34 1518.45 1259.34 1523.93 Q1259.34 1528.3 1262.19 1530.88 Q1265.08 1533.42 1270.03 1533.42 Q1276.85 1533.42 1280.95 1528.61 Q1285.09 1523.75 1285.09 1515.73 L1285.09 1513.9 L1276.94 1513.9 M1293.29 1510.52 L1293.29 1538.99 L1285.09 1538.99 L1285.09 1531.42 Q1282.28 1535.96 1278.09 1538.14 Q1273.91 1540.28 1267.85 1540.28 Q1260.18 1540.28 1255.64 1536.01 Q1251.14 1531.68 1251.14 1524.46 Q1251.14 1516.04 1256.75 1511.76 Q1262.41 1507.49 1273.59 1507.49 L1285.09 1507.49 L1285.09 1506.69 Q1285.09 1501.03 1281.35 1497.95 Q1277.65 1494.83 1270.92 1494.83 Q1266.64 1494.83 1262.59 1495.86 Q1258.53 1496.88 1254.79 1498.93 L1254.79 1491.36 Q1259.29 1489.62 1263.52 1488.77 Q1267.76 1487.88 1271.77 1487.88 Q1282.6 1487.88 1287.94 1493.5 Q1293.29 1499.11 1293.29 1510.52 Z" fill="#ffffff" fill-rule="nonzero" fill-opacity="1" /><path clip-path="url(#clip580)" d="M1318.29 1474.91 L1318.29 1489.08 L1335.18 1489.08 L1335.18 1495.46 L1318.29 1495.46 L1318.29 1522.55 Q1318.29 1528.65 1319.94 1530.39 Q1321.63 1532.13 1326.75 1532.13 L1335.18 1532.13 L1335.18 1538.99 L1326.75 1538.99 Q1317.26 1538.99 1313.65 1535.47 Q1310.04 1531.91 1310.04 1522.55 L1310.04 1495.46 L1304.03 1495.46 L1304.03 1489.08 L1310.04 1489.08 L1310.04 1474.91 L1318.29 1474.91 Z" fill="#ffffff" fill-rule="nonzero" fill-opacity="1" /><path clip-path="url(#clip580)" d="M1354.07 1474.91 L1354.07 1489.08 L1370.96 1489.08 L1370.96 1495.46 L1354.07 1495.46 L1354.07 1522.55 Q1354.07 1528.65 1355.72 1530.39 Q1357.41 1532.13 1362.54 1532.13 L1370.96 1532.13 L1370.96 1538.99 L1362.54 1538.99 Q1353.04 1538.99 1349.44 1535.47 Q1345.83 1531.91 1345.83 1522.55 L1345.83 1495.46 L1339.81 1495.46 L1339.81 1489.08 L1345.83 1489.08 L1345.83 1474.91 L1354.07 1474.91 Z" fill="#ffffff" fill-rule="nonzero" fill-opacity="1" /><path clip-path="url(#clip580)" d="M1381.74 1489.08 L1389.94 1489.08 L1389.94 1538.99 L1381.74 1538.99 L1381.74 1489.08 M1381.74 1469.66 L1389.94 1469.66 L1389.94 1480.04 L1381.74 1480.04 L1381.74 1469.66 Z" fill="#ffffff" fill-rule="nonzero" fill-opacity="1" /><path clip-path="url(#clip580)" d="M1443.01 1491 L1443.01 1498.66 Q1439.54 1496.75 1436.02 1495.81 Q1432.54 1494.83 1428.97 1494.83 Q1421 1494.83 1416.59 1499.91 Q1412.18 1504.95 1412.18 1514.08 Q1412.18 1523.22 1416.59 1528.3 Q1421 1533.33 1428.97 1533.33 Q1432.54 1533.33 1436.02 1532.4 Q1439.54 1531.42 1443.01 1529.5 L1443.01 1537.07 Q1439.58 1538.68 1435.88 1539.48 Q1432.23 1540.28 1428.08 1540.28 Q1416.81 1540.28 1410.17 1533.2 Q1403.53 1526.11 1403.53 1514.08 Q1403.53 1501.87 1410.22 1494.88 Q1416.94 1487.88 1428.62 1487.88 Q1432.41 1487.88 1436.02 1488.68 Q1439.62 1489.44 1443.01 1491 Z" fill="#ffffff" fill-rule="nonzero" fill-opacity="1" /><path clip-path="url(#clip580)" d="M1499.96 1511.99 L1499.96 1516 L1462.26 1516 Q1462.8 1524.46 1467.34 1528.92 Q1471.93 1533.33 1480.09 1533.33 Q1484.81 1533.33 1489.22 1532.17 Q1493.68 1531.01 1498.04 1528.7 L1498.04 1536.45 Q1493.63 1538.32 1489 1539.3 Q1484.36 1540.28 1479.59 1540.28 Q1467.65 1540.28 1460.66 1533.33 Q1453.71 1526.38 1453.71 1514.53 Q1453.71 1502.27 1460.3 1495.1 Q1466.94 1487.88 1478.17 1487.88 Q1488.24 1487.88 1494.08 1494.39 Q1499.96 1500.85 1499.96 1511.99 M1491.76 1509.58 Q1491.67 1502.85 1487.97 1498.84 Q1484.32 1494.83 1478.26 1494.83 Q1471.4 1494.83 1467.25 1498.71 Q1463.15 1502.59 1462.53 1509.63 L1491.76 1509.58 Z" fill="#ffffff" fill-rule="nonzero" fill-opacity="1" /><path clip-path="url(#clip580)" d="M1574.24 1490.55 L1574.24 1498.31 Q1570.76 1496.53 1567.02 1495.63 Q1563.28 1494.74 1559.27 1494.74 Q1553.16 1494.74 1550.09 1496.61 Q1547.06 1498.49 1547.06 1502.23 Q1547.06 1505.08 1549.24 1506.73 Q1551.43 1508.33 1558.02 1509.8 L1560.83 1510.43 Q1569.56 1512.3 1573.22 1515.73 Q1576.91 1519.12 1576.91 1525.22 Q1576.91 1532.17 1571.39 1536.23 Q1565.91 1540.28 1556.28 1540.28 Q1552.27 1540.28 1547.91 1539.48 Q1543.58 1538.72 1538.77 1537.16 L1538.77 1528.7 Q1543.32 1531.06 1547.73 1532.26 Q1552.14 1533.42 1556.46 1533.42 Q1562.25 1533.42 1565.37 1531.46 Q1568.49 1529.46 1568.49 1525.85 Q1568.49 1522.5 1566.22 1520.72 Q1563.99 1518.94 1556.37 1517.29 L1553.52 1516.62 Q1545.9 1515.02 1542.51 1511.72 Q1539.13 1508.38 1539.13 1502.59 Q1539.13 1495.55 1544.12 1491.71 Q1549.11 1487.88 1558.29 1487.88 Q1562.83 1487.88 1566.84 1488.55 Q1570.85 1489.22 1574.24 1490.55 Z" fill="#ffffff" fill-rule="nonzero" fill-opacity="1" /><path clip-path="url(#clip580)" d="M1589.97 1489.08 L1598.17 1489.08 L1598.17 1538.99 L1589.97 1538.99 L1589.97 1489.08 M1589.97 1469.66 L1598.17 1469.66 L1598.17 1480.04 L1589.97 1480.04 L1589.97 1469.66 Z" fill="#ffffff" fill-rule="nonzero" fill-opacity="1" /><path clip-path="url(#clip580)" d="M1623.43 1474.91 L1623.43 1489.08 L1640.32 1489.08 L1640.32 1495.46 L1623.43 1495.46 L1623.43 1522.55 Q1623.43 1528.65 1625.08 1530.39 Q1626.78 1532.13 1631.9 1532.13 L1640.32 1532.13 L1640.32 1538.99 L1631.9 1538.99 Q1622.41 1538.99 1618.8 1535.47 Q1615.19 1531.91 1615.19 1522.55 L1615.19 1495.46 L1609.18 1495.46 L1609.18 1489.08 L1615.19 1489.08 L1615.19 1474.91 L1623.43 1474.91 Z" fill="#ffffff" fill-rule="nonzero" fill-opacity="1" /><path clip-path="url(#clip580)" d="M1693.79 1511.99 L1693.79 1516 L1656.1 1516 Q1656.63 1524.46 1661.18 1528.92 Q1665.77 1533.33 1673.92 1533.33 Q1678.64 1533.33 1683.06 1532.17 Q1687.51 1531.01 1691.88 1528.7 L1691.88 1536.45 Q1687.47 1538.32 1682.83 1539.3 Q1678.2 1540.28 1673.43 1540.28 Q1661.49 1540.28 1654.49 1533.33 Q1647.54 1526.38 1647.54 1514.53 Q1647.54 1502.27 1654.14 1495.1 Q1660.78 1487.88 1672 1487.88 Q1682.08 1487.88 1687.91 1494.39 Q1693.79 1500.85 1693.79 1511.99 M1685.6 1509.58 Q1685.51 1502.85 1681.81 1498.84 Q1678.15 1494.83 1672.09 1494.83 Q1665.23 1494.83 1661.09 1498.71 Q1656.99 1502.59 1656.36 1509.63 L1685.6 1509.58 Z" fill="#ffffff" fill-rule="nonzero" fill-opacity="1" /><path clip-path="url(#clip580)" d="M1739.07 1490.55 L1739.07 1498.31 Q1735.59 1496.53 1731.85 1495.63 Q1728.11 1494.74 1724.1 1494.74 Q1717.99 1494.74 1714.92 1496.61 Q1711.89 1498.49 1711.89 1502.23 Q1711.89 1505.08 1714.07 1506.73 Q1716.25 1508.33 1722.85 1509.8 L1725.65 1510.43 Q1734.39 1512.3 1738.04 1515.73 Q1741.74 1519.12 1741.74 1525.22 Q1741.74 1532.17 1736.22 1536.23 Q1730.73 1540.28 1721.11 1540.28 Q1717.1 1540.28 1712.73 1539.48 Q1708.41 1538.72 1703.6 1537.16 L1703.6 1528.7 Q1708.14 1531.06 1712.55 1532.26 Q1716.97 1533.42 1721.29 1533.42 Q1727.08 1533.42 1730.2 1531.46 Q1733.32 1529.46 1733.32 1525.85 Q1733.32 1522.5 1731.05 1520.72 Q1728.82 1518.94 1721.2 1517.29 L1718.35 1516.62 Q1710.73 1515.02 1707.34 1511.72 Q1703.95 1508.38 1703.95 1502.59 Q1703.95 1495.55 1708.94 1491.71 Q1713.94 1487.88 1723.12 1487.88 Q1727.66 1487.88 1731.67 1488.55 Q1735.68 1489.22 1739.07 1490.55 Z" fill="#ffffff" fill-rule="nonzero" fill-opacity="1" /><polyline clip-path="url(#clip582)" style="stroke:#adb2b7; stroke-linecap:round; stroke-linejoin:round; stroke-width:2.8; stroke-opacity:0.1; fill:none" points="388.426,1317.75 2377.95,1317.75 "/>
<polyline clip-path="url(#clip582)" style="stroke:#adb2b7; stroke-linecap:round; stroke-linejoin:round; stroke-width:2.8; stroke-opacity:0.1; fill:none" points="388.426,996.632 2377.95,996.632 "/>
<polyline clip-path="url(#clip582)" style="stroke:#adb2b7; stroke-linecap:round; stroke-linejoin:round; stroke-width:2.8; stroke-opacity:0.1; fill:none" points="388.426,675.51 2377.95,675.51 "/>
<polyline clip-path="url(#clip582)" style="stroke:#adb2b7; stroke-linecap:round; stroke-linejoin:round; stroke-width:2.8; stroke-opacity:0.1; fill:none" points="388.426,354.389 2377.95,354.389 "/>
<polyline clip-path="url(#clip582)" style="stroke:#adb2b7; stroke-linecap:round; stroke-linejoin:round; stroke-width:2.8; stroke-opacity:0.1; fill:none" points="388.426,33.267 2377.95,33.267 "/>
<polyline clip-path="url(#clip580)" style="stroke:#adb2b7; stroke-linecap:round; stroke-linejoin:round; stroke-width:5.6; stroke-opacity:1; fill:none" points="388.426,1350.58 388.426,22.0472 "/>
<polyline clip-path="url(#clip580)" style="stroke:#adb2b7; stroke-linecap:round; stroke-linejoin:round; stroke-width:5.6; stroke-opacity:1; fill:none" points="388.426,1317.75 407.324,1317.75 "/>
<polyline clip-path="url(#clip580)" style="stroke:#adb2b7; stroke-linecap:round; stroke-linejoin:round; stroke-width:5.6; stroke-opacity:1; fill:none" points="388.426,996.632 407.324,996.632 "/>
<polyline clip-path="url(#clip580)" style="stroke:#adb2b7; stroke-linecap:round; stroke-linejoin:round; stroke-width:5.6; stroke-opacity:1; fill:none" points="388.426,675.51 407.324,675.51 "/>
<polyline clip-path="url(#clip580)" style="stroke:#adb2b7; stroke-linecap:round; stroke-linejoin:round; stroke-width:5.6; stroke-opacity:1; fill:none" points="388.426,354.389 407.324,354.389 "/>
<polyline clip-path="url(#clip580)" style="stroke:#adb2b7; stroke-linecap:round; stroke-linejoin:round; stroke-width:5.6; stroke-opacity:1; fill:none" points="388.426,33.267 407.324,33.267 "/>
<path clip-path="url(#clip580)" d="M230.154 1297.87 Q225.098 1297.87 222.538 1302.86 Q220.01 1307.82 220.01 1317.8 Q220.01 1327.75 222.538 1332.74 Q225.098 1337.7 230.154 1337.7 Q235.242 1337.7 237.769 1332.74 Q240.33 1327.75 240.33 1317.8 Q240.33 1307.82 237.769 1302.86 Q235.242 1297.87 230.154 1297.87 M230.154 1292.69 Q238.288 1292.69 242.566 1299.14 Q246.876 1305.55 246.876 1317.8 Q246.876 1330.02 242.566 1336.47 Q238.288 1342.89 230.154 1342.89 Q222.019 1342.89 217.709 1336.47 Q213.432 1330.02 213.432 1317.8 Q213.432 1305.55 217.709 1299.14 Q222.019 1292.69 230.154 1292.69 Z" fill="#ffffff" fill-rule="nonzero" fill-opacity="1" /><path clip-path="url(#clip580)" d="M258.38 1333.71 L265.218 1333.71 L265.218 1341.95 L258.38 1341.95 L258.38 1333.71 Z" fill="#ffffff" fill-rule="nonzero" fill-opacity="1" /><path clip-path="url(#clip580)" d="M293.477 1297.87 Q288.422 1297.87 285.862 1302.86 Q283.334 1307.82 283.334 1317.8 Q283.334 1327.75 285.862 1332.74 Q288.422 1337.7 293.477 1337.7 Q298.565 1337.7 301.093 1332.74 Q303.653 1327.75 303.653 1317.8 Q303.653 1307.82 301.093 1302.86 Q298.565 1297.87 293.477 1297.87 M293.477 1292.69 Q301.612 1292.69 305.889 1299.14 Q310.2 1305.55 310.2 1317.8 Q310.2 1330.02 305.889 1336.47 Q301.612 1342.89 293.477 1342.89 Q285.343 1342.89 281.033 1336.47 Q276.755 1330.02 276.755 1317.8 Q276.755 1305.55 281.033 1299.14 Q285.343 1292.69 293.477 1292.69 Z" fill="#ffffff" fill-rule="nonzero" fill-opacity="1" /><path clip-path="url(#clip580)" d="M335.704 1297.87 Q330.649 1297.87 328.088 1302.86 Q325.561 1307.82 325.561 1317.8 Q325.561 1327.75 328.088 1332.74 Q330.649 1337.7 335.704 1337.7 Q340.792 1337.7 343.32 1332.74 Q345.88 1327.75 345.88 1317.8 Q345.88 1307.82 343.32 1302.86 Q340.792 1297.87 335.704 1297.87 M335.704 1292.69 Q343.838 1292.69 348.116 1299.14 Q352.426 1305.55 352.426 1317.8 Q352.426 1330.02 348.116 1336.47 Q343.838 1342.89 335.704 1342.89 Q327.57 1342.89 323.26 1336.47 Q318.982 1330.02 318.982 1317.8 Q318.982 1305.55 323.26 1299.14 Q327.57 1292.69 335.704 1292.69 Z" fill="#ffffff" fill-rule="nonzero" fill-opacity="1" /><path clip-path="url(#clip580)" d="M231.871 976.75 Q226.816 976.75 224.256 981.741 Q221.728 986.699 221.728 996.681 Q221.728 1006.63 224.256 1011.62 Q226.816 1016.58 231.871 1016.58 Q236.959 1016.58 239.487 1011.62 Q242.047 1006.63 242.047 996.681 Q242.047 986.699 239.487 981.741 Q236.959 976.75 231.871 976.75 M231.871 971.565 Q240.005 971.565 244.283 978.014 Q248.593 984.431 248.593 996.681 Q248.593 1008.9 244.283 1015.35 Q240.005 1021.76 231.871 1021.76 Q223.737 1021.76 219.427 1015.35 Q215.149 1008.9 215.149 996.681 Q215.149 984.431 219.427 978.014 Q223.737 971.565 231.871 971.565 Z" fill="#ffffff" fill-rule="nonzero" fill-opacity="1" /><path clip-path="url(#clip580)" d="M260.098 1012.59 L266.936 1012.59 L266.936 1020.82 L260.098 1020.82 L260.098 1012.59 Z" fill="#ffffff" fill-rule="nonzero" fill-opacity="1" /><path clip-path="url(#clip580)" d="M295.195 976.75 Q290.139 976.75 287.579 981.741 Q285.052 986.699 285.052 996.681 Q285.052 1006.63 287.579 1011.62 Q290.139 1016.58 295.195 1016.58 Q300.283 1016.58 302.811 1011.62 Q305.371 1006.63 305.371 996.681 Q305.371 986.699 302.811 981.741 Q300.283 976.75 295.195 976.75 M295.195 971.565 Q303.329 971.565 307.607 978.014 Q311.917 984.431 311.917 996.681 Q311.917 1008.9 307.607 1015.35 Q303.329 1021.76 295.195 1021.76 Q287.061 1021.76 282.751 1015.35 Q278.473 1008.9 278.473 996.681 Q278.473 984.431 282.751 978.014 Q287.061 971.565 295.195 971.565 Z" fill="#ffffff" fill-rule="nonzero" fill-opacity="1" /><path clip-path="url(#clip580)" d="M324.556 1015.31 L335.25 1015.31 L335.25 978.403 L323.616 980.736 L323.616 974.773 L335.186 972.44 L341.732 972.44 L341.732 1015.31 L352.426 1015.31 L352.426 1020.82 L324.556 1020.82 L324.556 1015.31 Z" fill="#ffffff" fill-rule="nonzero" fill-opacity="1" /><path clip-path="url(#clip580)" d="M232.39 655.629 Q227.334 655.629 224.774 660.619 Q222.246 665.578 222.246 675.559 Q222.246 685.508 224.774 690.499 Q227.334 695.457 232.39 695.457 Q237.478 695.457 240.005 690.499 Q242.566 685.508 242.566 675.559 Q242.566 665.578 240.005 660.619 Q237.478 655.629 232.39 655.629 M232.39 650.443 Q240.524 650.443 244.802 656.892 Q249.112 663.309 249.112 675.559 Q249.112 687.777 244.802 694.226 Q240.524 700.642 232.39 700.642 Q224.256 700.642 219.945 694.226 Q215.668 687.777 215.668 675.559 Q215.668 663.309 219.945 656.892 Q224.256 650.443 232.39 650.443 Z" fill="#ffffff" fill-rule="nonzero" fill-opacity="1" /><path clip-path="url(#clip580)" d="M260.616 691.471 L267.454 691.471 L267.454 699.702 L260.616 699.702 L260.616 691.471 Z" fill="#ffffff" fill-rule="nonzero" fill-opacity="1" /><path clip-path="url(#clip580)" d="M295.714 655.629 Q290.658 655.629 288.098 660.619 Q285.57 665.578 285.57 675.559 Q285.57 685.508 288.098 690.499 Q290.658 695.457 295.714 695.457 Q300.801 695.457 303.329 690.499 Q305.889 685.508 305.889 675.559 Q305.889 665.578 303.329 660.619 Q300.801 655.629 295.714 655.629 M295.714 650.443 Q303.848 650.443 308.125 656.892 Q312.436 663.309 312.436 675.559 Q312.436 687.777 308.125 694.226 Q303.848 700.642 295.714 700.642 Q287.579 700.642 283.269 694.226 Q278.991 687.777 278.991 675.559 Q278.991 663.309 283.269 656.892 Q287.579 650.443 295.714 650.443 Z" fill="#ffffff" fill-rule="nonzero" fill-opacity="1" /><path clip-path="url(#clip580)" d="M329.579 694.193 L352.426 694.193 L352.426 699.702 L321.704 699.702 L321.704 694.193 Q325.431 690.337 331.848 683.855 Q338.297 677.341 339.949 675.462 Q343.093 671.929 344.324 669.499 Q345.588 667.036 345.588 664.67 Q345.588 660.814 342.866 658.383 Q340.176 655.953 335.834 655.953 Q332.755 655.953 329.32 657.022 Q325.917 658.092 322.028 660.263 L322.028 653.652 Q325.982 652.064 329.417 651.254 Q332.852 650.443 335.704 650.443 Q343.223 650.443 347.695 654.203 Q352.167 657.962 352.167 664.249 Q352.167 667.23 351.033 669.92 Q349.931 672.578 346.982 676.207 Q346.172 677.147 341.829 681.652 Q337.486 686.124 329.579 694.193 Z" fill="#ffffff" fill-rule="nonzero" fill-opacity="1" /><path clip-path="url(#clip580)" d="M231.061 334.507 Q226.006 334.507 223.445 339.498 Q220.918 344.456 220.918 354.437 Q220.918 364.386 223.445 369.377 Q226.006 374.335 231.061 374.335 Q236.149 374.335 238.677 369.377 Q241.237 364.386 241.237 354.437 Q241.237 344.456 238.677 339.498 Q236.149 334.507 231.061 334.507 M231.061 329.322 Q239.195 329.322 243.473 335.771 Q247.783 342.187 247.783 354.437 Q247.783 366.655 243.473 373.104 Q239.195 379.521 231.061 379.521 Q222.927 379.521 218.617 373.104 Q214.339 366.655 214.339 354.437 Q214.339 342.187 218.617 335.771 Q222.927 329.322 231.061 329.322 Z" fill="#ffffff" fill-rule="nonzero" fill-opacity="1" /><path clip-path="url(#clip580)" d="M259.288 370.349 L266.126 370.349 L266.126 378.581 L259.288 378.581 L259.288 370.349 Z" fill="#ffffff" fill-rule="nonzero" fill-opacity="1" /><path clip-path="url(#clip580)" d="M294.385 334.507 Q289.329 334.507 286.769 339.498 Q284.241 344.456 284.241 354.437 Q284.241 364.386 286.769 369.377 Q289.329 374.335 294.385 374.335 Q299.473 374.335 302.001 369.377 Q304.561 364.386 304.561 354.437 Q304.561 344.456 302.001 339.498 Q299.473 334.507 294.385 334.507 M294.385 329.322 Q302.519 329.322 306.797 335.771 Q311.107 342.187 311.107 354.437 Q311.107 366.655 306.797 373.104 Q302.519 379.521 294.385 379.521 Q286.251 379.521 281.94 373.104 Q277.663 366.655 277.663 354.437 Q277.663 342.187 281.94 335.771 Q286.251 329.322 294.385 329.322 Z" fill="#ffffff" fill-rule="nonzero" fill-opacity="1" /><path clip-path="url(#clip580)" d="M342.445 352.493 Q347.144 353.498 349.769 356.673 Q352.426 359.849 352.426 364.516 Q352.426 371.678 347.5 375.599 Q342.574 379.521 333.5 379.521 Q330.454 379.521 327.213 378.905 Q324.005 378.321 320.57 377.122 L320.57 370.803 Q323.292 372.391 326.533 373.201 Q329.774 374.011 333.306 374.011 Q339.463 374.011 342.672 371.581 Q345.912 369.15 345.912 364.516 Q345.912 360.238 342.898 357.84 Q339.917 355.41 334.57 355.41 L328.931 355.41 L328.931 350.03 L334.829 350.03 Q339.658 350.03 342.218 348.118 Q344.778 346.173 344.778 342.544 Q344.778 338.817 342.121 336.84 Q339.496 334.831 334.57 334.831 Q331.88 334.831 328.801 335.414 Q325.723 335.998 322.028 337.229 L322.028 331.396 Q325.755 330.359 328.996 329.84 Q332.269 329.322 335.153 329.322 Q342.607 329.322 346.949 332.724 Q351.292 336.095 351.292 341.863 Q351.292 345.882 348.991 348.669 Q346.69 351.423 342.445 352.493 Z" fill="#ffffff" fill-rule="nonzero" fill-opacity="1" /><path clip-path="url(#clip580)" d="M229.473 13.3852 Q224.418 13.3852 221.857 18.3759 Q219.33 23.3342 219.33 33.3156 Q219.33 43.2646 221.857 48.2554 Q224.418 53.2137 229.473 53.2137 Q234.561 53.2137 237.089 48.2554 Q239.649 43.2646 239.649 33.3156 Q239.649 23.3342 237.089 18.3759 Q234.561 13.3852 229.473 13.3852 M229.473 8.20002 Q237.607 8.20002 241.885 14.6491 Q246.195 21.0657 246.195 33.3156 Q246.195 45.5332 241.885 51.9822 Q237.607 58.3988 229.473 58.3988 Q221.339 58.3988 217.029 51.9822 Q212.751 45.5332 212.751 33.3156 Q212.751 21.0657 217.029 14.6491 Q221.339 8.20002 229.473 8.20002 Z" fill="#ffffff" fill-rule="nonzero" fill-opacity="1" /><path clip-path="url(#clip580)" d="M257.7 49.2276 L264.538 49.2276 L264.538 57.459 L257.7 57.459 L257.7 49.2276 Z" fill="#ffffff" fill-rule="nonzero" fill-opacity="1" /><path clip-path="url(#clip580)" d="M292.797 13.3852 Q287.741 13.3852 285.181 18.3759 Q282.653 23.3342 282.653 33.3156 Q282.653 43.2646 285.181 48.2554 Q287.741 53.2137 292.797 53.2137 Q297.885 53.2137 300.413 48.2554 Q302.973 43.2646 302.973 33.3156 Q302.973 23.3342 300.413 18.3759 Q297.885 13.3852 292.797 13.3852 M292.797 8.20002 Q300.931 8.20002 305.209 14.6491 Q309.519 21.0657 309.519 33.3156 Q309.519 45.5332 305.209 51.9822 Q300.931 58.3988 292.797 58.3988 Q284.663 58.3988 280.352 51.9822 Q276.075 45.5332 276.075 33.3156 Q276.075 21.0657 280.352 14.6491 Q284.663 8.20002 292.797 8.20002 Z" fill="#ffffff" fill-rule="nonzero" fill-opacity="1" /><path clip-path="url(#clip580)" d="M339.01 14.7787 L322.482 40.6073 L339.01 40.6073 L339.01 14.7787 M337.292 9.07501 L345.523 9.07501 L345.523 40.6073 L352.426 40.6073 L352.426 46.0517 L345.523 46.0517 L345.523 57.459 L339.01 57.459 L339.01 46.0517 L317.167 46.0517 L317.167 39.7323 L337.292 9.07501 Z" fill="#ffffff" fill-rule="nonzero" fill-opacity="1" /><path clip-path="url(#clip580)" d="M149.307 1188.04 L175.775 1188.04 L175.775 1196.28 L106.885 1196.28 L106.885 1188.04 L114.461 1188.04 Q110.005 1185.45 107.866 1181.53 Q105.682 1177.57 105.682 1172.08 Q105.682 1162.99 112.901 1157.34 Q120.12 1151.63 131.884 1151.63 Q143.647 1151.63 150.866 1157.34 Q158.085 1162.99 158.085 1172.08 Q158.085 1177.57 155.946 1181.53 Q153.763 1185.45 149.307 1188.04 M131.884 1160.14 Q122.838 1160.14 117.714 1163.89 Q112.545 1167.58 112.545 1174.09 Q112.545 1180.6 117.714 1184.34 Q122.838 1188.04 131.884 1188.04 Q140.929 1188.04 146.098 1184.34 Q151.223 1180.6 151.223 1174.09 Q151.223 1167.58 146.098 1163.89 Q140.929 1160.14 131.884 1160.14 Z" fill="#ffffff" fill-rule="nonzero" fill-opacity="1" /><path clip-path="url(#clip580)" d="M114.55 1109.12 Q113.748 1110.5 113.391 1112.15 Q112.99 1113.76 112.99 1115.72 Q112.99 1122.67 117.535 1126.41 Q122.036 1130.11 130.502 1130.11 L156.793 1130.11 L156.793 1138.35 L106.885 1138.35 L106.885 1130.11 L114.639 1130.11 Q110.094 1127.52 107.91 1123.38 Q105.682 1119.24 105.682 1113.31 Q105.682 1112.46 105.816 1111.44 Q105.905 1110.41 106.128 1109.17 L114.55 1109.12 Z" fill="#ffffff" fill-rule="nonzero" fill-opacity="1" /><path clip-path="url(#clip580)" d="M112.634 1083.19 Q112.634 1089.78 117.803 1093.61 Q122.927 1097.45 131.884 1097.45 Q140.84 1097.45 146.009 1093.66 Q151.133 1089.83 151.133 1083.19 Q151.133 1076.64 145.965 1072.81 Q140.796 1068.97 131.884 1068.97 Q123.016 1068.97 117.847 1072.81 Q112.634 1076.64 112.634 1083.19 M105.682 1083.19 Q105.682 1072.49 112.634 1066.39 Q119.585 1060.28 131.884 1060.28 Q144.138 1060.28 151.133 1066.39 Q158.085 1072.49 158.085 1083.19 Q158.085 1093.93 151.133 1100.03 Q144.138 1106.09 131.884 1106.09 Q119.585 1106.09 112.634 1100.03 Q105.682 1093.93 105.682 1083.19 Z" fill="#ffffff" fill-rule="nonzero" fill-opacity="1" /><path clip-path="url(#clip580)" d="M131.884 1010.87 Q122.838 1010.87 117.714 1014.61 Q112.545 1018.31 112.545 1024.81 Q112.545 1031.32 117.714 1035.06 Q122.838 1038.76 131.884 1038.76 Q140.929 1038.76 146.098 1035.06 Q151.223 1031.32 151.223 1024.81 Q151.223 1018.31 146.098 1014.61 Q140.929 1010.87 131.884 1010.87 M114.461 1038.76 Q110.005 1036.18 107.866 1032.26 Q105.682 1028.29 105.682 1022.81 Q105.682 1013.72 112.901 1008.06 Q120.12 1002.36 131.884 1002.36 Q143.647 1002.36 150.866 1008.06 Q158.085 1013.72 158.085 1022.81 Q158.085 1028.29 155.946 1032.26 Q153.763 1036.18 149.307 1038.76 L156.793 1038.76 L156.793 1047 L87.4573 1047 L87.4573 1038.76 L114.461 1038.76 Z" fill="#ffffff" fill-rule="nonzero" fill-opacity="1" /><path clip-path="url(#clip580)" d="M131.705 966.084 Q131.705 976.021 133.978 979.853 Q136.25 983.685 141.731 983.685 Q146.098 983.685 148.683 980.833 Q151.223 977.937 151.223 972.991 Q151.223 966.173 146.41 962.074 Q141.553 957.93 133.532 957.93 L131.705 957.93 L131.705 966.084 M128.319 949.73 L156.793 949.73 L156.793 957.93 L149.217 957.93 Q153.763 960.737 155.946 964.925 Q158.085 969.114 158.085 975.174 Q158.085 982.839 153.807 987.384 Q149.485 991.884 142.266 991.884 Q133.844 991.884 129.566 986.27 Q125.289 980.611 125.289 969.426 L125.289 957.93 L124.487 957.93 Q118.828 957.93 115.753 961.673 Q112.634 965.371 112.634 972.1 Q112.634 976.377 113.659 980.432 Q114.683 984.487 116.733 988.23 L109.158 988.23 Q107.42 983.73 106.574 979.497 Q105.682 975.263 105.682 971.253 Q105.682 960.425 111.297 955.078 Q116.911 949.73 128.319 949.73 Z" fill="#ffffff" fill-rule="nonzero" fill-opacity="1" /><path clip-path="url(#clip580)" d="M131.884 897.016 Q122.838 897.016 117.714 900.759 Q112.545 904.458 112.545 910.963 Q112.545 917.469 117.714 921.212 Q122.838 924.911 131.884 924.911 Q140.929 924.911 146.098 921.212 Q151.223 917.469 151.223 910.963 Q151.223 904.458 146.098 900.759 Q140.929 897.016 131.884 897.016 M114.461 924.911 Q110.005 922.326 107.866 918.405 Q105.682 914.439 105.682 908.958 Q105.682 899.868 112.901 894.209 Q120.12 888.505 131.884 888.505 Q143.647 888.505 150.866 894.209 Q158.085 899.868 158.085 908.958 Q158.085 914.439 155.946 918.405 Q153.763 922.326 149.307 924.911 L156.793 924.911 L156.793 933.154 L87.4573 933.154 L87.4573 924.911 L114.461 924.911 Z" fill="#ffffff" fill-rule="nonzero" fill-opacity="1" /><path clip-path="url(#clip580)" d="M106.885 874.914 L106.885 866.715 L156.793 866.715 L156.793 874.914 L106.885 874.914 M87.4573 874.914 L87.4573 866.715 L97.8398 866.715 L97.8398 874.914 L87.4573 874.914 Z" fill="#ffffff" fill-rule="nonzero" fill-opacity="1" /><path clip-path="url(#clip580)" d="M87.4573 849.56 L87.4573 841.361 L156.793 841.361 L156.793 849.56 L87.4573 849.56 Z" fill="#ffffff" fill-rule="nonzero" fill-opacity="1" /><path clip-path="url(#clip580)" d="M106.885 824.205 L106.885 816.006 L156.793 816.006 L156.793 824.205 L106.885 824.205 M87.4573 824.205 L87.4573 816.006 L97.8398 816.006 L97.8398 824.205 L87.4573 824.205 Z" fill="#ffffff" fill-rule="nonzero" fill-opacity="1" /><path clip-path="url(#clip580)" d="M92.7154 790.741 L106.885 790.741 L106.885 773.852 L113.258 773.852 L113.258 790.741 L140.35 790.741 Q146.455 790.741 148.193 789.092 Q149.93 787.399 149.93 782.274 L149.93 773.852 L156.793 773.852 L156.793 782.274 Q156.793 791.765 153.272 795.375 Q149.708 798.984 140.35 798.984 L113.258 798.984 L113.258 805 L106.885 805 L106.885 798.984 L92.7154 798.984 L92.7154 790.741 Z" fill="#ffffff" fill-rule="nonzero" fill-opacity="1" /><path clip-path="url(#clip580)" d="M161.427 742.304 Q170.339 745.78 173.057 749.077 Q175.775 752.374 175.775 757.9 L175.775 764.45 L168.913 764.45 L168.913 759.638 Q168.913 756.251 167.309 754.38 Q165.705 752.508 159.734 750.236 L155.991 748.765 L106.885 768.951 L106.885 760.262 L145.92 744.666 L106.885 729.07 L106.885 720.38 L161.427 742.304 Z" fill="#ffffff" fill-rule="nonzero" fill-opacity="1" /><path clip-path="url(#clip580)" d="M114.461 647.213 L87.4573 647.213 L87.4573 639.014 L156.793 639.014 L156.793 647.213 L149.307 647.213 Q153.763 649.797 155.946 653.763 Q158.085 657.685 158.085 663.21 Q158.085 672.256 150.866 677.959 Q143.647 683.618 131.884 683.618 Q120.12 683.618 112.901 677.959 Q105.682 672.256 105.682 663.21 Q105.682 657.685 107.866 653.763 Q110.005 649.797 114.461 647.213 M131.884 675.152 Q140.929 675.152 146.098 671.454 Q151.223 667.711 151.223 661.205 Q151.223 654.699 146.098 650.956 Q140.929 647.213 131.884 647.213 Q122.838 647.213 117.714 650.956 Q112.545 654.699 112.545 661.205 Q112.545 667.711 117.714 671.454 Q122.838 675.152 131.884 675.152 Z" fill="#ffffff" fill-rule="nonzero" fill-opacity="1" /><path clip-path="url(#clip580)" d="M106.885 622.126 L106.885 613.927 L156.793 613.927 L156.793 622.126 L106.885 622.126 M87.4573 622.126 L87.4573 613.927 L97.8398 613.927 L97.8398 622.126 L87.4573 622.126 Z" fill="#ffffff" fill-rule="nonzero" fill-opacity="1" /><path clip-path="url(#clip580)" d="M108.356 564.955 L116.109 564.955 Q114.327 568.431 113.436 572.174 Q112.545 575.917 112.545 579.927 Q112.545 586.032 114.416 589.107 Q116.288 592.137 120.031 592.137 Q122.882 592.137 124.531 589.953 Q126.135 587.77 127.606 581.175 L128.23 578.368 Q130.101 569.634 133.532 565.98 Q136.919 562.282 143.024 562.282 Q149.975 562.282 154.03 567.807 Q158.085 573.288 158.085 582.913 Q158.085 586.923 157.283 591.29 Q156.525 595.613 154.966 600.425 L146.499 600.425 Q148.861 595.88 150.064 591.469 Q151.223 587.057 151.223 582.735 Q151.223 576.942 149.262 573.823 Q147.257 570.704 143.647 570.704 Q140.305 570.704 138.523 572.976 Q136.741 575.204 135.092 582.824 L134.424 585.676 Q132.819 593.295 129.522 596.682 Q126.18 600.069 120.387 600.069 Q113.347 600.069 109.515 595.078 Q105.682 590.087 105.682 580.908 Q105.682 576.363 106.351 572.352 Q107.019 568.342 108.356 564.955 Z" fill="#ffffff" fill-rule="nonzero" fill-opacity="1" /><path clip-path="url(#clip580)" d="M92.7154 541.116 L106.885 541.116 L106.885 524.228 L113.258 524.228 L113.258 541.116 L140.35 541.116 Q146.455 541.116 148.193 539.467 Q149.93 537.774 149.93 532.649 L149.93 524.228 L156.793 524.228 L156.793 532.649 Q156.793 542.141 153.272 545.75 Q149.708 549.359 140.35 549.359 L113.258 549.359 L113.258 555.375 L106.885 555.375 L106.885 549.359 L92.7154 549.359 L92.7154 541.116 Z" fill="#ffffff" fill-rule="nonzero" fill-opacity="1" /><path clip-path="url(#clip580)" d="M114.55 484.525 Q113.748 485.906 113.391 487.555 Q112.99 489.159 112.99 491.12 Q112.99 498.071 117.535 501.814 Q122.036 505.512 130.502 505.512 L156.793 505.512 L156.793 513.756 L106.885 513.756 L106.885 505.512 L114.639 505.512 Q110.094 502.928 107.91 498.784 Q105.682 494.64 105.682 488.713 Q105.682 487.867 105.816 486.842 Q105.905 485.817 106.128 484.569 L114.55 484.525 Z" fill="#ffffff" fill-rule="nonzero" fill-opacity="1" /><path clip-path="url(#clip580)" d="M106.885 475.925 L106.885 467.726 L156.793 467.726 L156.793 475.925 L106.885 475.925 M87.4573 475.925 L87.4573 467.726 L97.8398 467.726 L97.8398 475.925 L87.4573 475.925 Z" fill="#ffffff" fill-rule="nonzero" fill-opacity="1" /><path clip-path="url(#clip580)" d="M131.884 414.744 Q122.838 414.744 117.714 418.487 Q112.545 422.185 112.545 428.691 Q112.545 435.197 117.714 438.94 Q122.838 442.638 131.884 442.638 Q140.929 442.638 146.098 438.94 Q151.223 435.197 151.223 428.691 Q151.223 422.185 146.098 418.487 Q140.929 414.744 131.884 414.744 M114.461 442.638 Q110.005 440.054 107.866 436.133 Q105.682 432.167 105.682 426.686 Q105.682 417.596 112.901 411.936 Q120.12 406.233 131.884 406.233 Q143.647 406.233 150.866 411.936 Q158.085 417.596 158.085 426.686 Q158.085 432.167 155.946 436.133 Q153.763 440.054 149.307 442.638 L156.793 442.638 L156.793 450.882 L87.4573 450.882 L87.4573 442.638 L114.461 442.638 Z" fill="#ffffff" fill-rule="nonzero" fill-opacity="1" /><path clip-path="url(#clip580)" d="M137.097 393.489 L106.885 393.489 L106.885 385.29 L136.785 385.29 Q143.87 385.29 147.435 382.527 Q150.955 379.764 150.955 374.239 Q150.955 367.599 146.722 363.767 Q142.489 359.89 135.181 359.89 L106.885 359.89 L106.885 351.691 L156.793 351.691 L156.793 359.89 L149.128 359.89 Q153.673 362.876 155.901 366.842 Q158.085 370.763 158.085 375.977 Q158.085 384.577 152.738 389.033 Q147.39 393.489 137.097 393.489 M105.682 372.857 L105.682 372.857 Z" fill="#ffffff" fill-rule="nonzero" fill-opacity="1" /><path clip-path="url(#clip580)" d="M92.7154 326.693 L106.885 326.693 L106.885 309.805 L113.258 309.805 L113.258 326.693 L140.35 326.693 Q146.455 326.693 148.193 325.045 Q149.93 323.351 149.93 318.227 L149.93 309.805 L156.793 309.805 L156.793 318.227 Q156.793 327.718 153.272 331.328 Q149.708 334.937 140.35 334.937 L113.258 334.937 L113.258 340.952 L106.885 340.952 L106.885 334.937 L92.7154 334.937 L92.7154 326.693 Z" fill="#ffffff" fill-rule="nonzero" fill-opacity="1" /><path clip-path="url(#clip580)" d="M106.885 299.022 L106.885 290.823 L156.793 290.823 L156.793 299.022 L106.885 299.022 M87.4573 299.022 L87.4573 290.823 L97.8398 290.823 L97.8398 299.022 L87.4573 299.022 Z" fill="#ffffff" fill-rule="nonzero" fill-opacity="1" /><path clip-path="url(#clip580)" d="M112.634 254.328 Q112.634 260.923 117.803 264.755 Q122.927 268.587 131.884 268.587 Q140.84 268.587 146.009 264.8 Q151.133 260.967 151.133 254.328 Q151.133 247.778 145.965 243.945 Q140.796 240.113 131.884 240.113 Q123.016 240.113 117.847 243.945 Q112.634 247.778 112.634 254.328 M105.682 254.328 Q105.682 243.634 112.634 237.529 Q119.585 231.424 131.884 231.424 Q144.138 231.424 151.133 237.529 Q158.085 243.634 158.085 254.328 Q158.085 265.067 151.133 271.172 Q144.138 277.232 131.884 277.232 Q119.585 277.232 112.634 271.172 Q105.682 265.067 105.682 254.328 Z" fill="#ffffff" fill-rule="nonzero" fill-opacity="1" /><path clip-path="url(#clip580)" d="M126.67 176.348 L156.793 176.348 L156.793 184.547 L126.937 184.547 Q119.852 184.547 116.332 187.31 Q112.812 190.073 112.812 195.598 Q112.812 202.237 117.045 206.07 Q121.278 209.902 128.586 209.902 L156.793 209.902 L156.793 218.145 L106.885 218.145 L106.885 209.902 L114.639 209.902 Q110.138 206.961 107.91 202.995 Q105.682 198.985 105.682 193.771 Q105.682 185.171 111.03 180.759 Q116.332 176.348 126.67 176.348 Z" fill="#ffffff" fill-rule="nonzero" fill-opacity="1" /><circle clip-path="url(#clip582)" cx="444.734" cy="1312.98" r="20.16" fill="#fe4365" fill-rule="evenodd" fill-opacity="1" stroke="#adb2b7" stroke-opacity="1" stroke-width="4.48"/>
<circle clip-path="url(#clip582)" cx="483.038" cy="1298.74" r="20.16" fill="#fe4365" fill-rule="evenodd" fill-opacity="1" stroke="#adb2b7" stroke-opacity="1" stroke-width="4.48"/>
<circle clip-path="url(#clip582)" cx="521.342" cy="1275.23" r="20.16" fill="#fe4365" fill-rule="evenodd" fill-opacity="1" stroke="#adb2b7" stroke-opacity="1" stroke-width="4.48"/>
<circle clip-path="url(#clip582)" cx="559.647" cy="1242.83" r="20.16" fill="#fe4365" fill-rule="evenodd" fill-opacity="1" stroke="#adb2b7" stroke-opacity="1" stroke-width="4.48"/>
<circle clip-path="url(#clip582)" cx="597.951" cy="1202.02" r="20.16" fill="#fe4365" fill-rule="evenodd" fill-opacity="1" stroke="#adb2b7" stroke-opacity="1" stroke-width="4.48"/>
<circle clip-path="url(#clip582)" cx="636.255" cy="1153.42" r="20.16" fill="#fe4365" fill-rule="evenodd" fill-opacity="1" stroke="#adb2b7" stroke-opacity="1" stroke-width="4.48"/>
<circle clip-path="url(#clip582)" cx="674.559" cy="1097.77" r="20.16" fill="#fe4365" fill-rule="evenodd" fill-opacity="1" stroke="#adb2b7" stroke-opacity="1" stroke-width="4.48"/>
<circle clip-path="url(#clip582)" cx="712.864" cy="1035.9" r="20.16" fill="#fe4365" fill-rule="evenodd" fill-opacity="1" stroke="#adb2b7" stroke-opacity="1" stroke-width="4.48"/>
<circle clip-path="url(#clip582)" cx="751.168" cy="968.763" r="20.16" fill="#fe4365" fill-rule="evenodd" fill-opacity="1" stroke="#adb2b7" stroke-opacity="1" stroke-width="4.48"/>
<circle clip-path="url(#clip582)" cx="789.472" cy="897.371" r="20.16" fill="#fe4365" fill-rule="evenodd" fill-opacity="1" stroke="#adb2b7" stroke-opacity="1" stroke-width="4.48"/>
<circle clip-path="url(#clip582)" cx="827.777" cy="822.807" r="20.16" fill="#fe4365" fill-rule="evenodd" fill-opacity="1" stroke="#adb2b7" stroke-opacity="1" stroke-width="4.48"/>
<circle clip-path="url(#clip582)" cx="866.081" cy="746.2" r="20.16" fill="#fe4365" fill-rule="evenodd" fill-opacity="1" stroke="#adb2b7" stroke-opacity="1" stroke-width="4.48"/>
<circle clip-path="url(#clip582)" cx="904.385" cy="668.713" r="20.16" fill="#fe4365" fill-rule="evenodd" fill-opacity="1" stroke="#adb2b7" stroke-opacity="1" stroke-width="4.48"/>
<circle clip-path="url(#clip582)" cx="942.69" cy="591.52" r="20.16" fill="#fe4365" fill-rule="evenodd" fill-opacity="1" stroke="#adb2b7" stroke-opacity="1" stroke-width="4.48"/>
<circle clip-path="url(#clip582)" cx="980.994" cy="515.791" r="20.16" fill="#fe4365" fill-rule="evenodd" fill-opacity="1" stroke="#adb2b7" stroke-opacity="1" stroke-width="4.48"/>
<circle clip-path="url(#clip582)" cx="1019.3" cy="442.675" r="20.16" fill="#fe4365" fill-rule="evenodd" fill-opacity="1" stroke="#adb2b7" stroke-opacity="1" stroke-width="4.48"/>
<circle clip-path="url(#clip582)" cx="1057.6" cy="373.278" r="20.16" fill="#fe4365" fill-rule="evenodd" fill-opacity="1" stroke="#adb2b7" stroke-opacity="1" stroke-width="4.48"/>
<circle clip-path="url(#clip582)" cx="1095.91" cy="308.654" r="20.16" fill="#fe4365" fill-rule="evenodd" fill-opacity="1" stroke="#adb2b7" stroke-opacity="1" stroke-width="4.48"/>
<circle clip-path="url(#clip582)" cx="1134.21" cy="249.782" r="20.16" fill="#fe4365" fill-rule="evenodd" fill-opacity="1" stroke="#adb2b7" stroke-opacity="1" stroke-width="4.48"/>
<circle clip-path="url(#clip582)" cx="1172.52" cy="197.555" r="20.16" fill="#fe4365" fill-rule="evenodd" fill-opacity="1" stroke="#adb2b7" stroke-opacity="1" stroke-width="4.48"/>
<circle clip-path="url(#clip582)" cx="1210.82" cy="152.764" r="20.16" fill="#fe4365" fill-rule="evenodd" fill-opacity="1" stroke="#adb2b7" stroke-opacity="1" stroke-width="4.48"/>
<circle clip-path="url(#clip582)" cx="1249.12" cy="116.088" r="20.16" fill="#fe4365" fill-rule="evenodd" fill-opacity="1" stroke="#adb2b7" stroke-opacity="1" stroke-width="4.48"/>
<circle clip-path="url(#clip582)" cx="1287.43" cy="88.0831" r="20.16" fill="#fe4365" fill-rule="evenodd" fill-opacity="1" stroke="#adb2b7" stroke-opacity="1" stroke-width="4.48"/>
<circle clip-path="url(#clip582)" cx="1325.73" cy="69.174" r="20.16" fill="#fe4365" fill-rule="evenodd" fill-opacity="1" stroke="#adb2b7" stroke-opacity="1" stroke-width="4.48"/>
<circle clip-path="url(#clip582)" cx="1364.04" cy="59.6473" r="20.16" fill="#fe4365" fill-rule="evenodd" fill-opacity="1" stroke="#adb2b7" stroke-opacity="1" stroke-width="4.48"/>
<circle clip-path="url(#clip582)" cx="1402.34" cy="59.6473" r="20.16" fill="#fe4365" fill-rule="evenodd" fill-opacity="1" stroke="#adb2b7" stroke-opacity="1" stroke-width="4.48"/>
<circle clip-path="url(#clip582)" cx="1440.65" cy="69.174" r="20.16" fill="#fe4365" fill-rule="evenodd" fill-opacity="1" stroke="#adb2b7" stroke-opacity="1" stroke-width="4.48"/>
<circle clip-path="url(#clip582)" cx="1478.95" cy="88.0831" r="20.16" fill="#fe4365" fill-rule="evenodd" fill-opacity="1" stroke="#adb2b7" stroke-opacity="1" stroke-width="4.48"/>
<circle clip-path="url(#clip582)" cx="1517.25" cy="116.088" r="20.16" fill="#fe4365" fill-rule="evenodd" fill-opacity="1" stroke="#adb2b7" stroke-opacity="1" stroke-width="4.48"/>
<circle clip-path="url(#clip582)" cx="1555.56" cy="152.764" r="20.16" fill="#fe4365" fill-rule="evenodd" fill-opacity="1" stroke="#adb2b7" stroke-opacity="1" stroke-width="4.48"/>
<circle clip-path="url(#clip582)" cx="1593.86" cy="197.555" r="20.16" fill="#fe4365" fill-rule="evenodd" fill-opacity="1" stroke="#adb2b7" stroke-opacity="1" stroke-width="4.48"/>
<circle clip-path="url(#clip582)" cx="1632.17" cy="249.782" r="20.16" fill="#fe4365" fill-rule="evenodd" fill-opacity="1" stroke="#adb2b7" stroke-opacity="1" stroke-width="4.48"/>
<circle clip-path="url(#clip582)" cx="1670.47" cy="308.654" r="20.16" fill="#fe4365" fill-rule="evenodd" fill-opacity="1" stroke="#adb2b7" stroke-opacity="1" stroke-width="4.48"/>
<circle clip-path="url(#clip582)" cx="1708.78" cy="373.278" r="20.16" fill="#fe4365" fill-rule="evenodd" fill-opacity="1" stroke="#adb2b7" stroke-opacity="1" stroke-width="4.48"/>
<circle clip-path="url(#clip582)" cx="1747.08" cy="442.675" r="20.16" fill="#fe4365" fill-rule="evenodd" fill-opacity="1" stroke="#adb2b7" stroke-opacity="1" stroke-width="4.48"/>
<circle clip-path="url(#clip582)" cx="1785.38" cy="515.791" r="20.16" fill="#fe4365" fill-rule="evenodd" fill-opacity="1" stroke="#adb2b7" stroke-opacity="1" stroke-width="4.48"/>
<circle clip-path="url(#clip582)" cx="1823.69" cy="591.52" r="20.16" fill="#fe4365" fill-rule="evenodd" fill-opacity="1" stroke="#adb2b7" stroke-opacity="1" stroke-width="4.48"/>
<circle clip-path="url(#clip582)" cx="1861.99" cy="668.713" r="20.16" fill="#fe4365" fill-rule="evenodd" fill-opacity="1" stroke="#adb2b7" stroke-opacity="1" stroke-width="4.48"/>
<circle clip-path="url(#clip582)" cx="1900.3" cy="746.2" r="20.16" fill="#fe4365" fill-rule="evenodd" fill-opacity="1" stroke="#adb2b7" stroke-opacity="1" stroke-width="4.48"/>
<circle clip-path="url(#clip582)" cx="1938.6" cy="822.807" r="20.16" fill="#fe4365" fill-rule="evenodd" fill-opacity="1" stroke="#adb2b7" stroke-opacity="1" stroke-width="4.48"/>
<circle clip-path="url(#clip582)" cx="1976.91" cy="897.371" r="20.16" fill="#fe4365" fill-rule="evenodd" fill-opacity="1" stroke="#adb2b7" stroke-opacity="1" stroke-width="4.48"/>
<circle clip-path="url(#clip582)" cx="2015.21" cy="968.763" r="20.16" fill="#fe4365" fill-rule="evenodd" fill-opacity="1" stroke="#adb2b7" stroke-opacity="1" stroke-width="4.48"/>
<circle clip-path="url(#clip582)" cx="2053.52" cy="1035.9" r="20.16" fill="#fe4365" fill-rule="evenodd" fill-opacity="1" stroke="#adb2b7" stroke-opacity="1" stroke-width="4.48"/>
<circle clip-path="url(#clip582)" cx="2091.82" cy="1097.77" r="20.16" fill="#fe4365" fill-rule="evenodd" fill-opacity="1" stroke="#adb2b7" stroke-opacity="1" stroke-width="4.48"/>
<circle clip-path="url(#clip582)" cx="2130.12" cy="1153.42" r="20.16" fill="#fe4365" fill-rule="evenodd" fill-opacity="1" stroke="#adb2b7" stroke-opacity="1" stroke-width="4.48"/>
<circle clip-path="url(#clip582)" cx="2168.43" cy="1202.02" r="20.16" fill="#fe4365" fill-rule="evenodd" fill-opacity="1" stroke="#adb2b7" stroke-opacity="1" stroke-width="4.48"/>
<circle clip-path="url(#clip582)" cx="2206.73" cy="1242.83" r="20.16" fill="#fe4365" fill-rule="evenodd" fill-opacity="1" stroke="#adb2b7" stroke-opacity="1" stroke-width="4.48"/>
<circle clip-path="url(#clip582)" cx="2245.04" cy="1275.23" r="20.16" fill="#fe4365" fill-rule="evenodd" fill-opacity="1" stroke="#adb2b7" stroke-opacity="1" stroke-width="4.48"/>
<circle clip-path="url(#clip582)" cx="2283.34" cy="1298.74" r="20.16" fill="#fe4365" fill-rule="evenodd" fill-opacity="1" stroke="#adb2b7" stroke-opacity="1" stroke-width="4.48"/>
<circle clip-path="url(#clip582)" cx="2321.65" cy="1312.98" r="20.16" fill="#fe4365" fill-rule="evenodd" fill-opacity="1" stroke="#adb2b7" stroke-opacity="1" stroke-width="4.48"/>
<circle clip-path="url(#clip582)" cx="444.734" cy="59.6473" r="20.16" fill="#eca25c" fill-rule="evenodd" fill-opacity="1" stroke="#adb2b7" stroke-opacity="1" stroke-width="4.48"/>
<circle clip-path="url(#clip582)" cx="483.038" cy="1312.98" r="20.16" fill="#eca25c" fill-rule="evenodd" fill-opacity="1" stroke="#adb2b7" stroke-opacity="1" stroke-width="4.48"/>
<circle clip-path="url(#clip582)" cx="521.342" cy="69.174" r="20.16" fill="#eca25c" fill-rule="evenodd" fill-opacity="1" stroke="#adb2b7" stroke-opacity="1" stroke-width="4.48"/>
<circle clip-path="url(#clip582)" cx="559.647" cy="1298.74" r="20.16" fill="#eca25c" fill-rule="evenodd" fill-opacity="1" stroke="#adb2b7" stroke-opacity="1" stroke-width="4.48"/>
<circle clip-path="url(#clip582)" cx="597.951" cy="88.0831" r="20.16" fill="#eca25c" fill-rule="evenodd" fill-opacity="1" stroke="#adb2b7" stroke-opacity="1" stroke-width="4.48"/>
<circle clip-path="url(#clip582)" cx="636.255" cy="1275.23" r="20.16" fill="#eca25c" fill-rule="evenodd" fill-opacity="1" stroke="#adb2b7" stroke-opacity="1" stroke-width="4.48"/>
<circle clip-path="url(#clip582)" cx="674.559" cy="116.088" r="20.16" fill="#eca25c" fill-rule="evenodd" fill-opacity="1" stroke="#adb2b7" stroke-opacity="1" stroke-width="4.48"/>
<circle clip-path="url(#clip582)" cx="712.864" cy="1242.83" r="20.16" fill="#eca25c" fill-rule="evenodd" fill-opacity="1" stroke="#adb2b7" stroke-opacity="1" stroke-width="4.48"/>
<circle clip-path="url(#clip582)" cx="751.168" cy="152.764" r="20.16" fill="#eca25c" fill-rule="evenodd" fill-opacity="1" stroke="#adb2b7" stroke-opacity="1" stroke-width="4.48"/>
<circle clip-path="url(#clip582)" cx="789.472" cy="1202.02" r="20.16" fill="#eca25c" fill-rule="evenodd" fill-opacity="1" stroke="#adb2b7" stroke-opacity="1" stroke-width="4.48"/>
<circle clip-path="url(#clip582)" cx="827.777" cy="197.555" r="20.16" fill="#eca25c" fill-rule="evenodd" fill-opacity="1" stroke="#adb2b7" stroke-opacity="1" stroke-width="4.48"/>
<circle clip-path="url(#clip582)" cx="866.081" cy="1153.42" r="20.16" fill="#eca25c" fill-rule="evenodd" fill-opacity="1" stroke="#adb2b7" stroke-opacity="1" stroke-width="4.48"/>
<circle clip-path="url(#clip582)" cx="904.385" cy="249.782" r="20.16" fill="#eca25c" fill-rule="evenodd" fill-opacity="1" stroke="#adb2b7" stroke-opacity="1" stroke-width="4.48"/>
<circle clip-path="url(#clip582)" cx="942.69" cy="1097.77" r="20.16" fill="#eca25c" fill-rule="evenodd" fill-opacity="1" stroke="#adb2b7" stroke-opacity="1" stroke-width="4.48"/>
<circle clip-path="url(#clip582)" cx="980.994" cy="308.654" r="20.16" fill="#eca25c" fill-rule="evenodd" fill-opacity="1" stroke="#adb2b7" stroke-opacity="1" stroke-width="4.48"/>
<circle clip-path="url(#clip582)" cx="1019.3" cy="1035.9" r="20.16" fill="#eca25c" fill-rule="evenodd" fill-opacity="1" stroke="#adb2b7" stroke-opacity="1" stroke-width="4.48"/>
<circle clip-path="url(#clip582)" cx="1057.6" cy="373.278" r="20.16" fill="#eca25c" fill-rule="evenodd" fill-opacity="1" stroke="#adb2b7" stroke-opacity="1" stroke-width="4.48"/>
<circle clip-path="url(#clip582)" cx="1095.91" cy="968.763" r="20.16" fill="#eca25c" fill-rule="evenodd" fill-opacity="1" stroke="#adb2b7" stroke-opacity="1" stroke-width="4.48"/>
<circle clip-path="url(#clip582)" cx="1134.21" cy="442.675" r="20.16" fill="#eca25c" fill-rule="evenodd" fill-opacity="1" stroke="#adb2b7" stroke-opacity="1" stroke-width="4.48"/>
<circle clip-path="url(#clip582)" cx="1172.52" cy="897.371" r="20.16" fill="#eca25c" fill-rule="evenodd" fill-opacity="1" stroke="#adb2b7" stroke-opacity="1" stroke-width="4.48"/>
<circle clip-path="url(#clip582)" cx="1210.82" cy="515.791" r="20.16" fill="#eca25c" fill-rule="evenodd" fill-opacity="1" stroke="#adb2b7" stroke-opacity="1" stroke-width="4.48"/>
<circle clip-path="url(#clip582)" cx="1249.12" cy="822.807" r="20.16" fill="#eca25c" fill-rule="evenodd" fill-opacity="1" stroke="#adb2b7" stroke-opacity="1" stroke-width="4.48"/>
<circle clip-path="url(#clip582)" cx="1287.43" cy="591.52" r="20.16" fill="#eca25c" fill-rule="evenodd" fill-opacity="1" stroke="#adb2b7" stroke-opacity="1" stroke-width="4.48"/>
<circle clip-path="url(#clip582)" cx="1325.73" cy="746.2" r="20.16" fill="#eca25c" fill-rule="evenodd" fill-opacity="1" stroke="#adb2b7" stroke-opacity="1" stroke-width="4.48"/>
<circle clip-path="url(#clip582)" cx="1364.04" cy="668.713" r="20.16" fill="#eca25c" fill-rule="evenodd" fill-opacity="1" stroke="#adb2b7" stroke-opacity="1" stroke-width="4.48"/>
<circle clip-path="url(#clip582)" cx="1402.34" cy="668.713" r="20.16" fill="#eca25c" fill-rule="evenodd" fill-opacity="1" stroke="#adb2b7" stroke-opacity="1" stroke-width="4.48"/>
<circle clip-path="url(#clip582)" cx="1440.65" cy="746.2" r="20.16" fill="#eca25c" fill-rule="evenodd" fill-opacity="1" stroke="#adb2b7" stroke-opacity="1" stroke-width="4.48"/>
<circle clip-path="url(#clip582)" cx="1478.95" cy="591.52" r="20.16" fill="#eca25c" fill-rule="evenodd" fill-opacity="1" stroke="#adb2b7" stroke-opacity="1" stroke-width="4.48"/>
<circle clip-path="url(#clip582)" cx="1517.25" cy="822.807" r="20.16" fill="#eca25c" fill-rule="evenodd" fill-opacity="1" stroke="#adb2b7" stroke-opacity="1" stroke-width="4.48"/>
<circle clip-path="url(#clip582)" cx="1555.56" cy="515.791" r="20.16" fill="#eca25c" fill-rule="evenodd" fill-opacity="1" stroke="#adb2b7" stroke-opacity="1" stroke-width="4.48"/>
<circle clip-path="url(#clip582)" cx="1593.86" cy="897.371" r="20.16" fill="#eca25c" fill-rule="evenodd" fill-opacity="1" stroke="#adb2b7" stroke-opacity="1" stroke-width="4.48"/>
<circle clip-path="url(#clip582)" cx="1632.17" cy="442.675" r="20.16" fill="#eca25c" fill-rule="evenodd" fill-opacity="1" stroke="#adb2b7" stroke-opacity="1" stroke-width="4.48"/>
<circle clip-path="url(#clip582)" cx="1670.47" cy="968.763" r="20.16" fill="#eca25c" fill-rule="evenodd" fill-opacity="1" stroke="#adb2b7" stroke-opacity="1" stroke-width="4.48"/>
<circle clip-path="url(#clip582)" cx="1708.78" cy="373.278" r="20.16" fill="#eca25c" fill-rule="evenodd" fill-opacity="1" stroke="#adb2b7" stroke-opacity="1" stroke-width="4.48"/>
<circle clip-path="url(#clip582)" cx="1747.08" cy="1035.9" r="20.16" fill="#eca25c" fill-rule="evenodd" fill-opacity="1" stroke="#adb2b7" stroke-opacity="1" stroke-width="4.48"/>
<circle clip-path="url(#clip582)" cx="1785.38" cy="308.654" r="20.16" fill="#eca25c" fill-rule="evenodd" fill-opacity="1" stroke="#adb2b7" stroke-opacity="1" stroke-width="4.48"/>
<circle clip-path="url(#clip582)" cx="1823.69" cy="1097.77" r="20.16" fill="#eca25c" fill-rule="evenodd" fill-opacity="1" stroke="#adb2b7" stroke-opacity="1" stroke-width="4.48"/>
<circle clip-path="url(#clip582)" cx="1861.99" cy="249.782" r="20.16" fill="#eca25c" fill-rule="evenodd" fill-opacity="1" stroke="#adb2b7" stroke-opacity="1" stroke-width="4.48"/>
<circle clip-path="url(#clip582)" cx="1900.3" cy="1153.42" r="20.16" fill="#eca25c" fill-rule="evenodd" fill-opacity="1" stroke="#adb2b7" stroke-opacity="1" stroke-width="4.48"/>
<circle clip-path="url(#clip582)" cx="1938.6" cy="197.555" r="20.16" fill="#eca25c" fill-rule="evenodd" fill-opacity="1" stroke="#adb2b7" stroke-opacity="1" stroke-width="4.48"/>
<circle clip-path="url(#clip582)" cx="1976.91" cy="1202.02" r="20.16" fill="#eca25c" fill-rule="evenodd" fill-opacity="1" stroke="#adb2b7" stroke-opacity="1" stroke-width="4.48"/>
<circle clip-path="url(#clip582)" cx="2015.21" cy="152.764" r="20.16" fill="#eca25c" fill-rule="evenodd" fill-opacity="1" stroke="#adb2b7" stroke-opacity="1" stroke-width="4.48"/>
<circle clip-path="url(#clip582)" cx="2053.52" cy="1242.83" r="20.16" fill="#eca25c" fill-rule="evenodd" fill-opacity="1" stroke="#adb2b7" stroke-opacity="1" stroke-width="4.48"/>
<circle clip-path="url(#clip582)" cx="2091.82" cy="116.088" r="20.16" fill="#eca25c" fill-rule="evenodd" fill-opacity="1" stroke="#adb2b7" stroke-opacity="1" stroke-width="4.48"/>
<circle clip-path="url(#clip582)" cx="2130.12" cy="1275.23" r="20.16" fill="#eca25c" fill-rule="evenodd" fill-opacity="1" stroke="#adb2b7" stroke-opacity="1" stroke-width="4.48"/>
<circle clip-path="url(#clip582)" cx="2168.43" cy="88.0831" r="20.16" fill="#eca25c" fill-rule="evenodd" fill-opacity="1" stroke="#adb2b7" stroke-opacity="1" stroke-width="4.48"/>
<circle clip-path="url(#clip582)" cx="2206.73" cy="1298.74" r="20.16" fill="#eca25c" fill-rule="evenodd" fill-opacity="1" stroke="#adb2b7" stroke-opacity="1" stroke-width="4.48"/>
<circle clip-path="url(#clip582)" cx="2245.04" cy="69.174" r="20.16" fill="#eca25c" fill-rule="evenodd" fill-opacity="1" stroke="#adb2b7" stroke-opacity="1" stroke-width="4.48"/>
<circle clip-path="url(#clip582)" cx="2283.34" cy="1312.98" r="20.16" fill="#eca25c" fill-rule="evenodd" fill-opacity="1" stroke="#adb2b7" stroke-opacity="1" stroke-width="4.48"/>
<circle clip-path="url(#clip582)" cx="2321.65" cy="59.6473" r="20.16" fill="#eca25c" fill-rule="evenodd" fill-opacity="1" stroke="#adb2b7" stroke-opacity="1" stroke-width="4.48"/>
<path clip-path="url(#clip580)" d="M1688.96 284.06 L2311.64 284.06 L2311.64 66.3317 L1688.96 66.3317  Z" fill="#363d46" fill-rule="evenodd" fill-opacity="1"/>
<polyline clip-path="url(#clip580)" style="stroke:#ffffff; stroke-linecap:round; stroke-linejoin:round; stroke-width:5.6; stroke-opacity:1; fill:none" points="1688.96,284.06 2311.64,284.06 2311.64,66.3317 1688.96,66.3317 1688.96,284.06 "/>
<circle clip-path="url(#clip580)" cx="1777.38" cy="138.908" r="20.48" fill="#fe4365" fill-rule="evenodd" fill-opacity="1" stroke="#adb2b7" stroke-opacity="1" stroke-width="4.55111"/>
<path clip-path="url(#clip580)" d="M1892.28 144.53 Q1892.28 138.049 1889.59 134.484 Q1886.93 130.919 1882.11 130.919 Q1877.31 130.919 1874.62 134.484 Q1871.96 138.049 1871.96 144.53 Q1871.96 150.979 1874.62 154.544 Q1877.31 158.109 1882.11 158.109 Q1886.93 158.109 1889.59 154.544 Q1892.28 150.979 1892.28 144.53 M1898.24 158.595 Q1898.24 167.864 1894.13 172.368 Q1890.01 176.905 1881.52 176.905 Q1878.38 176.905 1875.59 176.419 Q1872.8 175.965 1870.18 174.993 L1870.18 169.192 Q1872.8 170.618 1875.36 171.299 Q1877.93 171.979 1880.58 171.979 Q1886.45 171.979 1889.36 168.901 Q1892.28 165.854 1892.28 159.665 L1892.28 156.715 Q1890.43 159.924 1887.55 161.512 Q1884.67 163.1 1880.65 163.1 Q1873.97 163.1 1869.89 158.012 Q1865.8 152.924 1865.8 144.53 Q1865.8 136.104 1869.89 131.017 Q1873.97 125.929 1880.65 125.929 Q1884.67 125.929 1887.55 127.517 Q1890.43 129.105 1892.28 132.313 L1892.28 126.804 L1898.24 126.804 L1898.24 158.595 Z" fill="#ffffff" fill-rule="nonzero" fill-opacity="1" /><path clip-path="url(#clip580)" d="M1931.56 132.378 Q1930.55 131.794 1929.36 131.535 Q1928.19 131.243 1926.76 131.243 Q1921.71 131.243 1918.99 134.549 Q1916.3 137.822 1916.3 143.979 L1916.3 163.1 L1910.3 163.1 L1910.3 126.804 L1916.3 126.804 L1916.3 132.442 Q1918.17 129.137 1921.19 127.549 Q1924.2 125.929 1928.51 125.929 Q1929.13 125.929 1929.87 126.026 Q1930.62 126.091 1931.53 126.253 L1931.56 132.378 Z" fill="#ffffff" fill-rule="nonzero" fill-opacity="1" /><path clip-path="url(#clip580)" d="M1950.42 130.984 Q1945.62 130.984 1942.84 134.743 Q1940.05 138.47 1940.05 144.984 Q1940.05 151.498 1942.8 155.257 Q1945.59 158.984 1950.42 158.984 Q1955.18 158.984 1957.97 155.225 Q1960.76 151.466 1960.76 144.984 Q1960.76 138.535 1957.97 134.776 Q1955.18 130.984 1950.42 130.984 M1950.42 125.929 Q1958.2 125.929 1962.64 130.984 Q1967.08 136.04 1967.08 144.984 Q1967.08 153.896 1962.64 158.984 Q1958.2 164.04 1950.42 164.04 Q1942.61 164.04 1938.17 158.984 Q1933.76 153.896 1933.76 144.984 Q1933.76 136.04 1938.17 130.984 Q1942.61 125.929 1950.42 125.929 Z" fill="#ffffff" fill-rule="nonzero" fill-opacity="1" /><path clip-path="url(#clip580)" d="M1976.35 148.776 L1976.35 126.804 L1982.31 126.804 L1982.31 148.549 Q1982.31 153.702 1984.32 156.294 Q1986.33 158.854 1990.35 158.854 Q1995.17 158.854 1997.96 155.776 Q2000.78 152.697 2000.78 147.382 L2000.78 126.804 L2006.74 126.804 L2006.74 163.1 L2000.78 163.1 L2000.78 157.526 Q1998.61 160.831 1995.73 162.452 Q1992.87 164.04 1989.08 164.04 Q1982.83 164.04 1979.59 160.151 Q1976.35 156.262 1976.35 148.776 M1991.35 125.929 L1991.35 125.929 Z" fill="#ffffff" fill-rule="nonzero" fill-opacity="1" /><path clip-path="url(#clip580)" d="M2049.2 141.192 L2049.2 163.1 L2043.23 163.1 L2043.23 141.387 Q2043.23 136.234 2041.23 133.674 Q2039.22 131.114 2035.2 131.114 Q2030.37 131.114 2027.58 134.192 Q2024.79 137.271 2024.79 142.586 L2024.79 163.1 L2018.8 163.1 L2018.8 126.804 L2024.79 126.804 L2024.79 132.442 Q2026.93 129.169 2029.82 127.549 Q2032.73 125.929 2036.53 125.929 Q2042.78 125.929 2045.99 129.817 Q2049.2 133.674 2049.2 141.192 Z" fill="#ffffff" fill-rule="nonzero" fill-opacity="1" /><path clip-path="url(#clip580)" d="M2084.97 132.313 L2084.97 112.674 L2090.94 112.674 L2090.94 163.1 L2084.97 163.1 L2084.97 157.655 Q2083.1 160.896 2080.21 162.484 Q2077.36 164.04 2073.34 164.04 Q2066.76 164.04 2062.61 158.79 Q2058.5 153.54 2058.5 144.984 Q2058.5 136.429 2062.61 131.179 Q2066.76 125.929 2073.34 125.929 Q2077.36 125.929 2080.21 127.517 Q2083.1 129.072 2084.97 132.313 M2064.66 144.984 Q2064.66 151.563 2067.35 155.322 Q2070.07 159.049 2074.8 159.049 Q2079.53 159.049 2082.25 155.322 Q2084.97 151.563 2084.97 144.984 Q2084.97 138.405 2082.25 134.679 Q2079.53 130.919 2074.8 130.919 Q2070.07 130.919 2067.35 134.679 Q2064.66 138.405 2064.66 144.984 Z" fill="#ffffff" fill-rule="nonzero" fill-opacity="1" /><path clip-path="url(#clip580)" d="M2147.46 127.873 L2147.46 133.512 Q2144.93 132.216 2142.21 131.567 Q2139.48 130.919 2136.57 130.919 Q2132.13 130.919 2129.89 132.28 Q2127.69 133.642 2127.69 136.364 Q2127.69 138.438 2129.28 139.637 Q2130.86 140.804 2135.66 141.873 L2137.7 142.327 Q2144.05 143.688 2146.71 146.183 Q2149.4 148.646 2149.4 153.086 Q2149.4 158.141 2145.38 161.09 Q2141.4 164.04 2134.4 164.04 Q2131.48 164.04 2128.3 163.456 Q2125.16 162.905 2121.66 161.771 L2121.66 155.614 Q2124.97 157.331 2128.17 158.206 Q2131.38 159.049 2134.53 159.049 Q2138.74 159.049 2141.01 157.623 Q2143.28 156.165 2143.28 153.54 Q2143.28 151.109 2141.62 149.813 Q2140 148.516 2134.46 147.317 L2132.39 146.831 Q2126.85 145.665 2124.38 143.266 Q2121.92 140.836 2121.92 136.623 Q2121.92 131.503 2125.55 128.716 Q2129.18 125.929 2135.85 125.929 Q2139.16 125.929 2142.08 126.415 Q2144.99 126.901 2147.46 127.873 Z" fill="#ffffff" fill-rule="nonzero" fill-opacity="1" /><path clip-path="url(#clip580)" d="M2164.79 116.498 L2164.79 126.804 L2177.08 126.804 L2177.08 131.438 L2164.79 131.438 L2164.79 151.141 Q2164.79 155.581 2165.99 156.845 Q2167.22 158.109 2170.95 158.109 L2177.08 158.109 L2177.08 163.1 L2170.95 163.1 Q2164.05 163.1 2161.42 160.54 Q2158.8 157.947 2158.8 151.141 L2158.8 131.438 L2154.42 131.438 L2154.42 126.804 L2158.8 126.804 L2158.8 116.498 L2164.79 116.498 Z" fill="#ffffff" fill-rule="nonzero" fill-opacity="1" /><path clip-path="url(#clip580)" d="M2201.41 144.854 Q2194.19 144.854 2191.4 146.507 Q2188.61 148.16 2188.61 152.146 Q2188.61 155.322 2190.69 157.202 Q2192.79 159.049 2196.39 159.049 Q2201.35 159.049 2204.33 155.549 Q2207.34 152.016 2207.34 146.183 L2207.34 144.854 L2201.41 144.854 M2213.31 142.391 L2213.31 163.1 L2207.34 163.1 L2207.34 157.59 Q2205.3 160.896 2202.26 162.484 Q2199.21 164.04 2194.8 164.04 Q2189.23 164.04 2185.92 160.928 Q2182.65 157.785 2182.65 152.535 Q2182.65 146.41 2186.73 143.299 Q2190.85 140.188 2198.98 140.188 L2207.34 140.188 L2207.34 139.604 Q2207.34 135.489 2204.62 133.253 Q2201.93 130.984 2197.04 130.984 Q2193.93 130.984 2190.98 131.73 Q2188.03 132.475 2185.31 133.966 L2185.31 128.456 Q2188.58 127.193 2191.66 126.577 Q2194.74 125.929 2197.65 125.929 Q2205.53 125.929 2209.42 130.012 Q2213.31 134.095 2213.31 142.391 Z" fill="#ffffff" fill-rule="nonzero" fill-opacity="1" /><path clip-path="url(#clip580)" d="M2231.49 116.498 L2231.49 126.804 L2243.77 126.804 L2243.77 131.438 L2231.49 131.438 L2231.49 151.141 Q2231.49 155.581 2232.69 156.845 Q2233.92 158.109 2237.65 158.109 L2243.77 158.109 L2243.77 163.1 L2237.65 163.1 Q2230.74 163.1 2228.12 160.54 Q2225.49 157.947 2225.49 151.141 L2225.49 131.438 L2221.12 131.438 L2221.12 126.804 L2225.49 126.804 L2225.49 116.498 L2231.49 116.498 Z" fill="#ffffff" fill-rule="nonzero" fill-opacity="1" /><path clip-path="url(#clip580)" d="M2282.66 143.461 L2282.66 146.378 L2255.24 146.378 Q2255.63 152.535 2258.94 155.776 Q2262.27 158.984 2268.21 158.984 Q2271.64 158.984 2274.85 158.141 Q2278.09 157.299 2281.27 155.614 L2281.27 161.253 Q2278.06 162.614 2274.69 163.327 Q2271.32 164.04 2267.85 164.04 Q2259.16 164.04 2254.08 158.984 Q2249.02 153.928 2249.02 145.308 Q2249.02 136.396 2253.82 131.179 Q2258.65 125.929 2266.81 125.929 Q2274.14 125.929 2278.38 130.66 Q2282.66 135.359 2282.66 143.461 M2276.7 141.711 Q2276.63 136.817 2273.94 133.901 Q2271.28 130.984 2266.88 130.984 Q2261.89 130.984 2258.87 133.804 Q2255.89 136.623 2255.44 141.743 L2276.7 141.711 Z" fill="#ffffff" fill-rule="nonzero" fill-opacity="1" /><circle clip-path="url(#clip580)" cx="1777.38" cy="211.484" r="20.48" fill="#eca25c" fill-rule="evenodd" fill-opacity="1" stroke="#adb2b7" stroke-opacity="1" stroke-width="4.55111"/>
<path clip-path="url(#clip580)" d="M1899.44 216.037 L1899.44 218.954 L1872.03 218.954 Q1872.42 225.111 1875.72 228.352 Q1879.06 231.56 1884.99 231.56 Q1888.43 231.56 1891.63 230.717 Q1894.87 229.875 1898.05 228.19 L1898.05 233.829 Q1894.84 235.19 1891.47 235.903 Q1888.1 236.616 1884.63 236.616 Q1875.95 236.616 1870.86 231.56 Q1865.8 226.504 1865.8 217.884 Q1865.8 208.972 1870.6 203.755 Q1875.43 198.505 1883.6 198.505 Q1890.92 198.505 1895.17 203.236 Q1899.44 207.935 1899.44 216.037 M1893.48 214.287 Q1893.42 209.393 1890.73 206.477 Q1888.07 203.56 1883.66 203.56 Q1878.67 203.56 1875.66 206.38 Q1872.68 209.199 1872.22 214.319 L1893.48 214.287 Z" fill="#ffffff" fill-rule="nonzero" fill-opacity="1" /><path clip-path="url(#clip580)" d="M1938.23 199.38 L1925.11 217.042 L1938.92 235.676 L1931.88 235.676 L1921.32 221.417 L1910.75 235.676 L1903.72 235.676 L1917.82 216.685 L1904.92 199.38 L1911.95 199.38 L1921.58 212.31 L1931.2 199.38 L1938.23 199.38 Z" fill="#ffffff" fill-rule="nonzero" fill-opacity="1" /><path clip-path="url(#clip580)" d="M1972.29 200.773 L1972.29 206.347 Q1969.77 204.954 1967.21 204.273 Q1964.68 203.56 1962.09 203.56 Q1956.29 203.56 1953.08 207.255 Q1949.87 210.917 1949.87 217.56 Q1949.87 224.204 1953.08 227.898 Q1956.29 231.56 1962.09 231.56 Q1964.68 231.56 1967.21 230.879 Q1969.77 230.166 1972.29 228.773 L1972.29 234.282 Q1969.8 235.449 1967.11 236.032 Q1964.45 236.616 1961.44 236.616 Q1953.24 236.616 1948.41 231.463 Q1943.58 226.31 1943.58 217.56 Q1943.58 208.68 1948.44 203.593 Q1953.34 198.505 1961.83 198.505 Q1964.58 198.505 1967.21 199.088 Q1969.83 199.639 1972.29 200.773 Z" fill="#ffffff" fill-rule="nonzero" fill-opacity="1" /><path clip-path="url(#clip580)" d="M1982.67 199.38 L1988.63 199.38 L1988.63 235.676 L1982.67 235.676 L1982.67 199.38 M1982.67 185.25 L1988.63 185.25 L1988.63 192.801 L1982.67 192.801 L1982.67 185.25 Z" fill="#ffffff" fill-rule="nonzero" fill-opacity="1" /><path clip-path="url(#clip580)" d="M2007 189.074 L2007 199.38 L2019.29 199.38 L2019.29 204.014 L2007 204.014 L2007 223.717 Q2007 228.157 2008.2 229.421 Q2009.43 230.685 2013.16 230.685 L2019.29 230.685 L2019.29 235.676 L2013.16 235.676 Q2006.26 235.676 2003.63 233.116 Q2001.01 230.523 2001.01 223.717 L2001.01 204.014 L1996.63 204.014 L1996.63 199.38 L2001.01 199.38 L2001.01 189.074 L2007 189.074 Z" fill="#ffffff" fill-rule="nonzero" fill-opacity="1" /><path clip-path="url(#clip580)" d="M2058.17 216.037 L2058.17 218.954 L2030.76 218.954 Q2031.15 225.111 2034.45 228.352 Q2037.79 231.56 2043.72 231.56 Q2047.16 231.56 2050.36 230.717 Q2053.6 229.875 2056.78 228.19 L2056.78 233.829 Q2053.57 235.19 2050.2 235.903 Q2046.83 236.616 2043.36 236.616 Q2034.68 236.616 2029.59 231.56 Q2024.54 226.504 2024.54 217.884 Q2024.54 208.972 2029.33 203.755 Q2034.16 198.505 2042.33 198.505 Q2049.65 198.505 2053.9 203.236 Q2058.17 207.935 2058.17 216.037 M2052.21 214.287 Q2052.15 209.393 2049.46 206.477 Q2046.8 203.56 2042.39 203.56 Q2037.4 203.56 2034.39 206.38 Q2031.41 209.199 2030.95 214.319 L2052.21 214.287 Z" fill="#ffffff" fill-rule="nonzero" fill-opacity="1" /><path clip-path="url(#clip580)" d="M2091.85 204.889 L2091.85 185.25 L2097.81 185.25 L2097.81 235.676 L2091.85 235.676 L2091.85 230.231 Q2089.97 233.472 2087.08 235.06 Q2084.23 236.616 2080.21 236.616 Q2073.63 236.616 2069.48 231.366 Q2065.37 226.116 2065.37 217.56 Q2065.37 209.005 2069.48 203.755 Q2073.63 198.505 2080.21 198.505 Q2084.23 198.505 2087.08 200.093 Q2089.97 201.648 2091.85 204.889 M2071.53 217.56 Q2071.53 224.139 2074.22 227.898 Q2076.94 231.625 2081.67 231.625 Q2086.4 231.625 2089.12 227.898 Q2091.85 224.139 2091.85 217.56 Q2091.85 210.981 2089.12 207.255 Q2086.4 203.495 2081.67 203.495 Q2076.94 203.495 2074.22 207.255 Q2071.53 210.981 2071.53 217.56 Z" fill="#ffffff" fill-rule="nonzero" fill-opacity="1" /><path clip-path="url(#clip580)" d="M2154.33 200.449 L2154.33 206.088 Q2151.8 204.792 2149.08 204.143 Q2146.35 203.495 2143.44 203.495 Q2139 203.495 2136.76 204.856 Q2134.56 206.218 2134.56 208.94 Q2134.56 211.014 2136.15 212.213 Q2137.73 213.38 2142.53 214.449 L2144.57 214.903 Q2150.92 216.264 2153.58 218.759 Q2156.27 221.222 2156.27 225.662 Q2156.27 230.717 2152.25 233.666 Q2148.27 236.616 2141.27 236.616 Q2138.35 236.616 2135.17 236.032 Q2132.03 235.481 2128.53 234.347 L2128.53 228.19 Q2131.84 229.907 2135.04 230.782 Q2138.25 231.625 2141.4 231.625 Q2145.61 231.625 2147.88 230.199 Q2150.15 228.741 2150.15 226.116 Q2150.15 223.685 2148.49 222.389 Q2146.87 221.092 2141.33 219.893 L2139.26 219.407 Q2133.72 218.241 2131.25 215.842 Q2128.79 213.412 2128.79 209.199 Q2128.79 204.079 2132.42 201.292 Q2136.05 198.505 2142.72 198.505 Q2146.03 198.505 2148.95 198.991 Q2151.86 199.477 2154.33 200.449 Z" fill="#ffffff" fill-rule="nonzero" fill-opacity="1" /><path clip-path="url(#clip580)" d="M2171.66 189.074 L2171.66 199.38 L2183.95 199.38 L2183.95 204.014 L2171.66 204.014 L2171.66 223.717 Q2171.66 228.157 2172.86 229.421 Q2174.09 230.685 2177.82 230.685 L2183.95 230.685 L2183.95 235.676 L2177.82 235.676 Q2170.92 235.676 2168.29 233.116 Q2165.67 230.523 2165.67 223.717 L2165.67 204.014 L2161.29 204.014 L2161.29 199.38 L2165.67 199.38 L2165.67 189.074 L2171.66 189.074 Z" fill="#ffffff" fill-rule="nonzero" fill-opacity="1" /><path clip-path="url(#clip580)" d="M2208.28 217.43 Q2201.06 217.43 2198.27 219.083 Q2195.48 220.736 2195.48 224.722 Q2195.48 227.898 2197.56 229.778 Q2199.66 231.625 2203.26 231.625 Q2208.22 231.625 2211.2 228.125 Q2214.21 224.592 2214.21 218.759 L2214.21 217.43 L2208.28 217.43 M2220.18 214.967 L2220.18 235.676 L2214.21 235.676 L2214.21 230.166 Q2212.17 233.472 2209.13 235.06 Q2206.08 236.616 2201.67 236.616 Q2196.1 236.616 2192.79 233.504 Q2189.52 230.361 2189.52 225.111 Q2189.52 218.986 2193.6 215.875 Q2197.72 212.764 2205.85 212.764 L2214.21 212.764 L2214.21 212.18 Q2214.21 208.065 2211.49 205.829 Q2208.8 203.56 2203.91 203.56 Q2200.8 203.56 2197.85 204.306 Q2194.9 205.051 2192.18 206.542 L2192.18 201.032 Q2195.45 199.769 2198.53 199.153 Q2201.61 198.505 2204.53 198.505 Q2212.4 198.505 2216.29 202.588 Q2220.18 206.671 2220.18 214.967 Z" fill="#ffffff" fill-rule="nonzero" fill-opacity="1" /><path clip-path="url(#clip580)" d="M2238.36 189.074 L2238.36 199.38 L2250.64 199.38 L2250.64 204.014 L2238.36 204.014 L2238.36 223.717 Q2238.36 228.157 2239.56 229.421 Q2240.79 230.685 2244.52 230.685 L2250.64 230.685 L2250.64 235.676 L2244.52 235.676 Q2237.61 235.676 2234.99 233.116 Q2232.36 230.523 2232.36 223.717 L2232.36 204.014 L2227.99 204.014 L2227.99 199.38 L2232.36 199.38 L2232.36 189.074 L2238.36 189.074 Z" fill="#ffffff" fill-rule="nonzero" fill-opacity="1" /><path clip-path="url(#clip580)" d="M2289.53 216.037 L2289.53 218.954 L2262.11 218.954 Q2262.5 225.111 2265.81 228.352 Q2269.15 231.56 2275.08 231.56 Q2278.51 231.56 2281.72 230.717 Q2284.96 229.875 2288.14 228.19 L2288.14 233.829 Q2284.93 235.19 2281.56 235.903 Q2278.19 236.616 2274.72 236.616 Q2266.03 236.616 2260.95 231.56 Q2255.89 226.504 2255.89 217.884 Q2255.89 208.972 2260.69 203.755 Q2265.52 198.505 2273.68 198.505 Q2281.01 198.505 2285.25 203.236 Q2289.53 207.935 2289.53 216.037 M2283.57 214.287 Q2283.5 209.393 2280.81 206.477 Q2278.15 203.56 2273.75 203.56 Q2268.76 203.56 2265.74 206.38 Q2262.76 209.199 2262.31 214.319 L2283.57 214.287 Z" fill="#ffffff" fill-rule="nonzero" fill-opacity="1" /></svg>
