<?xml version="1.0" encoding="utf-8"?>
<svg xmlns="http://www.w3.org/2000/svg" xmlns:xlink="http://www.w3.org/1999/xlink" width="600" height="400" viewBox="0 0 2400 1600">
<defs>
  <clipPath id="clip760">
    <rect x="0" y="0" width="2400" height="1600"/>
  </clipPath>
</defs>
<path clip-path="url(#clip760)" d="M0 1600 L2400 1600 L2400 0 L0 0  Z" fill="#363d46" fill-rule="evenodd" fill-opacity="1"/>
<defs>
  <clipPath id="clip761">
    <rect x="480" y="0" width="1681" height="1600"/>
  </clipPath>
</defs>
<path clip-path="url(#clip760)" d="M342.682 1340.06 L2329.13 1340.06 L2329.13 70.8661 L342.682 70.8661  Z" fill="#30343b" fill-rule="evenodd" fill-opacity="1"/>
<defs>
  <clipPath id="clip762">
    <rect x="342" y="70" width="1987" height="1270"/>
  </clipPath>
</defs>
<polyline clip-path="url(#clip762)" style="stroke:#adb2b7; stroke-linecap:round; stroke-linejoin:round; stroke-width:3; stroke-opacity:0.1; fill:none" points="666.618,1340.06 666.618,70.8661 "/>
<polyline clip-path="url(#clip762)" style="stroke:#adb2b7; stroke-linecap:round; stroke-linejoin:round; stroke-width:3; stroke-opacity:0.1; fill:none" points="1737.48,1340.06 1737.48,70.8661 "/>
<polyline clip-path="url(#clip760)" style="stroke:#adb2b7; stroke-linecap:round; stroke-linejoin:round; stroke-width:6; stroke-opacity:1; fill:none" points="342.682,1340.06 2329.13,1340.06 "/>
<polyline clip-path="url(#clip760)" style="stroke:#adb2b7; stroke-linecap:round; stroke-linejoin:round; stroke-width:6; stroke-opacity:1; fill:none" points="666.618,1340.06 666.618,1321.16 "/>
<polyline clip-path="url(#clip760)" style="stroke:#adb2b7; stroke-linecap:round; stroke-linejoin:round; stroke-width:6; stroke-opacity:1; fill:none" points="1737.48,1340.06 1737.48,1321.16 "/>
<path clip-path="url(#clip760)" d="M592.017 1441.65 L603.475 1441.65 L603.475 1402.1 L591.01 1404.6 L591.01 1398.21 L603.406 1395.71 L610.42 1395.71 L610.42 1441.65 L621.878 1441.65 L621.878 1447.55 L592.017 1447.55 L592.017 1441.65 Z" fill="#ffffff" fill-rule="nonzero" fill-opacity="1" /><path clip-path="url(#clip760)" d="M651.044 1400.33 Q645.628 1400.33 642.885 1405.68 Q640.176 1410.99 640.176 1421.68 Q640.176 1432.34 642.885 1437.69 Q645.628 1443 651.044 1443 Q656.496 1443 659.204 1437.69 Q661.947 1432.34 661.947 1421.68 Q661.947 1410.99 659.204 1405.68 Q656.496 1400.33 651.044 1400.33 M651.044 1394.77 Q659.76 1394.77 664.343 1401.68 Q668.961 1408.56 668.961 1421.68 Q668.961 1434.77 664.343 1441.68 Q659.76 1448.56 651.044 1448.56 Q642.329 1448.56 637.711 1441.68 Q633.128 1434.77 633.128 1421.68 Q633.128 1408.56 637.711 1401.68 Q642.329 1394.77 651.044 1394.77 Z" fill="#ffffff" fill-rule="nonzero" fill-opacity="1" /><path clip-path="url(#clip760)" d="M668.961 1385.93 L705.128 1385.93 L705.128 1390.72 L668.961 1390.72 L668.961 1385.93 Z" fill="#ffffff" fill-rule="nonzero" fill-opacity="1" /><path clip-path="url(#clip760)" d="M722.337 1401.64 L742.227 1401.64 L742.227 1406.44 L715.482 1406.44 L715.482 1401.64 Q718.726 1398.28 724.312 1392.64 Q729.926 1386.97 731.365 1385.33 Q734.102 1382.26 735.174 1380.14 Q736.274 1378 736.274 1375.94 Q736.274 1372.58 733.904 1370.47 Q731.563 1368.35 727.782 1368.35 Q725.102 1368.35 722.112 1369.28 Q719.15 1370.21 715.764 1372.1 L715.764 1366.35 Q719.206 1364.96 722.196 1364.26 Q725.187 1363.55 727.669 1363.55 Q734.215 1363.55 738.108 1366.83 Q742.001 1370.1 742.001 1375.57 Q742.001 1378.17 741.014 1380.51 Q740.054 1382.82 737.487 1385.98 Q736.782 1386.8 733.001 1390.72 Q729.221 1394.61 722.337 1401.64 Z" fill="#ffffff" fill-rule="nonzero" fill-opacity="1" /><path clip-path="url(#clip760)" d="M1684.96 1441.65 L1696.41 1441.65 L1696.41 1402.1 L1683.95 1404.6 L1683.95 1398.21 L1696.34 1395.71 L1703.36 1395.71 L1703.36 1441.65 L1714.82 1441.65 L1714.82 1447.55 L1684.96 1447.55 L1684.96 1441.65 Z" fill="#ffffff" fill-rule="nonzero" fill-opacity="1" /><path clip-path="url(#clip760)" d="M1743.98 1400.33 Q1738.57 1400.33 1735.82 1405.68 Q1733.12 1410.99 1733.12 1421.68 Q1733.12 1432.34 1735.82 1437.69 Q1738.57 1443 1743.98 1443 Q1749.43 1443 1752.14 1437.69 Q1754.89 1432.34 1754.89 1421.68 Q1754.89 1410.99 1752.14 1405.68 Q1749.43 1400.33 1743.98 1400.33 M1743.98 1394.77 Q1752.7 1394.77 1757.28 1401.68 Q1761.9 1408.56 1761.9 1421.68 Q1761.9 1434.77 1757.28 1441.68 Q1752.7 1448.56 1743.98 1448.56 Q1735.27 1448.56 1730.65 1441.68 Q1726.07 1434.77 1726.07 1421.68 Q1726.07 1408.56 1730.65 1401.68 Q1735.27 1394.77 1743.98 1394.77 Z" fill="#ffffff" fill-rule="nonzero" fill-opacity="1" /><path clip-path="url(#clip760)" d="M1776.46 1368.07 Q1772.06 1368.07 1769.83 1372.41 Q1767.63 1376.73 1767.63 1385.42 Q1767.63 1394.08 1769.83 1398.42 Q1772.06 1402.74 1776.46 1402.74 Q1780.89 1402.74 1783.09 1398.42 Q1785.32 1394.08 1785.32 1385.42 Q1785.32 1376.73 1783.09 1372.41 Q1780.89 1368.07 1776.46 1368.07 M1776.46 1363.55 Q1783.54 1363.55 1787.26 1369.17 Q1791.01 1374.75 1791.01 1385.42 Q1791.01 1396.05 1787.26 1401.67 Q1783.54 1407.25 1776.46 1407.25 Q1769.38 1407.25 1765.62 1401.67 Q1761.9 1396.05 1761.9 1385.42 Q1761.9 1374.75 1765.62 1369.17 Q1769.38 1363.55 1776.46 1363.55 Z" fill="#ffffff" fill-rule="nonzero" fill-opacity="1" /><path clip-path="url(#clip760)" d="M1084.37 1490.64 L1084.37 1505.82 L1102.47 1505.82 L1102.47 1512.65 L1084.37 1512.65 L1084.37 1541.68 Q1084.37 1548.22 1086.14 1550.08 Q1087.95 1551.94 1093.44 1551.94 L1102.47 1551.94 L1102.47 1559.3 L1093.44 1559.3 Q1083.27 1559.3 1079.41 1555.52 Q1075.54 1551.71 1075.54 1541.68 L1075.54 1512.65 L1069.09 1512.65 L1069.09 1505.82 L1075.54 1505.82 L1075.54 1490.64 L1084.37 1490.64 Z" fill="#ffffff" fill-rule="nonzero" fill-opacity="1" /><path clip-path="url(#clip760)" d="M1159.76 1530.36 L1159.76 1534.66 L1119.37 1534.66 Q1119.94 1543.73 1124.81 1548.51 Q1129.73 1553.23 1138.47 1553.23 Q1143.53 1553.23 1148.25 1551.99 Q1153.03 1550.75 1157.71 1548.27 L1157.71 1556.57 Q1152.98 1558.58 1148.01 1559.63 Q1143.05 1560.68 1137.94 1560.68 Q1125.14 1560.68 1117.65 1553.23 Q1110.2 1545.79 1110.2 1533.09 Q1110.2 1519.96 1117.27 1512.27 Q1124.38 1504.54 1136.41 1504.54 Q1147.2 1504.54 1153.46 1511.51 Q1159.76 1518.43 1159.76 1530.36 M1150.97 1527.79 Q1150.88 1520.58 1146.92 1516.28 Q1143 1511.98 1136.51 1511.98 Q1129.16 1511.98 1124.72 1516.14 Q1120.32 1520.29 1119.65 1527.83 L1150.97 1527.79 Z" fill="#ffffff" fill-rule="nonzero" fill-opacity="1" /><path clip-path="url(#clip760)" d="M1215.81 1516.09 Q1219.1 1510.17 1223.69 1507.35 Q1228.27 1504.54 1234.48 1504.54 Q1242.83 1504.54 1247.37 1510.41 Q1251.9 1516.23 1251.9 1527.02 L1251.9 1559.3 L1243.07 1559.3 L1243.07 1527.31 Q1243.07 1519.62 1240.35 1515.9 Q1237.63 1512.17 1232.04 1512.17 Q1225.21 1512.17 1221.25 1516.71 Q1217.29 1521.25 1217.29 1529.08 L1217.29 1559.3 L1208.46 1559.3 L1208.46 1527.31 Q1208.46 1519.57 1205.73 1515.9 Q1203.01 1512.17 1197.33 1512.17 Q1190.6 1512.17 1186.64 1516.76 Q1182.67 1521.29 1182.67 1529.08 L1182.67 1559.3 L1173.84 1559.3 L1173.84 1505.82 L1182.67 1505.82 L1182.67 1514.13 Q1185.68 1509.21 1189.88 1506.87 Q1194.09 1504.54 1199.86 1504.54 Q1205.69 1504.54 1209.75 1507.5 Q1213.85 1510.46 1215.81 1516.09 Z" fill="#ffffff" fill-rule="nonzero" fill-opacity="1" /><path clip-path="url(#clip760)" d="M1277.92 1551.28 L1277.92 1579.63 L1269.09 1579.63 L1269.09 1505.82 L1277.92 1505.82 L1277.92 1513.94 Q1280.69 1509.17 1284.89 1506.87 Q1289.14 1504.54 1295.01 1504.54 Q1304.75 1504.54 1310.82 1512.27 Q1316.93 1520 1316.93 1532.61 Q1316.93 1545.21 1310.82 1552.95 Q1304.75 1560.68 1295.01 1560.68 Q1289.14 1560.68 1284.89 1558.39 Q1280.69 1556.05 1277.92 1551.28 M1307.81 1532.61 Q1307.81 1522.92 1303.8 1517.43 Q1299.84 1511.89 1292.87 1511.89 Q1285.89 1511.89 1281.88 1517.43 Q1277.92 1522.92 1277.92 1532.61 Q1277.92 1542.3 1281.88 1547.84 Q1285.89 1553.33 1292.87 1553.33 Q1299.84 1553.33 1303.8 1547.84 Q1307.81 1542.3 1307.81 1532.61 Z" fill="#ffffff" fill-rule="nonzero" fill-opacity="1" /><path clip-path="url(#clip760)" d="M1332.73 1547.17 L1342.8 1547.17 L1342.8 1559.3 L1332.73 1559.3 L1332.73 1547.17 Z" fill="#ffffff" fill-rule="nonzero" fill-opacity="1" /><path clip-path="url(#clip760)" d="M1409.26 1488.02 L1417.38 1488.02 L1392.55 1568.37 L1384.44 1568.37 L1409.26 1488.02 Z" fill="#ffffff" fill-rule="nonzero" fill-opacity="1" /><path clip-path="url(#clip760)" d="M1448.46 1558.33 Q1448.46 1557.94 1449.76 1555.43 Q1451.07 1552.87 1455.66 1543.74 Q1460.25 1534.56 1464.98 1524.95 L1482.03 1490.65 Q1483.24 1488.48 1484.79 1488.48 Q1486.19 1488.48 1486.82 1489.35 Q1487.44 1490.21 1490.34 1496.06 Q1491.84 1498.91 1492.71 1500.75 L1520.68 1556.74 Q1521.16 1557.94 1521.21 1558.33 Q1521.21 1559.3 1519.52 1559.3 L1451.07 1559.3 Q1448.46 1559.3 1448.46 1558.33 M1454.98 1551.76 L1508.22 1551.76 L1481.6 1498.33 L1454.98 1551.76 Z" fill="#ffffff" fill-rule="nonzero" fill-opacity="1" /><path clip-path="url(#clip760)" d="M1602.17 1494.71 L1600.19 1511.81 Q1600.04 1513.35 1599.8 1513.84 Q1599.56 1514.27 1598.79 1514.27 Q1598.21 1514.27 1597.87 1513.93 Q1597.58 1513.55 1597.58 1513.11 Q1597.58 1512.87 1597.63 1512.24 Q1597.67 1511.62 1597.67 1511.33 Q1598.11 1508.33 1598.11 1506.06 Q1598.11 1501.86 1596.85 1499.59 Q1595.6 1497.27 1592.36 1496.2 Q1589.12 1495.09 1583.04 1495.09 L1569.12 1495.09 Q1565.94 1495.09 1565.16 1495.67 Q1564.44 1496.25 1563.76 1498.96 L1557.82 1522.77 L1567.14 1522.77 Q1570.62 1522.77 1572.7 1522.34 Q1574.82 1521.91 1576.23 1520.7 Q1577.68 1519.44 1578.45 1517.75 Q1579.27 1516.06 1580.09 1513.02 Q1580.33 1512 1580.57 1511.62 Q1580.86 1511.23 1581.49 1511.23 Q1581.97 1511.23 1582.31 1511.57 Q1582.65 1511.86 1582.65 1512.29 L1577 1535.43 Q1576.71 1536.59 1576.42 1537.03 Q1576.13 1537.41 1575.55 1537.41 Q1574.92 1537.41 1574.58 1537.07 Q1574.25 1536.74 1574.25 1536.35 Q1574.25 1535.96 1574.53 1535.24 Q1575.26 1532.1 1575.26 1530.41 Q1575.26 1529.44 1575.16 1528.96 Q1575.11 1528.48 1574.68 1527.8 Q1574.29 1527.07 1573.42 1526.74 Q1572.55 1526.4 1570.91 1526.16 Q1569.27 1525.87 1566.81 1525.87 L1557.05 1525.87 L1550.28 1552.87 Q1549.8 1554.66 1549.8 1555.14 Q1549.8 1555.67 1550.04 1555.87 Q1550.33 1556.01 1551.11 1556.11 Q1551.97 1556.25 1553.28 1556.25 L1567.72 1556.25 Q1570.91 1556.25 1573.47 1555.96 Q1576.03 1555.67 1578.16 1554.95 Q1580.33 1554.22 1581.97 1553.4 Q1583.62 1552.58 1585.16 1551.08 Q1586.71 1549.54 1587.77 1548.19 Q1588.88 1546.78 1590.19 1544.42 Q1591.49 1542.05 1592.41 1540.12 Q1593.33 1538.14 1594.73 1534.95 Q1595.11 1533.79 1596.03 1533.79 Q1596.56 1533.79 1596.85 1534.08 Q1597.14 1534.32 1597.19 1534.56 L1597.19 1534.85 Q1596.9 1535.77 1596.71 1536.25 L1587.63 1557.61 Q1587.1 1558.81 1586.66 1559.05 Q1586.23 1559.3 1584.53 1559.3 L1533.18 1559.3 Q1532.02 1559.3 1531.54 1559.25 Q1531.11 1559.2 1530.77 1558.96 Q1530.43 1558.67 1530.43 1558.09 Q1530.43 1557.17 1530.82 1556.78 Q1531.2 1556.35 1531.64 1556.3 Q1532.07 1556.25 1533.18 1556.25 Q1535.6 1556.25 1537.05 1556.11 Q1538.5 1555.96 1539.41 1555.77 Q1540.38 1555.53 1540.86 1554.85 Q1541.4 1554.18 1541.64 1553.6 Q1541.88 1552.97 1542.22 1551.57 L1555.26 1499.25 Q1555.74 1497.46 1555.74 1496.88 Q1555.74 1496.25 1555.31 1495.87 Q1554.92 1495.48 1553.86 1495.34 Q1552.8 1495.14 1551.93 1495.14 Q1551.11 1495.09 1549.32 1495.09 Q1548.16 1495.09 1547.68 1495.05 Q1547.24 1495 1546.9 1494.76 Q1546.56 1494.51 1546.56 1493.98 Q1546.56 1492.63 1547.14 1492.34 Q1547.77 1492 1549.51 1492 L1599.46 1492 Q1601.44 1492 1601.88 1492.44 Q1602.36 1492.82 1602.17 1494.71 Z" fill="#ffffff" fill-rule="nonzero" fill-opacity="1" /><polyline clip-path="url(#clip762)" style="stroke:#adb2b7; stroke-linecap:round; stroke-linejoin:round; stroke-width:3; stroke-opacity:0.1; fill:none" points="342.682,1309.2 2329.13,1309.2 "/>
<polyline clip-path="url(#clip762)" style="stroke:#adb2b7; stroke-linecap:round; stroke-linejoin:round; stroke-width:3; stroke-opacity:0.1; fill:none" points="342.682,993.894 2329.13,993.894 "/>
<polyline clip-path="url(#clip762)" style="stroke:#adb2b7; stroke-linecap:round; stroke-linejoin:round; stroke-width:3; stroke-opacity:0.1; fill:none" points="342.682,678.585 2329.13,678.585 "/>
<polyline clip-path="url(#clip762)" style="stroke:#adb2b7; stroke-linecap:round; stroke-linejoin:round; stroke-width:3; stroke-opacity:0.1; fill:none" points="342.682,363.276 2329.13,363.276 "/>
<polyline clip-path="url(#clip760)" style="stroke:#adb2b7; stroke-linecap:round; stroke-linejoin:round; stroke-width:6; stroke-opacity:1; fill:none" points="342.682,1340.06 342.682,70.8661 "/>
<polyline clip-path="url(#clip760)" style="stroke:#adb2b7; stroke-linecap:round; stroke-linejoin:round; stroke-width:6; stroke-opacity:1; fill:none" points="342.682,1309.2 361.58,1309.2 "/>
<polyline clip-path="url(#clip760)" style="stroke:#adb2b7; stroke-linecap:round; stroke-linejoin:round; stroke-width:6; stroke-opacity:1; fill:none" points="342.682,993.894 361.58,993.894 "/>
<polyline clip-path="url(#clip760)" style="stroke:#adb2b7; stroke-linecap:round; stroke-linejoin:round; stroke-width:6; stroke-opacity:1; fill:none" points="342.682,678.585 361.58,678.585 "/>
<polyline clip-path="url(#clip760)" style="stroke:#adb2b7; stroke-linecap:round; stroke-linejoin:round; stroke-width:6; stroke-opacity:1; fill:none" points="342.682,363.276 361.58,363.276 "/>
<path clip-path="url(#clip760)" d="M175.676 1287.9 Q170.259 1287.9 167.516 1293.25 Q164.808 1298.56 164.808 1309.25 Q164.808 1319.91 167.516 1325.26 Q170.259 1330.57 175.676 1330.57 Q181.127 1330.57 183.836 1325.26 Q186.579 1319.91 186.579 1309.25 Q186.579 1298.56 183.836 1293.25 Q181.127 1287.9 175.676 1287.9 M175.676 1282.35 Q184.391 1282.35 188.974 1289.26 Q193.593 1296.13 193.593 1309.25 Q193.593 1322.35 188.974 1329.25 Q184.391 1336.13 175.676 1336.13 Q166.961 1336.13 162.343 1329.25 Q157.759 1322.35 157.759 1309.25 Q157.759 1296.13 162.343 1289.26 Q166.961 1282.35 175.676 1282.35 Z" fill="#ffffff" fill-rule="nonzero" fill-opacity="1" /><path clip-path="url(#clip760)" d="M205.919 1326.3 L213.245 1326.3 L213.245 1335.12 L205.919 1335.12 L205.919 1326.3 Z" fill="#ffffff" fill-rule="nonzero" fill-opacity="1" /><path clip-path="url(#clip760)" d="M243.523 1287.9 Q238.106 1287.9 235.363 1293.25 Q232.655 1298.56 232.655 1309.25 Q232.655 1319.91 235.363 1325.26 Q238.106 1330.57 243.523 1330.57 Q248.974 1330.57 251.682 1325.26 Q254.426 1319.91 254.426 1309.25 Q254.426 1298.56 251.682 1293.25 Q248.974 1287.9 243.523 1287.9 M243.523 1282.35 Q252.238 1282.35 256.821 1289.26 Q261.439 1296.13 261.439 1309.25 Q261.439 1322.35 256.821 1329.25 Q252.238 1336.13 243.523 1336.13 Q234.808 1336.13 230.19 1329.25 Q225.606 1322.35 225.606 1309.25 Q225.606 1296.13 230.19 1289.26 Q234.808 1282.35 243.523 1282.35 Z" fill="#ffffff" fill-rule="nonzero" fill-opacity="1" /><path clip-path="url(#clip760)" d="M288.766 1287.9 Q283.349 1287.9 280.606 1293.25 Q277.898 1298.56 277.898 1309.25 Q277.898 1319.91 280.606 1325.26 Q283.349 1330.57 288.766 1330.57 Q294.217 1330.57 296.925 1325.26 Q299.668 1319.91 299.668 1309.25 Q299.668 1298.56 296.925 1293.25 Q294.217 1287.9 288.766 1287.9 M288.766 1282.35 Q297.481 1282.35 302.064 1289.26 Q306.682 1296.13 306.682 1309.25 Q306.682 1322.35 302.064 1329.25 Q297.481 1336.13 288.766 1336.13 Q280.05 1336.13 275.432 1329.25 Q270.849 1322.35 270.849 1309.25 Q270.849 1296.13 275.432 1289.26 Q280.05 1282.35 288.766 1282.35 Z" fill="#ffffff" fill-rule="nonzero" fill-opacity="1" /><path clip-path="url(#clip760)" d="M177.516 972.592 Q172.1 972.592 169.357 977.939 Q166.648 983.251 166.648 993.946 Q166.648 1004.61 169.357 1009.95 Q172.1 1015.27 177.516 1015.27 Q182.968 1015.27 185.676 1009.95 Q188.419 1004.61 188.419 993.946 Q188.419 983.251 185.676 977.939 Q182.968 972.592 177.516 972.592 M177.516 967.036 Q186.231 967.036 190.815 973.946 Q195.433 980.821 195.433 993.946 Q195.433 1007.04 190.815 1013.95 Q186.231 1020.82 177.516 1020.82 Q168.801 1020.82 164.183 1013.95 Q159.6 1007.04 159.6 993.946 Q159.6 980.821 164.183 973.946 Q168.801 967.036 177.516 967.036 Z" fill="#ffffff" fill-rule="nonzero" fill-opacity="1" /><path clip-path="url(#clip760)" d="M207.759 1010.99 L215.085 1010.99 L215.085 1019.81 L207.759 1019.81 L207.759 1010.99 Z" fill="#ffffff" fill-rule="nonzero" fill-opacity="1" /><path clip-path="url(#clip760)" d="M245.363 972.592 Q239.946 972.592 237.203 977.939 Q234.495 983.251 234.495 993.946 Q234.495 1004.61 237.203 1009.95 Q239.946 1015.27 245.363 1015.27 Q250.814 1015.27 253.523 1009.95 Q256.266 1004.61 256.266 993.946 Q256.266 983.251 253.523 977.939 Q250.814 972.592 245.363 972.592 M245.363 967.036 Q254.078 967.036 258.662 973.946 Q263.28 980.821 263.28 993.946 Q263.28 1007.04 258.662 1013.95 Q254.078 1020.82 245.363 1020.82 Q236.648 1020.82 232.03 1013.95 Q227.446 1007.04 227.446 993.946 Q227.446 980.821 232.03 973.946 Q236.648 967.036 245.363 967.036 Z" fill="#ffffff" fill-rule="nonzero" fill-opacity="1" /><path clip-path="url(#clip760)" d="M276.821 1013.91 L288.279 1013.91 L288.279 974.363 L275.814 976.863 L275.814 970.474 L288.21 967.974 L295.224 967.974 L295.224 1013.91 L306.682 1013.91 L306.682 1019.81 L276.821 1019.81 L276.821 1013.91 Z" fill="#ffffff" fill-rule="nonzero" fill-opacity="1" /><path clip-path="url(#clip760)" d="M178.072 657.283 Q172.655 657.283 169.912 662.63 Q167.204 667.942 167.204 678.637 Q167.204 689.296 169.912 694.644 Q172.655 699.956 178.072 699.956 Q183.523 699.956 186.231 694.644 Q188.974 689.296 188.974 678.637 Q188.974 667.942 186.231 662.63 Q183.523 657.283 178.072 657.283 M178.072 651.727 Q186.787 651.727 191.37 658.637 Q195.988 665.512 195.988 678.637 Q195.988 691.727 191.37 698.637 Q186.787 705.512 178.072 705.512 Q169.357 705.512 164.738 698.637 Q160.155 691.727 160.155 678.637 Q160.155 665.512 164.738 658.637 Q169.357 651.727 178.072 651.727 Z" fill="#ffffff" fill-rule="nonzero" fill-opacity="1" /><path clip-path="url(#clip760)" d="M208.315 695.685 L215.641 695.685 L215.641 704.505 L208.315 704.505 L208.315 695.685 Z" fill="#ffffff" fill-rule="nonzero" fill-opacity="1" /><path clip-path="url(#clip760)" d="M245.919 657.283 Q240.502 657.283 237.759 662.63 Q235.051 667.942 235.051 678.637 Q235.051 689.296 237.759 694.644 Q240.502 699.956 245.919 699.956 Q251.37 699.956 254.078 694.644 Q256.821 689.296 256.821 678.637 Q256.821 667.942 254.078 662.63 Q251.37 657.283 245.919 657.283 M245.919 651.727 Q254.634 651.727 259.217 658.637 Q263.835 665.512 263.835 678.637 Q263.835 691.727 259.217 698.637 Q254.634 705.512 245.919 705.512 Q237.203 705.512 232.585 698.637 Q228.002 691.727 228.002 678.637 Q228.002 665.512 232.585 658.637 Q237.203 651.727 245.919 651.727 Z" fill="#ffffff" fill-rule="nonzero" fill-opacity="1" /><path clip-path="url(#clip760)" d="M282.203 698.602 L306.682 698.602 L306.682 704.505 L273.766 704.505 L273.766 698.602 Q277.759 694.47 284.634 687.526 Q291.543 680.546 293.314 678.533 Q296.682 674.748 298.002 672.144 Q299.356 669.505 299.356 666.97 Q299.356 662.838 296.439 660.234 Q293.557 657.63 288.904 657.63 Q285.606 657.63 281.925 658.776 Q278.28 659.922 274.113 662.248 L274.113 655.165 Q278.349 653.463 282.03 652.595 Q285.71 651.727 288.766 651.727 Q296.821 651.727 301.613 655.755 Q306.404 659.783 306.404 666.519 Q306.404 669.713 305.189 672.595 Q304.009 675.442 300.849 679.331 Q299.981 680.338 295.328 685.165 Q290.675 689.956 282.203 698.602 Z" fill="#ffffff" fill-rule="nonzero" fill-opacity="1" /><path clip-path="url(#clip760)" d="M176.648 341.974 Q171.232 341.974 168.488 347.321 Q165.78 352.633 165.78 363.328 Q165.78 373.987 168.488 379.335 Q171.232 384.647 176.648 384.647 Q182.1 384.647 184.808 379.335 Q187.551 373.987 187.551 363.328 Q187.551 352.633 184.808 347.321 Q182.1 341.974 176.648 341.974 M176.648 336.418 Q185.363 336.418 189.947 343.328 Q194.565 350.203 194.565 363.328 Q194.565 376.418 189.947 383.328 Q185.363 390.203 176.648 390.203 Q167.933 390.203 163.315 383.328 Q158.732 376.418 158.732 363.328 Q158.732 350.203 163.315 343.328 Q167.933 336.418 176.648 336.418 Z" fill="#ffffff" fill-rule="nonzero" fill-opacity="1" /><path clip-path="url(#clip760)" d="M206.891 380.376 L214.217 380.376 L214.217 389.196 L206.891 389.196 L206.891 380.376 Z" fill="#ffffff" fill-rule="nonzero" fill-opacity="1" /><path clip-path="url(#clip760)" d="M244.495 341.974 Q239.078 341.974 236.335 347.321 Q233.627 352.633 233.627 363.328 Q233.627 373.987 236.335 379.335 Q239.078 384.647 244.495 384.647 Q249.946 384.647 252.655 379.335 Q255.398 373.987 255.398 363.328 Q255.398 352.633 252.655 347.321 Q249.946 341.974 244.495 341.974 M244.495 336.418 Q253.21 336.418 257.794 343.328 Q262.412 350.203 262.412 363.328 Q262.412 376.418 257.794 383.328 Q253.21 390.203 244.495 390.203 Q235.78 390.203 231.162 383.328 Q226.578 376.418 226.578 363.328 Q226.578 350.203 231.162 343.328 Q235.78 336.418 244.495 336.418 Z" fill="#ffffff" fill-rule="nonzero" fill-opacity="1" /><path clip-path="url(#clip760)" d="M295.988 361.244 Q301.022 362.321 303.835 365.724 Q306.682 369.126 306.682 374.126 Q306.682 381.8 301.404 386.001 Q296.127 390.203 286.405 390.203 Q283.141 390.203 279.668 389.543 Q276.231 388.918 272.55 387.633 L272.55 380.862 Q275.467 382.564 278.939 383.432 Q282.411 384.3 286.196 384.3 Q292.793 384.3 296.231 381.696 Q299.703 379.091 299.703 374.126 Q299.703 369.543 296.474 366.973 Q293.279 364.369 287.55 364.369 L281.509 364.369 L281.509 358.605 L287.828 358.605 Q293.002 358.605 295.745 356.557 Q298.488 354.474 298.488 350.585 Q298.488 346.592 295.641 344.474 Q292.828 342.321 287.55 342.321 Q284.668 342.321 281.37 342.946 Q278.071 343.571 274.113 344.89 L274.113 338.64 Q278.106 337.529 281.578 336.974 Q285.085 336.418 288.175 336.418 Q296.161 336.418 300.814 340.064 Q305.467 343.675 305.467 349.856 Q305.467 354.161 303.002 357.147 Q300.536 360.099 295.988 361.244 Z" fill="#ffffff" fill-rule="nonzero" fill-opacity="1" /><path clip-path="url(#clip760)" d="M26.0876 1091.3 L26.0876 1082.51 L100.375 1082.51 L100.375 1091.3 L26.0876 1091.3 Z" fill="#ffffff" fill-rule="nonzero" fill-opacity="1" /><path clip-path="url(#clip760)" d="M53.0622 1043.41 Q53.0622 1050.48 58.6004 1054.58 Q64.0908 1058.69 73.6871 1058.69 Q83.2834 1058.69 88.8216 1054.63 Q94.312 1050.52 94.312 1043.41 Q94.312 1036.39 88.7739 1032.29 Q83.2357 1028.18 73.6871 1028.18 Q64.1863 1028.18 58.6482 1032.29 Q53.0622 1036.39 53.0622 1043.41 M45.6144 1043.41 Q45.6144 1031.95 53.0622 1025.41 Q60.5101 1018.87 73.6871 1018.87 Q86.8164 1018.87 94.312 1025.41 Q101.76 1031.95 101.76 1043.41 Q101.76 1054.92 94.312 1061.46 Q86.8164 1067.95 73.6871 1067.95 Q60.5101 1067.95 53.0622 1061.46 Q45.6144 1054.92 45.6144 1043.41 Z" fill="#ffffff" fill-rule="nonzero" fill-opacity="1" /><path clip-path="url(#clip760)" d="M48.9564 965.829 L57.1681 965.829 Q55.1152 969.553 54.1126 973.324 Q53.0622 977.048 53.0622 980.868 Q53.0622 989.414 58.5049 994.14 Q63.8999 998.867 73.6871 998.867 Q83.4744 998.867 88.9171 994.14 Q94.312 989.414 94.312 980.868 Q94.312 977.048 93.3094 973.324 Q92.2591 969.553 90.2061 965.829 L98.3224 965.829 Q100.041 969.505 100.901 973.468 Q101.76 977.383 101.76 981.823 Q101.76 993.902 94.1688 1001.02 Q86.5777 1008.13 73.6871 1008.13 Q60.6056 1008.13 53.11 1000.97 Q45.6144 993.758 45.6144 981.25 Q45.6144 977.192 46.4737 973.324 Q47.2854 969.457 48.9564 965.829 Z" fill="#ffffff" fill-rule="nonzero" fill-opacity="1" /><path clip-path="url(#clip760)" d="M73.4962 926.25 Q73.4962 936.897 75.931 941.003 Q78.3659 945.108 84.2383 945.108 Q88.9171 945.108 91.6862 942.053 Q94.4075 938.95 94.4075 933.65 Q94.4075 926.346 89.2513 921.953 Q84.0473 917.513 75.4536 917.513 L73.4962 917.513 L73.4962 926.25 M69.8677 908.728 L100.375 908.728 L100.375 917.513 L92.2591 917.513 Q97.1288 920.521 99.4682 925.009 Q101.76 929.497 101.76 935.99 Q101.76 944.201 97.1766 949.071 Q92.5455 953.893 84.8112 953.893 Q75.7878 953.893 71.2045 947.878 Q66.6212 941.814 66.6212 929.831 L66.6212 917.513 L65.7618 917.513 Q59.6985 917.513 56.4042 921.523 Q53.0622 925.486 53.0622 932.695 Q53.0622 937.279 54.1603 941.623 Q55.2584 945.968 57.4546 949.978 L49.3383 949.978 Q47.4763 945.156 46.5692 940.621 Q45.6144 936.085 45.6144 931.788 Q45.6144 920.187 51.63 914.458 Q57.6456 908.728 69.8677 908.728 Z" fill="#ffffff" fill-rule="nonzero" fill-opacity="1" /><path clip-path="url(#clip760)" d="M26.0876 890.634 L26.0876 881.849 L100.375 881.849 L100.375 890.634 L26.0876 890.634 Z" fill="#ffffff" fill-rule="nonzero" fill-opacity="1" /><path clip-path="url(#clip760)" d="M53.0622 811.667 Q53.0622 818.733 58.6004 822.839 Q64.0908 826.945 73.6871 826.945 Q83.2834 826.945 88.8216 822.887 Q94.312 818.781 94.312 811.667 Q94.312 804.649 88.7739 800.543 Q83.2357 796.437 73.6871 796.437 Q64.1863 796.437 58.6482 800.543 Q53.0622 804.649 53.0622 811.667 M45.6144 811.667 Q45.6144 800.209 53.0622 793.668 Q60.5101 787.128 73.6871 787.128 Q86.8164 787.128 94.312 793.668 Q101.76 800.209 101.76 811.667 Q101.76 823.173 94.312 829.714 Q86.8164 836.207 73.6871 836.207 Q60.5101 836.207 53.0622 829.714 Q45.6144 823.173 45.6144 811.667 Z" fill="#ffffff" fill-rule="nonzero" fill-opacity="1" /><path clip-path="url(#clip760)" d="M48.9564 734.085 L57.1681 734.085 Q55.1152 737.809 54.1126 741.581 Q53.0622 745.305 53.0622 749.124 Q53.0622 757.67 58.5049 762.397 Q63.8999 767.123 73.6871 767.123 Q83.4744 767.123 88.9171 762.397 Q94.312 757.67 94.312 749.124 Q94.312 745.305 93.3094 741.581 Q92.2591 737.809 90.2061 734.085 L98.3224 734.085 Q100.041 737.761 100.901 741.724 Q101.76 745.639 101.76 750.079 Q101.76 762.158 94.1688 769.272 Q86.5777 776.385 73.6871 776.385 Q60.6056 776.385 53.11 769.224 Q45.6144 762.015 45.6144 749.506 Q45.6144 745.448 46.4737 741.581 Q47.2854 737.714 48.9564 734.085 Z" fill="#ffffff" fill-rule="nonzero" fill-opacity="1" /><path clip-path="url(#clip760)" d="M48.9564 680.327 L57.1681 680.327 Q55.1152 684.051 54.1126 687.822 Q53.0622 691.546 53.0622 695.366 Q53.0622 703.912 58.5049 708.638 Q63.8999 713.365 73.6871 713.365 Q83.4744 713.365 88.9171 708.638 Q94.312 703.912 94.312 695.366 Q94.312 691.546 93.3094 687.822 Q92.2591 684.051 90.2061 680.327 L98.3224 680.327 Q100.041 684.003 100.901 687.966 Q101.76 691.881 101.76 696.321 Q101.76 708.4 94.1688 715.513 Q86.5777 722.627 73.6871 722.627 Q60.6056 722.627 53.11 715.466 Q45.6144 708.256 45.6144 695.748 Q45.6144 691.69 46.4737 687.822 Q47.2854 683.955 48.9564 680.327 Z" fill="#ffffff" fill-rule="nonzero" fill-opacity="1" /><path clip-path="url(#clip760)" d="M79.273 665.956 L46.9034 665.956 L46.9034 657.172 L78.9388 657.172 Q86.5299 657.172 90.3494 654.212 Q94.1211 651.251 94.1211 645.331 Q94.1211 638.218 89.5855 634.112 Q85.0499 629.958 77.2201 629.958 L46.9034 629.958 L46.9034 621.174 L100.375 621.174 L100.375 629.958 L92.1636 629.958 Q97.0334 633.157 99.4205 637.406 Q101.76 641.607 101.76 647.193 Q101.76 656.408 96.0308 661.182 Q90.3016 665.956 79.273 665.956 M45.6144 643.851 L45.6144 643.851 Z" fill="#ffffff" fill-rule="nonzero" fill-opacity="1" /><path clip-path="url(#clip760)" d="M92.3546 594.581 L120.714 594.581 L120.714 603.413 L46.9034 603.413 L46.9034 594.581 L55.0197 594.581 Q50.2454 591.812 47.9538 587.61 Q45.6144 583.361 45.6144 577.489 Q45.6144 567.749 53.3487 561.686 Q61.083 555.575 73.6871 555.575 Q86.2912 555.575 94.0256 561.686 Q101.76 567.749 101.76 577.489 Q101.76 583.361 99.4682 587.61 Q97.1288 591.812 92.3546 594.581 M73.6871 564.694 Q63.9953 564.694 58.5049 568.704 Q52.9668 572.667 52.9668 579.637 Q52.9668 586.608 58.5049 590.618 Q63.9953 594.581 73.6871 594.581 Q83.3789 594.581 88.9171 590.618 Q94.4075 586.608 94.4075 579.637 Q94.4075 572.667 88.9171 568.704 Q83.3789 564.694 73.6871 564.694 Z" fill="#ffffff" fill-rule="nonzero" fill-opacity="1" /><path clip-path="url(#clip760)" d="M73.4962 516.712 Q73.4962 527.359 75.931 531.465 Q78.3659 535.571 84.2383 535.571 Q88.9171 535.571 91.6862 532.515 Q94.4075 529.412 94.4075 524.112 Q94.4075 516.808 89.2513 512.415 Q84.0473 507.975 75.4536 507.975 L73.4962 507.975 L73.4962 516.712 M69.8677 499.191 L100.375 499.191 L100.375 507.975 L92.2591 507.975 Q97.1288 510.983 99.4682 515.471 Q101.76 519.959 101.76 526.452 Q101.76 534.664 97.1766 539.533 Q92.5455 544.355 84.8112 544.355 Q75.7878 544.355 71.2045 538.34 Q66.6212 532.276 66.6212 520.293 L66.6212 507.975 L65.7618 507.975 Q59.6985 507.975 56.4042 511.986 Q53.0622 515.948 53.0622 523.158 Q53.0622 527.741 54.1603 532.085 Q55.2584 536.43 57.4546 540.44 L49.3383 540.44 Q47.4763 535.618 46.5692 531.083 Q45.6144 526.547 45.6144 522.25 Q45.6144 510.649 51.63 504.92 Q57.6456 499.191 69.8677 499.191 Z" fill="#ffffff" fill-rule="nonzero" fill-opacity="1" /><path clip-path="url(#clip760)" d="M68.1012 436.648 L100.375 436.648 L100.375 445.432 L68.3877 445.432 Q60.7966 445.432 57.0249 448.392 Q53.2532 451.352 53.2532 457.273 Q53.2532 464.386 57.7888 468.492 Q62.3243 472.598 70.1542 472.598 L100.375 472.598 L100.375 481.43 L46.9034 481.43 L46.9034 472.598 L55.2107 472.598 Q50.3886 469.447 48.0015 465.198 Q45.6144 460.901 45.6144 455.315 Q45.6144 446.101 51.3435 441.374 Q57.0249 436.648 68.1012 436.648 Z" fill="#ffffff" fill-rule="nonzero" fill-opacity="1" /><path clip-path="url(#clip760)" d="M48.9564 380.645 L57.1681 380.645 Q55.1152 384.369 54.1126 388.141 Q53.0622 391.865 53.0622 395.684 Q53.0622 404.23 58.5049 408.957 Q63.8999 413.683 73.6871 413.683 Q83.4744 413.683 88.9171 408.957 Q94.312 404.23 94.312 395.684 Q94.312 391.865 93.3094 388.141 Q92.2591 384.369 90.2061 380.645 L98.3224 380.645 Q100.041 384.322 100.901 388.284 Q101.76 392.199 101.76 396.639 Q101.76 408.718 94.1688 415.832 Q86.5777 422.945 73.6871 422.945 Q60.6056 422.945 53.11 415.784 Q45.6144 408.575 45.6144 396.066 Q45.6144 392.008 46.4737 388.141 Q47.2854 384.274 48.9564 380.645 Z" fill="#ffffff" fill-rule="nonzero" fill-opacity="1" /><path clip-path="url(#clip760)" d="M105.341 343.119 Q114.889 346.843 117.801 350.376 Q120.714 353.909 120.714 359.829 L120.714 366.848 L113.361 366.848 L113.361 361.691 Q113.361 358.063 111.643 356.058 Q109.924 354.053 103.526 351.618 L99.516 350.042 L46.9034 371.67 L46.9034 362.36 L88.7261 345.65 L46.9034 328.94 L46.9034 319.63 L105.341 343.119 Z" fill="#ffffff" fill-rule="nonzero" fill-opacity="1" /><polyline clip-path="url(#clip762)" style="stroke:#fe4365; stroke-linecap:round; stroke-linejoin:round; stroke-width:18; stroke-opacity:1; fill:none" points="2272.91,681.592 2174.28,685.549 2075.65,694.534 1977.02,714.213 1878.38,754.145 1779.75,824.12 1681.12,921.195 1582.49,1023.02 1483.86,1108.06 1385.22,1170.89 1286.59,1214.98 1187.96,1245.19 1089.33,1265.64 990.695,1279.39 892.063,1288.61 793.431,1294.77 694.799,1298.86 596.167,1301.55 497.535,1303.24 398.903,1304.14 "/>
<polyline clip-path="url(#clip762)" style="stroke:#eca25c; stroke-linecap:round; stroke-linejoin:round; stroke-width:18; stroke-opacity:1; fill:none" points="2272.91,678.459 2174.28,678.294 2075.65,677.917 1977.02,677.084 1878.38,675.357 1779.75,672.177 1681.12,667.235 1582.49,660.665 1483.86,652.477 1385.22,642.228 1286.59,629.219 1187.96,612.5 1089.33,590.723 990.695,561.897 892.063,522.944 793.431,468.859 694.799,391.995 596.167,288.914 497.535,180.688 398.903,106.787 "/>
<path clip-path="url(#clip760)" d="M1759.21 346.453 L2262.92 346.453 L2262.92 113.173 L1759.21 113.173  Z" fill="#363d46" fill-rule="evenodd" fill-opacity="1"/>
<polyline clip-path="url(#clip760)" style="stroke:#ffffff; stroke-linecap:round; stroke-linejoin:round; stroke-width:6; stroke-opacity:1; fill:none" points="1759.21,346.453 2262.92,346.453 2262.92,113.173 1759.21,113.173 1759.21,346.453 "/>
<polyline clip-path="url(#clip760)" style="stroke:#fe4365; stroke-linecap:round; stroke-linejoin:round; stroke-width:18; stroke-opacity:1; fill:none" points="1781.28,190.933 1913.71,190.933 "/>
<path clip-path="url(#clip760)" d="M1935.78 162.825 L1942.17 162.825 L1942.17 216.853 L1935.78 216.853 L1935.78 162.825 Z" fill="#ffffff" fill-rule="nonzero" fill-opacity="1" /><path clip-path="url(#clip760)" d="M1988.8 195.811 L1988.8 198.936 L1959.43 198.936 Q1959.84 205.533 1963.38 209.005 Q1966.96 212.443 1973.31 212.443 Q1976.99 212.443 1980.43 211.54 Q1983.9 210.637 1987.31 208.832 L1987.31 214.873 Q1983.87 216.332 1980.26 217.096 Q1976.65 217.86 1972.93 217.86 Q1963.63 217.86 1958.18 212.443 Q1952.76 207.026 1952.76 197.79 Q1952.76 188.242 1957.9 182.651 Q1963.07 177.026 1971.82 177.026 Q1979.67 177.026 1984.22 182.096 Q1988.8 187.131 1988.8 195.811 M1982.41 193.936 Q1982.34 188.693 1979.46 185.568 Q1976.61 182.443 1971.89 182.443 Q1966.54 182.443 1963.31 185.464 Q1960.12 188.485 1959.63 193.971 L1982.41 193.936 Z" fill="#ffffff" fill-rule="nonzero" fill-opacity="1" /><path clip-path="url(#clip760)" d="M2018.97 162.825 L2018.97 168.138 L2012.86 168.138 Q2009.42 168.138 2008.07 169.526 Q2006.75 170.915 2006.75 174.526 L2006.75 177.964 L2017.27 177.964 L2017.27 182.929 L2006.75 182.929 L2006.75 216.853 L2000.33 216.853 L2000.33 182.929 L1994.22 182.929 L1994.22 177.964 L2000.33 177.964 L2000.33 175.256 Q2000.33 168.763 2003.35 165.811 Q2006.37 162.825 2012.93 162.825 L2018.97 162.825 Z" fill="#ffffff" fill-rule="nonzero" fill-opacity="1" /><path clip-path="url(#clip760)" d="M2029.39 166.922 L2029.39 177.964 L2042.55 177.964 L2042.55 182.929 L2029.39 182.929 L2029.39 204.04 Q2029.39 208.797 2030.67 210.151 Q2031.99 211.505 2035.99 211.505 L2042.55 211.505 L2042.55 216.853 L2035.99 216.853 Q2028.59 216.853 2025.78 214.11 Q2022.97 211.332 2022.97 204.04 L2022.97 182.929 L2018.28 182.929 L2018.28 177.964 L2022.97 177.964 L2022.97 166.922 L2029.39 166.922 Z" fill="#ffffff" fill-rule="nonzero" fill-opacity="1" /><path clip-path="url(#clip760)" d="M2106.82 195.811 L2106.82 198.936 L2077.45 198.936 Q2077.86 205.533 2081.4 209.005 Q2084.98 212.443 2091.33 212.443 Q2095.01 212.443 2098.45 211.54 Q2101.92 210.637 2105.33 208.832 L2105.33 214.873 Q2101.89 216.332 2098.28 217.096 Q2094.67 217.86 2090.95 217.86 Q2081.65 217.86 2076.2 212.443 Q2070.78 207.026 2070.78 197.79 Q2070.78 188.242 2075.92 182.651 Q2081.09 177.026 2089.84 177.026 Q2097.69 177.026 2102.24 182.096 Q2106.82 187.131 2106.82 195.811 M2100.43 193.936 Q2100.36 188.693 2097.48 185.568 Q2094.63 182.443 2089.91 182.443 Q2084.56 182.443 2081.33 185.464 Q2078.14 188.485 2077.65 193.971 L2100.43 193.936 Z" fill="#ffffff" fill-rule="nonzero" fill-opacity="1" /><path clip-path="url(#clip760)" d="M2142.9 183.867 L2142.9 162.825 L2149.29 162.825 L2149.29 216.853 L2142.9 216.853 L2142.9 211.019 Q2140.88 214.492 2137.79 216.193 Q2134.74 217.86 2130.43 217.86 Q2123.38 217.86 2118.94 212.235 Q2114.53 206.61 2114.53 197.443 Q2114.53 188.276 2118.94 182.651 Q2123.38 177.026 2130.43 177.026 Q2134.74 177.026 2137.79 178.728 Q2140.88 180.394 2142.9 183.867 M2121.13 197.443 Q2121.13 204.492 2124.01 208.519 Q2126.92 212.512 2131.99 212.512 Q2137.06 212.512 2139.98 208.519 Q2142.9 204.492 2142.9 197.443 Q2142.9 190.394 2139.98 186.401 Q2137.06 182.374 2131.99 182.374 Q2126.92 182.374 2124.01 186.401 Q2121.13 190.394 2121.13 197.443 Z" fill="#ffffff" fill-rule="nonzero" fill-opacity="1" /><path clip-path="url(#clip760)" d="M2188.03 196.957 Q2188.03 190.012 2185.15 186.193 Q2182.31 182.374 2177.13 182.374 Q2171.99 182.374 2169.11 186.193 Q2166.26 190.012 2166.26 196.957 Q2166.26 203.867 2169.11 207.686 Q2171.99 211.505 2177.13 211.505 Q2182.31 211.505 2185.15 207.686 Q2188.03 203.867 2188.03 196.957 M2194.42 212.026 Q2194.42 221.957 2190.01 226.783 Q2185.6 231.644 2176.51 231.644 Q2173.14 231.644 2170.15 231.123 Q2167.17 230.637 2164.35 229.596 L2164.35 223.38 Q2167.17 224.908 2169.91 225.637 Q2172.65 226.366 2175.5 226.366 Q2181.78 226.366 2184.91 223.068 Q2188.03 219.804 2188.03 213.172 L2188.03 210.012 Q2186.06 213.45 2182.97 215.151 Q2179.88 216.853 2175.57 216.853 Q2168.42 216.853 2164.04 211.401 Q2159.67 205.95 2159.67 196.957 Q2159.67 187.929 2164.04 182.478 Q2168.42 177.026 2175.57 177.026 Q2179.88 177.026 2182.97 178.728 Q2186.06 180.429 2188.03 183.867 L2188.03 177.964 L2194.42 177.964 L2194.42 212.026 Z" fill="#ffffff" fill-rule="nonzero" fill-opacity="1" /><path clip-path="url(#clip760)" d="M2240.85 195.811 L2240.85 198.936 L2211.47 198.936 Q2211.89 205.533 2215.43 209.005 Q2219.01 212.443 2225.36 212.443 Q2229.04 212.443 2232.48 211.54 Q2235.95 210.637 2239.35 208.832 L2239.35 214.873 Q2235.92 216.332 2232.31 217.096 Q2228.69 217.86 2224.98 217.86 Q2215.67 217.86 2210.22 212.443 Q2204.81 207.026 2204.81 197.79 Q2204.81 188.242 2209.94 182.651 Q2215.12 177.026 2223.87 177.026 Q2231.72 177.026 2236.26 182.096 Q2240.85 187.131 2240.85 195.811 M2234.46 193.936 Q2234.39 188.693 2231.51 185.568 Q2228.66 182.443 2223.94 182.443 Q2218.59 182.443 2215.36 185.464 Q2212.17 188.485 2211.68 193.971 L2234.46 193.936 Z" fill="#ffffff" fill-rule="nonzero" fill-opacity="1" /><polyline clip-path="url(#clip760)" style="stroke:#eca25c; stroke-linecap:round; stroke-linejoin:round; stroke-width:18; stroke-opacity:1; fill:none" points="1781.28,268.693 1913.71,268.693 "/>
<path clip-path="url(#clip760)" d="M1966.54 257.217 L1966.54 263.189 Q1963.83 261.696 1961.09 260.967 Q1958.38 260.203 1955.61 260.203 Q1949.39 260.203 1945.95 264.161 Q1942.52 268.085 1942.52 275.203 Q1942.52 282.321 1945.95 286.279 Q1949.39 290.203 1955.61 290.203 Q1958.38 290.203 1961.09 289.474 Q1963.83 288.71 1966.54 287.217 L1966.54 293.12 Q1963.87 294.37 1960.99 294.995 Q1958.14 295.62 1954.91 295.62 Q1946.13 295.62 1940.95 290.099 Q1935.78 284.578 1935.78 275.203 Q1935.78 265.689 1940.99 260.238 Q1946.23 254.786 1955.33 254.786 Q1958.28 254.786 1961.09 255.411 Q1963.9 256.002 1966.54 257.217 Z" fill="#ffffff" fill-rule="nonzero" fill-opacity="1" /><path clip-path="url(#clip760)" d="M2010.92 273.571 L2010.92 276.696 L1981.54 276.696 Q1981.96 283.293 1985.5 286.765 Q1989.08 290.203 1995.43 290.203 Q1999.11 290.203 2002.55 289.3 Q2006.02 288.397 2009.42 286.592 L2009.42 292.633 Q2005.99 294.092 2002.38 294.856 Q1998.77 295.62 1995.05 295.62 Q1985.74 295.62 1980.29 290.203 Q1974.88 284.786 1974.88 275.55 Q1974.88 266.002 1980.02 260.411 Q1985.19 254.786 1993.94 254.786 Q2001.79 254.786 2006.33 259.856 Q2010.92 264.891 2010.92 273.571 M2004.53 271.696 Q2004.46 266.453 2001.58 263.328 Q1998.73 260.203 1994.01 260.203 Q1988.66 260.203 1985.43 263.224 Q1982.24 266.245 1981.75 271.731 L2004.53 271.696 Z" fill="#ffffff" fill-rule="nonzero" fill-opacity="1" /><path clip-path="url(#clip760)" d="M2053.73 271.141 L2053.73 294.613 L2047.34 294.613 L2047.34 271.349 Q2047.34 265.828 2045.19 263.085 Q2043.04 260.342 2038.73 260.342 Q2033.56 260.342 2030.57 263.641 Q2027.58 266.939 2027.58 272.634 L2027.58 294.613 L2021.16 294.613 L2021.16 255.724 L2027.58 255.724 L2027.58 261.766 Q2029.88 258.259 2032.97 256.523 Q2036.09 254.786 2040.15 254.786 Q2046.86 254.786 2050.29 258.953 Q2053.73 263.085 2053.73 271.141 Z" fill="#ffffff" fill-rule="nonzero" fill-opacity="1" /><path clip-path="url(#clip760)" d="M2072.79 244.682 L2072.79 255.724 L2085.95 255.724 L2085.95 260.689 L2072.79 260.689 L2072.79 281.8 Q2072.79 286.557 2074.08 287.911 Q2075.4 289.265 2079.39 289.265 L2085.95 289.265 L2085.95 294.613 L2079.39 294.613 Q2071.99 294.613 2069.18 291.87 Q2066.37 289.092 2066.37 281.8 L2066.37 260.689 L2061.68 260.689 L2061.68 255.724 L2066.37 255.724 L2066.37 244.682 L2072.79 244.682 Z" fill="#ffffff" fill-rule="nonzero" fill-opacity="1" /><path clip-path="url(#clip760)" d="M2127.62 273.571 L2127.62 276.696 L2098.24 276.696 Q2098.66 283.293 2102.2 286.765 Q2105.78 290.203 2112.13 290.203 Q2115.81 290.203 2119.25 289.3 Q2122.72 288.397 2126.13 286.592 L2126.13 292.633 Q2122.69 294.092 2119.08 294.856 Q2115.47 295.62 2111.75 295.62 Q2102.45 295.62 2096.99 290.203 Q2091.58 284.786 2091.58 275.55 Q2091.58 266.002 2096.72 260.411 Q2101.89 254.786 2110.64 254.786 Q2118.49 254.786 2123.04 259.856 Q2127.62 264.891 2127.62 273.571 M2121.23 271.696 Q2121.16 266.453 2118.28 263.328 Q2115.43 260.203 2110.71 260.203 Q2105.36 260.203 2102.13 263.224 Q2098.94 266.245 2098.45 271.731 L2121.23 271.696 Z" fill="#ffffff" fill-rule="nonzero" fill-opacity="1" /><path clip-path="url(#clip760)" d="M2160.64 261.696 Q2159.56 261.071 2158.28 260.793 Q2157.03 260.481 2155.5 260.481 Q2150.08 260.481 2147.17 264.023 Q2144.29 267.529 2144.29 274.127 L2144.29 294.613 L2137.86 294.613 L2137.86 255.724 L2144.29 255.724 L2144.29 261.766 Q2146.3 258.224 2149.53 256.523 Q2152.76 254.786 2157.38 254.786 Q2158.04 254.786 2158.83 254.891 Q2159.63 254.96 2160.6 255.134 L2160.64 261.696 Z" fill="#ffffff" fill-rule="nonzero" fill-opacity="1" /></svg>
