<?xml version="1.0" encoding="utf-8"?>
<svg xmlns="http://www.w3.org/2000/svg" xmlns:xlink="http://www.w3.org/1999/xlink" width="600" height="400" viewBox="0 0 2400 1600">
<defs>
  <clipPath id="clip670">
    <rect x="0" y="0" width="2400" height="1600"/>
  </clipPath>
</defs>
<path clip-path="url(#clip670)" d="M0 1600 L2400 1600 L2400 0 L0 0  Z" fill="#363d46" fill-rule="evenodd" fill-opacity="1"/>
<defs>
  <clipPath id="clip671">
    <rect x="480" y="0" width="1681" height="1600"/>
  </clipPath>
</defs>
<path clip-path="url(#clip670)" d="M387.473 1350.58 L2377.95 1350.58 L2377.95 22.0472 L387.473 22.0472  Z" fill="#30343b" fill-rule="evenodd" fill-opacity="1"/>
<defs>
  <clipPath id="clip672">
    <rect x="387" y="22" width="1991" height="1330"/>
  </clipPath>
</defs>
<polyline clip-path="url(#clip672)" style="stroke:#adb2b7; stroke-linecap:round; stroke-linejoin:round; stroke-width:2.8; stroke-opacity:0.1; fill:none" points="405.485,1350.58 405.485,22.0472 "/>
<polyline clip-path="url(#clip672)" style="stroke:#adb2b7; stroke-linecap:round; stroke-linejoin:round; stroke-width:2.8; stroke-opacity:0.1; fill:none" points="788.712,1350.58 788.712,22.0472 "/>
<polyline clip-path="url(#clip672)" style="stroke:#adb2b7; stroke-linecap:round; stroke-linejoin:round; stroke-width:2.8; stroke-opacity:0.1; fill:none" points="1171.94,1350.58 1171.94,22.0472 "/>
<polyline clip-path="url(#clip672)" style="stroke:#adb2b7; stroke-linecap:round; stroke-linejoin:round; stroke-width:2.8; stroke-opacity:0.1; fill:none" points="1555.17,1350.58 1555.17,22.0472 "/>
<polyline clip-path="url(#clip672)" style="stroke:#adb2b7; stroke-linecap:round; stroke-linejoin:round; stroke-width:2.8; stroke-opacity:0.1; fill:none" points="1938.39,1350.58 1938.39,22.0472 "/>
<polyline clip-path="url(#clip672)" style="stroke:#adb2b7; stroke-linecap:round; stroke-linejoin:round; stroke-width:2.8; stroke-opacity:0.1; fill:none" points="2321.62,1350.58 2321.62,22.0472 "/>
<polyline clip-path="url(#clip670)" style="stroke:#adb2b7; stroke-linecap:round; stroke-linejoin:round; stroke-width:5.6; stroke-opacity:1; fill:none" points="387.473,1350.58 2377.95,1350.58 "/>
<polyline clip-path="url(#clip670)" style="stroke:#adb2b7; stroke-linecap:round; stroke-linejoin:round; stroke-width:5.6; stroke-opacity:1; fill:none" points="405.485,1350.58 405.485,1331.68 "/>
<polyline clip-path="url(#clip670)" style="stroke:#adb2b7; stroke-linecap:round; stroke-linejoin:round; stroke-width:5.6; stroke-opacity:1; fill:none" points="788.712,1350.58 788.712,1331.68 "/>
<polyline clip-path="url(#clip670)" style="stroke:#adb2b7; stroke-linecap:round; stroke-linejoin:round; stroke-width:5.6; stroke-opacity:1; fill:none" points="1171.94,1350.58 1171.94,1331.68 "/>
<polyline clip-path="url(#clip670)" style="stroke:#adb2b7; stroke-linecap:round; stroke-linejoin:round; stroke-width:5.6; stroke-opacity:1; fill:none" points="1555.17,1350.58 1555.17,1331.68 "/>
<polyline clip-path="url(#clip670)" style="stroke:#adb2b7; stroke-linecap:round; stroke-linejoin:round; stroke-width:5.6; stroke-opacity:1; fill:none" points="1938.39,1350.58 1938.39,1331.68 "/>
<polyline clip-path="url(#clip670)" style="stroke:#adb2b7; stroke-linecap:round; stroke-linejoin:round; stroke-width:5.6; stroke-opacity:1; fill:none" points="2321.62,1350.58 2321.62,1331.68 "/>
<path clip-path="url(#clip670)" d="M405.485 1386.19 Q400.43 1386.19 397.869 1391.18 Q395.342 1396.14 395.342 1406.12 Q395.342 1416.07 397.869 1421.06 Q400.43 1426.02 405.485 1426.02 Q410.573 1426.02 413.101 1421.06 Q415.661 1416.07 415.661 1406.12 Q415.661 1396.14 413.101 1391.18 Q410.573 1386.19 405.485 1386.19 M405.485 1381 Q413.619 1381 417.897 1387.45 Q422.207 1393.87 422.207 1406.12 Q422.207 1418.34 417.897 1424.78 Q413.619 1431.2 405.485 1431.2 Q397.351 1431.2 393.041 1424.78 Q388.763 1418.34 388.763 1406.12 Q388.763 1393.87 393.041 1387.45 Q397.351 1381 405.485 1381 Z" fill="#ffffff" fill-rule="nonzero" fill-opacity="1" /><path clip-path="url(#clip670)" d="M753.274 1424.75 L763.969 1424.75 L763.969 1387.84 L752.335 1390.17 L752.335 1384.21 L763.904 1381.88 L770.45 1381.88 L770.45 1424.75 L781.145 1424.75 L781.145 1430.26 L753.274 1430.26 L753.274 1424.75 Z" fill="#ffffff" fill-rule="nonzero" fill-opacity="1" /><path clip-path="url(#clip670)" d="M808.367 1386.19 Q803.311 1386.19 800.751 1391.18 Q798.223 1396.14 798.223 1406.12 Q798.223 1416.07 800.751 1421.06 Q803.311 1426.02 808.367 1426.02 Q813.455 1426.02 815.982 1421.06 Q818.543 1416.07 818.543 1406.12 Q818.543 1396.14 815.982 1391.18 Q813.455 1386.19 808.367 1386.19 M808.367 1381 Q816.501 1381 820.779 1387.45 Q825.089 1393.87 825.089 1406.12 Q825.089 1418.34 820.779 1424.78 Q816.501 1431.2 808.367 1431.2 Q800.233 1431.2 795.922 1424.78 Q791.645 1418.34 791.645 1406.12 Q791.645 1393.87 795.922 1387.45 Q800.233 1381 808.367 1381 Z" fill="#ffffff" fill-rule="nonzero" fill-opacity="1" /><path clip-path="url(#clip670)" d="M1142.22 1424.75 L1165.07 1424.75 L1165.07 1430.26 L1134.35 1430.26 L1134.35 1424.75 Q1138.07 1420.9 1144.49 1414.41 Q1150.94 1407.9 1152.59 1406.02 Q1155.73 1402.49 1156.97 1400.06 Q1158.23 1397.59 1158.23 1395.23 Q1158.23 1391.37 1155.51 1388.94 Q1152.82 1386.51 1148.48 1386.51 Q1145.4 1386.51 1141.96 1387.58 Q1138.56 1388.65 1134.67 1390.82 L1134.67 1384.21 Q1138.62 1382.62 1142.06 1381.81 Q1145.49 1381 1148.35 1381 Q1155.86 1381 1160.34 1384.76 Q1164.81 1388.52 1164.81 1394.81 Q1164.81 1397.79 1163.67 1400.48 Q1162.57 1403.14 1159.62 1406.77 Q1158.81 1407.71 1154.47 1412.21 Q1150.13 1416.68 1142.22 1424.75 Z" fill="#ffffff" fill-rule="nonzero" fill-opacity="1" /><path clip-path="url(#clip670)" d="M1192.81 1386.19 Q1187.75 1386.19 1185.19 1391.18 Q1182.67 1396.14 1182.67 1406.12 Q1182.67 1416.07 1185.19 1421.06 Q1187.75 1426.02 1192.81 1426.02 Q1197.9 1426.02 1200.42 1421.06 Q1202.98 1416.07 1202.98 1406.12 Q1202.98 1396.14 1200.42 1391.18 Q1197.9 1386.19 1192.81 1386.19 M1192.81 1381 Q1200.94 1381 1205.22 1387.45 Q1209.53 1393.87 1209.53 1406.12 Q1209.53 1418.34 1205.22 1424.78 Q1200.94 1431.2 1192.81 1431.2 Q1184.67 1431.2 1180.36 1424.78 Q1176.09 1418.34 1176.09 1406.12 Q1176.09 1393.87 1180.36 1387.45 Q1184.67 1381 1192.81 1381 Z" fill="#ffffff" fill-rule="nonzero" fill-opacity="1" /><path clip-path="url(#clip670)" d="M1539.54 1404.17 Q1544.24 1405.18 1546.87 1408.35 Q1549.53 1411.53 1549.53 1416.2 Q1549.53 1423.36 1544.6 1427.28 Q1539.67 1431.2 1530.6 1431.2 Q1527.55 1431.2 1524.31 1430.59 Q1521.11 1430 1517.67 1428.8 L1517.67 1422.48 Q1520.39 1424.07 1523.63 1424.88 Q1526.87 1425.69 1530.41 1425.69 Q1536.56 1425.69 1539.77 1423.26 Q1543.01 1420.83 1543.01 1416.2 Q1543.01 1411.92 1540 1409.52 Q1537.02 1407.09 1531.67 1407.09 L1526.03 1407.09 L1526.03 1401.71 L1531.93 1401.71 Q1536.76 1401.71 1539.32 1399.8 Q1541.88 1397.85 1541.88 1394.22 Q1541.88 1390.5 1539.22 1388.52 Q1536.6 1386.51 1531.67 1386.51 Q1528.98 1386.51 1525.9 1387.1 Q1522.82 1387.68 1519.13 1388.91 L1519.13 1383.08 Q1522.86 1382.04 1526.1 1381.52 Q1529.37 1381 1532.25 1381 Q1539.71 1381 1544.05 1384.41 Q1548.39 1387.78 1548.39 1393.54 Q1548.39 1397.56 1546.09 1400.35 Q1543.79 1403.1 1539.54 1404.17 Z" fill="#ffffff" fill-rule="nonzero" fill-opacity="1" /><path clip-path="url(#clip670)" d="M1575.94 1386.19 Q1570.88 1386.19 1568.32 1391.18 Q1565.79 1396.14 1565.79 1406.12 Q1565.79 1416.07 1568.32 1421.06 Q1570.88 1426.02 1575.94 1426.02 Q1581.03 1426.02 1583.55 1421.06 Q1586.11 1416.07 1586.11 1406.12 Q1586.11 1396.14 1583.55 1391.18 Q1581.03 1386.19 1575.94 1386.19 M1575.94 1381 Q1584.07 1381 1588.35 1387.45 Q1592.66 1393.87 1592.66 1406.12 Q1592.66 1418.34 1588.35 1424.78 Q1584.07 1431.2 1575.94 1431.2 Q1567.8 1431.2 1563.49 1424.78 Q1559.22 1418.34 1559.22 1406.12 Q1559.22 1393.87 1563.49 1387.45 Q1567.8 1381 1575.94 1381 Z" fill="#ffffff" fill-rule="nonzero" fill-opacity="1" /><path clip-path="url(#clip670)" d="M1921.83 1387.58 L1905.3 1413.41 L1921.83 1413.41 L1921.83 1387.58 M1920.11 1381.88 L1928.35 1381.88 L1928.35 1413.41 L1935.25 1413.41 L1935.25 1418.85 L1928.35 1418.85 L1928.35 1430.26 L1921.83 1430.26 L1921.83 1418.85 L1899.99 1418.85 L1899.99 1412.53 L1920.11 1381.88 Z" fill="#ffffff" fill-rule="nonzero" fill-opacity="1" /><path clip-path="url(#clip670)" d="M1960.07 1386.19 Q1955.02 1386.19 1952.46 1391.18 Q1949.93 1396.14 1949.93 1406.12 Q1949.93 1416.07 1952.46 1421.06 Q1955.02 1426.02 1960.07 1426.02 Q1965.16 1426.02 1967.69 1421.06 Q1970.25 1416.07 1970.25 1406.12 Q1970.25 1396.14 1967.69 1391.18 Q1965.16 1386.19 1960.07 1386.19 M1960.07 1381 Q1968.21 1381 1972.48 1387.45 Q1976.79 1393.87 1976.79 1406.12 Q1976.79 1418.34 1972.48 1424.78 Q1968.21 1431.2 1960.07 1431.2 Q1951.94 1431.2 1947.63 1424.78 Q1943.35 1418.34 1943.35 1406.12 Q1943.35 1393.87 1947.63 1387.45 Q1951.94 1381 1960.07 1381 Z" fill="#ffffff" fill-rule="nonzero" fill-opacity="1" /><path clip-path="url(#clip670)" d="M2286.2 1381.88 L2311.9 1381.88 L2311.9 1387.39 L2292.19 1387.39 L2292.19 1399.25 Q2293.62 1398.76 2295.04 1398.53 Q2296.47 1398.28 2297.9 1398.28 Q2306 1398.28 2310.73 1402.72 Q2315.46 1407.16 2315.46 1414.74 Q2315.46 1422.55 2310.6 1426.89 Q2305.74 1431.2 2296.89 1431.2 Q2293.85 1431.2 2290.67 1430.68 Q2287.53 1430.16 2284.16 1429.13 L2284.16 1422.55 Q2287.07 1424.14 2290.18 1424.91 Q2293.29 1425.69 2296.76 1425.69 Q2302.37 1425.69 2305.64 1422.74 Q2308.91 1419.79 2308.91 1414.74 Q2308.91 1409.68 2305.64 1406.73 Q2302.37 1403.78 2296.76 1403.78 Q2294.14 1403.78 2291.51 1404.37 Q2288.92 1404.95 2286.2 1406.18 L2286.2 1381.88 Z" fill="#ffffff" fill-rule="nonzero" fill-opacity="1" /><path clip-path="url(#clip670)" d="M2342.36 1386.19 Q2337.3 1386.19 2334.74 1391.18 Q2332.22 1396.14 2332.22 1406.12 Q2332.22 1416.07 2334.74 1421.06 Q2337.3 1426.02 2342.36 1426.02 Q2347.45 1426.02 2349.97 1421.06 Q2352.53 1416.07 2352.53 1406.12 Q2352.53 1396.14 2349.97 1391.18 Q2347.45 1386.19 2342.36 1386.19 M2342.36 1381 Q2350.49 1381 2354.77 1387.45 Q2359.08 1393.87 2359.08 1406.12 Q2359.08 1418.34 2354.77 1424.78 Q2350.49 1431.2 2342.36 1431.2 Q2334.22 1431.2 2329.91 1424.78 Q2325.64 1418.34 2325.64 1406.12 Q2325.64 1393.87 2329.91 1387.45 Q2334.22 1381 2342.36 1381 Z" fill="#ffffff" fill-rule="nonzero" fill-opacity="1" /><path clip-path="url(#clip670)" d="M1150.27 1469.66 L1158.47 1469.66 L1158.47 1538.99 L1150.27 1538.99 L1150.27 1469.66 Z" fill="#ffffff" fill-rule="nonzero" fill-opacity="1" /><path clip-path="url(#clip670)" d="M1198.3 1513.9 Q1188.36 1513.9 1184.53 1516.18 Q1180.7 1518.45 1180.7 1523.93 Q1180.7 1528.3 1183.55 1530.88 Q1186.45 1533.42 1191.39 1533.42 Q1198.21 1533.42 1202.31 1528.61 Q1206.46 1523.75 1206.46 1515.73 L1206.46 1513.9 L1198.3 1513.9 M1214.66 1510.52 L1214.66 1538.99 L1206.46 1538.99 L1206.46 1531.42 Q1203.65 1535.96 1199.46 1538.14 Q1195.27 1540.28 1189.21 1540.28 Q1181.55 1540.28 1177 1536.01 Q1172.5 1531.68 1172.5 1524.46 Q1172.5 1516.04 1178.12 1511.76 Q1183.78 1507.49 1194.96 1507.49 L1206.46 1507.49 L1206.46 1506.69 Q1206.46 1501.03 1202.71 1497.95 Q1199.01 1494.83 1192.29 1494.83 Q1188.01 1494.83 1183.95 1495.86 Q1179.9 1496.88 1176.16 1498.93 L1176.16 1491.36 Q1180.66 1489.62 1184.89 1488.77 Q1189.12 1487.88 1193.13 1487.88 Q1203.96 1487.88 1209.31 1493.5 Q1214.66 1499.11 1214.66 1510.52 Z" fill="#ffffff" fill-rule="nonzero" fill-opacity="1" /><path clip-path="url(#clip670)" d="M1239.65 1474.91 L1239.65 1489.08 L1256.54 1489.08 L1256.54 1495.46 L1239.65 1495.46 L1239.65 1522.55 Q1239.65 1528.65 1241.3 1530.39 Q1243 1532.13 1248.12 1532.13 L1256.54 1532.13 L1256.54 1538.99 L1248.12 1538.99 Q1238.63 1538.99 1235.02 1535.47 Q1231.41 1531.91 1231.41 1522.55 L1231.41 1495.46 L1225.39 1495.46 L1225.39 1489.08 L1231.41 1489.08 L1231.41 1474.91 L1239.65 1474.91 Z" fill="#ffffff" fill-rule="nonzero" fill-opacity="1" /><path clip-path="url(#clip670)" d="M1275.44 1474.91 L1275.44 1489.08 L1292.32 1489.08 L1292.32 1495.46 L1275.44 1495.46 L1275.44 1522.55 Q1275.44 1528.65 1277.08 1530.39 Q1278.78 1532.13 1283.9 1532.13 L1292.32 1532.13 L1292.32 1538.99 L1283.9 1538.99 Q1274.41 1538.99 1270.8 1535.47 Q1267.19 1531.91 1267.19 1522.55 L1267.19 1495.46 L1261.18 1495.46 L1261.18 1489.08 L1267.19 1489.08 L1267.19 1474.91 L1275.44 1474.91 Z" fill="#ffffff" fill-rule="nonzero" fill-opacity="1" /><path clip-path="url(#clip670)" d="M1303.11 1489.08 L1311.31 1489.08 L1311.31 1538.99 L1303.11 1538.99 L1303.11 1489.08 M1303.11 1469.66 L1311.31 1469.66 L1311.31 1480.04 L1303.11 1480.04 L1303.11 1469.66 Z" fill="#ffffff" fill-rule="nonzero" fill-opacity="1" /><path clip-path="url(#clip670)" d="M1364.38 1491 L1364.38 1498.66 Q1360.9 1496.75 1357.38 1495.81 Q1353.91 1494.83 1350.34 1494.83 Q1342.36 1494.83 1337.95 1499.91 Q1333.54 1504.95 1333.54 1514.08 Q1333.54 1523.22 1337.95 1528.3 Q1342.36 1533.33 1350.34 1533.33 Q1353.91 1533.33 1357.38 1532.4 Q1360.9 1531.42 1364.38 1529.5 L1364.38 1537.07 Q1360.95 1538.68 1357.25 1539.48 Q1353.59 1540.28 1349.45 1540.28 Q1338.18 1540.28 1331.54 1533.2 Q1324.9 1526.11 1324.9 1514.08 Q1324.9 1501.87 1331.58 1494.88 Q1338.31 1487.88 1349.98 1487.88 Q1353.77 1487.88 1357.38 1488.68 Q1360.99 1489.44 1364.38 1491 Z" fill="#ffffff" fill-rule="nonzero" fill-opacity="1" /><path clip-path="url(#clip670)" d="M1421.32 1511.99 L1421.32 1516 L1383.63 1516 Q1384.16 1524.46 1388.71 1528.92 Q1393.3 1533.33 1401.45 1533.33 Q1406.17 1533.33 1410.59 1532.17 Q1415.04 1531.01 1419.41 1528.7 L1419.41 1536.45 Q1415 1538.32 1410.36 1539.3 Q1405.73 1540.28 1400.96 1540.28 Q1389.02 1540.28 1382.02 1533.33 Q1375.07 1526.38 1375.07 1514.53 Q1375.07 1502.27 1381.67 1495.1 Q1388.31 1487.88 1399.53 1487.88 Q1409.61 1487.88 1415.44 1494.39 Q1421.32 1500.85 1421.32 1511.99 M1413.13 1509.58 Q1413.04 1502.85 1409.34 1498.84 Q1405.68 1494.83 1399.62 1494.83 Q1392.76 1494.83 1388.62 1498.71 Q1384.52 1502.59 1383.89 1509.63 L1413.13 1509.58 Z" fill="#ffffff" fill-rule="nonzero" fill-opacity="1" /><path clip-path="url(#clip670)" d="M1495.61 1490.55 L1495.61 1498.31 Q1492.13 1496.53 1488.39 1495.63 Q1484.64 1494.74 1480.63 1494.74 Q1474.53 1494.74 1471.45 1496.61 Q1468.42 1498.49 1468.42 1502.23 Q1468.42 1505.08 1470.61 1506.73 Q1472.79 1508.33 1479.39 1509.8 L1482.19 1510.43 Q1490.93 1512.3 1494.58 1515.73 Q1498.28 1519.12 1498.28 1525.22 Q1498.28 1532.17 1492.75 1536.23 Q1487.27 1540.28 1477.65 1540.28 Q1473.64 1540.28 1469.27 1539.48 Q1464.95 1538.72 1460.14 1537.16 L1460.14 1528.7 Q1464.68 1531.06 1469.09 1532.26 Q1473.5 1533.42 1477.83 1533.42 Q1483.62 1533.42 1486.74 1531.46 Q1489.86 1529.46 1489.86 1525.85 Q1489.86 1522.5 1487.58 1520.72 Q1485.36 1518.94 1477.74 1517.29 L1474.89 1516.62 Q1467.27 1515.02 1463.88 1511.72 Q1460.49 1508.38 1460.49 1502.59 Q1460.49 1495.55 1465.48 1491.71 Q1470.47 1487.88 1479.65 1487.88 Q1484.2 1487.88 1488.21 1488.55 Q1492.22 1489.22 1495.61 1490.55 Z" fill="#ffffff" fill-rule="nonzero" fill-opacity="1" /><path clip-path="url(#clip670)" d="M1511.34 1489.08 L1519.53 1489.08 L1519.53 1538.99 L1511.34 1538.99 L1511.34 1489.08 M1511.34 1469.66 L1519.53 1469.66 L1519.53 1480.04 L1511.34 1480.04 L1511.34 1469.66 Z" fill="#ffffff" fill-rule="nonzero" fill-opacity="1" /><path clip-path="url(#clip670)" d="M1544.8 1474.91 L1544.8 1489.08 L1561.69 1489.08 L1561.69 1495.46 L1544.8 1495.46 L1544.8 1522.55 Q1544.8 1528.65 1546.45 1530.39 Q1548.14 1532.13 1553.27 1532.13 L1561.69 1532.13 L1561.69 1538.99 L1553.27 1538.99 Q1543.78 1538.99 1540.17 1535.47 Q1536.56 1531.91 1536.56 1522.55 L1536.56 1495.46 L1530.54 1495.46 L1530.54 1489.08 L1536.56 1489.08 L1536.56 1474.91 L1544.8 1474.91 Z" fill="#ffffff" fill-rule="nonzero" fill-opacity="1" /><path clip-path="url(#clip670)" d="M1615.16 1511.99 L1615.16 1516 L1577.46 1516 Q1578 1524.46 1582.54 1528.92 Q1587.13 1533.33 1595.29 1533.33 Q1600.01 1533.33 1604.42 1532.17 Q1608.88 1531.01 1613.24 1528.7 L1613.24 1536.45 Q1608.83 1538.32 1604.2 1539.3 Q1599.56 1540.28 1594.8 1540.28 Q1582.85 1540.28 1575.86 1533.33 Q1568.91 1526.38 1568.91 1514.53 Q1568.91 1502.27 1575.5 1495.1 Q1582.14 1487.88 1593.37 1487.88 Q1603.44 1487.88 1609.28 1494.39 Q1615.16 1500.85 1615.16 1511.99 M1606.96 1509.58 Q1606.87 1502.85 1603.17 1498.84 Q1599.52 1494.83 1593.46 1494.83 Q1586.6 1494.83 1582.45 1498.71 Q1578.35 1502.59 1577.73 1509.63 L1606.96 1509.58 Z" fill="#ffffff" fill-rule="nonzero" fill-opacity="1" /><polyline clip-path="url(#clip672)" style="stroke:#adb2b7; stroke-linecap:round; stroke-linejoin:round; stroke-width:2.8; stroke-opacity:0.1; fill:none" points="387.473,1324.14 2377.95,1324.14 "/>
<polyline clip-path="url(#clip672)" style="stroke:#adb2b7; stroke-linecap:round; stroke-linejoin:round; stroke-width:2.8; stroke-opacity:0.1; fill:none" points="387.473,941.711 2377.95,941.711 "/>
<polyline clip-path="url(#clip672)" style="stroke:#adb2b7; stroke-linecap:round; stroke-linejoin:round; stroke-width:2.8; stroke-opacity:0.1; fill:none" points="387.473,559.284 2377.95,559.284 "/>
<polyline clip-path="url(#clip672)" style="stroke:#adb2b7; stroke-linecap:round; stroke-linejoin:round; stroke-width:2.8; stroke-opacity:0.1; fill:none" points="387.473,176.857 2377.95,176.857 "/>
<polyline clip-path="url(#clip670)" style="stroke:#adb2b7; stroke-linecap:round; stroke-linejoin:round; stroke-width:5.6; stroke-opacity:1; fill:none" points="387.473,1350.58 387.473,22.0472 "/>
<polyline clip-path="url(#clip670)" style="stroke:#adb2b7; stroke-linecap:round; stroke-linejoin:round; stroke-width:5.6; stroke-opacity:1; fill:none" points="387.473,1324.14 406.371,1324.14 "/>
<polyline clip-path="url(#clip670)" style="stroke:#adb2b7; stroke-linecap:round; stroke-linejoin:round; stroke-width:5.6; stroke-opacity:1; fill:none" points="387.473,941.711 406.371,941.711 "/>
<polyline clip-path="url(#clip670)" style="stroke:#adb2b7; stroke-linecap:round; stroke-linejoin:round; stroke-width:5.6; stroke-opacity:1; fill:none" points="387.473,559.284 406.371,559.284 "/>
<polyline clip-path="url(#clip670)" style="stroke:#adb2b7; stroke-linecap:round; stroke-linejoin:round; stroke-width:5.6; stroke-opacity:1; fill:none" points="387.473,176.857 406.371,176.857 "/>
<path clip-path="url(#clip670)" d="M229.201 1304.26 Q224.145 1304.26 221.585 1309.25 Q219.057 1314.2 219.057 1324.19 Q219.057 1334.13 221.585 1339.13 Q224.145 1344.08 229.201 1344.08 Q234.289 1344.08 236.817 1339.13 Q239.377 1334.13 239.377 1324.19 Q239.377 1314.2 236.817 1309.25 Q234.289 1304.26 229.201 1304.26 M229.201 1299.07 Q237.335 1299.07 241.613 1305.52 Q245.923 1311.94 245.923 1324.19 Q245.923 1336.4 241.613 1342.85 Q237.335 1349.27 229.201 1349.27 Q221.067 1349.27 216.757 1342.85 Q212.479 1336.4 212.479 1324.19 Q212.479 1311.94 216.757 1305.52 Q221.067 1299.07 229.201 1299.07 Z" fill="#ffffff" fill-rule="nonzero" fill-opacity="1" /><path clip-path="url(#clip670)" d="M257.428 1340.1 L264.266 1340.1 L264.266 1348.33 L257.428 1348.33 L257.428 1340.1 Z" fill="#ffffff" fill-rule="nonzero" fill-opacity="1" /><path clip-path="url(#clip670)" d="M292.525 1304.26 Q287.469 1304.26 284.909 1309.25 Q282.381 1314.2 282.381 1324.19 Q282.381 1334.13 284.909 1339.13 Q287.469 1344.08 292.525 1344.08 Q297.613 1344.08 300.14 1339.13 Q302.701 1334.13 302.701 1324.19 Q302.701 1314.2 300.14 1309.25 Q297.613 1304.26 292.525 1304.26 M292.525 1299.07 Q300.659 1299.07 304.937 1305.52 Q309.247 1311.94 309.247 1324.19 Q309.247 1336.4 304.937 1342.85 Q300.659 1349.27 292.525 1349.27 Q284.39 1349.27 280.08 1342.85 Q275.803 1336.4 275.803 1324.19 Q275.803 1311.94 280.08 1305.52 Q284.39 1299.07 292.525 1299.07 Z" fill="#ffffff" fill-rule="nonzero" fill-opacity="1" /><path clip-path="url(#clip670)" d="M334.751 1304.26 Q329.696 1304.26 327.136 1309.25 Q324.608 1314.2 324.608 1324.19 Q324.608 1334.13 327.136 1339.13 Q329.696 1344.08 334.751 1344.08 Q339.839 1344.08 342.367 1339.13 Q344.927 1334.13 344.927 1324.19 Q344.927 1314.2 342.367 1309.25 Q339.839 1304.26 334.751 1304.26 M334.751 1299.07 Q342.885 1299.07 347.163 1305.52 Q351.473 1311.94 351.473 1324.19 Q351.473 1336.4 347.163 1342.85 Q342.885 1349.27 334.751 1349.27 Q326.617 1349.27 322.307 1342.85 Q318.029 1336.4 318.029 1324.19 Q318.029 1311.94 322.307 1305.52 Q326.617 1299.07 334.751 1299.07 Z" fill="#ffffff" fill-rule="nonzero" fill-opacity="1" /><path clip-path="url(#clip670)" d="M230.594 921.829 Q225.539 921.829 222.979 926.819 Q220.451 931.778 220.451 941.759 Q220.451 951.708 222.979 956.699 Q225.539 961.657 230.594 961.657 Q235.682 961.657 238.21 956.699 Q240.77 951.708 240.77 941.759 Q240.77 931.778 238.21 926.819 Q235.682 921.829 230.594 921.829 M230.594 916.644 Q238.729 916.644 243.006 923.093 Q247.317 929.509 247.317 941.759 Q247.317 953.977 243.006 960.426 Q238.729 966.842 230.594 966.842 Q222.46 966.842 218.15 960.426 Q213.872 953.977 213.872 941.759 Q213.872 929.509 218.15 923.093 Q222.46 916.644 230.594 916.644 Z" fill="#ffffff" fill-rule="nonzero" fill-opacity="1" /><path clip-path="url(#clip670)" d="M258.821 957.671 L265.659 957.671 L265.659 965.903 L258.821 965.903 L258.821 957.671 Z" fill="#ffffff" fill-rule="nonzero" fill-opacity="1" /><path clip-path="url(#clip670)" d="M293.918 921.829 Q288.863 921.829 286.302 926.819 Q283.775 931.778 283.775 941.759 Q283.775 951.708 286.302 956.699 Q288.863 961.657 293.918 961.657 Q299.006 961.657 301.534 956.699 Q304.094 951.708 304.094 941.759 Q304.094 931.778 301.534 926.819 Q299.006 921.829 293.918 921.829 M293.918 916.644 Q302.052 916.644 306.33 923.093 Q310.64 929.509 310.64 941.759 Q310.64 953.977 306.33 960.426 Q302.052 966.842 293.918 966.842 Q285.784 966.842 281.474 960.426 Q277.196 953.977 277.196 941.759 Q277.196 929.509 281.474 923.093 Q285.784 916.644 293.918 916.644 Z" fill="#ffffff" fill-rule="nonzero" fill-opacity="1" /><path clip-path="url(#clip670)" d="M322.21 917.519 L347.909 917.519 L347.909 923.028 L328.205 923.028 L328.205 934.889 Q329.631 934.403 331.057 934.176 Q332.483 933.917 333.909 933.917 Q342.01 933.917 346.742 938.356 Q351.473 942.796 351.473 950.379 Q351.473 958.19 346.612 962.532 Q341.751 966.842 332.904 966.842 Q329.858 966.842 326.682 966.324 Q323.538 965.805 320.168 964.768 L320.168 958.19 Q323.085 959.778 326.196 960.555 Q329.307 961.333 332.774 961.333 Q338.381 961.333 341.654 958.384 Q344.927 955.435 344.927 950.379 Q344.927 945.324 341.654 942.375 Q338.381 939.426 332.774 939.426 Q330.149 939.426 327.524 940.009 Q324.932 940.592 322.21 941.824 L322.21 917.519 Z" fill="#ffffff" fill-rule="nonzero" fill-opacity="1" /><path clip-path="url(#clip670)" d="M229.201 539.402 Q224.145 539.402 221.585 544.393 Q219.057 549.351 219.057 559.333 Q219.057 569.282 221.585 574.272 Q224.145 579.231 229.201 579.231 Q234.289 579.231 236.817 574.272 Q239.377 569.282 239.377 559.333 Q239.377 549.351 236.817 544.393 Q234.289 539.402 229.201 539.402 M229.201 534.217 Q237.335 534.217 241.613 540.666 Q245.923 547.083 245.923 559.333 Q245.923 571.55 241.613 577.999 Q237.335 584.416 229.201 584.416 Q221.067 584.416 216.757 577.999 Q212.479 571.55 212.479 559.333 Q212.479 547.083 216.757 540.666 Q221.067 534.217 229.201 534.217 Z" fill="#ffffff" fill-rule="nonzero" fill-opacity="1" /><path clip-path="url(#clip670)" d="M257.428 575.245 L264.266 575.245 L264.266 583.476 L257.428 583.476 L257.428 575.245 Z" fill="#ffffff" fill-rule="nonzero" fill-opacity="1" /><path clip-path="url(#clip670)" d="M279.659 577.967 L290.353 577.967 L290.353 541.055 L278.719 543.388 L278.719 537.425 L290.289 535.092 L296.835 535.092 L296.835 577.967 L307.529 577.967 L307.529 583.476 L279.659 583.476 L279.659 577.967 Z" fill="#ffffff" fill-rule="nonzero" fill-opacity="1" /><path clip-path="url(#clip670)" d="M334.751 539.402 Q329.696 539.402 327.136 544.393 Q324.608 549.351 324.608 559.333 Q324.608 569.282 327.136 574.272 Q329.696 579.231 334.751 579.231 Q339.839 579.231 342.367 574.272 Q344.927 569.282 344.927 559.333 Q344.927 549.351 342.367 544.393 Q339.839 539.402 334.751 539.402 M334.751 534.217 Q342.885 534.217 347.163 540.666 Q351.473 547.083 351.473 559.333 Q351.473 571.55 347.163 577.999 Q342.885 584.416 334.751 584.416 Q326.617 584.416 322.307 577.999 Q318.029 571.55 318.029 559.333 Q318.029 547.083 322.307 540.666 Q326.617 534.217 334.751 534.217 Z" fill="#ffffff" fill-rule="nonzero" fill-opacity="1" /><path clip-path="url(#clip670)" d="M230.594 156.976 Q225.539 156.976 222.979 161.966 Q220.451 166.925 220.451 176.906 Q220.451 186.855 222.979 191.846 Q225.539 196.804 230.594 196.804 Q235.682 196.804 238.21 191.846 Q240.77 186.855 240.77 176.906 Q240.77 166.925 238.21 161.966 Q235.682 156.976 230.594 156.976 M230.594 151.79 Q238.729 151.79 243.006 158.239 Q247.317 164.656 247.317 176.906 Q247.317 189.123 243.006 195.573 Q238.729 201.989 230.594 201.989 Q222.46 201.989 218.15 195.573 Q213.872 189.123 213.872 176.906 Q213.872 164.656 218.15 158.239 Q222.46 151.79 230.594 151.79 Z" fill="#ffffff" fill-rule="nonzero" fill-opacity="1" /><path clip-path="url(#clip670)" d="M258.821 192.818 L265.659 192.818 L265.659 201.049 L258.821 201.049 L258.821 192.818 Z" fill="#ffffff" fill-rule="nonzero" fill-opacity="1" /><path clip-path="url(#clip670)" d="M281.052 195.54 L291.747 195.54 L291.747 158.628 L280.113 160.962 L280.113 154.999 L291.682 152.665 L298.228 152.665 L298.228 195.54 L308.923 195.54 L308.923 201.049 L281.052 201.049 L281.052 195.54 Z" fill="#ffffff" fill-rule="nonzero" fill-opacity="1" /><path clip-path="url(#clip670)" d="M322.21 152.665 L347.909 152.665 L347.909 158.175 L328.205 158.175 L328.205 170.036 Q329.631 169.55 331.057 169.323 Q332.483 169.063 333.909 169.063 Q342.01 169.063 346.742 173.503 Q351.473 177.943 351.473 185.526 Q351.473 193.336 346.612 197.679 Q341.751 201.989 332.904 201.989 Q329.858 201.989 326.682 201.471 Q323.538 200.952 320.168 199.915 L320.168 193.336 Q323.085 194.924 326.196 195.702 Q329.307 196.48 332.774 196.48 Q338.381 196.48 341.654 193.531 Q344.927 190.582 344.927 185.526 Q344.927 180.471 341.654 177.522 Q338.381 174.573 332.774 174.573 Q330.149 174.573 327.524 175.156 Q324.932 175.739 322.21 176.971 L322.21 152.665 Z" fill="#ffffff" fill-rule="nonzero" fill-opacity="1" /><path clip-path="url(#clip670)" d="M129.517 1148.02 L133.527 1148.02 L133.527 1185.72 Q141.994 1185.19 146.45 1180.64 Q150.861 1176.05 150.861 1167.9 Q150.861 1163.17 149.703 1158.76 Q148.544 1154.31 146.227 1149.94 L153.98 1149.94 Q155.852 1154.35 156.832 1158.98 Q157.813 1163.62 157.813 1168.39 Q157.813 1180.33 150.861 1187.32 Q143.91 1194.28 132.057 1194.28 Q119.803 1194.28 112.629 1187.68 Q105.41 1181.04 105.41 1169.81 Q105.41 1159.74 111.916 1153.9 Q118.377 1148.02 129.517 1148.02 M127.111 1156.22 Q120.382 1156.31 116.372 1160.01 Q112.361 1163.66 112.361 1169.72 Q112.361 1176.59 116.238 1180.73 Q120.115 1184.83 127.155 1185.45 L127.111 1156.22 Z" fill="#ffffff" fill-rule="nonzero" fill-opacity="1" /><path clip-path="url(#clip670)" d="M126.398 1093.08 L156.52 1093.08 L156.52 1101.28 L126.665 1101.28 Q119.58 1101.28 116.06 1104.04 Q112.54 1106.8 112.54 1112.33 Q112.54 1118.97 116.773 1122.8 Q121.006 1126.63 128.314 1126.63 L156.52 1126.63 L156.52 1134.88 L106.613 1134.88 L106.613 1126.63 L114.367 1126.63 Q109.866 1123.69 107.638 1119.73 Q105.41 1115.72 105.41 1110.5 Q105.41 1101.9 110.757 1097.49 Q116.06 1093.08 126.398 1093.08 Z" fill="#ffffff" fill-rule="nonzero" fill-opacity="1" /><path clip-path="url(#clip670)" d="M92.4432 1068.62 L106.613 1068.62 L106.613 1051.73 L112.985 1051.73 L112.985 1068.62 L140.078 1068.62 Q146.182 1068.62 147.92 1066.97 Q149.658 1065.27 149.658 1060.15 L149.658 1051.73 L156.52 1051.73 L156.52 1060.15 Q156.52 1069.64 153 1073.25 Q149.435 1076.86 140.078 1076.86 L112.985 1076.86 L112.985 1082.88 L106.613 1082.88 L106.613 1076.86 L92.4432 1076.86 L92.4432 1068.62 Z" fill="#ffffff" fill-rule="nonzero" fill-opacity="1" /><path clip-path="url(#clip670)" d="M131.433 1018.26 Q131.433 1028.2 133.706 1032.03 Q135.978 1035.86 141.459 1035.86 Q145.826 1035.86 148.41 1033.01 Q150.95 1030.12 150.95 1025.17 Q150.95 1018.35 146.138 1014.25 Q141.281 1010.11 133.26 1010.11 L131.433 1010.11 L131.433 1018.26 M128.047 1001.91 L156.52 1001.91 L156.52 1010.11 L148.945 1010.11 Q153.49 1012.92 155.674 1017.11 Q157.813 1021.29 157.813 1027.35 Q157.813 1035.02 153.535 1039.56 Q149.213 1044.06 141.994 1044.06 Q133.572 1044.06 129.294 1038.45 Q125.017 1032.79 125.017 1021.61 L125.017 1010.11 L124.214 1010.11 Q118.555 1010.11 115.481 1013.85 Q112.361 1017.55 112.361 1024.28 Q112.361 1028.56 113.386 1032.61 Q114.411 1036.67 116.461 1040.41 L108.886 1040.41 Q107.148 1035.91 106.301 1031.68 Q105.41 1027.44 105.41 1023.43 Q105.41 1012.6 111.025 1007.26 Q116.639 1001.91 128.047 1001.91 Z" fill="#ffffff" fill-rule="nonzero" fill-opacity="1" /><path clip-path="url(#clip670)" d="M126.398 943.537 L156.52 943.537 L156.52 951.736 L126.665 951.736 Q119.58 951.736 116.06 954.498 Q112.54 957.261 112.54 962.787 Q112.54 969.426 116.773 973.258 Q121.006 977.09 128.314 977.09 L156.52 977.09 L156.52 985.334 L106.613 985.334 L106.613 977.09 L114.367 977.09 Q109.866 974.149 107.638 970.183 Q105.41 966.173 105.41 960.96 Q105.41 952.36 110.757 947.948 Q116.06 943.537 126.398 943.537 Z" fill="#ffffff" fill-rule="nonzero" fill-opacity="1" /><path clip-path="url(#clip670)" d="M130.988 894.342 Q122.076 894.342 117.174 898.041 Q112.272 901.695 112.272 908.334 Q112.272 914.929 117.174 918.628 Q122.076 922.282 130.988 922.282 Q139.855 922.282 144.757 918.628 Q149.658 914.929 149.658 908.334 Q149.658 901.695 144.757 898.041 Q139.855 894.342 130.988 894.342 M150.327 886.143 Q163.071 886.143 169.265 891.803 Q175.503 897.462 175.503 909.136 Q175.503 913.459 174.835 917.291 Q174.211 921.123 172.874 924.732 L164.898 924.732 Q166.858 921.123 167.794 917.603 Q168.73 914.083 168.73 910.429 Q168.73 902.363 164.497 898.353 Q160.308 894.342 151.797 894.342 L147.742 894.342 Q152.154 896.882 154.337 900.848 Q156.52 904.814 156.52 910.339 Q156.52 919.519 149.524 925.133 Q142.529 930.748 130.988 930.748 Q119.402 930.748 112.406 925.133 Q105.41 919.519 105.41 910.339 Q105.41 904.814 107.594 900.848 Q109.777 896.882 114.188 894.342 L106.613 894.342 L106.613 886.143 L150.327 886.143 Z" fill="#ffffff" fill-rule="nonzero" fill-opacity="1" /><path clip-path="url(#clip670)" d="M87.1851 869.255 L87.1851 861.056 L156.52 861.056 L156.52 869.255 L87.1851 869.255 Z" fill="#ffffff" fill-rule="nonzero" fill-opacity="1" /><path clip-path="url(#clip670)" d="M129.517 801.212 L133.527 801.212 L133.527 838.91 Q141.994 838.375 146.45 833.83 Q150.861 829.24 150.861 821.086 Q150.861 816.363 149.703 811.951 Q148.544 807.495 146.227 803.128 L153.98 803.128 Q155.852 807.54 156.832 812.174 Q157.813 816.808 157.813 821.576 Q157.813 833.518 150.861 840.514 Q143.91 847.465 132.057 847.465 Q119.803 847.465 112.629 840.871 Q105.41 834.231 105.41 823.002 Q105.41 812.931 111.916 807.094 Q118.377 801.212 129.517 801.212 M127.111 809.411 Q120.382 809.5 116.372 813.199 Q112.361 816.853 112.361 822.913 Q112.361 829.775 116.238 833.919 Q120.115 838.019 127.155 838.643 L127.111 809.411 Z" fill="#ffffff" fill-rule="nonzero" fill-opacity="1" /><path clip-path="url(#clip670)" d="M116.194 748.899 Q110.668 745.824 108.039 741.546 Q105.41 737.269 105.41 731.476 Q105.41 723.678 110.891 719.445 Q116.327 715.211 126.398 715.211 L156.52 715.211 L156.52 723.455 L126.665 723.455 Q119.491 723.455 116.015 725.995 Q112.54 728.535 112.54 733.748 Q112.54 740.12 116.773 743.819 Q121.006 747.517 128.314 747.517 L156.52 747.517 L156.52 755.761 L126.665 755.761 Q119.447 755.761 116.015 758.301 Q112.54 760.841 112.54 766.143 Q112.54 772.426 116.817 776.125 Q121.051 779.823 128.314 779.823 L156.52 779.823 L156.52 788.067 L106.613 788.067 L106.613 779.823 L114.367 779.823 Q109.777 777.016 107.594 773.095 Q105.41 769.174 105.41 763.782 Q105.41 758.346 108.173 754.558 Q110.936 750.726 116.194 748.899 Z" fill="#ffffff" fill-rule="nonzero" fill-opacity="1" /><path clip-path="url(#clip670)" d="M129.517 656.17 L133.527 656.17 L133.527 693.867 Q141.994 693.333 146.45 688.787 Q150.861 684.198 150.861 676.043 Q150.861 671.32 149.703 666.908 Q148.544 662.453 146.227 658.086 L153.98 658.086 Q155.852 662.497 156.832 667.131 Q157.813 671.766 157.813 676.533 Q157.813 688.476 150.861 695.471 Q143.91 702.423 132.057 702.423 Q119.803 702.423 112.629 695.828 Q105.41 689.188 105.41 677.959 Q105.41 667.889 111.916 662.051 Q118.377 656.17 129.517 656.17 M127.111 664.369 Q120.382 664.458 116.372 668.156 Q112.361 671.81 112.361 677.87 Q112.361 684.732 116.238 688.877 Q120.115 692.976 127.155 693.6 L127.111 664.369 Z" fill="#ffffff" fill-rule="nonzero" fill-opacity="1" /><path clip-path="url(#clip670)" d="M126.398 601.227 L156.52 601.227 L156.52 609.426 L126.665 609.426 Q119.58 609.426 116.06 612.189 Q112.54 614.952 112.54 620.477 Q112.54 627.116 116.773 630.949 Q121.006 634.781 128.314 634.781 L156.52 634.781 L156.52 643.024 L106.613 643.024 L106.613 634.781 L114.367 634.781 Q109.866 631.84 107.638 627.874 Q105.41 623.864 105.41 618.65 Q105.41 610.05 110.757 605.639 Q116.06 601.227 126.398 601.227 Z" fill="#ffffff" fill-rule="nonzero" fill-opacity="1" /><path clip-path="url(#clip670)" d="M92.4432 576.764 L106.613 576.764 L106.613 559.876 L112.985 559.876 L112.985 576.764 L140.078 576.764 Q146.182 576.764 147.92 575.115 Q149.658 573.422 149.658 568.297 L149.658 559.876 L156.52 559.876 L156.52 568.297 Q156.52 577.789 153 581.398 Q149.435 585.007 140.078 585.007 L112.985 585.007 L112.985 591.023 L106.613 591.023 L106.613 585.007 L92.4432 585.007 L92.4432 576.764 Z" fill="#ffffff" fill-rule="nonzero" fill-opacity="1" /><path clip-path="url(#clip670)" d="M129.517 477.395 L133.527 477.395 L133.527 515.093 Q141.994 514.558 146.45 510.013 Q150.861 505.423 150.861 497.269 Q150.861 492.545 149.703 488.134 Q148.544 483.678 146.227 479.311 L153.98 479.311 Q155.852 483.723 156.832 488.357 Q157.813 492.991 157.813 497.759 Q157.813 509.701 150.861 516.697 Q143.91 523.648 132.057 523.648 Q119.803 523.648 112.629 517.053 Q105.41 510.414 105.41 499.185 Q105.41 489.114 111.916 483.277 Q118.377 477.395 129.517 477.395 M127.111 485.594 Q120.382 485.683 116.372 489.382 Q112.361 493.036 112.361 499.096 Q112.361 505.958 116.238 510.102 Q120.115 514.202 127.155 514.825 L127.111 485.594 Z" fill="#ffffff" fill-rule="nonzero" fill-opacity="1" /><path clip-path="url(#clip670)" d="M126.398 422.453 L156.52 422.453 L156.52 430.652 L126.665 430.652 Q119.58 430.652 116.06 433.414 Q112.54 436.177 112.54 441.703 Q112.54 448.342 116.773 452.174 Q121.006 456.006 128.314 456.006 L156.52 456.006 L156.52 464.25 L106.613 464.25 L106.613 456.006 L114.367 456.006 Q109.866 453.065 107.638 449.099 Q105.41 445.089 105.41 439.876 Q105.41 431.276 110.757 426.864 Q116.06 422.453 126.398 422.453 Z" fill="#ffffff" fill-rule="nonzero" fill-opacity="1" /><path clip-path="url(#clip670)" d="M92.4432 397.989 L106.613 397.989 L106.613 381.101 L112.985 381.101 L112.985 397.989 L140.078 397.989 Q146.182 397.989 147.92 396.341 Q149.658 394.647 149.658 389.523 L149.658 381.101 L156.52 381.101 L156.52 389.523 Q156.52 399.014 153 402.623 Q149.435 406.233 140.078 406.233 L112.985 406.233 L112.985 412.248 L106.613 412.248 L106.613 406.233 L92.4432 406.233 L92.4432 397.989 Z" fill="#ffffff" fill-rule="nonzero" fill-opacity="1" /><path clip-path="url(#clip670)" d="M114.278 341.398 Q113.475 342.779 113.119 344.428 Q112.718 346.032 112.718 347.993 Q112.718 354.944 117.263 358.687 Q121.764 362.386 130.23 362.386 L156.52 362.386 L156.52 370.629 L106.613 370.629 L106.613 362.386 L114.367 362.386 Q109.822 359.801 107.638 355.657 Q105.41 351.513 105.41 345.587 Q105.41 344.74 105.544 343.715 Q105.633 342.69 105.856 341.443 L114.278 341.398 Z" fill="#ffffff" fill-rule="nonzero" fill-opacity="1" /><path clip-path="url(#clip670)" d="M112.361 315.464 Q112.361 322.059 117.53 325.891 Q122.655 329.723 131.611 329.723 Q140.568 329.723 145.737 325.936 Q150.861 322.104 150.861 315.464 Q150.861 308.914 145.692 305.082 Q140.523 301.25 131.611 301.25 Q122.744 301.25 117.575 305.082 Q112.361 308.914 112.361 315.464 M105.41 315.464 Q105.41 304.77 112.361 298.665 Q119.313 292.56 131.611 292.56 Q143.865 292.56 150.861 298.665 Q157.813 304.77 157.813 315.464 Q157.813 326.203 150.861 332.308 Q143.865 338.368 131.611 338.368 Q119.313 338.368 112.361 332.308 Q105.41 326.203 105.41 315.464 Z" fill="#ffffff" fill-rule="nonzero" fill-opacity="1" /><path clip-path="url(#clip670)" d="M149.034 271.038 L175.503 271.038 L175.503 279.282 L106.613 279.282 L106.613 271.038 L114.188 271.038 Q109.732 268.453 107.594 264.532 Q105.41 260.566 105.41 255.085 Q105.41 245.995 112.629 240.336 Q119.848 234.632 131.611 234.632 Q143.375 234.632 150.594 240.336 Q157.813 245.995 157.813 255.085 Q157.813 260.566 155.674 264.532 Q153.49 268.453 149.034 271.038 M131.611 243.143 Q122.566 243.143 117.441 246.886 Q112.272 250.585 112.272 257.091 Q112.272 263.596 117.441 267.339 Q122.566 271.038 131.611 271.038 Q140.657 271.038 145.826 267.339 Q150.95 263.596 150.95 257.091 Q150.95 250.585 145.826 246.886 Q140.657 243.143 131.611 243.143 Z" fill="#ffffff" fill-rule="nonzero" fill-opacity="1" /><path clip-path="url(#clip670)" d="M161.155 200.277 Q170.067 203.752 172.785 207.05 Q175.503 210.347 175.503 215.873 L175.503 222.423 L168.641 222.423 L168.641 217.611 Q168.641 214.224 167.037 212.352 Q165.432 210.481 159.461 208.208 L155.718 206.738 L106.613 226.924 L106.613 218.234 L145.648 202.638 L106.613 187.042 L106.613 178.353 L161.155 200.277 Z" fill="#ffffff" fill-rule="nonzero" fill-opacity="1" /><polyline clip-path="url(#clip672)" style="stroke:#fe4365; stroke-linecap:round; stroke-linejoin:round; stroke-width:16.8; stroke-opacity:1; fill:none" points="443.808,1312.98 482.13,1285.95 520.453,1246.9 558.776,1198.16 597.098,1141.55 635.421,1078.62 673.744,1010.8 712.066,939.388 750.389,865.588 788.712,790.532 827.034,715.273 865.357,640.79 903.68,567.99 942.002,497.708 980.325,430.706 1018.65,367.677 1056.97,309.243 1095.29,255.954 1133.62,208.297 1171.94,166.69 1210.26,131.487 1248.58,102.979 1286.91,81.3985 1325.23,66.9166 1363.55,59.6473 1401.87,59.6473 1440.2,66.9166 1478.52,81.3985 1516.84,102.979 1555.17,131.487 1593.49,166.69 1631.81,208.297 1670.13,255.954 1708.46,309.243 1746.78,367.677 1785.1,430.706 1823.42,497.708 1861.75,567.99 1900.07,640.79 1938.39,715.273 1976.71,790.532 2015.04,865.588 2053.36,939.388 2091.68,1010.8 2130.01,1078.62 2168.33,1141.55 2206.65,1198.16 2244.97,1246.9 2283.3,1285.95 2321.62,1312.98 "/>
</svg>
