<?xml version="1.0" encoding="utf-8"?>
<svg xmlns="http://www.w3.org/2000/svg" xmlns:xlink="http://www.w3.org/1999/xlink" width="600" height="400" viewBox="0 0 2400 1600">
<defs>
  <clipPath id="clip930">
    <rect x="0" y="0" width="2400" height="1600"/>
  </clipPath>
</defs>
<path clip-path="url(#clip930)" d="M0 1600 L2400 1600 L2400 0 L0 0  Z" fill="#363d46" fill-rule="evenodd" fill-opacity="1"/>
<defs>
  <clipPath id="clip931">
    <rect x="480" y="0" width="1681" height="1600"/>
  </clipPath>
</defs>
<path clip-path="url(#clip930)" d="M439.561 1372.63 L2267.72 1372.63 L2267.72 140.588 L439.561 140.588  Z" fill="#30343b" fill-rule="evenodd" fill-opacity="1"/>
<defs>
  <clipPath id="clip932">
    <rect x="439" y="140" width="1829" height="1233"/>
  </clipPath>
</defs>
<polyline clip-path="url(#clip932)" style="stroke:#adb2b7; stroke-linecap:round; stroke-linejoin:round; stroke-width:2.8; stroke-opacity:0.1; fill:none" points="491.301,1372.63 491.301,140.588 "/>
<polyline clip-path="url(#clip932)" style="stroke:#adb2b7; stroke-linecap:round; stroke-linejoin:round; stroke-width:2.8; stroke-opacity:0.1; fill:none" points="682.932,1372.63 682.932,140.588 "/>
<polyline clip-path="url(#clip932)" style="stroke:#adb2b7; stroke-linecap:round; stroke-linejoin:round; stroke-width:2.8; stroke-opacity:0.1; fill:none" points="874.562,1372.63 874.562,140.588 "/>
<polyline clip-path="url(#clip932)" style="stroke:#adb2b7; stroke-linecap:round; stroke-linejoin:round; stroke-width:2.8; stroke-opacity:0.1; fill:none" points="1066.19,1372.63 1066.19,140.588 "/>
<polyline clip-path="url(#clip932)" style="stroke:#adb2b7; stroke-linecap:round; stroke-linejoin:round; stroke-width:2.8; stroke-opacity:0.1; fill:none" points="1257.82,1372.63 1257.82,140.588 "/>
<polyline clip-path="url(#clip932)" style="stroke:#adb2b7; stroke-linecap:round; stroke-linejoin:round; stroke-width:2.8; stroke-opacity:0.1; fill:none" points="1449.45,1372.63 1449.45,140.588 "/>
<polyline clip-path="url(#clip932)" style="stroke:#adb2b7; stroke-linecap:round; stroke-linejoin:round; stroke-width:2.8; stroke-opacity:0.1; fill:none" points="1641.08,1372.63 1641.08,140.588 "/>
<polyline clip-path="url(#clip932)" style="stroke:#adb2b7; stroke-linecap:round; stroke-linejoin:round; stroke-width:2.8; stroke-opacity:0.1; fill:none" points="1832.72,1372.63 1832.72,140.588 "/>
<polyline clip-path="url(#clip932)" style="stroke:#adb2b7; stroke-linecap:round; stroke-linejoin:round; stroke-width:2.8; stroke-opacity:0.1; fill:none" points="2024.35,1372.63 2024.35,140.588 "/>
<polyline clip-path="url(#clip932)" style="stroke:#adb2b7; stroke-linecap:round; stroke-linejoin:round; stroke-width:2.8; stroke-opacity:0.1; fill:none" points="2215.98,1372.63 2215.98,140.588 "/>
<polyline clip-path="url(#clip930)" style="stroke:#adb2b7; stroke-linecap:round; stroke-linejoin:round; stroke-width:5.6; stroke-opacity:1; fill:none" points="439.561,1372.63 2267.72,1372.63 "/>
<polyline clip-path="url(#clip930)" style="stroke:#adb2b7; stroke-linecap:round; stroke-linejoin:round; stroke-width:5.6; stroke-opacity:1; fill:none" points="491.301,1372.63 491.301,1353.73 "/>
<polyline clip-path="url(#clip930)" style="stroke:#adb2b7; stroke-linecap:round; stroke-linejoin:round; stroke-width:5.6; stroke-opacity:1; fill:none" points="682.932,1372.63 682.932,1353.73 "/>
<polyline clip-path="url(#clip930)" style="stroke:#adb2b7; stroke-linecap:round; stroke-linejoin:round; stroke-width:5.6; stroke-opacity:1; fill:none" points="874.562,1372.63 874.562,1353.73 "/>
<polyline clip-path="url(#clip930)" style="stroke:#adb2b7; stroke-linecap:round; stroke-linejoin:round; stroke-width:5.6; stroke-opacity:1; fill:none" points="1066.19,1372.63 1066.19,1353.73 "/>
<polyline clip-path="url(#clip930)" style="stroke:#adb2b7; stroke-linecap:round; stroke-linejoin:round; stroke-width:5.6; stroke-opacity:1; fill:none" points="1257.82,1372.63 1257.82,1353.73 "/>
<polyline clip-path="url(#clip930)" style="stroke:#adb2b7; stroke-linecap:round; stroke-linejoin:round; stroke-width:5.6; stroke-opacity:1; fill:none" points="1449.45,1372.63 1449.45,1353.73 "/>
<polyline clip-path="url(#clip930)" style="stroke:#adb2b7; stroke-linecap:round; stroke-linejoin:round; stroke-width:5.6; stroke-opacity:1; fill:none" points="1641.08,1372.63 1641.08,1353.73 "/>
<polyline clip-path="url(#clip930)" style="stroke:#adb2b7; stroke-linecap:round; stroke-linejoin:round; stroke-width:5.6; stroke-opacity:1; fill:none" points="1832.72,1372.63 1832.72,1353.73 "/>
<polyline clip-path="url(#clip930)" style="stroke:#adb2b7; stroke-linecap:round; stroke-linejoin:round; stroke-width:5.6; stroke-opacity:1; fill:none" points="2024.35,1372.63 2024.35,1353.73 "/>
<polyline clip-path="url(#clip930)" style="stroke:#adb2b7; stroke-linecap:round; stroke-linejoin:round; stroke-width:5.6; stroke-opacity:1; fill:none" points="2215.98,1372.63 2215.98,1353.73 "/>
<path clip-path="url(#clip930)" d="M477.836 1446.8 L488.53 1446.8 L488.53 1409.89 L476.896 1412.22 L476.896 1406.26 L488.466 1403.92 L495.012 1403.92 L495.012 1446.8 L505.706 1446.8 L505.706 1452.31 L477.836 1452.31 L477.836 1446.8 Z" fill="#ffffff" fill-rule="nonzero" fill-opacity="1" /><path clip-path="url(#clip930)" d="M688.878 1426.22 Q693.578 1427.23 696.203 1430.4 Q698.86 1433.58 698.86 1438.24 Q698.86 1445.41 693.934 1449.33 Q689.008 1453.25 679.934 1453.25 Q676.888 1453.25 673.647 1452.63 Q670.439 1452.05 667.004 1450.85 L667.004 1444.53 Q669.726 1446.12 672.967 1446.93 Q676.207 1447.74 679.74 1447.74 Q685.897 1447.74 689.105 1445.31 Q692.346 1442.88 692.346 1438.24 Q692.346 1433.97 689.332 1431.57 Q686.351 1429.14 681.004 1429.14 L675.365 1429.14 L675.365 1423.76 L681.263 1423.76 Q686.091 1423.76 688.652 1421.85 Q691.212 1419.9 691.212 1416.27 Q691.212 1412.55 688.554 1410.57 Q685.929 1408.56 681.004 1408.56 Q678.314 1408.56 675.235 1409.14 Q672.156 1409.73 668.462 1410.96 L668.462 1405.12 Q672.189 1404.09 675.429 1403.57 Q678.703 1403.05 681.587 1403.05 Q689.041 1403.05 693.383 1406.45 Q697.726 1409.82 697.726 1415.59 Q697.726 1419.61 695.425 1422.4 Q693.124 1425.15 688.878 1426.22 Z" fill="#ffffff" fill-rule="nonzero" fill-opacity="1" /><path clip-path="url(#clip930)" d="M860.951 1403.92 L886.65 1403.92 L886.65 1409.43 L866.947 1409.43 L866.947 1421.29 Q868.373 1420.81 869.798 1420.58 Q871.224 1420.32 872.65 1420.32 Q880.752 1420.32 885.484 1424.76 Q890.215 1429.2 890.215 1436.79 Q890.215 1444.6 885.354 1448.94 Q880.493 1453.25 871.646 1453.25 Q868.599 1453.25 865.423 1452.73 Q862.28 1452.21 858.91 1451.17 L858.91 1444.6 Q861.826 1446.18 864.937 1446.96 Q868.048 1447.74 871.516 1447.74 Q877.123 1447.74 880.396 1444.79 Q883.669 1441.84 883.669 1436.79 Q883.669 1431.73 880.396 1428.78 Q877.123 1425.83 871.516 1425.83 Q868.891 1425.83 866.266 1426.42 Q863.674 1427 860.951 1428.23 L860.951 1403.92 Z" fill="#ffffff" fill-rule="nonzero" fill-opacity="1" /><path clip-path="url(#clip930)" d="M1050.64 1403.92 L1081.75 1403.92 L1081.75 1406.71 L1064.18 1452.31 L1057.35 1452.31 L1073.87 1409.43 L1050.64 1409.43 L1050.64 1403.92 Z" fill="#ffffff" fill-rule="nonzero" fill-opacity="1" /><path clip-path="url(#clip930)" d="M1244.24 1451.3 L1244.24 1445.34 Q1246.71 1446.51 1249.24 1447.12 Q1251.76 1447.74 1254.19 1447.74 Q1260.68 1447.74 1264.08 1443.4 Q1267.51 1439.02 1268 1430.14 Q1266.12 1432.93 1263.24 1434.42 Q1260.35 1435.91 1256.85 1435.91 Q1249.59 1435.91 1245.35 1431.54 Q1241.13 1427.13 1241.13 1419.51 Q1241.13 1412.06 1245.54 1407.55 Q1249.95 1403.05 1257.27 1403.05 Q1265.67 1403.05 1270.07 1409.5 Q1274.51 1415.92 1274.51 1428.17 Q1274.51 1439.61 1269.07 1446.44 Q1263.66 1453.25 1254.49 1453.25 Q1252.02 1453.25 1249.49 1452.76 Q1246.97 1452.28 1244.24 1451.3 M1257.27 1430.79 Q1261.68 1430.79 1264.24 1427.78 Q1266.83 1424.76 1266.83 1419.51 Q1266.83 1414.3 1264.24 1411.28 Q1261.68 1408.23 1257.27 1408.23 Q1252.87 1408.23 1250.27 1411.28 Q1247.71 1414.3 1247.71 1419.51 Q1247.71 1424.76 1250.27 1427.78 Q1252.87 1430.79 1257.27 1430.79 Z" fill="#ffffff" fill-rule="nonzero" fill-opacity="1" /><path clip-path="url(#clip930)" d="M1414.88 1446.8 L1425.57 1446.8 L1425.57 1409.89 L1413.94 1412.22 L1413.94 1406.26 L1425.51 1403.92 L1432.05 1403.92 L1432.05 1446.8 L1442.75 1446.8 L1442.75 1452.31 L1414.88 1452.31 L1414.88 1446.8 Z" fill="#ffffff" fill-rule="nonzero" fill-opacity="1" /><path clip-path="url(#clip930)" d="M1457.1 1446.8 L1467.8 1446.8 L1467.8 1409.89 L1456.16 1412.22 L1456.16 1406.26 L1467.73 1403.92 L1474.28 1403.92 L1474.28 1446.8 L1484.97 1446.8 L1484.97 1452.31 L1457.1 1452.31 L1457.1 1446.8 Z" fill="#ffffff" fill-rule="nonzero" fill-opacity="1" /><path clip-path="url(#clip930)" d="M1606.1 1446.8 L1616.8 1446.8 L1616.8 1409.89 L1605.16 1412.22 L1605.16 1406.26 L1616.73 1403.92 L1623.28 1403.92 L1623.28 1446.8 L1633.97 1446.8 L1633.97 1452.31 L1606.1 1452.31 L1606.1 1446.8 Z" fill="#ffffff" fill-rule="nonzero" fill-opacity="1" /><path clip-path="url(#clip930)" d="M1667.03 1426.22 Q1671.73 1427.23 1674.35 1430.4 Q1677.01 1433.58 1677.01 1438.24 Q1677.01 1445.41 1672.08 1449.33 Q1667.16 1453.25 1658.08 1453.25 Q1655.04 1453.25 1651.8 1452.63 Q1648.59 1452.05 1645.15 1450.85 L1645.15 1444.53 Q1647.87 1446.12 1651.11 1446.93 Q1654.36 1447.74 1657.89 1447.74 Q1664.05 1447.74 1667.25 1445.31 Q1670.49 1442.88 1670.49 1438.24 Q1670.49 1433.97 1667.48 1431.57 Q1664.5 1429.14 1659.15 1429.14 L1653.51 1429.14 L1653.51 1423.76 L1659.41 1423.76 Q1664.24 1423.76 1666.8 1421.85 Q1669.36 1419.9 1669.36 1416.27 Q1669.36 1412.55 1666.7 1410.57 Q1664.08 1408.56 1659.15 1408.56 Q1656.46 1408.56 1653.38 1409.14 Q1650.3 1409.73 1646.61 1410.96 L1646.61 1405.12 Q1650.34 1404.09 1653.58 1403.57 Q1656.85 1403.05 1659.73 1403.05 Q1667.19 1403.05 1671.53 1406.45 Q1675.87 1409.82 1675.87 1415.59 Q1675.87 1419.61 1673.57 1422.4 Q1671.27 1425.15 1667.03 1426.22 Z" fill="#ffffff" fill-rule="nonzero" fill-opacity="1" /><path clip-path="url(#clip930)" d="M1797.97 1446.8 L1808.67 1446.8 L1808.67 1409.89 L1797.03 1412.22 L1797.03 1406.26 L1808.6 1403.92 L1815.15 1403.92 L1815.15 1446.8 L1825.84 1446.8 L1825.84 1452.31 L1797.97 1452.31 L1797.97 1446.8 Z" fill="#ffffff" fill-rule="nonzero" fill-opacity="1" /><path clip-path="url(#clip930)" d="M1839.13 1403.92 L1864.83 1403.92 L1864.83 1409.43 L1845.13 1409.43 L1845.13 1421.29 Q1846.55 1420.81 1847.98 1420.58 Q1849.4 1420.32 1850.83 1420.32 Q1858.93 1420.32 1863.66 1424.76 Q1868.4 1429.2 1868.4 1436.79 Q1868.4 1444.6 1863.53 1448.94 Q1858.67 1453.25 1849.83 1453.25 Q1846.78 1453.25 1843.6 1452.73 Q1840.46 1452.21 1837.09 1451.17 L1837.09 1444.6 Q1840.01 1446.18 1843.12 1446.96 Q1846.23 1447.74 1849.7 1447.74 Q1855.3 1447.74 1858.58 1444.79 Q1861.85 1441.84 1861.85 1436.79 Q1861.85 1431.73 1858.58 1428.78 Q1855.3 1425.83 1849.7 1425.83 Q1847.07 1425.83 1844.45 1426.42 Q1841.85 1427 1839.13 1428.23 L1839.13 1403.92 Z" fill="#ffffff" fill-rule="nonzero" fill-opacity="1" /><path clip-path="url(#clip930)" d="M1989.54 1446.8 L2000.23 1446.8 L2000.23 1409.89 L1988.6 1412.22 L1988.6 1406.26 L2000.17 1403.92 L2006.72 1403.92 L2006.72 1446.8 L2017.41 1446.8 L2017.41 1452.31 L1989.54 1452.31 L1989.54 1446.8 Z" fill="#ffffff" fill-rule="nonzero" fill-opacity="1" /><path clip-path="url(#clip930)" d="M2028.98 1403.92 L2060.09 1403.92 L2060.09 1406.71 L2042.53 1452.31 L2035.69 1452.31 L2052.22 1409.43 L2028.98 1409.43 L2028.98 1403.92 Z" fill="#ffffff" fill-rule="nonzero" fill-opacity="1" /><path clip-path="url(#clip930)" d="M2180.67 1446.8 L2191.36 1446.8 L2191.36 1409.89 L2179.73 1412.22 L2179.73 1406.26 L2191.3 1403.92 L2197.84 1403.92 L2197.84 1446.8 L2208.54 1446.8 L2208.54 1452.31 L2180.67 1452.31 L2180.67 1446.8 Z" fill="#ffffff" fill-rule="nonzero" fill-opacity="1" /><path clip-path="url(#clip930)" d="M2221.96 1451.3 L2221.96 1445.34 Q2224.42 1446.51 2226.95 1447.12 Q2229.47 1447.74 2231.9 1447.74 Q2238.39 1447.74 2241.79 1443.4 Q2245.22 1439.02 2245.71 1430.14 Q2243.83 1432.93 2240.95 1434.42 Q2238.06 1435.91 2234.56 1435.91 Q2227.3 1435.91 2223.06 1431.54 Q2218.84 1427.13 2218.84 1419.51 Q2218.84 1412.06 2223.25 1407.55 Q2227.66 1403.05 2234.98 1403.05 Q2243.38 1403.05 2247.78 1409.5 Q2252.22 1415.92 2252.22 1428.17 Q2252.22 1439.61 2246.78 1446.44 Q2241.37 1453.25 2232.2 1453.25 Q2229.73 1453.25 2227.21 1452.76 Q2224.68 1452.28 2221.96 1451.3 M2234.98 1430.79 Q2239.39 1430.79 2241.95 1427.78 Q2244.54 1424.76 2244.54 1419.51 Q2244.54 1414.3 2241.95 1411.28 Q2239.39 1408.23 2234.98 1408.23 Q2230.58 1408.23 2227.98 1411.28 Q2225.42 1414.3 2225.42 1419.51 Q2225.42 1424.76 2227.98 1427.78 Q2230.58 1430.79 2234.98 1430.79 Z" fill="#ffffff" fill-rule="nonzero" fill-opacity="1" /><path clip-path="url(#clip930)" d="M1097.22 1491.7 L1105.42 1491.7 L1105.42 1561.04 L1097.22 1561.04 L1097.22 1491.7 Z" fill="#ffffff" fill-rule="nonzero" fill-opacity="1" /><path clip-path="url(#clip930)" d="M1145.25 1535.95 Q1135.32 1535.95 1131.49 1538.22 Q1127.65 1540.5 1127.65 1545.98 Q1127.65 1550.34 1130.5 1552.93 Q1133.4 1555.47 1138.35 1555.47 Q1145.17 1555.47 1149.26 1550.66 Q1153.41 1545.8 1153.41 1537.78 L1153.41 1535.95 L1145.25 1535.95 M1161.61 1532.56 L1161.61 1561.04 L1153.41 1561.04 L1153.41 1553.46 Q1150.6 1558.01 1146.41 1560.19 Q1142.22 1562.33 1136.16 1562.33 Q1128.5 1562.33 1123.95 1558.05 Q1119.45 1553.73 1119.45 1546.51 Q1119.45 1538.09 1125.07 1533.81 Q1130.73 1529.53 1141.91 1529.53 L1153.41 1529.53 L1153.41 1528.73 Q1153.41 1523.07 1149.67 1520 Q1145.97 1516.88 1139.24 1516.88 Q1134.96 1516.88 1130.91 1517.9 Q1126.85 1518.93 1123.11 1520.98 L1123.11 1513.4 Q1127.61 1511.67 1131.84 1510.82 Q1136.07 1509.93 1140.09 1509.93 Q1150.91 1509.93 1156.26 1515.54 Q1161.61 1521.16 1161.61 1532.56 Z" fill="#ffffff" fill-rule="nonzero" fill-opacity="1" /><path clip-path="url(#clip930)" d="M1186.61 1496.96 L1186.61 1511.13 L1203.49 1511.13 L1203.49 1517.5 L1186.61 1517.5 L1186.61 1544.6 Q1186.61 1550.7 1188.25 1552.44 Q1189.95 1554.18 1195.07 1554.18 L1203.49 1554.18 L1203.49 1561.04 L1195.07 1561.04 Q1185.58 1561.04 1181.97 1557.52 Q1178.36 1553.95 1178.36 1544.6 L1178.36 1517.5 L1172.35 1517.5 L1172.35 1511.13 L1178.36 1511.13 L1178.36 1496.96 L1186.61 1496.96 Z" fill="#ffffff" fill-rule="nonzero" fill-opacity="1" /><path clip-path="url(#clip930)" d="M1222.39 1496.96 L1222.39 1511.13 L1239.28 1511.13 L1239.28 1517.5 L1222.39 1517.5 L1222.39 1544.6 Q1222.39 1550.7 1224.04 1552.44 Q1225.73 1554.18 1230.85 1554.18 L1239.28 1554.18 L1239.28 1561.04 L1230.85 1561.04 Q1221.36 1561.04 1217.75 1557.52 Q1214.14 1553.95 1214.14 1544.6 L1214.14 1517.5 L1208.13 1517.5 L1208.13 1511.13 L1214.14 1511.13 L1214.14 1496.96 L1222.39 1496.96 Z" fill="#ffffff" fill-rule="nonzero" fill-opacity="1" /><path clip-path="url(#clip930)" d="M1250.06 1511.13 L1258.26 1511.13 L1258.26 1561.04 L1250.06 1561.04 L1250.06 1511.13 M1250.06 1491.7 L1258.26 1491.7 L1258.26 1502.09 L1250.06 1502.09 L1250.06 1491.7 Z" fill="#ffffff" fill-rule="nonzero" fill-opacity="1" /><path clip-path="url(#clip930)" d="M1311.33 1513.05 L1311.33 1520.71 Q1307.85 1518.8 1304.33 1517.86 Q1300.86 1516.88 1297.29 1516.88 Q1289.32 1516.88 1284.91 1521.96 Q1280.49 1526.99 1280.49 1536.13 Q1280.49 1545.26 1284.91 1550.34 Q1289.32 1555.38 1297.29 1555.38 Q1300.86 1555.38 1304.33 1554.44 Q1307.85 1553.46 1311.33 1551.55 L1311.33 1559.12 Q1307.9 1560.73 1304.2 1561.53 Q1300.55 1562.33 1296.4 1562.33 Q1285.13 1562.33 1278.49 1555.25 Q1271.85 1548.16 1271.85 1536.13 Q1271.85 1523.92 1278.53 1516.92 Q1285.26 1509.93 1296.94 1509.93 Q1300.72 1509.93 1304.33 1510.73 Q1307.94 1511.49 1311.33 1513.05 Z" fill="#ffffff" fill-rule="nonzero" fill-opacity="1" /><path clip-path="url(#clip930)" d="M1368.28 1534.03 L1368.28 1538.05 L1330.58 1538.05 Q1331.11 1546.51 1335.66 1550.97 Q1340.25 1555.38 1348.4 1555.38 Q1353.13 1555.38 1357.54 1554.22 Q1361.99 1553.06 1366.36 1550.74 L1366.36 1558.5 Q1361.95 1560.37 1357.31 1561.35 Q1352.68 1562.33 1347.91 1562.33 Q1335.97 1562.33 1328.97 1555.38 Q1322.02 1548.43 1322.02 1536.57 Q1322.02 1524.32 1328.62 1517.15 Q1335.26 1509.93 1346.49 1509.93 Q1356.56 1509.93 1362.39 1516.43 Q1368.28 1522.89 1368.28 1534.03 M1360.08 1531.63 Q1359.99 1524.9 1356.29 1520.89 Q1352.64 1516.88 1346.58 1516.88 Q1339.71 1516.88 1335.57 1520.76 Q1331.47 1524.63 1330.85 1531.67 L1360.08 1531.63 Z" fill="#ffffff" fill-rule="nonzero" fill-opacity="1" /><path clip-path="url(#clip930)" d="M1442.56 1512.6 L1442.56 1520.36 Q1439.08 1518.57 1435.34 1517.68 Q1431.6 1516.79 1427.59 1516.79 Q1421.48 1516.79 1418.41 1518.66 Q1415.38 1520.53 1415.38 1524.28 Q1415.38 1527.13 1417.56 1528.78 Q1419.74 1530.38 1426.34 1531.85 L1429.15 1532.48 Q1437.88 1534.35 1441.53 1537.78 Q1445.23 1541.16 1445.23 1547.27 Q1445.23 1554.22 1439.71 1558.28 Q1434.23 1562.33 1424.6 1562.33 Q1420.59 1562.33 1416.22 1561.53 Q1411.9 1560.77 1407.09 1559.21 L1407.09 1550.74 Q1411.63 1553.11 1416.04 1554.31 Q1420.46 1555.47 1424.78 1555.47 Q1430.57 1555.47 1433.69 1553.51 Q1436.81 1551.5 1436.81 1547.89 Q1436.81 1544.55 1434.54 1542.77 Q1432.31 1540.99 1424.69 1539.34 L1421.84 1538.67 Q1414.22 1537.07 1410.83 1533.77 Q1407.44 1530.43 1407.44 1524.63 Q1407.44 1517.59 1412.44 1513.76 Q1417.43 1509.93 1426.61 1509.93 Q1431.15 1509.93 1435.16 1510.6 Q1439.17 1511.26 1442.56 1512.6 Z" fill="#ffffff" fill-rule="nonzero" fill-opacity="1" /><path clip-path="url(#clip930)" d="M1458.29 1511.13 L1466.49 1511.13 L1466.49 1561.04 L1458.29 1561.04 L1458.29 1511.13 M1458.29 1491.7 L1466.49 1491.7 L1466.49 1502.09 L1458.29 1502.09 L1458.29 1491.7 Z" fill="#ffffff" fill-rule="nonzero" fill-opacity="1" /><path clip-path="url(#clip930)" d="M1491.75 1496.96 L1491.75 1511.13 L1508.64 1511.13 L1508.64 1517.5 L1491.75 1517.5 L1491.75 1544.6 Q1491.75 1550.7 1493.4 1552.44 Q1495.09 1554.18 1500.22 1554.18 L1508.64 1554.18 L1508.64 1561.04 L1500.22 1561.04 Q1490.73 1561.04 1487.12 1557.52 Q1483.51 1553.95 1483.51 1544.6 L1483.51 1517.5 L1477.49 1517.5 L1477.49 1511.13 L1483.51 1511.13 L1483.51 1496.96 L1491.75 1496.96 Z" fill="#ffffff" fill-rule="nonzero" fill-opacity="1" /><path clip-path="url(#clip930)" d="M1562.11 1534.03 L1562.11 1538.05 L1524.41 1538.05 Q1524.95 1546.51 1529.49 1550.97 Q1534.08 1555.38 1542.24 1555.38 Q1546.96 1555.38 1551.37 1554.22 Q1555.83 1553.06 1560.2 1550.74 L1560.2 1558.5 Q1555.78 1560.37 1551.15 1561.35 Q1546.52 1562.33 1541.75 1562.33 Q1529.81 1562.33 1522.81 1555.38 Q1515.86 1548.43 1515.86 1536.57 Q1515.86 1524.32 1522.45 1517.15 Q1529.09 1509.93 1540.32 1509.93 Q1550.39 1509.93 1556.23 1516.43 Q1562.11 1522.89 1562.11 1534.03 M1553.91 1531.63 Q1553.82 1524.9 1550.13 1520.89 Q1546.47 1516.88 1540.41 1516.88 Q1533.55 1516.88 1529.41 1520.76 Q1525.31 1524.63 1524.68 1531.67 L1553.91 1531.63 Z" fill="#ffffff" fill-rule="nonzero" fill-opacity="1" /><path clip-path="url(#clip930)" d="M1607.39 1512.6 L1607.39 1520.36 Q1603.91 1518.57 1600.17 1517.68 Q1596.42 1516.79 1592.41 1516.79 Q1586.31 1516.79 1583.23 1518.66 Q1580.2 1520.53 1580.2 1524.28 Q1580.2 1527.13 1582.39 1528.78 Q1584.57 1530.38 1591.17 1531.85 L1593.97 1532.48 Q1602.71 1534.35 1606.36 1537.78 Q1610.06 1541.16 1610.06 1547.27 Q1610.06 1554.22 1604.53 1558.28 Q1599.05 1562.33 1589.43 1562.33 Q1585.42 1562.33 1581.05 1561.53 Q1576.73 1560.77 1571.92 1559.21 L1571.92 1550.74 Q1576.46 1553.11 1580.87 1554.31 Q1585.28 1555.47 1589.61 1555.47 Q1595.4 1555.47 1598.52 1553.51 Q1601.64 1551.5 1601.64 1547.89 Q1601.64 1544.55 1599.36 1542.77 Q1597.14 1540.99 1589.52 1539.34 L1586.66 1538.67 Q1579.05 1537.07 1575.66 1533.77 Q1572.27 1530.43 1572.27 1524.63 Q1572.27 1517.59 1577.26 1513.76 Q1582.25 1509.93 1591.43 1509.93 Q1595.98 1509.93 1599.99 1510.6 Q1604 1511.26 1607.39 1512.6 Z" fill="#ffffff" fill-rule="nonzero" fill-opacity="1" /><polyline clip-path="url(#clip932)" style="stroke:#adb2b7; stroke-linecap:round; stroke-linejoin:round; stroke-width:2.8; stroke-opacity:0.1; fill:none" points="439.561,1248.65 2267.72,1248.65 "/>
<polyline clip-path="url(#clip932)" style="stroke:#adb2b7; stroke-linecap:round; stroke-linejoin:round; stroke-width:2.8; stroke-opacity:0.1; fill:none" points="439.561,1002.63 2267.72,1002.63 "/>
<polyline clip-path="url(#clip932)" style="stroke:#adb2b7; stroke-linecap:round; stroke-linejoin:round; stroke-width:2.8; stroke-opacity:0.1; fill:none" points="439.561,756.608 2267.72,756.608 "/>
<polyline clip-path="url(#clip932)" style="stroke:#adb2b7; stroke-linecap:round; stroke-linejoin:round; stroke-width:2.8; stroke-opacity:0.1; fill:none" points="439.561,510.587 2267.72,510.587 "/>
<polyline clip-path="url(#clip932)" style="stroke:#adb2b7; stroke-linecap:round; stroke-linejoin:round; stroke-width:2.8; stroke-opacity:0.1; fill:none" points="439.561,264.565 2267.72,264.565 "/>
<polyline clip-path="url(#clip930)" style="stroke:#adb2b7; stroke-linecap:round; stroke-linejoin:round; stroke-width:5.6; stroke-opacity:1; fill:none" points="439.561,1372.63 439.561,140.588 "/>
<polyline clip-path="url(#clip930)" style="stroke:#adb2b7; stroke-linecap:round; stroke-linejoin:round; stroke-width:5.6; stroke-opacity:1; fill:none" points="439.561,1248.65 458.459,1248.65 "/>
<polyline clip-path="url(#clip930)" style="stroke:#adb2b7; stroke-linecap:round; stroke-linejoin:round; stroke-width:5.6; stroke-opacity:1; fill:none" points="439.561,1002.63 458.459,1002.63 "/>
<polyline clip-path="url(#clip930)" style="stroke:#adb2b7; stroke-linecap:round; stroke-linejoin:round; stroke-width:5.6; stroke-opacity:1; fill:none" points="439.561,756.608 458.459,756.608 "/>
<polyline clip-path="url(#clip930)" style="stroke:#adb2b7; stroke-linecap:round; stroke-linejoin:round; stroke-width:5.6; stroke-opacity:1; fill:none" points="439.561,510.587 458.459,510.587 "/>
<polyline clip-path="url(#clip930)" style="stroke:#adb2b7; stroke-linecap:round; stroke-linejoin:round; stroke-width:5.6; stroke-opacity:1; fill:none" points="439.561,264.565 458.459,264.565 "/>
<path clip-path="url(#clip930)" d="M211.613 1249.28 L253.159 1249.28 L253.159 1254.79 L211.613 1254.79 L211.613 1249.28 Z" fill="#ffffff" fill-rule="nonzero" fill-opacity="1" /><path clip-path="url(#clip930)" d="M281.288 1228.77 Q276.233 1228.77 273.673 1233.76 Q271.145 1238.72 271.145 1248.7 Q271.145 1258.65 273.673 1263.64 Q276.233 1268.6 281.288 1268.6 Q286.376 1268.6 288.904 1263.64 Q291.464 1258.65 291.464 1248.7 Q291.464 1238.72 288.904 1233.76 Q286.376 1228.77 281.288 1228.77 M281.288 1223.58 Q289.423 1223.58 293.7 1230.03 Q298.011 1236.45 298.011 1248.7 Q298.011 1260.92 293.7 1267.37 Q289.423 1273.78 281.288 1273.78 Q273.154 1273.78 268.844 1267.37 Q264.566 1260.92 264.566 1248.7 Q264.566 1236.45 268.844 1230.03 Q273.154 1223.58 281.288 1223.58 Z" fill="#ffffff" fill-rule="nonzero" fill-opacity="1" /><path clip-path="url(#clip930)" d="M309.515 1264.61 L316.353 1264.61 L316.353 1272.84 L309.515 1272.84 L309.515 1264.61 Z" fill="#ffffff" fill-rule="nonzero" fill-opacity="1" /><path clip-path="url(#clip930)" d="M330.677 1224.46 L356.376 1224.46 L356.376 1229.97 L336.672 1229.97 L336.672 1241.83 Q338.098 1241.34 339.524 1241.12 Q340.95 1240.86 342.376 1240.86 Q350.478 1240.86 355.209 1245.3 Q359.941 1249.74 359.941 1257.32 Q359.941 1265.13 355.08 1269.47 Q350.219 1273.78 341.371 1273.78 Q338.325 1273.78 335.149 1273.26 Q332.006 1272.75 328.635 1271.71 L328.635 1265.13 Q331.552 1266.72 334.663 1267.5 Q337.774 1268.27 341.242 1268.27 Q346.848 1268.27 350.121 1265.32 Q353.395 1262.38 353.395 1257.32 Q353.395 1252.26 350.121 1249.32 Q346.848 1246.37 341.242 1246.37 Q338.617 1246.37 335.992 1246.95 Q333.399 1247.53 330.677 1248.76 L330.677 1224.46 Z" fill="#ffffff" fill-rule="nonzero" fill-opacity="1" /><path clip-path="url(#clip930)" d="M386.839 1228.77 Q381.783 1228.77 379.223 1233.76 Q376.695 1238.72 376.695 1248.7 Q376.695 1258.65 379.223 1263.64 Q381.783 1268.6 386.839 1268.6 Q391.927 1268.6 394.455 1263.64 Q397.015 1258.65 397.015 1248.7 Q397.015 1238.72 394.455 1233.76 Q391.927 1228.77 386.839 1228.77 M386.839 1223.58 Q394.973 1223.58 399.251 1230.03 Q403.561 1236.45 403.561 1248.7 Q403.561 1260.92 399.251 1267.37 Q394.973 1273.78 386.839 1273.78 Q378.705 1273.78 374.394 1267.37 Q370.117 1260.92 370.117 1248.7 Q370.117 1236.45 374.394 1230.03 Q378.705 1223.58 386.839 1223.58 Z" fill="#ffffff" fill-rule="nonzero" fill-opacity="1" /><path clip-path="url(#clip930)" d="M213.006 1003.26 L254.552 1003.26 L254.552 1008.77 L213.006 1008.77 L213.006 1003.26 Z" fill="#ffffff" fill-rule="nonzero" fill-opacity="1" /><path clip-path="url(#clip930)" d="M282.682 982.748 Q277.626 982.748 275.066 987.739 Q272.539 992.697 272.539 1002.68 Q272.539 1012.63 275.066 1017.62 Q277.626 1022.58 282.682 1022.58 Q287.77 1022.58 290.298 1017.62 Q292.858 1012.63 292.858 1002.68 Q292.858 992.697 290.298 987.739 Q287.77 982.748 282.682 982.748 M282.682 977.563 Q290.816 977.563 295.094 984.012 Q299.404 990.429 299.404 1002.68 Q299.404 1014.9 295.094 1021.35 Q290.816 1027.76 282.682 1027.76 Q274.548 1027.76 270.238 1021.35 Q265.96 1014.9 265.96 1002.68 Q265.96 990.429 270.238 984.012 Q274.548 977.563 282.682 977.563 Z" fill="#ffffff" fill-rule="nonzero" fill-opacity="1" /><path clip-path="url(#clip930)" d="M310.909 1018.59 L317.747 1018.59 L317.747 1026.82 L310.909 1026.82 L310.909 1018.59 Z" fill="#ffffff" fill-rule="nonzero" fill-opacity="1" /><path clip-path="url(#clip930)" d="M337.645 1021.31 L360.492 1021.31 L360.492 1026.82 L329.77 1026.82 L329.77 1021.31 Q333.497 1017.46 339.913 1010.97 Q346.362 1004.46 348.015 1002.58 Q351.158 999.049 352.39 996.618 Q353.654 994.155 353.654 991.79 Q353.654 987.933 350.932 985.503 Q348.242 983.072 343.899 983.072 Q340.821 983.072 337.385 984.142 Q333.983 985.211 330.094 987.382 L330.094 980.771 Q334.047 979.183 337.483 978.373 Q340.918 977.563 343.77 977.563 Q351.288 977.563 355.76 981.322 Q360.232 985.081 360.232 991.368 Q360.232 994.35 359.098 997.04 Q357.996 999.697 355.047 1003.33 Q354.237 1004.27 349.895 1008.77 Q345.552 1013.24 337.645 1021.31 Z" fill="#ffffff" fill-rule="nonzero" fill-opacity="1" /><path clip-path="url(#clip930)" d="M374.297 978.438 L399.996 978.438 L399.996 983.947 L380.293 983.947 L380.293 995.808 Q381.718 995.322 383.144 995.095 Q384.57 994.836 385.996 994.836 Q394.098 994.836 398.829 999.276 Q403.561 1003.72 403.561 1011.3 Q403.561 1019.11 398.7 1023.45 Q393.839 1027.76 384.992 1027.76 Q381.945 1027.76 378.769 1027.24 Q375.626 1026.72 372.256 1025.69 L372.256 1019.11 Q375.172 1020.7 378.283 1021.47 Q381.394 1022.25 384.862 1022.25 Q390.468 1022.25 393.742 1019.3 Q397.015 1016.35 397.015 1011.3 Q397.015 1006.24 393.742 1003.29 Q390.468 1000.35 384.862 1000.35 Q382.237 1000.35 379.612 1000.93 Q377.019 1001.51 374.297 1002.74 L374.297 978.438 Z" fill="#ffffff" fill-rule="nonzero" fill-opacity="1" /><path clip-path="url(#clip930)" d="M281.288 736.727 Q276.233 736.727 273.673 741.717 Q271.145 746.676 271.145 756.657 Q271.145 766.606 273.673 771.597 Q276.233 776.555 281.288 776.555 Q286.376 776.555 288.904 771.597 Q291.464 766.606 291.464 756.657 Q291.464 746.676 288.904 741.717 Q286.376 736.727 281.288 736.727 M281.288 731.541 Q289.423 731.541 293.7 737.99 Q298.011 744.407 298.011 756.657 Q298.011 768.875 293.7 775.324 Q289.423 781.74 281.288 781.74 Q273.154 781.74 268.844 775.324 Q264.566 768.875 264.566 756.657 Q264.566 744.407 268.844 737.99 Q273.154 731.541 281.288 731.541 Z" fill="#ffffff" fill-rule="nonzero" fill-opacity="1" /><path clip-path="url(#clip930)" d="M309.515 772.569 L316.353 772.569 L316.353 780.8 L309.515 780.8 L309.515 772.569 Z" fill="#ffffff" fill-rule="nonzero" fill-opacity="1" /><path clip-path="url(#clip930)" d="M344.612 736.727 Q339.557 736.727 336.996 741.717 Q334.469 746.676 334.469 756.657 Q334.469 766.606 336.996 771.597 Q339.557 776.555 344.612 776.555 Q349.7 776.555 352.228 771.597 Q354.788 766.606 354.788 756.657 Q354.788 746.676 352.228 741.717 Q349.7 736.727 344.612 736.727 M344.612 731.541 Q352.746 731.541 357.024 737.99 Q361.334 744.407 361.334 756.657 Q361.334 768.875 357.024 775.324 Q352.746 781.74 344.612 781.74 Q336.478 781.74 332.168 775.324 Q327.89 768.875 327.89 756.657 Q327.89 744.407 332.168 737.99 Q336.478 731.541 344.612 731.541 Z" fill="#ffffff" fill-rule="nonzero" fill-opacity="1" /><path clip-path="url(#clip930)" d="M386.839 736.727 Q381.783 736.727 379.223 741.717 Q376.695 746.676 376.695 756.657 Q376.695 766.606 379.223 771.597 Q381.783 776.555 386.839 776.555 Q391.927 776.555 394.455 771.597 Q397.015 766.606 397.015 756.657 Q397.015 746.676 394.455 741.717 Q391.927 736.727 386.839 736.727 M386.839 731.541 Q394.973 731.541 399.251 737.99 Q403.561 744.407 403.561 756.657 Q403.561 768.875 399.251 775.324 Q394.973 781.74 386.839 781.74 Q378.705 781.74 374.394 775.324 Q370.117 768.875 370.117 756.657 Q370.117 744.407 374.394 737.99 Q378.705 731.541 386.839 731.541 Z" fill="#ffffff" fill-rule="nonzero" fill-opacity="1" /><path clip-path="url(#clip930)" d="M282.682 490.705 Q277.626 490.705 275.066 495.696 Q272.539 500.654 272.539 510.636 Q272.539 520.585 275.066 525.575 Q277.626 530.534 282.682 530.534 Q287.77 530.534 290.298 525.575 Q292.858 520.585 292.858 510.636 Q292.858 500.654 290.298 495.696 Q287.77 490.705 282.682 490.705 M282.682 485.52 Q290.816 485.52 295.094 491.969 Q299.404 498.386 299.404 510.636 Q299.404 522.853 295.094 529.302 Q290.816 535.719 282.682 535.719 Q274.548 535.719 270.238 529.302 Q265.96 522.853 265.96 510.636 Q265.96 498.386 270.238 491.969 Q274.548 485.52 282.682 485.52 Z" fill="#ffffff" fill-rule="nonzero" fill-opacity="1" /><path clip-path="url(#clip930)" d="M310.909 526.547 L317.747 526.547 L317.747 534.779 L310.909 534.779 L310.909 526.547 Z" fill="#ffffff" fill-rule="nonzero" fill-opacity="1" /><path clip-path="url(#clip930)" d="M337.645 529.27 L360.492 529.27 L360.492 534.779 L329.77 534.779 L329.77 529.27 Q333.497 525.413 339.913 518.932 Q346.362 512.418 348.015 510.538 Q351.158 507.006 352.39 504.575 Q353.654 502.112 353.654 499.747 Q353.654 495.89 350.932 493.46 Q348.242 491.029 343.899 491.029 Q340.821 491.029 337.385 492.099 Q333.983 493.168 330.094 495.339 L330.094 488.728 Q334.047 487.14 337.483 486.33 Q340.918 485.52 343.77 485.52 Q351.288 485.52 355.76 489.279 Q360.232 493.038 360.232 499.325 Q360.232 502.307 359.098 504.997 Q357.996 507.654 355.047 511.284 Q354.237 512.223 349.895 516.728 Q345.552 521.2 337.645 529.27 Z" fill="#ffffff" fill-rule="nonzero" fill-opacity="1" /><path clip-path="url(#clip930)" d="M374.297 486.395 L399.996 486.395 L399.996 491.904 L380.293 491.904 L380.293 503.765 Q381.718 503.279 383.144 503.052 Q384.57 502.793 385.996 502.793 Q394.098 502.793 398.829 507.233 Q403.561 511.673 403.561 519.256 Q403.561 527.066 398.7 531.409 Q393.839 535.719 384.992 535.719 Q381.945 535.719 378.769 535.2 Q375.626 534.682 372.256 533.645 L372.256 527.066 Q375.172 528.654 378.283 529.432 Q381.394 530.209 384.862 530.209 Q390.468 530.209 393.742 527.26 Q397.015 524.311 397.015 519.256 Q397.015 514.2 393.742 511.251 Q390.468 508.302 384.862 508.302 Q382.237 508.302 379.612 508.886 Q377.019 509.469 374.297 510.7 L374.297 486.395 Z" fill="#ffffff" fill-rule="nonzero" fill-opacity="1" /><path clip-path="url(#clip930)" d="M281.288 244.684 Q276.233 244.684 273.673 249.674 Q271.145 254.633 271.145 264.614 Q271.145 274.563 273.673 279.554 Q276.233 284.512 281.288 284.512 Q286.376 284.512 288.904 279.554 Q291.464 274.563 291.464 264.614 Q291.464 254.633 288.904 249.674 Q286.376 244.684 281.288 244.684 M281.288 239.498 Q289.423 239.498 293.7 245.947 Q298.011 252.364 298.011 264.614 Q298.011 276.832 293.7 283.281 Q289.423 289.697 281.288 289.697 Q273.154 289.697 268.844 283.281 Q264.566 276.832 264.566 264.614 Q264.566 252.364 268.844 245.947 Q273.154 239.498 281.288 239.498 Z" fill="#ffffff" fill-rule="nonzero" fill-opacity="1" /><path clip-path="url(#clip930)" d="M309.515 280.526 L316.353 280.526 L316.353 288.757 L309.515 288.757 L309.515 280.526 Z" fill="#ffffff" fill-rule="nonzero" fill-opacity="1" /><path clip-path="url(#clip930)" d="M330.677 240.373 L356.376 240.373 L356.376 245.883 L336.672 245.883 L336.672 257.744 Q338.098 257.258 339.524 257.031 Q340.95 256.771 342.376 256.771 Q350.478 256.771 355.209 261.211 Q359.941 265.651 359.941 273.234 Q359.941 281.045 355.08 285.387 Q350.219 289.697 341.371 289.697 Q338.325 289.697 335.149 289.179 Q332.006 288.66 328.635 287.623 L328.635 281.045 Q331.552 282.632 334.663 283.41 Q337.774 284.188 341.242 284.188 Q346.848 284.188 350.121 281.239 Q353.395 278.29 353.395 273.234 Q353.395 268.179 350.121 265.23 Q346.848 262.281 341.242 262.281 Q338.617 262.281 335.992 262.864 Q333.399 263.447 330.677 264.679 L330.677 240.373 Z" fill="#ffffff" fill-rule="nonzero" fill-opacity="1" /><path clip-path="url(#clip930)" d="M386.839 244.684 Q381.783 244.684 379.223 249.674 Q376.695 254.633 376.695 264.614 Q376.695 274.563 379.223 279.554 Q381.783 284.512 386.839 284.512 Q391.927 284.512 394.455 279.554 Q397.015 274.563 397.015 264.614 Q397.015 254.633 394.455 249.674 Q391.927 244.684 386.839 244.684 M386.839 239.498 Q394.973 239.498 399.251 245.947 Q403.561 252.364 403.561 264.614 Q403.561 276.832 399.251 283.281 Q394.973 289.697 386.839 289.697 Q378.705 289.697 374.394 283.281 Q370.117 276.832 370.117 264.614 Q370.117 252.364 374.394 245.947 Q378.705 239.498 386.839 239.498 Z" fill="#ffffff" fill-rule="nonzero" fill-opacity="1" /><path clip-path="url(#clip930)" d="M105.747 1057.57 L105.747 1049.37 L144.693 1039.12 L105.747 1028.91 L105.747 1019.24 L144.693 1009 L105.747 998.792 L105.747 990.593 L155.655 1003.65 L155.655 1013.32 L114.748 1024.06 L155.655 1034.84 L155.655 1044.51 L105.747 1057.57 Z" fill="#ffffff" fill-rule="nonzero" fill-opacity="1" /><path clip-path="url(#clip930)" d="M130.567 955.479 Q130.567 965.416 132.84 969.248 Q135.112 973.081 140.593 973.081 Q144.96 973.081 147.545 970.229 Q150.085 967.332 150.085 962.386 Q150.085 955.569 145.272 951.469 Q140.415 947.325 132.394 947.325 L130.567 947.325 L130.567 955.479 M127.181 939.126 L155.655 939.126 L155.655 947.325 L148.079 947.325 Q152.624 950.132 154.808 954.321 Q156.947 958.509 156.947 964.57 Q156.947 972.234 152.669 976.779 Q148.347 981.28 141.128 981.28 Q132.706 981.28 128.428 975.665 Q124.151 970.006 124.151 958.821 L124.151 947.325 L123.349 947.325 Q117.689 947.325 114.615 951.068 Q111.496 954.766 111.496 961.495 Q111.496 965.773 112.52 969.828 Q113.545 973.883 115.595 977.626 L108.02 977.626 Q106.282 973.125 105.435 968.892 Q104.544 964.659 104.544 960.648 Q104.544 949.82 110.159 944.473 Q115.773 939.126 127.181 939.126 Z" fill="#ffffff" fill-rule="nonzero" fill-opacity="1" /><path clip-path="url(#clip930)" d="M105.747 928.12 L105.747 919.43 L147.634 903.834 L105.747 888.238 L105.747 879.549 L155.655 898.264 L155.655 909.404 L105.747 928.12 Z" fill="#ffffff" fill-rule="nonzero" fill-opacity="1" /><path clip-path="url(#clip930)" d="M128.651 825.543 L132.662 825.543 L132.662 863.24 Q141.128 862.706 145.584 858.16 Q149.995 853.571 149.995 845.416 Q149.995 840.693 148.837 836.282 Q147.678 831.826 145.361 827.459 L153.115 827.459 Q154.986 831.87 155.966 836.504 Q156.947 841.139 156.947 845.907 Q156.947 857.849 149.995 864.844 Q143.044 871.796 131.191 871.796 Q118.937 871.796 111.763 865.201 Q104.544 858.562 104.544 847.332 Q104.544 837.262 111.05 831.425 Q117.511 825.543 128.651 825.543 M126.245 833.742 Q119.516 833.831 115.506 837.529 Q111.496 841.183 111.496 847.243 Q111.496 854.106 115.372 858.25 Q119.249 862.349 126.29 862.973 L126.245 833.742 Z" fill="#ffffff" fill-rule="nonzero" fill-opacity="1" /><path clip-path="url(#clip930)" d="M86.3192 786.82 L93.1369 786.82 L93.1369 794.663 Q93.1369 799.074 94.9193 800.812 Q96.7017 802.505 101.336 802.505 L105.747 802.505 L105.747 789.003 L112.119 789.003 L112.119 802.505 L155.655 802.505 L155.655 810.749 L112.119 810.749 L112.119 818.591 L105.747 818.591 L105.747 810.749 L102.272 810.749 Q93.939 810.749 90.1514 806.872 Q86.3192 802.995 86.3192 794.573 L86.3192 786.82 Z" fill="#ffffff" fill-rule="nonzero" fill-opacity="1" /><path clip-path="url(#clip930)" d="M135.959 780.804 L105.747 780.804 L105.747 772.605 L135.647 772.605 Q142.732 772.605 146.297 769.843 Q149.817 767.08 149.817 761.555 Q149.817 754.915 145.584 751.083 Q141.351 747.206 134.043 747.206 L105.747 747.206 L105.747 739.007 L155.655 739.007 L155.655 747.206 L147.99 747.206 Q152.535 750.192 154.763 754.158 Q156.947 758.079 156.947 763.292 Q156.947 771.892 151.6 776.348 Q146.252 780.804 135.959 780.804 M104.544 760.173 L104.544 760.173 Z" fill="#ffffff" fill-rule="nonzero" fill-opacity="1" /><path clip-path="url(#clip930)" d="M125.532 680.634 L155.655 680.634 L155.655 688.833 L125.799 688.833 Q118.714 688.833 115.194 691.595 Q111.674 694.358 111.674 699.884 Q111.674 706.523 115.907 710.355 Q120.14 714.187 127.448 714.187 L155.655 714.187 L155.655 722.431 L105.747 722.431 L105.747 714.187 L113.501 714.187 Q109 711.246 106.772 707.281 Q104.544 703.27 104.544 698.057 Q104.544 689.457 109.891 685.045 Q115.194 680.634 125.532 680.634 Z" fill="#ffffff" fill-rule="nonzero" fill-opacity="1" /><path clip-path="url(#clip930)" d="M107.663 628.365 L115.328 628.365 Q113.412 631.841 112.476 635.361 Q111.496 638.836 111.496 642.401 Q111.496 650.377 116.575 654.789 Q121.611 659.2 130.745 659.2 Q139.88 659.2 144.96 654.789 Q149.995 650.377 149.995 642.401 Q149.995 638.836 149.06 635.361 Q148.079 631.841 146.163 628.365 L153.738 628.365 Q155.343 631.796 156.145 635.494 Q156.947 639.148 156.947 643.292 Q156.947 654.566 149.862 661.206 Q142.777 667.845 130.745 667.845 Q118.536 667.845 111.54 661.161 Q104.544 654.432 104.544 642.758 Q104.544 638.97 105.346 635.361 Q106.104 631.751 107.663 628.365 Z" fill="#ffffff" fill-rule="nonzero" fill-opacity="1" /><path clip-path="url(#clip930)" d="M91.5773 605.996 L105.747 605.996 L105.747 589.108 L112.119 589.108 L112.119 605.996 L139.212 605.996 Q145.317 605.996 147.054 604.347 Q148.792 602.654 148.792 597.529 L148.792 589.108 L155.655 589.108 L155.655 597.529 Q155.655 607.021 152.134 610.63 Q148.569 614.239 139.212 614.239 L112.119 614.239 L112.119 620.255 L105.747 620.255 L105.747 614.239 L91.5773 614.239 L91.5773 605.996 Z" fill="#ffffff" fill-rule="nonzero" fill-opacity="1" /><path clip-path="url(#clip930)" d="M105.747 578.324 L105.747 570.125 L155.655 570.125 L155.655 578.324 L105.747 578.324 M86.3192 578.324 L86.3192 570.125 L96.7017 570.125 L96.7017 578.324 L86.3192 578.324 Z" fill="#ffffff" fill-rule="nonzero" fill-opacity="1" /><path clip-path="url(#clip930)" d="M111.496 533.63 Q111.496 540.225 116.665 544.057 Q121.789 547.89 130.745 547.89 Q139.702 547.89 144.871 544.102 Q149.995 540.27 149.995 533.63 Q149.995 527.08 144.826 523.248 Q139.657 519.416 130.745 519.416 Q121.878 519.416 116.709 523.248 Q111.496 527.08 111.496 533.63 M104.544 533.63 Q104.544 522.936 111.496 516.831 Q118.447 510.727 130.745 510.727 Q142.999 510.727 149.995 516.831 Q156.947 522.936 156.947 533.63 Q156.947 544.369 149.995 550.474 Q142.999 556.534 130.745 556.534 Q118.447 556.534 111.496 550.474 Q104.544 544.369 104.544 533.63 Z" fill="#ffffff" fill-rule="nonzero" fill-opacity="1" /><path clip-path="url(#clip930)" d="M125.532 455.65 L155.655 455.65 L155.655 463.85 L125.799 463.85 Q118.714 463.85 115.194 466.612 Q111.674 469.375 111.674 474.9 Q111.674 481.54 115.907 485.372 Q120.14 489.204 127.448 489.204 L155.655 489.204 L155.655 497.448 L105.747 497.448 L105.747 489.204 L113.501 489.204 Q109 486.263 106.772 482.297 Q104.544 478.287 104.544 473.073 Q104.544 464.473 109.891 460.062 Q115.194 455.65 125.532 455.65 Z" fill="#ffffff" fill-rule="nonzero" fill-opacity="1" /><path clip-path="url(#clip930)" d="M329.748 16.9344 L401.376 16.9344 L401.376 26.5756 L371.319 26.5756 L371.319 101.606 L359.806 101.606 L359.806 26.5756 L329.748 26.5756 L329.748 16.9344 Z" fill="#ffffff" fill-rule="nonzero" fill-opacity="1" /><path clip-path="url(#clip930)" d="M416.859 45.4042 Q408.466 45.4042 403.588 51.9828 Q398.711 58.5048 398.711 69.904 Q398.711 81.3033 403.532 87.8819 Q408.409 94.4039 416.859 94.4039 Q425.196 94.4039 430.073 87.8252 Q434.95 81.2466 434.95 69.904 Q434.95 58.6182 430.073 52.0395 Q425.196 45.4042 416.859 45.4042 M416.859 36.557 Q430.47 36.557 438.24 45.4042 Q446.009 54.2513 446.009 69.904 Q446.009 85.5 438.24 94.4039 Q430.47 103.251 416.859 103.251 Q403.191 103.251 395.422 94.4039 Q387.709 85.5 387.709 69.904 Q387.709 54.2513 395.422 45.4042 Q403.191 36.557 416.859 36.557 Z" fill="#ffffff" fill-rule="nonzero" fill-opacity="1" /><path clip-path="url(#clip930)" d="M473.402 92.0787 L473.402 125.766 L462.91 125.766 L462.91 38.0882 L473.402 38.0882 L473.402 47.7294 Q476.691 42.0581 481.682 39.3359 Q486.729 36.557 493.705 36.557 Q505.274 36.557 512.477 45.7444 Q519.736 54.9319 519.736 69.904 Q519.736 84.8762 512.477 94.0636 Q505.274 103.251 493.705 103.251 Q486.729 103.251 481.682 100.529 Q476.691 97.7499 473.402 92.0787 M508.904 69.904 Q508.904 58.3914 504.14 51.8694 Q499.433 45.2907 491.153 45.2907 Q482.873 45.2907 478.109 51.8694 Q473.402 58.3914 473.402 69.904 Q473.402 81.4167 478.109 87.9954 Q482.873 94.5173 491.153 94.5173 Q499.433 94.5173 504.14 87.9954 Q508.904 81.4167 508.904 69.904 Z" fill="#ffffff" fill-rule="nonzero" fill-opacity="1" /><path clip-path="url(#clip930)" d="M561.646 45.4042 Q553.253 45.4042 548.376 51.9828 Q543.498 58.5048 543.498 69.904 Q543.498 81.3033 548.319 87.8819 Q553.196 94.4039 561.646 94.4039 Q569.983 94.4039 574.861 87.8252 Q579.738 81.2466 579.738 69.904 Q579.738 58.6182 574.861 52.0395 Q569.983 45.4042 561.646 45.4042 M561.646 36.557 Q575.257 36.557 583.027 45.4042 Q590.797 54.2513 590.797 69.904 Q590.797 85.5 583.027 94.4039 Q575.257 103.251 561.646 103.251 Q547.979 103.251 540.209 94.4039 Q532.496 85.5 532.496 69.904 Q532.496 54.2513 540.209 45.4042 Q547.979 36.557 561.646 36.557 Z" fill="#ffffff" fill-rule="nonzero" fill-opacity="1" /><path clip-path="url(#clip930)" d="M608.094 13.3615 L618.529 13.3615 L618.529 101.606 L608.094 101.606 L608.094 13.3615 Z" fill="#ffffff" fill-rule="nonzero" fill-opacity="1" /><path clip-path="url(#clip930)" d="M664.977 45.4042 Q656.583 45.4042 651.706 51.9828 Q646.829 58.5048 646.829 69.904 Q646.829 81.3033 651.649 87.8819 Q656.527 94.4039 664.977 94.4039 Q673.314 94.4039 678.191 87.8252 Q683.068 81.2466 683.068 69.904 Q683.068 58.6182 678.191 52.0395 Q673.314 45.4042 664.977 45.4042 M664.977 36.557 Q678.588 36.557 686.358 45.4042 Q694.127 54.2513 694.127 69.904 Q694.127 85.5 686.358 94.4039 Q678.588 103.251 664.977 103.251 Q651.309 103.251 643.54 94.4039 Q635.827 85.5 635.827 69.904 Q635.827 54.2513 643.54 45.4042 Q651.309 36.557 664.977 36.557 Z" fill="#ffffff" fill-rule="nonzero" fill-opacity="1" /><path clip-path="url(#clip930)" d="M753.222 69.11 Q753.222 57.7675 748.515 51.5291 Q743.864 45.2907 735.414 45.2907 Q727.021 45.2907 722.313 51.5291 Q717.663 57.7675 717.663 69.11 Q717.663 80.3959 722.313 86.6343 Q727.021 92.8727 735.414 92.8727 Q743.864 92.8727 748.515 86.6343 Q753.222 80.3959 753.222 69.11 M763.657 93.7233 Q763.657 109.943 756.454 117.826 Q749.252 125.766 734.393 125.766 Q728.892 125.766 724.015 124.915 Q719.138 124.121 714.544 122.42 L714.544 112.268 Q719.138 114.764 723.618 115.955 Q728.098 117.146 732.749 117.146 Q743.014 117.146 748.118 111.758 Q753.222 106.427 753.222 95.5949 L753.222 90.434 Q749.989 96.0486 744.942 98.8275 Q739.894 101.606 732.862 101.606 Q721.179 101.606 714.033 92.7025 Q706.888 83.7986 706.888 69.11 Q706.888 54.3648 714.033 45.4609 Q721.179 36.557 732.862 36.557 Q739.894 36.557 744.942 39.3359 Q749.989 42.1148 753.222 47.7294 L753.222 38.0882 L763.657 38.0882 L763.657 93.7233 Z" fill="#ffffff" fill-rule="nonzero" fill-opacity="1" /><path clip-path="url(#clip930)" d="M785.151 38.0882 L795.586 38.0882 L795.586 101.606 L785.151 101.606 L785.151 38.0882 M785.151 13.3615 L795.586 13.3615 L795.586 26.5756 L785.151 26.5756 L785.151 13.3615 Z" fill="#ffffff" fill-rule="nonzero" fill-opacity="1" /><path clip-path="url(#clip930)" d="M863.131 40.5269 L863.131 50.2814 Q858.707 47.8428 854.227 46.6518 Q849.803 45.4042 845.266 45.4042 Q835.115 45.4042 829.5 51.8694 Q823.886 58.2779 823.886 69.904 Q823.886 81.5301 829.5 87.9954 Q835.115 94.4039 845.266 94.4039 Q849.803 94.4039 854.227 93.2129 Q858.707 91.9652 863.131 89.5266 L863.131 99.1678 Q858.764 101.209 854.057 102.23 Q849.406 103.251 844.132 103.251 Q829.784 103.251 821.334 94.2338 Q812.884 85.2164 812.884 69.904 Q812.884 54.3648 821.39 45.4609 Q829.954 36.557 844.813 36.557 Q849.633 36.557 854.227 37.5778 Q858.821 38.5419 863.131 40.5269 Z" fill="#ffffff" fill-rule="nonzero" fill-opacity="1" /><path clip-path="url(#clip930)" d="M910.146 69.6772 Q897.499 69.6772 892.622 72.5695 Q887.744 75.4619 887.744 82.4375 Q887.744 87.9954 891.374 91.2847 Q895.06 94.5173 901.355 94.5173 Q910.032 94.5173 915.25 88.3924 Q920.524 82.2107 920.524 72.0024 L920.524 69.6772 L910.146 69.6772 M930.959 65.367 L930.959 101.606 L920.524 101.606 L920.524 91.9652 Q916.951 97.7499 911.62 100.529 Q906.289 103.251 898.576 103.251 Q888.822 103.251 883.037 97.8067 Q877.309 92.3055 877.309 83.1181 Q877.309 72.3994 884.455 66.955 Q891.657 61.5106 905.892 61.5106 L920.524 61.5106 L920.524 60.4897 Q920.524 53.2872 915.76 49.374 Q911.053 45.4042 902.49 45.4042 Q897.045 45.4042 891.884 46.7085 Q886.723 48.0129 881.96 50.6217 L881.96 40.9806 Q887.688 38.7688 893.075 37.6912 Q898.463 36.557 903.567 36.557 Q917.348 36.557 924.154 43.7028 Q930.959 50.8486 930.959 65.367 Z" fill="#ffffff" fill-rule="nonzero" fill-opacity="1" /><path clip-path="url(#clip930)" d="M952.453 13.3615 L962.889 13.3615 L962.889 101.606 L952.453 101.606 L952.453 13.3615 Z" fill="#ffffff" fill-rule="nonzero" fill-opacity="1" /><path clip-path="url(#clip930)" d="M1022.1 16.9344 L1075.63 16.9344 L1075.63 26.5756 L1033.55 26.5756 L1033.55 51.6425 L1073.88 51.6425 L1073.88 61.2837 L1033.55 61.2837 L1033.55 91.9652 L1076.65 91.9652 L1076.65 101.606 L1022.1 101.606 L1022.1 16.9344 Z" fill="#ffffff" fill-rule="nonzero" fill-opacity="1" /><path clip-path="url(#clip930)" d="M1136.83 47.7294 L1136.83 13.3615 L1147.26 13.3615 L1147.26 101.606 L1136.83 101.606 L1136.83 92.0787 Q1133.54 97.7499 1128.49 100.529 Q1123.5 103.251 1116.47 103.251 Q1104.95 103.251 1097.69 94.0636 Q1090.49 84.8762 1090.49 69.904 Q1090.49 54.9319 1097.69 45.7444 Q1104.95 36.557 1116.47 36.557 Q1123.5 36.557 1128.49 39.3359 Q1133.54 42.0581 1136.83 47.7294 M1101.27 69.904 Q1101.27 81.4167 1105.97 87.9954 Q1110.74 94.5173 1119.02 94.5173 Q1127.3 94.5173 1132.06 87.9954 Q1136.83 81.4167 1136.83 69.904 Q1136.83 58.3914 1132.06 51.8694 Q1127.3 45.2907 1119.02 45.2907 Q1110.74 45.2907 1105.97 51.8694 Q1101.27 58.3914 1101.27 69.904 Z" fill="#ffffff" fill-rule="nonzero" fill-opacity="1" /><path clip-path="url(#clip930)" d="M1210.55 69.11 Q1210.55 57.7675 1205.85 51.5291 Q1201.2 45.2907 1192.74 45.2907 Q1184.35 45.2907 1179.64 51.5291 Q1174.99 57.7675 1174.99 69.11 Q1174.99 80.3959 1179.64 86.6343 Q1184.35 92.8727 1192.74 92.8727 Q1201.2 92.8727 1205.85 86.6343 Q1210.55 80.3959 1210.55 69.11 M1220.99 93.7233 Q1220.99 109.943 1213.79 117.826 Q1206.58 125.766 1191.72 125.766 Q1186.22 125.766 1181.35 124.915 Q1176.47 124.121 1171.87 122.42 L1171.87 112.268 Q1176.47 114.764 1180.95 115.955 Q1185.43 117.146 1190.08 117.146 Q1200.34 117.146 1205.45 111.758 Q1210.55 106.427 1210.55 95.5949 L1210.55 90.434 Q1207.32 96.0486 1202.27 98.8275 Q1197.23 101.606 1190.19 101.606 Q1178.51 101.606 1171.36 92.7025 Q1164.22 83.7986 1164.22 69.11 Q1164.22 54.3648 1171.36 45.4609 Q1178.51 36.557 1190.19 36.557 Q1197.23 36.557 1202.27 39.3359 Q1207.32 42.1148 1210.55 47.7294 L1210.55 38.0882 L1220.99 38.0882 L1220.99 93.7233 Z" fill="#ffffff" fill-rule="nonzero" fill-opacity="1" /><path clip-path="url(#clip930)" d="M1296.81 67.2385 L1296.81 72.3427 L1248.83 72.3427 Q1249.51 83.1181 1255.3 88.7893 Q1261.14 94.4039 1271.52 94.4039 Q1277.53 94.4039 1283.14 92.9294 Q1288.82 91.4548 1294.37 88.5058 L1294.37 98.3738 Q1288.76 100.756 1282.86 102.003 Q1276.96 103.251 1270.89 103.251 Q1255.7 103.251 1246.79 94.4039 Q1237.94 85.5567 1237.94 70.4712 Q1237.94 54.8752 1246.34 45.7444 Q1254.79 36.557 1269.08 36.557 Q1281.9 36.557 1289.33 44.837 Q1296.81 53.0604 1296.81 67.2385 M1286.38 64.176 Q1286.26 55.6124 1281.56 50.5083 Q1276.91 45.4042 1269.19 45.4042 Q1260.46 45.4042 1255.19 50.3382 Q1249.97 55.2722 1249.17 64.2328 L1286.38 64.176 Z" fill="#ffffff" fill-rule="nonzero" fill-opacity="1" /><path clip-path="url(#clip930)" d="M1402.07 19.7133 L1402.07 30.8857 Q1395.55 27.7665 1389.76 26.2353 Q1383.98 24.704 1378.59 24.704 Q1369.23 24.704 1364.13 28.3336 Q1359.08 31.9633 1359.08 38.6553 Q1359.08 44.2699 1362.43 47.1622 Q1365.83 49.9979 1375.25 51.756 L1382.17 53.1738 Q1394.98 55.6124 1401.05 61.7941 Q1407.18 67.9191 1407.18 78.2408 Q1407.18 90.5474 1398.9 96.8992 Q1390.67 103.251 1374.74 103.251 Q1368.72 103.251 1361.92 101.89 Q1355.17 100.529 1347.91 97.8634 L1347.91 86.0671 Q1354.89 89.9803 1361.58 91.9652 Q1368.27 93.9502 1374.74 93.9502 Q1384.55 93.9502 1389.88 90.0937 Q1395.21 86.2373 1395.21 79.0915 Q1395.21 72.8531 1391.35 69.3369 Q1387.55 65.8207 1378.82 64.0626 L1371.84 62.7015 Q1359.03 60.1494 1353.3 54.705 Q1347.57 49.2606 1347.57 39.5628 Q1347.57 28.3336 1355.45 21.8684 Q1363.39 15.4032 1377.29 15.4032 Q1383.24 15.4032 1389.42 16.4807 Q1395.61 17.5582 1402.07 19.7133 Z" fill="#ffffff" fill-rule="nonzero" fill-opacity="1" /><path clip-path="url(#clip930)" d="M1434.91 20.0536 L1434.91 38.0882 L1456.4 38.0882 L1456.4 46.1981 L1434.91 46.1981 L1434.91 80.6794 Q1434.91 88.4491 1437.01 90.6609 Q1439.16 92.8727 1445.68 92.8727 L1456.4 92.8727 L1456.4 101.606 L1445.68 101.606 Q1433.6 101.606 1429.01 97.1261 Q1424.42 92.5891 1424.42 80.6794 L1424.42 46.1981 L1416.76 46.1981 L1416.76 38.0882 L1424.42 38.0882 L1424.42 20.0536 L1434.91 20.0536 Z" fill="#ffffff" fill-rule="nonzero" fill-opacity="1" /><path clip-path="url(#clip930)" d="M1498.99 69.6772 Q1486.35 69.6772 1481.47 72.5695 Q1476.59 75.4619 1476.59 82.4375 Q1476.59 87.9954 1480.22 91.2847 Q1483.91 94.5173 1490.2 94.5173 Q1498.88 94.5173 1504.1 88.3924 Q1509.37 82.2107 1509.37 72.0024 L1509.37 69.6772 L1498.99 69.6772 M1519.81 65.367 L1519.81 101.606 L1509.37 101.606 L1509.37 91.9652 Q1505.8 97.7499 1500.47 100.529 Q1495.14 103.251 1487.42 103.251 Q1477.67 103.251 1471.88 97.8067 Q1466.16 92.3055 1466.16 83.1181 Q1466.16 72.3994 1473.3 66.955 Q1480.5 61.5106 1494.74 61.5106 L1509.37 61.5106 L1509.37 60.4897 Q1509.37 53.2872 1504.61 49.374 Q1499.9 45.4042 1491.34 45.4042 Q1485.89 45.4042 1480.73 46.7085 Q1475.57 48.0129 1470.81 50.6217 L1470.81 40.9806 Q1476.54 38.7688 1481.92 37.6912 Q1487.31 36.557 1492.41 36.557 Q1506.2 36.557 1513 43.7028 Q1519.81 50.8486 1519.81 65.367 Z" fill="#ffffff" fill-rule="nonzero" fill-opacity="1" /><path clip-path="url(#clip930)" d="M1551.62 20.0536 L1551.62 38.0882 L1573.12 38.0882 L1573.12 46.1981 L1551.62 46.1981 L1551.62 80.6794 Q1551.62 88.4491 1553.72 90.6609 Q1555.88 92.8727 1562.4 92.8727 L1573.12 92.8727 L1573.12 101.606 L1562.4 101.606 Q1550.32 101.606 1545.72 97.1261 Q1541.13 92.5891 1541.13 80.6794 L1541.13 46.1981 L1533.47 46.1981 L1533.47 38.0882 L1541.13 38.0882 L1541.13 20.0536 L1551.62 20.0536 Z" fill="#ffffff" fill-rule="nonzero" fill-opacity="1" /><path clip-path="url(#clip930)" d="M1641.17 67.2385 L1641.17 72.3427 L1593.19 72.3427 Q1593.87 83.1181 1599.66 88.7893 Q1605.5 94.4039 1615.88 94.4039 Q1621.89 94.4039 1627.5 92.9294 Q1633.18 91.4548 1638.73 88.5058 L1638.73 98.3738 Q1633.12 100.756 1627.22 102.003 Q1621.32 103.251 1615.25 103.251 Q1600.06 103.251 1591.15 94.4039 Q1582.3 85.5567 1582.3 70.4712 Q1582.3 54.8752 1590.7 45.7444 Q1599.15 36.557 1613.44 36.557 Q1626.26 36.557 1633.69 44.837 Q1641.17 53.0604 1641.17 67.2385 M1630.74 64.176 Q1630.62 55.6124 1625.92 50.5083 Q1621.27 45.4042 1613.55 45.4042 Q1604.82 45.4042 1599.54 50.3382 Q1594.33 55.2722 1593.53 64.2328 L1630.74 64.176 Z" fill="#ffffff" fill-rule="nonzero" fill-opacity="1" /><path clip-path="url(#clip930)" d="M1698.79 39.9597 L1698.79 49.8277 Q1694.37 47.5592 1689.6 46.425 Q1684.84 45.2907 1679.74 45.2907 Q1671.97 45.2907 1668.05 47.6727 Q1664.2 50.0546 1664.2 54.8185 Q1664.2 58.4481 1666.98 60.5464 Q1669.76 62.5881 1678.15 64.4596 L1681.72 65.2536 Q1692.84 67.6355 1697.49 72.0024 Q1702.19 76.3126 1702.19 84.0822 Q1702.19 92.9294 1695.16 98.0902 Q1688.19 103.251 1675.94 103.251 Q1670.83 103.251 1665.27 102.23 Q1659.77 101.266 1653.65 99.2812 L1653.65 88.5058 Q1659.43 91.5115 1665.05 93.0428 Q1670.66 94.5173 1676.16 94.5173 Q1683.54 94.5173 1687.51 92.022 Q1691.48 89.4699 1691.48 84.8762 Q1691.48 80.6227 1688.58 78.3542 Q1685.75 76.0857 1676.05 73.9873 L1672.42 73.1366 Q1662.72 71.095 1658.41 66.8983 Q1654.1 62.6448 1654.1 55.2722 Q1654.1 46.3116 1660.45 41.4343 Q1666.81 36.557 1678.49 36.557 Q1684.27 36.557 1689.38 37.4077 Q1694.48 38.2584 1698.79 39.9597 Z" fill="#ffffff" fill-rule="nonzero" fill-opacity="1" /><path clip-path="url(#clip930)" d="M1721.48 87.2014 L1733.44 87.2014 L1733.44 101.606 L1721.48 101.606 L1721.48 87.2014 M1721.48 41.5477 L1733.44 41.5477 L1733.44 55.9527 L1721.48 55.9527 L1721.48 41.5477 Z" fill="#ffffff" fill-rule="nonzero" fill-opacity="1" /><path clip-path="url(#clip930)" d="M1846.07 19.7133 L1846.07 30.8857 Q1839.55 27.7665 1833.77 26.2353 Q1827.98 24.704 1822.6 24.704 Q1813.24 24.704 1808.13 28.3336 Q1803.09 31.9633 1803.09 38.6553 Q1803.09 44.2699 1806.43 47.1622 Q1809.84 49.9979 1819.25 51.756 L1826.17 53.1738 Q1838.99 55.6124 1845.05 61.7941 Q1851.18 67.9191 1851.18 78.2408 Q1851.18 90.5474 1842.9 96.8992 Q1834.68 103.251 1818.74 103.251 Q1812.73 103.251 1805.92 101.89 Q1799.17 100.529 1791.91 97.8634 L1791.91 86.0671 Q1798.89 89.9803 1805.58 91.9652 Q1812.27 93.9502 1818.74 93.9502 Q1828.55 93.9502 1833.88 90.0937 Q1839.21 86.2373 1839.21 79.0915 Q1839.21 72.8531 1835.36 69.3369 Q1831.56 65.8207 1822.82 64.0626 L1815.85 62.7015 Q1803.03 60.1494 1797.3 54.705 Q1791.57 49.2606 1791.57 39.5628 Q1791.57 28.3336 1799.46 21.8684 Q1807.4 15.4032 1821.29 15.4032 Q1827.25 15.4032 1833.43 16.4807 Q1839.61 17.5582 1846.07 19.7133 Z" fill="#ffffff" fill-rule="nonzero" fill-opacity="1" /><path clip-path="url(#clip930)" d="M1919.8 19.7133 L1919.8 30.8857 Q1913.28 27.7665 1907.49 26.2353 Q1901.71 24.704 1896.32 24.704 Q1886.96 24.704 1881.86 28.3336 Q1876.81 31.9633 1876.81 38.6553 Q1876.81 44.2699 1880.16 47.1622 Q1883.56 49.9979 1892.98 51.756 L1899.9 53.1738 Q1912.71 55.6124 1918.78 61.7941 Q1924.91 67.9191 1924.91 78.2408 Q1924.91 90.5474 1916.63 96.8992 Q1908.4 103.251 1892.47 103.251 Q1886.45 103.251 1879.65 101.89 Q1872.9 100.529 1865.64 97.8634 L1865.64 86.0671 Q1872.62 89.9803 1879.31 91.9652 Q1886 93.9502 1892.47 93.9502 Q1902.28 93.9502 1907.61 90.0937 Q1912.94 86.2373 1912.94 79.0915 Q1912.94 72.8531 1909.08 69.3369 Q1905.28 65.8207 1896.55 64.0626 L1889.57 62.7015 Q1876.76 60.1494 1871.03 54.705 Q1865.3 49.2606 1865.3 39.5628 Q1865.3 28.3336 1873.18 21.8684 Q1881.12 15.4032 1895.02 15.4032 Q1900.97 15.4032 1907.15 16.4807 Q1913.34 17.5582 1919.8 19.7133 Z" fill="#ffffff" fill-rule="nonzero" fill-opacity="1" /><path clip-path="url(#clip930)" d="M1942.77 16.9344 L1954.23 16.9344 L1954.23 51.6425 L1995.85 51.6425 L1995.85 16.9344 L2007.31 16.9344 L2007.31 101.606 L1995.85 101.606 L1995.85 61.2837 L1954.23 61.2837 L1954.23 101.606 L1942.77 101.606 L1942.77 16.9344 Z" fill="#ffffff" fill-rule="nonzero" fill-opacity="1" /><path clip-path="url(#clip930)" d="M2130.43 23.4564 L2130.43 35.5362 Q2124.65 30.1484 2118.07 27.483 Q2111.55 24.8175 2104.17 24.8175 Q2089.66 24.8175 2081.94 33.7213 Q2074.23 42.5685 2074.23 59.3555 Q2074.23 76.0857 2081.94 84.9896 Q2089.66 93.8368 2104.17 93.8368 Q2111.55 93.8368 2118.07 91.1713 Q2124.65 88.5058 2130.43 83.1181 L2130.43 95.0844 Q2124.42 99.1678 2117.67 101.209 Q2110.98 103.251 2103.49 103.251 Q2084.27 103.251 2073.21 91.5115 Q2062.15 79.7153 2062.15 59.3555 Q2062.15 38.9389 2073.21 27.1994 Q2084.27 15.4032 2103.49 15.4032 Q2111.09 15.4032 2117.79 17.4448 Q2124.53 19.4298 2130.43 23.4564 Z" fill="#ffffff" fill-rule="nonzero" fill-opacity="1" /><path clip-path="url(#clip930)" d="M2200.47 63.2686 L2200.47 101.606 L2190.04 101.606 L2190.04 63.6089 Q2190.04 54.5916 2186.52 50.1113 Q2183 45.631 2175.97 45.631 Q2167.52 45.631 2162.64 51.0187 Q2157.77 56.4064 2157.77 65.7073 L2157.77 101.606 L2147.28 101.606 L2147.28 13.3615 L2157.77 13.3615 L2157.77 47.9562 Q2161.51 42.2282 2166.56 39.3926 Q2171.66 36.557 2178.3 36.557 Q2189.24 36.557 2194.86 43.3625 Q2200.47 50.1113 2200.47 63.2686 Z" fill="#ffffff" fill-rule="nonzero" fill-opacity="1" /><path clip-path="url(#clip930)" d="M2250.15 69.6772 Q2237.51 69.6772 2232.63 72.5695 Q2227.75 75.4619 2227.75 82.4375 Q2227.75 87.9954 2231.38 91.2847 Q2235.07 94.5173 2241.36 94.5173 Q2250.04 94.5173 2255.26 88.3924 Q2260.53 82.2107 2260.53 72.0024 L2260.53 69.6772 L2250.15 69.6772 M2270.97 65.367 L2270.97 101.606 L2260.53 101.606 L2260.53 91.9652 Q2256.96 97.7499 2251.63 100.529 Q2246.3 103.251 2238.58 103.251 Q2228.83 103.251 2223.04 97.8067 Q2217.32 92.3055 2217.32 83.1181 Q2217.32 72.3994 2224.46 66.955 Q2231.66 61.5106 2245.9 61.5106 L2260.53 61.5106 L2260.53 60.4897 Q2260.53 53.2872 2255.77 49.374 Q2251.06 45.4042 2242.5 45.4042 Q2237.05 45.4042 2231.89 46.7085 Q2226.73 48.0129 2221.97 50.6217 L2221.97 40.9806 Q2227.69 38.7688 2233.08 37.6912 Q2238.47 36.557 2243.57 36.557 Q2257.35 36.557 2264.16 43.7028 Q2270.97 50.8486 2270.97 65.367 Z" fill="#ffffff" fill-rule="nonzero" fill-opacity="1" /><path clip-path="url(#clip930)" d="M2292.46 38.0882 L2302.9 38.0882 L2302.9 101.606 L2292.46 101.606 L2292.46 38.0882 M2292.46 13.3615 L2302.9 13.3615 L2302.9 26.5756 L2292.46 26.5756 L2292.46 13.3615 Z" fill="#ffffff" fill-rule="nonzero" fill-opacity="1" /><path clip-path="url(#clip930)" d="M2377.53 63.2686 L2377.53 101.606 L2367.09 101.606 L2367.09 63.6089 Q2367.09 54.5916 2363.58 50.1113 Q2360.06 45.631 2353.03 45.631 Q2344.58 45.631 2339.7 51.0187 Q2334.82 56.4064 2334.82 65.7073 L2334.82 101.606 L2324.33 101.606 L2324.33 38.0882 L2334.82 38.0882 L2334.82 47.9562 Q2338.57 42.2282 2343.61 39.3926 Q2348.72 36.557 2355.35 36.557 Q2366.3 36.557 2371.91 43.3625 Q2377.53 50.1113 2377.53 63.2686 Z" fill="#ffffff" fill-rule="nonzero" fill-opacity="1" /><polyline clip-path="url(#clip932)" style="stroke:#fe4365; stroke-linecap:round; stroke-linejoin:round; stroke-width:16.8; stroke-opacity:1; fill:none" points="491.301,175.457 587.116,1076.24 682.932,580.81 778.747,756.608 874.562,853.297 970.378,756.608 1066.19,703.429 1162.01,756.608 1257.82,785.857 1353.64,756.608 1449.45,740.522 1545.27,756.608 1641.08,765.456 1736.9,756.608 1832.72,751.742 1928.53,756.608 2024.35,759.285 2120.16,756.608 2215.98,755.136 "/>
<circle clip-path="url(#clip932)" cx="491.301" cy="175.457" r="20.16" fill="#fe4365" fill-rule="evenodd" fill-opacity="1" stroke="#adb2b7" stroke-opacity="1" stroke-width="4.48"/>
<circle clip-path="url(#clip932)" cx="587.116" cy="1076.24" r="20.16" fill="#fe4365" fill-rule="evenodd" fill-opacity="1" stroke="#adb2b7" stroke-opacity="1" stroke-width="4.48"/>
<circle clip-path="url(#clip932)" cx="682.932" cy="580.81" r="20.16" fill="#fe4365" fill-rule="evenodd" fill-opacity="1" stroke="#adb2b7" stroke-opacity="1" stroke-width="4.48"/>
<circle clip-path="url(#clip932)" cx="778.747" cy="756.608" r="20.16" fill="#fe4365" fill-rule="evenodd" fill-opacity="1" stroke="#adb2b7" stroke-opacity="1" stroke-width="4.48"/>
<circle clip-path="url(#clip932)" cx="874.562" cy="853.297" r="20.16" fill="#fe4365" fill-rule="evenodd" fill-opacity="1" stroke="#adb2b7" stroke-opacity="1" stroke-width="4.48"/>
<circle clip-path="url(#clip932)" cx="970.378" cy="756.608" r="20.16" fill="#fe4365" fill-rule="evenodd" fill-opacity="1" stroke="#adb2b7" stroke-opacity="1" stroke-width="4.48"/>
<circle clip-path="url(#clip932)" cx="1066.19" cy="703.429" r="20.16" fill="#fe4365" fill-rule="evenodd" fill-opacity="1" stroke="#adb2b7" stroke-opacity="1" stroke-width="4.48"/>
<circle clip-path="url(#clip932)" cx="1162.01" cy="756.608" r="20.16" fill="#fe4365" fill-rule="evenodd" fill-opacity="1" stroke="#adb2b7" stroke-opacity="1" stroke-width="4.48"/>
<circle clip-path="url(#clip932)" cx="1257.82" cy="785.857" r="20.16" fill="#fe4365" fill-rule="evenodd" fill-opacity="1" stroke="#adb2b7" stroke-opacity="1" stroke-width="4.48"/>
<circle clip-path="url(#clip932)" cx="1353.64" cy="756.608" r="20.16" fill="#fe4365" fill-rule="evenodd" fill-opacity="1" stroke="#adb2b7" stroke-opacity="1" stroke-width="4.48"/>
<circle clip-path="url(#clip932)" cx="1449.45" cy="740.522" r="20.16" fill="#fe4365" fill-rule="evenodd" fill-opacity="1" stroke="#adb2b7" stroke-opacity="1" stroke-width="4.48"/>
<circle clip-path="url(#clip932)" cx="1545.27" cy="756.608" r="20.16" fill="#fe4365" fill-rule="evenodd" fill-opacity="1" stroke="#adb2b7" stroke-opacity="1" stroke-width="4.48"/>
<circle clip-path="url(#clip932)" cx="1641.08" cy="765.456" r="20.16" fill="#fe4365" fill-rule="evenodd" fill-opacity="1" stroke="#adb2b7" stroke-opacity="1" stroke-width="4.48"/>
<circle clip-path="url(#clip932)" cx="1736.9" cy="756.608" r="20.16" fill="#fe4365" fill-rule="evenodd" fill-opacity="1" stroke="#adb2b7" stroke-opacity="1" stroke-width="4.48"/>
<circle clip-path="url(#clip932)" cx="1832.72" cy="751.742" r="20.16" fill="#fe4365" fill-rule="evenodd" fill-opacity="1" stroke="#adb2b7" stroke-opacity="1" stroke-width="4.48"/>
<circle clip-path="url(#clip932)" cx="1928.53" cy="756.608" r="20.16" fill="#fe4365" fill-rule="evenodd" fill-opacity="1" stroke="#adb2b7" stroke-opacity="1" stroke-width="4.48"/>
<circle clip-path="url(#clip932)" cx="2024.35" cy="759.285" r="20.16" fill="#fe4365" fill-rule="evenodd" fill-opacity="1" stroke="#adb2b7" stroke-opacity="1" stroke-width="4.48"/>
<circle clip-path="url(#clip932)" cx="2120.16" cy="756.608" r="20.16" fill="#fe4365" fill-rule="evenodd" fill-opacity="1" stroke="#adb2b7" stroke-opacity="1" stroke-width="4.48"/>
<circle clip-path="url(#clip932)" cx="2215.98" cy="755.136" r="20.16" fill="#fe4365" fill-rule="evenodd" fill-opacity="1" stroke="#adb2b7" stroke-opacity="1" stroke-width="4.48"/>
<polyline clip-path="url(#clip932)" style="stroke:#eca25c; stroke-linecap:round; stroke-linejoin:round; stroke-width:16.8; stroke-opacity:1; fill:none" points="491.301,758.08 587.116,756.608 682.932,753.932 778.747,756.608 874.562,761.475 970.378,756.608 1066.19,747.761 1162.01,756.608 1257.82,772.695 1353.64,756.608 1449.45,727.36 1545.27,756.608 1641.08,809.787 1736.9,756.608 1832.72,659.919 1928.53,756.608 2024.35,932.407 2120.16,436.975 2215.98,1337.76 "/>
<circle clip-path="url(#clip932)" cx="491.301" cy="758.08" r="20.16" fill="#eca25c" fill-rule="evenodd" fill-opacity="1" stroke="#adb2b7" stroke-opacity="1" stroke-width="4.48"/>
<circle clip-path="url(#clip932)" cx="587.116" cy="756.608" r="20.16" fill="#eca25c" fill-rule="evenodd" fill-opacity="1" stroke="#adb2b7" stroke-opacity="1" stroke-width="4.48"/>
<circle clip-path="url(#clip932)" cx="682.932" cy="753.932" r="20.16" fill="#eca25c" fill-rule="evenodd" fill-opacity="1" stroke="#adb2b7" stroke-opacity="1" stroke-width="4.48"/>
<circle clip-path="url(#clip932)" cx="778.747" cy="756.608" r="20.16" fill="#eca25c" fill-rule="evenodd" fill-opacity="1" stroke="#adb2b7" stroke-opacity="1" stroke-width="4.48"/>
<circle clip-path="url(#clip932)" cx="874.562" cy="761.475" r="20.16" fill="#eca25c" fill-rule="evenodd" fill-opacity="1" stroke="#adb2b7" stroke-opacity="1" stroke-width="4.48"/>
<circle clip-path="url(#clip932)" cx="970.378" cy="756.608" r="20.16" fill="#eca25c" fill-rule="evenodd" fill-opacity="1" stroke="#adb2b7" stroke-opacity="1" stroke-width="4.48"/>
<circle clip-path="url(#clip932)" cx="1066.19" cy="747.761" r="20.16" fill="#eca25c" fill-rule="evenodd" fill-opacity="1" stroke="#adb2b7" stroke-opacity="1" stroke-width="4.48"/>
<circle clip-path="url(#clip932)" cx="1162.01" cy="756.608" r="20.16" fill="#eca25c" fill-rule="evenodd" fill-opacity="1" stroke="#adb2b7" stroke-opacity="1" stroke-width="4.48"/>
<circle clip-path="url(#clip932)" cx="1257.82" cy="772.695" r="20.16" fill="#eca25c" fill-rule="evenodd" fill-opacity="1" stroke="#adb2b7" stroke-opacity="1" stroke-width="4.48"/>
<circle clip-path="url(#clip932)" cx="1353.64" cy="756.608" r="20.16" fill="#eca25c" fill-rule="evenodd" fill-opacity="1" stroke="#adb2b7" stroke-opacity="1" stroke-width="4.48"/>
<circle clip-path="url(#clip932)" cx="1449.45" cy="727.36" r="20.16" fill="#eca25c" fill-rule="evenodd" fill-opacity="1" stroke="#adb2b7" stroke-opacity="1" stroke-width="4.48"/>
<circle clip-path="url(#clip932)" cx="1545.27" cy="756.608" r="20.16" fill="#eca25c" fill-rule="evenodd" fill-opacity="1" stroke="#adb2b7" stroke-opacity="1" stroke-width="4.48"/>
<circle clip-path="url(#clip932)" cx="1641.08" cy="809.787" r="20.16" fill="#eca25c" fill-rule="evenodd" fill-opacity="1" stroke="#adb2b7" stroke-opacity="1" stroke-width="4.48"/>
<circle clip-path="url(#clip932)" cx="1736.9" cy="756.608" r="20.16" fill="#eca25c" fill-rule="evenodd" fill-opacity="1" stroke="#adb2b7" stroke-opacity="1" stroke-width="4.48"/>
<circle clip-path="url(#clip932)" cx="1832.72" cy="659.919" r="20.16" fill="#eca25c" fill-rule="evenodd" fill-opacity="1" stroke="#adb2b7" stroke-opacity="1" stroke-width="4.48"/>
<circle clip-path="url(#clip932)" cx="1928.53" cy="756.608" r="20.16" fill="#eca25c" fill-rule="evenodd" fill-opacity="1" stroke="#adb2b7" stroke-opacity="1" stroke-width="4.48"/>
<circle clip-path="url(#clip932)" cx="2024.35" cy="932.407" r="20.16" fill="#eca25c" fill-rule="evenodd" fill-opacity="1" stroke="#adb2b7" stroke-opacity="1" stroke-width="4.48"/>
<circle clip-path="url(#clip932)" cx="2120.16" cy="436.975" r="20.16" fill="#eca25c" fill-rule="evenodd" fill-opacity="1" stroke="#adb2b7" stroke-opacity="1" stroke-width="4.48"/>
<circle clip-path="url(#clip932)" cx="2215.98" cy="1337.76" r="20.16" fill="#eca25c" fill-rule="evenodd" fill-opacity="1" stroke="#adb2b7" stroke-opacity="1" stroke-width="4.48"/>
<path clip-path="url(#clip930)" d="M1501.33 399.384 L2206.78 399.384 L2206.78 181.656 L1501.33 181.656  Z" fill="#363d46" fill-rule="evenodd" fill-opacity="1"/>
<polyline clip-path="url(#clip930)" style="stroke:#ffffff; stroke-linecap:round; stroke-linejoin:round; stroke-width:5.6; stroke-opacity:1; fill:none" points="1501.33,399.384 2206.78,399.384 2206.78,181.656 1501.33,181.656 1501.33,399.384 "/>
<polyline clip-path="url(#clip930)" style="stroke:#fe4365; stroke-linecap:round; stroke-linejoin:round; stroke-width:16.8; stroke-opacity:1; fill:none" points="1521.64,254.232 1643.52,254.232 "/>
<circle clip-path="url(#clip930)" cx="1582.58" cy="254.232" r="12.091" fill="#fe4365" fill-rule="evenodd" fill-opacity="1" stroke="#adb2b7" stroke-opacity="1" stroke-width="4.55111"/>
<path clip-path="url(#clip930)" d="M1663.83 227.998 L1669.8 227.998 L1669.8 278.424 L1663.83 278.424 L1663.83 227.998 Z" fill="#ffffff" fill-rule="nonzero" fill-opacity="1" /><path clip-path="url(#clip930)" d="M1713.32 258.785 L1713.32 261.702 L1685.9 261.702 Q1686.29 267.859 1689.6 271.1 Q1692.94 274.308 1698.87 274.308 Q1702.3 274.308 1705.51 273.466 Q1708.75 272.623 1711.93 270.938 L1711.93 276.577 Q1708.72 277.938 1705.35 278.651 Q1701.98 279.364 1698.51 279.364 Q1689.82 279.364 1684.74 274.308 Q1679.68 269.253 1679.68 260.632 Q1679.68 251.721 1684.48 246.503 Q1689.31 241.253 1697.47 241.253 Q1704.8 241.253 1709.04 245.984 Q1713.32 250.683 1713.32 258.785 M1707.36 257.035 Q1707.29 252.142 1704.6 249.225 Q1701.94 246.308 1697.54 246.308 Q1692.55 246.308 1689.53 249.128 Q1686.55 251.947 1686.1 257.068 L1707.36 257.035 Z" fill="#ffffff" fill-rule="nonzero" fill-opacity="1" /><path clip-path="url(#clip930)" d="M1741.48 227.998 L1741.48 232.957 L1735.78 232.957 Q1732.57 232.957 1731.31 234.253 Q1730.07 235.549 1730.07 238.92 L1730.07 242.128 L1739.89 242.128 L1739.89 246.762 L1730.07 246.762 L1730.07 278.424 L1724.08 278.424 L1724.08 246.762 L1718.38 246.762 L1718.38 242.128 L1724.08 242.128 L1724.08 239.6 Q1724.08 233.54 1726.9 230.785 Q1729.72 227.998 1735.84 227.998 L1741.48 227.998 Z" fill="#ffffff" fill-rule="nonzero" fill-opacity="1" /><path clip-path="url(#clip930)" d="M1751.2 231.822 L1751.2 242.128 L1763.49 242.128 L1763.49 246.762 L1751.2 246.762 L1751.2 266.466 Q1751.2 270.906 1752.4 272.169 Q1753.63 273.433 1757.36 273.433 L1763.49 273.433 L1763.49 278.424 L1757.36 278.424 Q1750.46 278.424 1747.83 275.864 Q1745.21 273.271 1745.21 266.466 L1745.21 246.762 L1740.83 246.762 L1740.83 242.128 L1745.21 242.128 L1745.21 231.822 L1751.2 231.822 Z" fill="#ffffff" fill-rule="nonzero" fill-opacity="1" /><path clip-path="url(#clip930)" d="M1823.47 258.785 L1823.47 261.702 L1796.06 261.702 Q1796.44 267.859 1799.75 271.1 Q1803.09 274.308 1809.02 274.308 Q1812.45 274.308 1815.66 273.466 Q1818.9 272.623 1822.08 270.938 L1822.08 276.577 Q1818.87 277.938 1815.5 278.651 Q1812.13 279.364 1808.66 279.364 Q1799.98 279.364 1794.89 274.308 Q1789.83 269.253 1789.83 260.632 Q1789.83 251.721 1794.63 246.503 Q1799.46 241.253 1807.62 241.253 Q1814.95 241.253 1819.19 245.984 Q1823.47 250.683 1823.47 258.785 M1817.51 257.035 Q1817.44 252.142 1814.75 249.225 Q1812.1 246.308 1807.69 246.308 Q1802.7 246.308 1799.68 249.128 Q1796.7 251.947 1796.25 257.068 L1817.51 257.035 Z" fill="#ffffff" fill-rule="nonzero" fill-opacity="1" /><path clip-path="url(#clip930)" d="M1857.14 247.637 L1857.14 227.998 L1863.11 227.998 L1863.11 278.424 L1857.14 278.424 L1857.14 272.98 Q1855.26 276.22 1852.38 277.808 Q1849.53 279.364 1845.51 279.364 Q1838.93 279.364 1834.78 274.114 Q1830.67 268.864 1830.67 260.308 Q1830.67 251.753 1834.78 246.503 Q1838.93 241.253 1845.51 241.253 Q1849.53 241.253 1852.38 242.841 Q1855.26 244.396 1857.14 247.637 M1836.82 260.308 Q1836.82 266.887 1839.51 270.646 Q1842.24 274.373 1846.97 274.373 Q1851.7 274.373 1854.42 270.646 Q1857.14 266.887 1857.14 260.308 Q1857.14 253.73 1854.42 250.003 Q1851.7 246.244 1846.97 246.244 Q1842.24 246.244 1839.51 250.003 Q1836.82 253.73 1836.82 260.308 Z" fill="#ffffff" fill-rule="nonzero" fill-opacity="1" /><path clip-path="url(#clip930)" d="M1899.27 259.855 Q1899.27 253.373 1896.58 249.808 Q1893.93 246.244 1889.1 246.244 Q1884.3 246.244 1881.61 249.808 Q1878.95 253.373 1878.95 259.855 Q1878.95 266.304 1881.61 269.869 Q1884.3 273.433 1889.1 273.433 Q1893.93 273.433 1896.58 269.869 Q1899.27 266.304 1899.27 259.855 M1905.24 273.919 Q1905.24 283.188 1901.12 287.693 Q1897 292.23 1888.51 292.23 Q1885.37 292.23 1882.58 291.743 Q1879.8 291.29 1877.17 290.318 L1877.17 284.517 Q1879.8 285.943 1882.36 286.623 Q1884.92 287.304 1887.57 287.304 Q1893.44 287.304 1896.36 284.225 Q1899.27 281.179 1899.27 274.989 L1899.27 272.04 Q1897.43 275.248 1894.54 276.836 Q1891.66 278.424 1887.64 278.424 Q1880.96 278.424 1876.88 273.336 Q1872.8 268.248 1872.8 259.855 Q1872.8 251.429 1876.88 246.341 Q1880.96 241.253 1887.64 241.253 Q1891.66 241.253 1894.54 242.841 Q1897.43 244.429 1899.27 247.637 L1899.27 242.128 L1905.24 242.128 L1905.24 273.919 Z" fill="#ffffff" fill-rule="nonzero" fill-opacity="1" /><path clip-path="url(#clip930)" d="M1948.56 258.785 L1948.56 261.702 L1921.15 261.702 Q1921.54 267.859 1924.84 271.1 Q1928.18 274.308 1934.11 274.308 Q1937.55 274.308 1940.75 273.466 Q1943.99 272.623 1947.17 270.938 L1947.17 276.577 Q1943.96 277.938 1940.59 278.651 Q1937.22 279.364 1933.75 279.364 Q1925.07 279.364 1919.98 274.308 Q1914.92 269.253 1914.92 260.632 Q1914.92 251.721 1919.72 246.503 Q1924.55 241.253 1932.72 241.253 Q1940.04 241.253 1944.29 245.984 Q1948.56 250.683 1948.56 258.785 M1942.6 257.035 Q1942.54 252.142 1939.85 249.225 Q1937.19 246.308 1932.78 246.308 Q1927.79 246.308 1924.78 249.128 Q1921.8 251.947 1921.34 257.068 L1942.6 257.035 Z" fill="#ffffff" fill-rule="nonzero" fill-opacity="1" /><path clip-path="url(#clip930)" d="M2002.59 243.197 L2002.59 248.836 Q2000.06 247.54 1997.34 246.892 Q1994.61 246.244 1991.7 246.244 Q1987.26 246.244 1985.02 247.605 Q1982.82 248.966 1982.82 251.688 Q1982.82 253.762 1984.41 254.961 Q1985.99 256.128 1990.79 257.197 L1992.83 257.651 Q1999.18 259.012 2001.84 261.507 Q2004.53 263.97 2004.53 268.41 Q2004.53 273.466 2000.51 276.415 Q1996.53 279.364 1989.53 279.364 Q1986.61 279.364 1983.43 278.781 Q1980.29 278.23 1976.79 277.095 L1976.79 270.938 Q1980.1 272.656 1983.3 273.531 Q1986.51 274.373 1989.66 274.373 Q1993.87 274.373 1996.14 272.947 Q1998.41 271.489 1998.41 268.864 Q1998.41 266.433 1996.75 265.137 Q1995.13 263.841 1989.59 262.642 L1987.52 262.156 Q1981.98 260.989 1979.51 258.591 Q1977.05 256.16 1977.05 251.947 Q1977.05 246.827 1980.68 244.04 Q1984.31 241.253 1990.98 241.253 Q1994.29 241.253 1997.21 241.739 Q2000.12 242.225 2002.59 243.197 Z" fill="#ffffff" fill-rule="nonzero" fill-opacity="1" /><path clip-path="url(#clip930)" d="M2019.92 231.822 L2019.92 242.128 L2032.21 242.128 L2032.21 246.762 L2019.92 246.762 L2019.92 266.466 Q2019.92 270.906 2021.12 272.169 Q2022.35 273.433 2026.08 273.433 L2032.21 273.433 L2032.21 278.424 L2026.08 278.424 Q2019.18 278.424 2016.55 275.864 Q2013.93 273.271 2013.93 266.466 L2013.93 246.762 L2009.55 246.762 L2009.55 242.128 L2013.93 242.128 L2013.93 231.822 L2019.92 231.822 Z" fill="#ffffff" fill-rule="nonzero" fill-opacity="1" /><path clip-path="url(#clip930)" d="M2056.54 260.179 Q2049.32 260.179 2046.53 261.832 Q2043.74 263.484 2043.74 267.47 Q2043.74 270.646 2045.82 272.526 Q2047.92 274.373 2051.52 274.373 Q2056.48 274.373 2059.46 270.873 Q2062.48 267.341 2062.48 261.507 L2062.48 260.179 L2056.54 260.179 M2068.44 257.716 L2068.44 278.424 L2062.48 278.424 L2062.48 272.915 Q2060.43 276.22 2057.39 277.808 Q2054.34 279.364 2049.93 279.364 Q2044.36 279.364 2041.05 276.253 Q2037.78 273.109 2037.78 267.859 Q2037.78 261.734 2041.86 258.623 Q2045.98 255.512 2054.11 255.512 L2062.48 255.512 L2062.48 254.929 Q2062.48 250.813 2059.75 248.577 Q2057.06 246.308 2052.17 246.308 Q2049.06 246.308 2046.11 247.054 Q2043.16 247.799 2040.44 249.29 L2040.44 243.781 Q2043.71 242.517 2046.79 241.901 Q2049.87 241.253 2052.79 241.253 Q2060.66 241.253 2064.55 245.336 Q2068.44 249.42 2068.44 257.716 Z" fill="#ffffff" fill-rule="nonzero" fill-opacity="1" /><path clip-path="url(#clip930)" d="M2086.62 231.822 L2086.62 242.128 L2098.9 242.128 L2098.9 246.762 L2086.62 246.762 L2086.62 266.466 Q2086.62 270.906 2087.82 272.169 Q2089.05 273.433 2092.78 273.433 L2098.9 273.433 L2098.9 278.424 L2092.78 278.424 Q2085.87 278.424 2083.25 275.864 Q2080.62 273.271 2080.62 266.466 L2080.62 246.762 L2076.25 246.762 L2076.25 242.128 L2080.62 242.128 L2080.62 231.822 L2086.62 231.822 Z" fill="#ffffff" fill-rule="nonzero" fill-opacity="1" /><path clip-path="url(#clip930)" d="M2137.79 258.785 L2137.79 261.702 L2110.37 261.702 Q2110.76 267.859 2114.07 271.1 Q2117.41 274.308 2123.34 274.308 Q2126.77 274.308 2129.98 273.466 Q2133.22 272.623 2136.4 270.938 L2136.4 276.577 Q2133.19 277.938 2129.82 278.651 Q2126.45 279.364 2122.98 279.364 Q2114.29 279.364 2109.21 274.308 Q2104.15 269.253 2104.15 260.632 Q2104.15 251.721 2108.95 246.503 Q2113.78 241.253 2121.94 241.253 Q2129.27 241.253 2133.51 245.984 Q2137.79 250.683 2137.79 258.785 M2131.83 257.035 Q2131.76 252.142 2129.07 249.225 Q2126.41 246.308 2122.01 246.308 Q2117.02 246.308 2114 249.128 Q2111.02 251.947 2110.57 257.068 L2131.83 257.035 Z" fill="#ffffff" fill-rule="nonzero" fill-opacity="1" /><polyline clip-path="url(#clip930)" style="stroke:#eca25c; stroke-linecap:round; stroke-linejoin:round; stroke-width:16.8; stroke-opacity:1; fill:none" points="1521.64,326.808 1643.52,326.808 "/>
<circle clip-path="url(#clip930)" cx="1582.58" cy="326.808" r="12.091" fill="#eca25c" fill-rule="evenodd" fill-opacity="1" stroke="#adb2b7" stroke-opacity="1" stroke-width="4.55111"/>
<path clip-path="url(#clip930)" d="M1685.09 320.278 Q1684.09 319.695 1682.89 319.435 Q1681.72 319.144 1680.3 319.144 Q1675.24 319.144 1672.52 322.449 Q1669.83 325.722 1669.83 331.88 L1669.83 351 L1663.83 351 L1663.83 314.704 L1669.83 314.704 L1669.83 320.343 Q1671.71 317.037 1674.72 315.449 Q1677.74 313.829 1682.05 313.829 Q1682.66 313.829 1683.41 313.926 Q1684.15 313.991 1685.06 314.153 L1685.09 320.278 Z" fill="#ffffff" fill-rule="nonzero" fill-opacity="1" /><path clip-path="url(#clip930)" d="M1691.35 314.704 L1697.31 314.704 L1697.31 351 L1691.35 351 L1691.35 314.704 M1691.35 300.574 L1697.31 300.574 L1697.31 308.125 L1691.35 308.125 L1691.35 300.574 Z" fill="#ffffff" fill-rule="nonzero" fill-opacity="1" /><path clip-path="url(#clip930)" d="M1733.67 332.431 Q1733.67 325.949 1730.98 322.384 Q1728.32 318.82 1723.5 318.82 Q1718.7 318.82 1716.01 322.384 Q1713.35 325.949 1713.35 332.431 Q1713.35 338.88 1716.01 342.445 Q1718.7 346.009 1723.5 346.009 Q1728.32 346.009 1730.98 342.445 Q1733.67 338.88 1733.67 332.431 M1739.63 346.495 Q1739.63 355.764 1735.52 360.269 Q1731.4 364.806 1722.91 364.806 Q1719.77 364.806 1716.98 364.319 Q1714.19 363.866 1711.57 362.894 L1711.57 357.093 Q1714.19 358.519 1716.75 359.199 Q1719.31 359.88 1721.97 359.88 Q1727.84 359.88 1730.75 356.801 Q1733.67 353.755 1733.67 347.565 L1733.67 344.616 Q1731.82 347.824 1728.94 349.412 Q1726.06 351 1722.04 351 Q1715.36 351 1711.28 345.912 Q1707.19 340.824 1707.19 332.431 Q1707.19 324.005 1711.28 318.917 Q1715.36 313.829 1722.04 313.829 Q1726.06 313.829 1728.94 315.417 Q1731.82 317.005 1733.67 320.213 L1733.67 314.704 L1739.63 314.704 L1739.63 346.495 Z" fill="#ffffff" fill-rule="nonzero" fill-opacity="1" /><path clip-path="url(#clip930)" d="M1782.09 329.093 L1782.09 351 L1776.12 351 L1776.12 329.287 Q1776.12 324.134 1774.12 321.574 Q1772.11 319.014 1768.09 319.014 Q1763.26 319.014 1760.47 322.093 Q1757.69 325.172 1757.69 330.486 L1757.69 351 L1751.69 351 L1751.69 300.574 L1757.69 300.574 L1757.69 320.343 Q1759.82 317.07 1762.71 315.449 Q1765.62 313.829 1769.42 313.829 Q1775.67 313.829 1778.88 317.718 Q1782.09 321.574 1782.09 329.093 Z" fill="#ffffff" fill-rule="nonzero" fill-opacity="1" /><path clip-path="url(#clip930)" d="M1799.88 304.398 L1799.88 314.704 L1812.16 314.704 L1812.16 319.338 L1799.88 319.338 L1799.88 339.042 Q1799.88 343.482 1801.08 344.745 Q1802.31 346.009 1806.04 346.009 L1812.16 346.009 L1812.16 351 L1806.04 351 Q1799.13 351 1796.51 348.44 Q1793.88 345.847 1793.88 339.042 L1793.88 319.338 L1789.51 319.338 L1789.51 314.704 L1793.88 314.704 L1793.88 304.398 L1799.88 304.398 Z" fill="#ffffff" fill-rule="nonzero" fill-opacity="1" /><path clip-path="url(#clip930)" d="M1872.15 331.361 L1872.15 334.278 L1844.73 334.278 Q1845.12 340.435 1848.43 343.676 Q1851.76 346.884 1857.69 346.884 Q1861.13 346.884 1864.34 346.042 Q1867.58 345.199 1870.75 343.514 L1870.75 349.153 Q1867.55 350.514 1864.18 351.227 Q1860.8 351.94 1857.34 351.94 Q1848.65 351.94 1843.56 346.884 Q1838.51 341.829 1838.51 333.208 Q1838.51 324.297 1843.3 319.079 Q1848.13 313.829 1856.3 313.829 Q1863.62 313.829 1867.87 318.56 Q1872.15 323.259 1872.15 331.361 M1866.18 329.611 Q1866.12 324.718 1863.43 321.801 Q1860.77 318.884 1856.37 318.884 Q1851.37 318.884 1848.36 321.704 Q1845.38 324.523 1844.93 329.644 L1866.18 329.611 Z" fill="#ffffff" fill-rule="nonzero" fill-opacity="1" /><path clip-path="url(#clip930)" d="M1905.82 320.213 L1905.82 300.574 L1911.78 300.574 L1911.78 351 L1905.82 351 L1905.82 345.556 Q1903.94 348.796 1901.05 350.384 Q1898.2 351.94 1894.18 351.94 Q1887.61 351.94 1883.46 346.69 Q1879.34 341.44 1879.34 332.884 Q1879.34 324.329 1883.46 319.079 Q1887.61 313.829 1894.18 313.829 Q1898.2 313.829 1901.05 315.417 Q1903.94 316.972 1905.82 320.213 M1885.5 332.884 Q1885.5 339.463 1888.19 343.222 Q1890.91 346.949 1895.64 346.949 Q1900.37 346.949 1903.1 343.222 Q1905.82 339.463 1905.82 332.884 Q1905.82 326.306 1903.1 322.579 Q1900.37 318.82 1895.64 318.82 Q1890.91 318.82 1888.19 322.579 Q1885.5 326.306 1885.5 332.884 Z" fill="#ffffff" fill-rule="nonzero" fill-opacity="1" /><path clip-path="url(#clip930)" d="M1947.95 332.431 Q1947.95 325.949 1945.26 322.384 Q1942.6 318.82 1937.77 318.82 Q1932.98 318.82 1930.29 322.384 Q1927.63 325.949 1927.63 332.431 Q1927.63 338.88 1930.29 342.445 Q1932.98 346.009 1937.77 346.009 Q1942.6 346.009 1945.26 342.445 Q1947.95 338.88 1947.95 332.431 M1953.91 346.495 Q1953.91 355.764 1949.8 360.269 Q1945.68 364.806 1937.19 364.806 Q1934.05 364.806 1931.26 364.319 Q1928.47 363.866 1925.85 362.894 L1925.85 357.093 Q1928.47 358.519 1931.03 359.199 Q1933.59 359.88 1936.25 359.88 Q1942.11 359.88 1945.03 356.801 Q1947.95 353.755 1947.95 347.565 L1947.95 344.616 Q1946.1 347.824 1943.22 349.412 Q1940.33 351 1936.31 351 Q1929.64 351 1925.55 345.912 Q1921.47 340.824 1921.47 332.431 Q1921.47 324.005 1925.55 318.917 Q1929.64 313.829 1936.31 313.829 Q1940.33 313.829 1943.22 315.417 Q1946.1 317.005 1947.95 320.213 L1947.95 314.704 L1953.91 314.704 L1953.91 346.495 Z" fill="#ffffff" fill-rule="nonzero" fill-opacity="1" /><path clip-path="url(#clip930)" d="M1997.24 331.361 L1997.24 334.278 L1969.82 334.278 Q1970.21 340.435 1973.52 343.676 Q1976.86 346.884 1982.79 346.884 Q1986.22 346.884 1989.43 346.042 Q1992.67 345.199 1995.85 343.514 L1995.85 349.153 Q1992.64 350.514 1989.27 351.227 Q1985.9 351.94 1982.43 351.94 Q1973.74 351.94 1968.66 346.884 Q1963.6 341.829 1963.6 333.208 Q1963.6 324.297 1968.4 319.079 Q1973.23 313.829 1981.39 313.829 Q1988.72 313.829 1992.96 318.56 Q1997.24 323.259 1997.24 331.361 M1991.28 329.611 Q1991.21 324.718 1988.52 321.801 Q1985.86 318.884 1981.46 318.884 Q1976.47 318.884 1973.45 321.704 Q1970.47 324.523 1970.02 329.644 L1991.28 329.611 Z" fill="#ffffff" fill-rule="nonzero" fill-opacity="1" /><path clip-path="url(#clip930)" d="M2051.26 315.773 L2051.26 321.412 Q2048.73 320.116 2046.01 319.468 Q2043.29 318.82 2040.37 318.82 Q2035.93 318.82 2033.7 320.181 Q2031.49 321.542 2031.49 324.264 Q2031.49 326.338 2033.08 327.537 Q2034.67 328.704 2039.47 329.773 L2041.51 330.227 Q2047.86 331.588 2050.52 334.083 Q2053.21 336.546 2053.21 340.986 Q2053.21 346.042 2049.19 348.991 Q2045.2 351.94 2038.2 351.94 Q2035.29 351.94 2032.11 351.357 Q2028.97 350.806 2025.47 349.671 L2025.47 343.514 Q2028.77 345.232 2031.98 346.107 Q2035.19 346.949 2038.33 346.949 Q2042.54 346.949 2044.81 345.523 Q2047.08 344.065 2047.08 341.44 Q2047.08 339.009 2045.43 337.713 Q2043.81 336.417 2038.27 335.218 L2036.19 334.732 Q2030.65 333.565 2028.19 331.167 Q2025.73 328.736 2025.73 324.523 Q2025.73 319.403 2029.35 316.616 Q2032.98 313.829 2039.66 313.829 Q2042.97 313.829 2045.88 314.315 Q2048.8 314.801 2051.26 315.773 Z" fill="#ffffff" fill-rule="nonzero" fill-opacity="1" /><path clip-path="url(#clip930)" d="M2068.6 304.398 L2068.6 314.704 L2080.88 314.704 L2080.88 319.338 L2068.6 319.338 L2068.6 339.042 Q2068.6 343.482 2069.8 344.745 Q2071.03 346.009 2074.76 346.009 L2080.88 346.009 L2080.88 351 L2074.76 351 Q2067.85 351 2065.23 348.44 Q2062.6 345.847 2062.6 339.042 L2062.6 319.338 L2058.23 319.338 L2058.23 314.704 L2062.6 314.704 L2062.6 304.398 L2068.6 304.398 Z" fill="#ffffff" fill-rule="nonzero" fill-opacity="1" /><path clip-path="url(#clip930)" d="M2105.22 332.755 Q2097.99 332.755 2095.21 334.408 Q2092.42 336.06 2092.42 340.046 Q2092.42 343.222 2094.49 345.102 Q2096.6 346.949 2100.2 346.949 Q2105.16 346.949 2108.14 343.449 Q2111.15 339.917 2111.15 334.083 L2111.15 332.755 L2105.22 332.755 M2117.11 330.292 L2117.11 351 L2111.15 351 L2111.15 345.491 Q2109.11 348.796 2106.06 350.384 Q2103.02 351.94 2098.61 351.94 Q2093.04 351.94 2089.73 348.829 Q2086.46 345.685 2086.46 340.435 Q2086.46 334.31 2090.54 331.199 Q2094.66 328.088 2102.79 328.088 L2111.15 328.088 L2111.15 327.505 Q2111.15 323.389 2108.43 321.153 Q2105.74 318.884 2100.85 318.884 Q2097.73 318.884 2094.79 319.63 Q2091.84 320.375 2089.11 321.866 L2089.11 316.357 Q2092.39 315.093 2095.47 314.477 Q2098.54 313.829 2101.46 313.829 Q2109.34 313.829 2113.22 317.912 Q2117.11 321.996 2117.11 330.292 Z" fill="#ffffff" fill-rule="nonzero" fill-opacity="1" /><path clip-path="url(#clip930)" d="M2135.29 304.398 L2135.29 314.704 L2147.58 314.704 L2147.58 319.338 L2135.29 319.338 L2135.29 339.042 Q2135.29 343.482 2136.49 344.745 Q2137.72 346.009 2141.45 346.009 L2147.58 346.009 L2147.58 351 L2141.45 351 Q2134.55 351 2131.92 348.44 Q2129.3 345.847 2129.3 339.042 L2129.3 319.338 L2124.92 319.338 L2124.92 314.704 L2129.3 314.704 L2129.3 304.398 L2135.29 304.398 Z" fill="#ffffff" fill-rule="nonzero" fill-opacity="1" /><path clip-path="url(#clip930)" d="M2186.47 331.361 L2186.47 334.278 L2159.05 334.278 Q2159.44 340.435 2162.74 343.676 Q2166.08 346.884 2172.01 346.884 Q2175.45 346.884 2178.66 346.042 Q2181.9 345.199 2185.07 343.514 L2185.07 349.153 Q2181.86 350.514 2178.49 351.227 Q2175.12 351.94 2171.66 351.94 Q2162.97 351.94 2157.88 346.884 Q2152.83 341.829 2152.83 333.208 Q2152.83 324.297 2157.62 319.079 Q2162.45 313.829 2170.62 313.829 Q2177.94 313.829 2182.19 318.56 Q2186.47 323.259 2186.47 331.361 M2180.5 329.611 Q2180.44 324.718 2177.75 321.801 Q2175.09 318.884 2170.68 318.884 Q2165.69 318.884 2162.68 321.704 Q2159.7 324.523 2159.24 329.644 L2180.5 329.611 Z" fill="#ffffff" fill-rule="nonzero" fill-opacity="1" /></svg>
