<?xml version="1.0" encoding="UTF-8" standalone="no"?>
<!-- Created with Inkscape (http://www.inkscape.org/) -->

<svg
   width="149.2942mm"
   height="97.338303mm"
   viewBox="0 0 149.2942 97.338315"
   version="1.1"
   id="svg1"
   xml:space="preserve"
   inkscape:version="1.3.2 (091e20ef0f, 2023-11-25, custom)"
   sodipodi:docname="cover.svg"
   xmlns:inkscape="http://www.inkscape.org/namespaces/inkscape"
   xmlns:sodipodi="http://sodipodi.sourceforge.net/DTD/sodipodi-0.dtd"
   xmlns="http://www.w3.org/2000/svg"
   xmlns:svg="http://www.w3.org/2000/svg"><sodipodi:namedview
     id="namedview1"
     pagecolor="#ffffff"
     bordercolor="#000000"
     borderopacity="0.25"
     inkscape:showpageshadow="2"
     inkscape:pageopacity="0.0"
     inkscape:pagecheckerboard="0"
     inkscape:deskcolor="#d1d1d1"
     inkscape:document-units="mm"
     showgrid="false"
     inkscape:zoom="1.0159513"
     inkscape:cx="189.96974"
     inkscape:cy="156.01142"
     inkscape:window-width="1914"
     inkscape:window-height="1044"
     inkscape:window-x="0"
     inkscape:window-y="30"
     inkscape:window-maximized="1"
     inkscape:current-layer="layer1" /><defs
     id="defs1"><clipPath
       id="clip580"><rect
         x="0"
         y="0"
         width="2400"
         height="1600"
         id="rect1" /></clipPath><clipPath
       id="clip581"><rect
         x="480"
         y="0"
         width="1681"
         height="1600"
         id="rect2" /></clipPath><clipPath
       id="clip582"><rect
         x="388"
         y="22"
         width="1991"
         height="1330"
         id="rect3" /></clipPath><clipPath
       id="clip850"><rect
         x="0"
         y="0"
         width="2400"
         height="1600"
         id="rect1-9" /></clipPath><clipPath
       id="clip851"><rect
         x="480"
         y="0"
         width="1681"
         height="1600"
         id="rect2-3" /></clipPath><clipPath
       id="clip852"><rect
         x="246"
         y="0"
         width="2154"
         height="1345"
         id="rect3-7" /></clipPath></defs><g
     inkscape:label="Layer 1"
     inkscape:groupmode="layer"
     id="layer1"
     transform="translate(-68.448553,-66.658834)"><g
       id="g1"
       style="mix-blend-mode:normal"><path
         clip-path="url(#clip850)"
         d="M 0,1600 H 2400 V 0 H 0 Z"
         fill="#363d46"
         fill-rule="evenodd"
         fill-opacity="1"
         id="path1"
         transform="matrix(0.06220592,0,0,0.06083644,68.448553,66.658834)" /><path
         clip-path="url(#clip850)"
         d="M 246.83,1344.08 H 2400 V 0 H 246.83 Z"
         fill="#30343b"
         fill-rule="evenodd"
         fill-opacity="1"
         id="path2"
         transform="matrix(0.06614583,0,0,0.06614583,58.992765,66.658834)" /><polyline
         clip-path="url(#clip852)"
         style="fill:none;stroke:#adb2b7;stroke-width:3;stroke-linecap:round;stroke-linejoin:round;stroke-opacity:0.1"
         points="510.898,1344.08 510.898,0 "
         id="polyline3"
         transform="matrix(0.06614583,0,0,0.06614583,58.992765,66.658834)" /><polyline
         clip-path="url(#clip852)"
         style="fill:none;stroke:#adb2b7;stroke-width:3;stroke-linecap:round;stroke-linejoin:round;stroke-opacity:0.1"
         points="917.157,1344.08 917.157,0 "
         id="polyline4"
         transform="matrix(0.06614583,0,0,0.06614583,58.992765,66.658834)" /><polyline
         clip-path="url(#clip852)"
         style="fill:none;stroke:#adb2b7;stroke-width:3;stroke-linecap:round;stroke-linejoin:round;stroke-opacity:0.1"
         points="1323.42,1344.08 1323.42,0 "
         id="polyline5"
         transform="matrix(0.06614583,0,0,0.06614583,58.992765,66.658834)" /><polyline
         clip-path="url(#clip852)"
         style="fill:none;stroke:#adb2b7;stroke-width:3;stroke-linecap:round;stroke-linejoin:round;stroke-opacity:0.1"
         points="1729.67,1344.08 1729.67,0 "
         id="polyline6"
         transform="matrix(0.06614583,0,0,0.06614583,58.992765,66.658834)" /><polyline
         clip-path="url(#clip852)"
         style="fill:none;stroke:#adb2b7;stroke-width:3;stroke-linecap:round;stroke-linejoin:round;stroke-opacity:0.1"
         points="2135.93,1344.08 2135.93,0 "
         id="polyline7"
         transform="matrix(0.06614583,0,0,0.06614583,58.992765,66.658834)" /><polyline
         clip-path="url(#clip850)"
         style="fill:none;stroke:#adb2b7;stroke-width:6;stroke-linecap:round;stroke-linejoin:round;stroke-opacity:1"
         points="246.83,1344.08 2400,1344.08 "
         id="polyline8"
         transform="matrix(0.06614583,0,0,0.06614583,58.992765,66.658834)" /><polyline
         clip-path="url(#clip850)"
         style="fill:none;stroke:#adb2b7;stroke-width:6;stroke-linecap:round;stroke-linejoin:round;stroke-opacity:1"
         points="510.898,1344.08 510.898,1325.18 "
         id="polyline9"
         transform="matrix(0.06614583,0,0,0.06614583,58.992765,66.658834)" /><polyline
         clip-path="url(#clip850)"
         style="fill:none;stroke:#adb2b7;stroke-width:6;stroke-linecap:round;stroke-linejoin:round;stroke-opacity:1"
         points="917.157,1344.08 917.157,1325.18 "
         id="polyline10"
         transform="matrix(0.06614583,0,0,0.06614583,58.992765,66.658834)" /><polyline
         clip-path="url(#clip850)"
         style="fill:none;stroke:#adb2b7;stroke-width:6;stroke-linecap:round;stroke-linejoin:round;stroke-opacity:1"
         points="1323.42,1344.08 1323.42,1325.18 "
         id="polyline11"
         transform="matrix(0.06614583,0,0,0.06614583,58.992765,66.658834)" /><polyline
         clip-path="url(#clip850)"
         style="fill:none;stroke:#adb2b7;stroke-width:6;stroke-linecap:round;stroke-linejoin:round;stroke-opacity:1"
         points="1729.67,1344.08 1729.67,1325.18 "
         id="polyline12"
         transform="matrix(0.06614583,0,0,0.06614583,58.992765,66.658834)" /><polyline
         clip-path="url(#clip850)"
         style="fill:none;stroke:#adb2b7;stroke-width:6;stroke-linecap:round;stroke-linejoin:round;stroke-opacity:1"
         points="2135.93,1344.08 2135.93,1325.18 "
         id="polyline13"
         transform="matrix(0.06614583,0,0,0.06614583,58.992765,66.658834)" /><path
         clip-path="url(#clip850)"
         d="m 465.812,1402.83 h 44.514 v 5.91 h -44.514 z"
         fill="#ffffff"
         fill-rule="nonzero"
         fill-opacity="1"
         id="path13"
         transform="matrix(0.06614583,0,0,0.06614583,58.992765,66.658834)" /><path
         clip-path="url(#clip850)"
         d="m 531.506,1422.17 h 24.479 v 5.91 h -32.917 v -5.91 q 3.994,-4.13 10.868,-11.07 6.91,-6.98 8.681,-9 3.368,-3.78 4.687,-6.39 1.355,-2.63 1.355,-5.17 0,-4.13 -2.917,-6.73 -2.882,-2.61 -7.535,-2.61 -3.298,0 -6.979,1.15 -3.646,1.14 -7.812,3.47 v -7.08 q 4.236,-1.71 7.916,-2.57 3.681,-0.87 6.736,-0.87 8.056,0 12.848,4.03 4.791,4.02 4.791,10.76 0,3.19 -1.215,6.08 -1.181,2.84 -4.34,6.73 -0.868,1.01 -5.521,5.84 -4.653,4.79 -13.125,13.43 z"
         fill="#ffffff"
         fill-rule="nonzero"
         fill-opacity="1"
         id="path14"
         transform="matrix(0.06614583,0,0,0.06614583,58.992765,66.658834)" /><path
         clip-path="url(#clip850)"
         d="m 871.792,1402.83 h 44.514 v 5.91 h -44.514 z"
         fill="#ffffff"
         fill-rule="nonzero"
         fill-opacity="1"
         id="path15"
         transform="matrix(0.06614583,0,0,0.06614583,58.992765,66.658834)" /><path
         clip-path="url(#clip850)"
         d="m 932.66,1422.17 h 11.458 v -39.55 l -12.465,2.5 v -6.38 l 12.396,-2.5 h 7.014 v 45.93 h 11.458 v 5.91 H 932.66 Z"
         fill="#ffffff"
         fill-rule="nonzero"
         fill-opacity="1"
         id="path16"
         transform="matrix(0.06614583,0,0,0.06614583,58.992765,66.658834)" /><path
         clip-path="url(#clip850)"
         d="m 1323.42,1380.85 q -5.42,0 -8.16,5.35 -2.71,5.31 -2.71,16.01 0,10.66 2.71,16 2.74,5.32 8.16,5.32 5.45,0 8.15,-5.32 2.75,-5.34 2.75,-16 0,-10.7 -2.75,-16.01 -2.7,-5.35 -8.15,-5.35 m 0,-5.55 q 8.71,0 13.29,6.91 4.62,6.87 4.62,20 0,13.09 -4.62,20 -4.58,6.87 -13.29,6.87 -8.72,0 -13.34,-6.87 -4.58,-6.91 -4.58,-20 0,-13.13 4.58,-20 4.62,-6.91 13.34,-6.91 z"
         fill="#ffffff"
         fill-rule="nonzero"
         fill-opacity="1"
         id="path17"
         transform="matrix(0.06614583,0,0,0.06614583,58.992765,66.658834)" /><path
         clip-path="url(#clip850)"
         d="m 1715.25,1422.17 h 11.45 v -39.55 l -12.46,2.5 v -6.38 l 12.4,-2.5 h 7.01 v 45.93 h 11.46 v 5.91 h -29.86 z"
         fill="#ffffff"
         fill-rule="nonzero"
         fill-opacity="1"
         id="path18"
         transform="matrix(0.06614583,0,0,0.06614583,58.992765,66.658834)" /><path
         clip-path="url(#clip850)"
         d="m 2127.91,1422.17 h 24.48 v 5.91 h -32.92 v -5.91 q 4,-4.13 10.87,-11.07 6.91,-6.98 8.68,-9 3.37,-3.78 4.69,-6.39 1.35,-2.63 1.35,-5.17 0,-4.13 -2.91,-6.73 -2.88,-2.61 -7.54,-2.61 -3.3,0 -6.98,1.15 -3.64,1.14 -7.81,3.47 v -7.08 q 4.24,-1.71 7.92,-2.57 3.68,-0.87 6.73,-0.87 8.06,0 12.85,4.03 4.79,4.02 4.79,10.76 0,3.19 -1.21,6.08 -1.18,2.84 -4.34,6.73 -0.87,1.01 -5.52,5.84 -4.66,4.79 -13.13,13.43 z"
         fill="#ffffff"
         fill-rule="nonzero"
         fill-opacity="1"
         id="path19"
         transform="matrix(0.06614583,0,0,0.06614583,58.992765,66.658834)" /><polyline
         clip-path="url(#clip852)"
         style="fill:none;stroke:#adb2b7;stroke-width:3;stroke-linecap:round;stroke-linejoin:round;stroke-opacity:0.1"
         points="246.83,1307.48 2400,1307.48 "
         id="polyline29"
         transform="matrix(0.06614583,0,0,0.06614583,58.992765,66.658834)" /><polyline
         clip-path="url(#clip852)"
         style="fill:none;stroke:#adb2b7;stroke-width:3;stroke-linecap:round;stroke-linejoin:round;stroke-opacity:0.1"
         points="246.83,1044.21 2400,1044.21 "
         id="polyline30"
         transform="matrix(0.06614583,0,0,0.06614583,58.992765,66.658834)" /><polyline
         clip-path="url(#clip852)"
         style="fill:none;stroke:#adb2b7;stroke-width:3;stroke-linecap:round;stroke-linejoin:round;stroke-opacity:0.1"
         points="246.83,780.938 2400,780.938 "
         id="polyline31"
         transform="matrix(0.06614583,0,0,0.06614583,58.992765,66.658834)" /><polyline
         clip-path="url(#clip852)"
         style="fill:none;stroke:#adb2b7;stroke-width:3;stroke-linecap:round;stroke-linejoin:round;stroke-opacity:0.1"
         points="246.83,517.665 2400,517.665 "
         id="polyline32"
         transform="matrix(0.06614583,0,0,0.06614583,58.992765,66.658834)" /><polyline
         clip-path="url(#clip852)"
         style="fill:none;stroke:#adb2b7;stroke-width:3;stroke-linecap:round;stroke-linejoin:round;stroke-opacity:0.1"
         points="246.83,254.392 2400,254.392 "
         id="polyline33"
         transform="matrix(0.06614583,0,0,0.06614583,58.992765,66.658834)" /><polyline
         clip-path="url(#clip850)"
         style="fill:none;stroke:#adb2b7;stroke-width:6;stroke-linecap:round;stroke-linejoin:round;stroke-opacity:1"
         points="246.83,1344.08 246.83,0 "
         id="polyline34"
         transform="matrix(0.06614583,0,0,0.06614583,58.992765,66.658834)" /><polyline
         clip-path="url(#clip850)"
         style="fill:none;stroke:#adb2b7;stroke-width:6;stroke-linecap:round;stroke-linejoin:round;stroke-opacity:1"
         points="246.83,1307.48 265.728,1307.48 "
         id="polyline35"
         transform="matrix(0.06614583,0,0,0.06614583,58.992765,66.658834)" /><polyline
         clip-path="url(#clip850)"
         style="fill:none;stroke:#adb2b7;stroke-width:6;stroke-linecap:round;stroke-linejoin:round;stroke-opacity:1"
         points="246.83,1044.21 265.728,1044.21 "
         id="polyline36"
         transform="matrix(0.06614583,0,0,0.06614583,58.992765,66.658834)" /><polyline
         clip-path="url(#clip850)"
         style="fill:none;stroke:#adb2b7;stroke-width:6;stroke-linecap:round;stroke-linejoin:round;stroke-opacity:1"
         points="246.83,780.938 265.728,780.938 "
         id="polyline37"
         transform="matrix(0.06614583,0,0,0.06614583,58.992765,66.658834)" /><polyline
         clip-path="url(#clip850)"
         style="fill:none;stroke:#adb2b7;stroke-width:6;stroke-linecap:round;stroke-linejoin:round;stroke-opacity:1"
         points="246.83,517.665 265.728,517.665 "
         id="polyline38"
         transform="matrix(0.06614583,0,0,0.06614583,58.992765,66.658834)" /><polyline
         clip-path="url(#clip850)"
         style="fill:none;stroke:#adb2b7;stroke-width:6;stroke-linecap:round;stroke-linejoin:round;stroke-opacity:1"
         points="246.83,254.392 265.728,254.392 "
         id="polyline39"
         transform="matrix(0.06614583,0,0,0.06614583,58.992765,66.658834)" /><path
         clip-path="url(#clip850)"
         d="m 192.914,1286.18 q -5.417,0 -8.16,5.35 -2.708,5.31 -2.708,16.01 0,10.66 2.708,16 2.743,5.32 8.16,5.32 5.451,0 8.16,-5.32 2.743,-5.34 2.743,-16 0,-10.7 -2.743,-16.01 -2.709,-5.35 -8.16,-5.35 m 0,-5.55 q 8.715,0 13.298,6.91 4.618,6.87 4.618,20 0,13.09 -4.618,20 -4.583,6.87 -13.298,6.87 -8.715,0 -13.333,-6.87 -4.584,-6.91 -4.584,-20 0,-13.13 4.584,-20 4.618,-6.91 13.333,-6.91 z"
         fill="#ffffff"
         fill-rule="nonzero"
         fill-opacity="1"
         id="path39"
         transform="matrix(0.06614583,0,0,0.06614583,58.992765,66.658834)" /><path
         clip-path="url(#clip850)"
         d="m 180.97,1064.23 h 11.458 v -39.55 l -12.465,2.5 v -6.39 l 12.395,-2.5 h 7.014 v 45.94 h 11.458 v 5.9 h -29.86 z"
         fill="#ffffff"
         fill-rule="nonzero"
         fill-opacity="1"
         id="path40"
         transform="matrix(0.06614583,0,0,0.06614583,58.992765,66.658834)" /><path
         clip-path="url(#clip850)"
         d="m 186.351,800.955 h 24.479 v 5.903 h -32.916 v -5.903 q 3.993,-4.131 10.868,-11.076 6.91,-6.979 8.68,-8.993 3.369,-3.785 4.688,-6.389 1.354,-2.639 1.354,-5.173 0,-4.132 -2.917,-6.736 -2.881,-2.605 -7.534,-2.605 -3.299,0 -6.979,1.146 -3.646,1.146 -7.813,3.472 v -7.083 q 4.236,-1.701 7.917,-2.569 3.68,-0.868 6.736,-0.868 8.055,0 12.847,4.027 4.792,4.028 4.792,10.764 0,3.195 -1.216,6.077 -1.18,2.847 -4.34,6.736 -0.868,1.007 -5.521,5.833 -4.652,4.792 -13.125,13.437 z"
         fill="#ffffff"
         fill-rule="nonzero"
         fill-opacity="1"
         id="path41"
         transform="matrix(0.06614583,0,0,0.06614583,58.992765,66.658834)" /><path
         clip-path="url(#clip850)"
         d="m 200.136,515.634 q 5.035,1.076 7.847,4.479 2.847,3.403 2.847,8.403 0,7.673 -5.277,11.874 -5.278,4.202 -15,4.202 -3.264,0 -6.736,-0.66 -3.438,-0.625 -7.118,-1.91 v -6.77 q 2.916,1.701 6.389,2.569 3.472,0.868 7.256,0.868 6.598,0 10.035,-2.604 3.472,-2.604 3.472,-7.569 0,-4.584 -3.229,-7.153 -3.194,-2.604 -8.923,-2.604 h -6.042 v -5.764 h 6.319 q 5.174,0 7.917,-2.049 2.743,-2.083 2.743,-5.972 0,-3.993 -2.847,-6.111 -2.813,-2.153 -8.09,-2.153 -2.882,0 -6.181,0.625 -3.299,0.625 -7.257,1.945 v -6.25 q 3.993,-1.111 7.465,-1.667 3.507,-0.556 6.598,-0.556 7.986,0 12.638,3.646 4.653,3.611 4.653,9.792 0,4.305 -2.465,7.291 -2.465,2.952 -7.014,4.098 z"
         fill="#ffffff"
         fill-rule="nonzero"
         fill-opacity="1"
         id="path42"
         transform="matrix(0.06614583,0,0,0.06614583,58.992765,66.658834)" /><path
         clip-path="url(#clip850)"
         d="m 196.456,234.583 -17.709,27.673 h 17.709 v -27.673 m -1.841,-6.111 h 8.82 v 33.784 h 7.395 v 5.833 h -7.395 v 12.223 h -6.979 v -12.223 h -23.403 v -6.77 z"
         fill="#ffffff"
         fill-rule="nonzero"
         fill-opacity="1"
         id="path43"
         transform="matrix(0.06614583,0,0,0.06614583,58.992765,66.658834)" /><polyline
         clip-path="url(#clip852)"
         style="fill:none;stroke:#fe4365;stroke-width:12;stroke-linecap:round;stroke-linejoin:round;stroke-opacity:1"
         points="307.769,1305.54 311.832,1305.48 315.894,1305.42 319.957,1305.36 324.02,1305.29 328.082,1305.22 332.145,1305.14 336.207,1305.06 340.27,1304.97 344.332,1304.88 348.395,1304.79 352.458,1304.68 356.52,1304.57 360.583,1304.46 364.645,1304.33 368.708,1304.2 372.771,1304.06 376.833,1303.9 380.896,1303.74 384.958,1303.56 389.021,1303.36 393.083,1303.15 397.146,1302.92 401.209,1302.67 405.271,1302.39 409.334,1302.09 413.396,1301.75 417.459,1301.38 421.522,1300.97 425.584,1300.5 429.647,1299.98 433.709,1299.39 437.772,1298.71 441.834,1297.94 445.897,1297.05 449.96,1296 454.022,1294.76 458.085,1293.29 462.147,1291.51 466.21,1289.31 470.273,1286.56 474.335,1283.04 478.398,1278.41 482.46,1272.12 486.523,1263.18 490.586,1249.8 494.648,1228.2 498.711,1189.55 502.773,1109.24 506.836,902.476 510.898,298.951 514.961,132.79 519.024,752.037 523.086,893.207 527.149,698.668 531.211,38.0399 535.274,421.098 539.337,930.621 543.399,1090.49 547.462,1132.37 551.524,1154.01 555.587,1150.12 559.649,1088.18 563.712,886.591 567.775,282.198 571.837,285.898 575.9,896.169 579.962,1105.47 584.025,1179.28 588.088,1204.71 592.15,1194.93 596.213,1180.17 600.275,1216.51 604.338,1223.94 608.4,1209.83 612.463,1168.71 616.526,1062.04 620.588,739.198 624.651,102.891 628.713,638.08 632.776,1032.56 636.839,1162.01 640.901,1212.76 644.964,1234.54 649.026,1240.21 653.089,1225.89 657.151,1168.98 661.214,1183.05 665.277,1235.8 669.339,1250.15 673.402,1249.41 677.464,1238.5 681.527,1212.98 685.59,1154.97 689.652,1001.2 693.715,531.856 697.777,249.24 701.84,870.35 705.902,1112.66 709.965,1197.29 714.028,1233.32 718.09,1250.3 722.153,1257.25 726.215,1255.76 730.278,1239.81 734.341,1181.63 738.403,1104.76 742.466,1201.45 746.528,1248.17 750.591,1261.97 754.653,1264.58 758.716,1260.93 762.779,1250.72 766.841,1229.59 770.904,1184.28 774.966,1070.77 779.029,725.982 783.092,231.984 787.154,795.834 791.217,1093.48 795.279,1193.24 799.342,1234.28 803.404,1253.88 807.467,1263.62 811.53,1267.44 815.592,1265.94 819.655,1256.2 823.717,1225.55 827.78,1127.58 831.843,1050.6 835.905,1189.88 839.968,1246.48 844.03,1265.01 848.093,1271.32 852.155,1272.08 856.218,1268.81 860.281,1260.87 864.343,1245.17 868.406,1213.17 872.468,1138.57 876.531,924.753 880.594,382.248 884.656,641.449 888.719,1046.28 892.781,1179.24 896.844,1230.17 900.906,1253.63 904.969,1265.55 909.032,1271.51 913.094,1273.49 917.157,1271.63 921.219,1264.05 925.282,1243.78 929.345,1184.96 933.407,1015.37 937.47,1034.38 941.532,1193.88 945.595,1247.54 949.657,1266.67 953.72,1274.3 957.783,1276.79 961.845,1276.03 965.908,1272.19 969.97,1264.15 974.033,1248.67 978.096,1217.03 982.158,1142.04 986.221,922.971 990.283,424.48 994.346,754.552 998.409,1087.8 1002.47,1196.92 1006.53,1239.64 1010.6,1259.62 1014.66,1269.89 1018.72,1275.11 1022.78,1277.04 1026.85,1276.05 1030.91,1271.31 1034.97,1259.74 1039.03,1231.6 1043.1,1151.19 1047.16,928.31 1051.22,984.073 1055.28,1176.5 1059.35,1240.46 1063.41,1263.99 1067.47,1274.1 1071.54,1278.46 1075.6,1279.61 1079.66,1278.27 1083.72,1274.18 1087.79,1266.03 1091.85,1250.31 1095.91,1217.5 1099.97,1136.92 1104.04,894.449 1108.1,486.874 1112.16,891.42 1116.22,1135.91 1120.29,1217.06 1124.35,1250.03 1128.41,1265.77 1132.47,1273.9 1136.54,1277.92 1140.6,1279.17 1144.66,1277.92 1148.72,1273.49 1152.79,1263.61 1156.85,1241.71 1160.91,1186.04 1164.97,1016.11 1169.04,780.613 1173.1,1056.9 1177.16,1199.33 1181.22,1247 1185.29,1266.44 1189.35,1275.48 1193.41,1279.7 1197.48,1281.07 1201.54,1280.21 1205.6,1276.94 1209.66,1270.15 1213.73,1256.94 1217.79,1229.43 1221.85,1162.56 1225.91,962.96 1229.98,586.037 1234.04,917.598 1238.1,1147.96 1242.16,1223.85 1246.23,1254.23 1250.29,1268.54 1254.35,1275.79 1258.41,1279.24 1262.48,1280.12 1266.54,1278.69 1270.6,1274.36 1274.66,1265.29 1278.73,1246.42 1282.79,1202.4 1286.85,1077.14 1290.91,744.61 1294.98,868.422 1299.04,1133.88 1303.1,1221.49 1307.16,1254.55 1311.23,1269.51 1315.29,1276.93 1319.35,1280.49 1323.42,1281.55 1327.48,1280.49 1331.54,1276.93 1335.6,1269.51 1339.67,1254.55 1343.73,1221.49 1347.79,1133.88 1351.85,868.427 1355.92,744.615 1359.98,1077.15 1364.04,1202.4 1368.1,1246.43 1372.17,1265.3 1376.23,1274.37 1380.29,1278.7 1384.35,1280.13 1388.42,1279.25 1392.48,1275.8 1396.54,1268.55 1400.6,1254.24 1404.67,1223.86 1408.73,1147.97 1412.79,917.613 1416.85,586.052 1420.92,962.976 1424.98,1162.58 1429.04,1229.44 1433.1,1256.95 1437.17,1270.17 1441.23,1276.96 1445.29,1280.23 1449.36,1281.09 1453.42,1279.72 1457.48,1275.5 1461.54,1266.46 1465.61,1247.02 1469.67,1199.35 1473.73,1056.92 1477.79,780.64 1481.86,1016.13 1485.92,1186.07 1489.98,1241.74 1494.04,1263.64 1498.11,1273.52 1502.17,1277.95 1506.23,1279.2 1510.29,1277.95 1514.36,1273.93 1518.42,1265.81 1522.48,1250.06 1526.54,1217.09 1530.61,1135.95 1534.67,891.459 1538.73,486.914 1542.79,894.49 1546.86,1136.96 1550.92,1217.54 1554.98,1250.36 1559.05,1266.08 1563.11,1274.23 1567.17,1278.31 1571.23,1279.66 1575.3,1278.51 1579.36,1274.15 1583.42,1264.04 1587.48,1240.52 1591.55,1176.55 1595.61,984.128 1599.67,928.366 1603.73,1151.25 1607.8,1231.65 1611.86,1259.8 1615.92,1271.37 1619.98,1276.12 1624.05,1277.1 1628.11,1275.18 1632.17,1269.96 1636.23,1259.69 1640.3,1239.71 1644.36,1196.99 1648.42,1087.87 1652.48,754.627 1656.55,424.557 1660.61,923.049 1664.67,1142.12 1668.73,1217.11 1672.8,1248.76 1676.86,1264.24 1680.92,1272.28 1684.99,1276.12 1689.05,1276.88 1693.11,1274.39 1697.17,1266.76 1701.24,1247.63 1705.3,1193.98 1709.36,1034.48 1713.42,1015.47 1717.49,1185.07 1721.55,1243.89 1725.61,1264.16 1729.67,1271.75 1733.74,1273.6 1737.8,1271.63 1741.86,1265.68 1745.92,1253.76 1749.99,1230.3 1754.05,1179.37 1758.11,1046.41 1762.17,641.589 1766.24,382.391 1770.3,924.9 1774.36,1138.72 1778.42,1213.33 1782.49,1245.33 1786.55,1261.03 1790.61,1268.98 1794.67,1272.25 1798.74,1271.5 1802.8,1265.19 1806.86,1246.66 1810.93,1190.07 1814.99,1050.8 1819.05,1127.78 1823.11,1225.76 1827.18,1256.42 1831.24,1266.16 1835.3,1267.66 1839.36,1263.85 1843.43,1254.12 1847.49,1234.53 1851.55,1193.5 1855.61,1093.74 1859.68,796.105 1863.74,232.263 1867.8,726.27 1871.86,1071.07 1875.93,1184.58 1879.99,1229.91 1884.05,1251.04 1888.11,1261.27 1892.18,1264.93 1896.24,1262.34 1900.3,1248.55 1904.36,1201.84 1908.43,1105.17 1912.49,1182.05 1916.55,1240.25 1920.62,1256.21 1924.68,1257.72 1928.74,1250.79 1932.8,1233.84 1936.87,1197.82 1940.93,1113.22 1944.99,870.934 1949.05,249.851 1953.12,532.496 1957.18,1001.87 1961.24,1155.67 1965.3,1213.71 1969.37,1239.28 1973.43,1250.22 1977.49,1251.01 1981.55,1236.7 1985.62,1184.01 1989.68,1169.99 1993.74,1226.96 1997.8,1241.35 2001.87,1235.75 2005.93,1214.05 2009.99,1163.39 2014.05,1034.04 2018.12,639.657 2022.18,104.586 2026.24,741.024 2030.3,1064.01 2034.37,1170.85 2038.43,1212.16 2042.49,1226.47 2046.56,1219.29 2050.62,1183.23 2054.68,1198.32 2058.74,1208.47 2062.81,1183.49 2066.87,1110.21 2070.93,901.535 2074.99,292.033 2079.06,289.278 2083.12,894.851 2087.18,1097.94 2091.24,1161.83 2095.31,1168.31 2099.37,1150.23 2103.43,1113.4 2107.49,961.052 2111.56,463.41 2115.62,100.66 2119.68,800.036 2123.74,1081.14 2127.81,1179.91 2131.87,1228.17 2135.93,1252.82 2139.99,1266.98 2144.06,1275.95 2148.12,1282.03 2152.18,1286.37 2156.24,1289.6 2160.31,1292.07 2164.37,1294.01 2168.43,1295.57 2172.5,1296.84 2176.56,1297.9 2180.62,1298.79 2184.68,1299.54 2188.75,1300.19 2192.81,1300.76 2196.87,1301.25 2200.93,1301.68 2205,1302.07 2209.06,1302.41 2213.12,1302.72 2217.18,1302.99 2221.25,1303.24 2225.31,1303.47 2229.37,1303.67 2233.43,1303.86 2237.5,1304.04 2241.56,1304.2 2245.62,1304.34 2249.68,1304.48 2253.75,1304.61 2257.81,1304.72 2261.87,1304.83 2265.93,1304.94 2270,1305.03 2274.06,1305.12 2278.12,1305.2 2282.19,1305.28 2286.25,1305.36 2290.31,1305.43 2294.37,1305.49 2298.44,1305.56 2302.5,1305.62 2306.56,1305.67 2310.62,1305.73 2314.69,1305.78 2318.75,1305.83 2322.81,1305.87 2326.87,1305.92 2330.94,1305.96 2335,1306 2339.06,1306.04 "
         id="polyline60"
         transform="matrix(0.06614583,0,0,0.06614583,58.992765,66.658834)" /></g></g></svg>
